%TF.GenerationSoftware,KiCad,Pcbnew,9.0.2*%
%TF.CreationDate,2026-02-02T21:35:46+01:00*%
%TF.ProjectId,rubiks-cub,72756269-6b73-42d6-9375-622e6b696361,rev?*%
%TF.SameCoordinates,Original*%
%TF.FileFunction,Legend,Top*%
%TF.FilePolarity,Positive*%
%FSLAX46Y46*%
G04 Gerber Fmt 4.6, Leading zero omitted, Abs format (unit mm)*
G04 Created by KiCad (PCBNEW 9.0.2) date 2026-02-02 21:35:46*
%MOMM*%
%LPD*%
G01*
G04 APERTURE LIST*
%ADD10C,0.150000*%
%ADD11C,0.200000*%
%ADD12C,0.120000*%
%ADD13C,0.000000*%
G04 APERTURE END LIST*
D10*
X134190476Y-128454819D02*
X134190476Y-129169104D01*
X134190476Y-129169104D02*
X134142857Y-129311961D01*
X134142857Y-129311961D02*
X134047619Y-129407200D01*
X134047619Y-129407200D02*
X133904762Y-129454819D01*
X133904762Y-129454819D02*
X133809524Y-129454819D01*
X135190476Y-129454819D02*
X134619048Y-129454819D01*
X134904762Y-129454819D02*
X134904762Y-128454819D01*
X134904762Y-128454819D02*
X134809524Y-128597676D01*
X134809524Y-128597676D02*
X134714286Y-128692914D01*
X134714286Y-128692914D02*
X134619048Y-128740533D01*
X135571429Y-128550057D02*
X135619048Y-128502438D01*
X135619048Y-128502438D02*
X135714286Y-128454819D01*
X135714286Y-128454819D02*
X135952381Y-128454819D01*
X135952381Y-128454819D02*
X136047619Y-128502438D01*
X136047619Y-128502438D02*
X136095238Y-128550057D01*
X136095238Y-128550057D02*
X136142857Y-128645295D01*
X136142857Y-128645295D02*
X136142857Y-128740533D01*
X136142857Y-128740533D02*
X136095238Y-128883390D01*
X136095238Y-128883390D02*
X135523810Y-129454819D01*
X135523810Y-129454819D02*
X136142857Y-129454819D01*
D11*
X119929197Y-99336623D02*
X119929197Y-100348528D01*
X119929197Y-100348528D02*
X119988720Y-100467576D01*
X119988720Y-100467576D02*
X120048244Y-100527100D01*
X120048244Y-100527100D02*
X120167292Y-100586623D01*
X120167292Y-100586623D02*
X120405387Y-100586623D01*
X120405387Y-100586623D02*
X120524435Y-100527100D01*
X120524435Y-100527100D02*
X120583958Y-100467576D01*
X120583958Y-100467576D02*
X120643482Y-100348528D01*
X120643482Y-100348528D02*
X120643482Y-99336623D01*
X121179197Y-100229480D02*
X121774435Y-100229480D01*
X121060149Y-100586623D02*
X121476816Y-99336623D01*
X121476816Y-99336623D02*
X121893482Y-100586623D01*
X123024435Y-100586623D02*
X122607769Y-99991385D01*
X122310150Y-100586623D02*
X122310150Y-99336623D01*
X122310150Y-99336623D02*
X122786340Y-99336623D01*
X122786340Y-99336623D02*
X122905388Y-99396147D01*
X122905388Y-99396147D02*
X122964911Y-99455671D01*
X122964911Y-99455671D02*
X123024435Y-99574719D01*
X123024435Y-99574719D02*
X123024435Y-99753290D01*
X123024435Y-99753290D02*
X122964911Y-99872338D01*
X122964911Y-99872338D02*
X122905388Y-99931861D01*
X122905388Y-99931861D02*
X122786340Y-99991385D01*
X122786340Y-99991385D02*
X122310150Y-99991385D01*
X123381578Y-99336623D02*
X124095864Y-99336623D01*
X123738721Y-100586623D02*
X123738721Y-99336623D01*
X127429197Y-103860433D02*
X128381578Y-103860433D01*
X65833333Y-93602513D02*
X65880952Y-93554894D01*
X65880952Y-93554894D02*
X65976190Y-93507275D01*
X65976190Y-93507275D02*
X66214285Y-93507275D01*
X66214285Y-93507275D02*
X66309523Y-93554894D01*
X66309523Y-93554894D02*
X66357142Y-93602513D01*
X66357142Y-93602513D02*
X66404761Y-93697751D01*
X66404761Y-93697751D02*
X66404761Y-93792989D01*
X66404761Y-93792989D02*
X66357142Y-93935846D01*
X66357142Y-93935846D02*
X65785714Y-94507275D01*
X65785714Y-94507275D02*
X66404761Y-94507275D01*
X67023809Y-93507275D02*
X67119047Y-93507275D01*
X67119047Y-93507275D02*
X67214285Y-93554894D01*
X67214285Y-93554894D02*
X67261904Y-93602513D01*
X67261904Y-93602513D02*
X67309523Y-93697751D01*
X67309523Y-93697751D02*
X67357142Y-93888227D01*
X67357142Y-93888227D02*
X67357142Y-94126322D01*
X67357142Y-94126322D02*
X67309523Y-94316798D01*
X67309523Y-94316798D02*
X67261904Y-94412036D01*
X67261904Y-94412036D02*
X67214285Y-94459656D01*
X67214285Y-94459656D02*
X67119047Y-94507275D01*
X67119047Y-94507275D02*
X67023809Y-94507275D01*
X67023809Y-94507275D02*
X66928571Y-94459656D01*
X66928571Y-94459656D02*
X66880952Y-94412036D01*
X66880952Y-94412036D02*
X66833333Y-94316798D01*
X66833333Y-94316798D02*
X66785714Y-94126322D01*
X66785714Y-94126322D02*
X66785714Y-93888227D01*
X66785714Y-93888227D02*
X66833333Y-93697751D01*
X66833333Y-93697751D02*
X66880952Y-93602513D01*
X66880952Y-93602513D02*
X66928571Y-93554894D01*
X66928571Y-93554894D02*
X67023809Y-93507275D01*
X67738095Y-93602513D02*
X67785714Y-93554894D01*
X67785714Y-93554894D02*
X67880952Y-93507275D01*
X67880952Y-93507275D02*
X68119047Y-93507275D01*
X68119047Y-93507275D02*
X68214285Y-93554894D01*
X68214285Y-93554894D02*
X68261904Y-93602513D01*
X68261904Y-93602513D02*
X68309523Y-93697751D01*
X68309523Y-93697751D02*
X68309523Y-93792989D01*
X68309523Y-93792989D02*
X68261904Y-93935846D01*
X68261904Y-93935846D02*
X67690476Y-94507275D01*
X67690476Y-94507275D02*
X68309523Y-94507275D01*
X69214285Y-93507275D02*
X68738095Y-93507275D01*
X68738095Y-93507275D02*
X68690476Y-93983465D01*
X68690476Y-93983465D02*
X68738095Y-93935846D01*
X68738095Y-93935846D02*
X68833333Y-93888227D01*
X68833333Y-93888227D02*
X69071428Y-93888227D01*
X69071428Y-93888227D02*
X69166666Y-93935846D01*
X69166666Y-93935846D02*
X69214285Y-93983465D01*
X69214285Y-93983465D02*
X69261904Y-94078703D01*
X69261904Y-94078703D02*
X69261904Y-94316798D01*
X69261904Y-94316798D02*
X69214285Y-94412036D01*
X69214285Y-94412036D02*
X69166666Y-94459656D01*
X69166666Y-94459656D02*
X69071428Y-94507275D01*
X69071428Y-94507275D02*
X68833333Y-94507275D01*
X68833333Y-94507275D02*
X68738095Y-94459656D01*
X68738095Y-94459656D02*
X68690476Y-94412036D01*
X70404761Y-93459656D02*
X69547619Y-94745370D01*
X71261904Y-94507275D02*
X70690476Y-94507275D01*
X70976190Y-94507275D02*
X70976190Y-93507275D01*
X70976190Y-93507275D02*
X70880952Y-93650132D01*
X70880952Y-93650132D02*
X70785714Y-93745370D01*
X70785714Y-93745370D02*
X70690476Y-93792989D01*
X71642857Y-93602513D02*
X71690476Y-93554894D01*
X71690476Y-93554894D02*
X71785714Y-93507275D01*
X71785714Y-93507275D02*
X72023809Y-93507275D01*
X72023809Y-93507275D02*
X72119047Y-93554894D01*
X72119047Y-93554894D02*
X72166666Y-93602513D01*
X72166666Y-93602513D02*
X72214285Y-93697751D01*
X72214285Y-93697751D02*
X72214285Y-93792989D01*
X72214285Y-93792989D02*
X72166666Y-93935846D01*
X72166666Y-93935846D02*
X71595238Y-94507275D01*
X71595238Y-94507275D02*
X72214285Y-94507275D01*
X73357142Y-93459656D02*
X72500000Y-94745370D01*
X73642857Y-93602513D02*
X73690476Y-93554894D01*
X73690476Y-93554894D02*
X73785714Y-93507275D01*
X73785714Y-93507275D02*
X74023809Y-93507275D01*
X74023809Y-93507275D02*
X74119047Y-93554894D01*
X74119047Y-93554894D02*
X74166666Y-93602513D01*
X74166666Y-93602513D02*
X74214285Y-93697751D01*
X74214285Y-93697751D02*
X74214285Y-93792989D01*
X74214285Y-93792989D02*
X74166666Y-93935846D01*
X74166666Y-93935846D02*
X73595238Y-94507275D01*
X73595238Y-94507275D02*
X74214285Y-94507275D01*
X74547619Y-93507275D02*
X75166666Y-93507275D01*
X75166666Y-93507275D02*
X74833333Y-93888227D01*
X74833333Y-93888227D02*
X74976190Y-93888227D01*
X74976190Y-93888227D02*
X75071428Y-93935846D01*
X75071428Y-93935846D02*
X75119047Y-93983465D01*
X75119047Y-93983465D02*
X75166666Y-94078703D01*
X75166666Y-94078703D02*
X75166666Y-94316798D01*
X75166666Y-94316798D02*
X75119047Y-94412036D01*
X75119047Y-94412036D02*
X75071428Y-94459656D01*
X75071428Y-94459656D02*
X74976190Y-94507275D01*
X74976190Y-94507275D02*
X74690476Y-94507275D01*
X74690476Y-94507275D02*
X74595238Y-94459656D01*
X74595238Y-94459656D02*
X74547619Y-94412036D01*
X65880953Y-95117219D02*
X66214286Y-96117219D01*
X66214286Y-96117219D02*
X66547619Y-95117219D01*
X66880953Y-95593409D02*
X67214286Y-95593409D01*
X67357143Y-96117219D02*
X66880953Y-96117219D01*
X66880953Y-96117219D02*
X66880953Y-95117219D01*
X66880953Y-95117219D02*
X67357143Y-95117219D01*
X68357143Y-96117219D02*
X68023810Y-95641028D01*
X67785715Y-96117219D02*
X67785715Y-95117219D01*
X67785715Y-95117219D02*
X68166667Y-95117219D01*
X68166667Y-95117219D02*
X68261905Y-95164838D01*
X68261905Y-95164838D02*
X68309524Y-95212457D01*
X68309524Y-95212457D02*
X68357143Y-95307695D01*
X68357143Y-95307695D02*
X68357143Y-95450552D01*
X68357143Y-95450552D02*
X68309524Y-95545790D01*
X68309524Y-95545790D02*
X68261905Y-95593409D01*
X68261905Y-95593409D02*
X68166667Y-95641028D01*
X68166667Y-95641028D02*
X67785715Y-95641028D01*
X68738096Y-96069600D02*
X68880953Y-96117219D01*
X68880953Y-96117219D02*
X69119048Y-96117219D01*
X69119048Y-96117219D02*
X69214286Y-96069600D01*
X69214286Y-96069600D02*
X69261905Y-96021980D01*
X69261905Y-96021980D02*
X69309524Y-95926742D01*
X69309524Y-95926742D02*
X69309524Y-95831504D01*
X69309524Y-95831504D02*
X69261905Y-95736266D01*
X69261905Y-95736266D02*
X69214286Y-95688647D01*
X69214286Y-95688647D02*
X69119048Y-95641028D01*
X69119048Y-95641028D02*
X68928572Y-95593409D01*
X68928572Y-95593409D02*
X68833334Y-95545790D01*
X68833334Y-95545790D02*
X68785715Y-95498171D01*
X68785715Y-95498171D02*
X68738096Y-95402933D01*
X68738096Y-95402933D02*
X68738096Y-95307695D01*
X68738096Y-95307695D02*
X68785715Y-95212457D01*
X68785715Y-95212457D02*
X68833334Y-95164838D01*
X68833334Y-95164838D02*
X68928572Y-95117219D01*
X68928572Y-95117219D02*
X69166667Y-95117219D01*
X69166667Y-95117219D02*
X69309524Y-95164838D01*
X69738096Y-96117219D02*
X69738096Y-95117219D01*
X70404762Y-95117219D02*
X70595238Y-95117219D01*
X70595238Y-95117219D02*
X70690476Y-95164838D01*
X70690476Y-95164838D02*
X70785714Y-95260076D01*
X70785714Y-95260076D02*
X70833333Y-95450552D01*
X70833333Y-95450552D02*
X70833333Y-95783885D01*
X70833333Y-95783885D02*
X70785714Y-95974361D01*
X70785714Y-95974361D02*
X70690476Y-96069600D01*
X70690476Y-96069600D02*
X70595238Y-96117219D01*
X70595238Y-96117219D02*
X70404762Y-96117219D01*
X70404762Y-96117219D02*
X70309524Y-96069600D01*
X70309524Y-96069600D02*
X70214286Y-95974361D01*
X70214286Y-95974361D02*
X70166667Y-95783885D01*
X70166667Y-95783885D02*
X70166667Y-95450552D01*
X70166667Y-95450552D02*
X70214286Y-95260076D01*
X70214286Y-95260076D02*
X70309524Y-95164838D01*
X70309524Y-95164838D02*
X70404762Y-95117219D01*
X71261905Y-96117219D02*
X71261905Y-95117219D01*
X71261905Y-95117219D02*
X71833333Y-96117219D01*
X71833333Y-96117219D02*
X71833333Y-95117219D01*
X73595238Y-96117219D02*
X73023810Y-96117219D01*
X73309524Y-96117219D02*
X73309524Y-95117219D01*
X73309524Y-95117219D02*
X73214286Y-95260076D01*
X73214286Y-95260076D02*
X73119048Y-95355314D01*
X73119048Y-95355314D02*
X73023810Y-95402933D01*
X74023810Y-96021980D02*
X74071429Y-96069600D01*
X74071429Y-96069600D02*
X74023810Y-96117219D01*
X74023810Y-96117219D02*
X73976191Y-96069600D01*
X73976191Y-96069600D02*
X74023810Y-96021980D01*
X74023810Y-96021980D02*
X74023810Y-96117219D01*
X75023809Y-96117219D02*
X74452381Y-96117219D01*
X74738095Y-96117219D02*
X74738095Y-95117219D01*
X74738095Y-95117219D02*
X74642857Y-95260076D01*
X74642857Y-95260076D02*
X74547619Y-95355314D01*
X74547619Y-95355314D02*
X74452381Y-95402933D01*
X137083333Y-139507275D02*
X136750000Y-139031084D01*
X136511905Y-139507275D02*
X136511905Y-138507275D01*
X136511905Y-138507275D02*
X136892857Y-138507275D01*
X136892857Y-138507275D02*
X136988095Y-138554894D01*
X136988095Y-138554894D02*
X137035714Y-138602513D01*
X137035714Y-138602513D02*
X137083333Y-138697751D01*
X137083333Y-138697751D02*
X137083333Y-138840608D01*
X137083333Y-138840608D02*
X137035714Y-138935846D01*
X137035714Y-138935846D02*
X136988095Y-138983465D01*
X136988095Y-138983465D02*
X136892857Y-139031084D01*
X136892857Y-139031084D02*
X136511905Y-139031084D01*
X137511905Y-138507275D02*
X137511905Y-139316798D01*
X137511905Y-139316798D02*
X137559524Y-139412036D01*
X137559524Y-139412036D02*
X137607143Y-139459656D01*
X137607143Y-139459656D02*
X137702381Y-139507275D01*
X137702381Y-139507275D02*
X137892857Y-139507275D01*
X137892857Y-139507275D02*
X137988095Y-139459656D01*
X137988095Y-139459656D02*
X138035714Y-139412036D01*
X138035714Y-139412036D02*
X138083333Y-139316798D01*
X138083333Y-139316798D02*
X138083333Y-138507275D01*
X138892857Y-138983465D02*
X139035714Y-139031084D01*
X139035714Y-139031084D02*
X139083333Y-139078703D01*
X139083333Y-139078703D02*
X139130952Y-139173941D01*
X139130952Y-139173941D02*
X139130952Y-139316798D01*
X139130952Y-139316798D02*
X139083333Y-139412036D01*
X139083333Y-139412036D02*
X139035714Y-139459656D01*
X139035714Y-139459656D02*
X138940476Y-139507275D01*
X138940476Y-139507275D02*
X138559524Y-139507275D01*
X138559524Y-139507275D02*
X138559524Y-138507275D01*
X138559524Y-138507275D02*
X138892857Y-138507275D01*
X138892857Y-138507275D02*
X138988095Y-138554894D01*
X138988095Y-138554894D02*
X139035714Y-138602513D01*
X139035714Y-138602513D02*
X139083333Y-138697751D01*
X139083333Y-138697751D02*
X139083333Y-138792989D01*
X139083333Y-138792989D02*
X139035714Y-138888227D01*
X139035714Y-138888227D02*
X138988095Y-138935846D01*
X138988095Y-138935846D02*
X138892857Y-138983465D01*
X138892857Y-138983465D02*
X138559524Y-138983465D01*
X139559524Y-139507275D02*
X139559524Y-138507275D01*
X140035714Y-139507275D02*
X140035714Y-138507275D01*
X140607142Y-139507275D02*
X140178571Y-138935846D01*
X140607142Y-138507275D02*
X140035714Y-139078703D01*
X141083333Y-138507275D02*
X140988095Y-138697751D01*
X141464285Y-139459656D02*
X141607142Y-139507275D01*
X141607142Y-139507275D02*
X141845237Y-139507275D01*
X141845237Y-139507275D02*
X141940475Y-139459656D01*
X141940475Y-139459656D02*
X141988094Y-139412036D01*
X141988094Y-139412036D02*
X142035713Y-139316798D01*
X142035713Y-139316798D02*
X142035713Y-139221560D01*
X142035713Y-139221560D02*
X141988094Y-139126322D01*
X141988094Y-139126322D02*
X141940475Y-139078703D01*
X141940475Y-139078703D02*
X141845237Y-139031084D01*
X141845237Y-139031084D02*
X141654761Y-138983465D01*
X141654761Y-138983465D02*
X141559523Y-138935846D01*
X141559523Y-138935846D02*
X141511904Y-138888227D01*
X141511904Y-138888227D02*
X141464285Y-138792989D01*
X141464285Y-138792989D02*
X141464285Y-138697751D01*
X141464285Y-138697751D02*
X141511904Y-138602513D01*
X141511904Y-138602513D02*
X141559523Y-138554894D01*
X141559523Y-138554894D02*
X141654761Y-138507275D01*
X141654761Y-138507275D02*
X141892856Y-138507275D01*
X141892856Y-138507275D02*
X142035713Y-138554894D01*
X134654762Y-141069600D02*
X134797619Y-141117219D01*
X134797619Y-141117219D02*
X135035714Y-141117219D01*
X135035714Y-141117219D02*
X135130952Y-141069600D01*
X135130952Y-141069600D02*
X135178571Y-141021980D01*
X135178571Y-141021980D02*
X135226190Y-140926742D01*
X135226190Y-140926742D02*
X135226190Y-140831504D01*
X135226190Y-140831504D02*
X135178571Y-140736266D01*
X135178571Y-140736266D02*
X135130952Y-140688647D01*
X135130952Y-140688647D02*
X135035714Y-140641028D01*
X135035714Y-140641028D02*
X134845238Y-140593409D01*
X134845238Y-140593409D02*
X134750000Y-140545790D01*
X134750000Y-140545790D02*
X134702381Y-140498171D01*
X134702381Y-140498171D02*
X134654762Y-140402933D01*
X134654762Y-140402933D02*
X134654762Y-140307695D01*
X134654762Y-140307695D02*
X134702381Y-140212457D01*
X134702381Y-140212457D02*
X134750000Y-140164838D01*
X134750000Y-140164838D02*
X134845238Y-140117219D01*
X134845238Y-140117219D02*
X135083333Y-140117219D01*
X135083333Y-140117219D02*
X135226190Y-140164838D01*
X135845238Y-140117219D02*
X136035714Y-140117219D01*
X136035714Y-140117219D02*
X136130952Y-140164838D01*
X136130952Y-140164838D02*
X136226190Y-140260076D01*
X136226190Y-140260076D02*
X136273809Y-140450552D01*
X136273809Y-140450552D02*
X136273809Y-140783885D01*
X136273809Y-140783885D02*
X136226190Y-140974361D01*
X136226190Y-140974361D02*
X136130952Y-141069600D01*
X136130952Y-141069600D02*
X136035714Y-141117219D01*
X136035714Y-141117219D02*
X135845238Y-141117219D01*
X135845238Y-141117219D02*
X135750000Y-141069600D01*
X135750000Y-141069600D02*
X135654762Y-140974361D01*
X135654762Y-140974361D02*
X135607143Y-140783885D01*
X135607143Y-140783885D02*
X135607143Y-140450552D01*
X135607143Y-140450552D02*
X135654762Y-140260076D01*
X135654762Y-140260076D02*
X135750000Y-140164838D01*
X135750000Y-140164838D02*
X135845238Y-140117219D01*
X137178571Y-141117219D02*
X136702381Y-141117219D01*
X136702381Y-141117219D02*
X136702381Y-140117219D01*
X137369048Y-140117219D02*
X137702381Y-141117219D01*
X137702381Y-141117219D02*
X138035714Y-140117219D01*
X138369048Y-140593409D02*
X138702381Y-140593409D01*
X138845238Y-141117219D02*
X138369048Y-141117219D01*
X138369048Y-141117219D02*
X138369048Y-140117219D01*
X138369048Y-140117219D02*
X138845238Y-140117219D01*
X139845238Y-141117219D02*
X139511905Y-140641028D01*
X139273810Y-141117219D02*
X139273810Y-140117219D01*
X139273810Y-140117219D02*
X139654762Y-140117219D01*
X139654762Y-140117219D02*
X139750000Y-140164838D01*
X139750000Y-140164838D02*
X139797619Y-140212457D01*
X139797619Y-140212457D02*
X139845238Y-140307695D01*
X139845238Y-140307695D02*
X139845238Y-140450552D01*
X139845238Y-140450552D02*
X139797619Y-140545790D01*
X139797619Y-140545790D02*
X139750000Y-140593409D01*
X139750000Y-140593409D02*
X139654762Y-140641028D01*
X139654762Y-140641028D02*
X139273810Y-140641028D01*
X140892858Y-140117219D02*
X141226191Y-141117219D01*
X141226191Y-141117219D02*
X141559524Y-140117219D01*
X142416667Y-141117219D02*
X141845239Y-141117219D01*
X142130953Y-141117219D02*
X142130953Y-140117219D01*
X142130953Y-140117219D02*
X142035715Y-140260076D01*
X142035715Y-140260076D02*
X141940477Y-140355314D01*
X141940477Y-140355314D02*
X141845239Y-140402933D01*
X142845239Y-141021980D02*
X142892858Y-141069600D01*
X142892858Y-141069600D02*
X142845239Y-141117219D01*
X142845239Y-141117219D02*
X142797620Y-141069600D01*
X142797620Y-141069600D02*
X142845239Y-141021980D01*
X142845239Y-141021980D02*
X142845239Y-141117219D01*
X143845238Y-141117219D02*
X143273810Y-141117219D01*
X143559524Y-141117219D02*
X143559524Y-140117219D01*
X143559524Y-140117219D02*
X143464286Y-140260076D01*
X143464286Y-140260076D02*
X143369048Y-140355314D01*
X143369048Y-140355314D02*
X143273810Y-140402933D01*
X127619673Y-100777100D02*
X127798244Y-100836623D01*
X127798244Y-100836623D02*
X128095863Y-100836623D01*
X128095863Y-100836623D02*
X128214911Y-100777100D01*
X128214911Y-100777100D02*
X128274435Y-100717576D01*
X128274435Y-100717576D02*
X128333958Y-100598528D01*
X128333958Y-100598528D02*
X128333958Y-100479480D01*
X128333958Y-100479480D02*
X128274435Y-100360433D01*
X128274435Y-100360433D02*
X128214911Y-100300909D01*
X128214911Y-100300909D02*
X128095863Y-100241385D01*
X128095863Y-100241385D02*
X127857768Y-100181861D01*
X127857768Y-100181861D02*
X127738720Y-100122338D01*
X127738720Y-100122338D02*
X127679197Y-100062814D01*
X127679197Y-100062814D02*
X127619673Y-99943766D01*
X127619673Y-99943766D02*
X127619673Y-99824719D01*
X127619673Y-99824719D02*
X127679197Y-99705671D01*
X127679197Y-99705671D02*
X127738720Y-99646147D01*
X127738720Y-99646147D02*
X127857768Y-99586623D01*
X127857768Y-99586623D02*
X128155387Y-99586623D01*
X128155387Y-99586623D02*
X128333958Y-99646147D01*
X128750625Y-99586623D02*
X129048244Y-100836623D01*
X129048244Y-100836623D02*
X129286339Y-99943766D01*
X129286339Y-99943766D02*
X129524434Y-100836623D01*
X129524434Y-100836623D02*
X129822054Y-99586623D01*
X130298244Y-100836623D02*
X130298244Y-99586623D01*
X130298244Y-99586623D02*
X130595863Y-99586623D01*
X130595863Y-99586623D02*
X130774434Y-99646147D01*
X130774434Y-99646147D02*
X130893482Y-99765195D01*
X130893482Y-99765195D02*
X130953005Y-99884242D01*
X130953005Y-99884242D02*
X131012529Y-100122338D01*
X131012529Y-100122338D02*
X131012529Y-100300909D01*
X131012529Y-100300909D02*
X130953005Y-100539004D01*
X130953005Y-100539004D02*
X130893482Y-100658052D01*
X130893482Y-100658052D02*
X130774434Y-100777100D01*
X130774434Y-100777100D02*
X130595863Y-100836623D01*
X130595863Y-100836623D02*
X130298244Y-100836623D01*
X123667292Y-96836623D02*
X123786339Y-96836623D01*
X123786339Y-96836623D02*
X123905387Y-96896147D01*
X123905387Y-96896147D02*
X123964911Y-96955671D01*
X123964911Y-96955671D02*
X124024435Y-97074719D01*
X124024435Y-97074719D02*
X124083958Y-97312814D01*
X124083958Y-97312814D02*
X124083958Y-97610433D01*
X124083958Y-97610433D02*
X124024435Y-97848528D01*
X124024435Y-97848528D02*
X123964911Y-97967576D01*
X123964911Y-97967576D02*
X123905387Y-98027100D01*
X123905387Y-98027100D02*
X123786339Y-98086623D01*
X123786339Y-98086623D02*
X123667292Y-98086623D01*
X123667292Y-98086623D02*
X123548244Y-98027100D01*
X123548244Y-98027100D02*
X123488720Y-97967576D01*
X123488720Y-97967576D02*
X123429197Y-97848528D01*
X123429197Y-97848528D02*
X123369673Y-97610433D01*
X123369673Y-97610433D02*
X123369673Y-97312814D01*
X123369673Y-97312814D02*
X123429197Y-97074719D01*
X123429197Y-97074719D02*
X123488720Y-96955671D01*
X123488720Y-96955671D02*
X123548244Y-96896147D01*
X123548244Y-96896147D02*
X123667292Y-96836623D01*
X128345863Y-94431861D02*
X128524435Y-94491385D01*
X128524435Y-94491385D02*
X128583958Y-94550909D01*
X128583958Y-94550909D02*
X128643482Y-94669957D01*
X128643482Y-94669957D02*
X128643482Y-94848528D01*
X128643482Y-94848528D02*
X128583958Y-94967576D01*
X128583958Y-94967576D02*
X128524435Y-95027100D01*
X128524435Y-95027100D02*
X128405387Y-95086623D01*
X128405387Y-95086623D02*
X127929197Y-95086623D01*
X127929197Y-95086623D02*
X127929197Y-93836623D01*
X127929197Y-93836623D02*
X128345863Y-93836623D01*
X128345863Y-93836623D02*
X128464911Y-93896147D01*
X128464911Y-93896147D02*
X128524435Y-93955671D01*
X128524435Y-93955671D02*
X128583958Y-94074719D01*
X128583958Y-94074719D02*
X128583958Y-94193766D01*
X128583958Y-94193766D02*
X128524435Y-94312814D01*
X128524435Y-94312814D02*
X128464911Y-94372338D01*
X128464911Y-94372338D02*
X128345863Y-94431861D01*
X128345863Y-94431861D02*
X127929197Y-94431861D01*
X129417292Y-93836623D02*
X129655387Y-93836623D01*
X129655387Y-93836623D02*
X129774435Y-93896147D01*
X129774435Y-93896147D02*
X129893482Y-94015195D01*
X129893482Y-94015195D02*
X129953006Y-94253290D01*
X129953006Y-94253290D02*
X129953006Y-94669957D01*
X129953006Y-94669957D02*
X129893482Y-94908052D01*
X129893482Y-94908052D02*
X129774435Y-95027100D01*
X129774435Y-95027100D02*
X129655387Y-95086623D01*
X129655387Y-95086623D02*
X129417292Y-95086623D01*
X129417292Y-95086623D02*
X129298244Y-95027100D01*
X129298244Y-95027100D02*
X129179197Y-94908052D01*
X129179197Y-94908052D02*
X129119673Y-94669957D01*
X129119673Y-94669957D02*
X129119673Y-94253290D01*
X129119673Y-94253290D02*
X129179197Y-94015195D01*
X129179197Y-94015195D02*
X129298244Y-93896147D01*
X129298244Y-93896147D02*
X129417292Y-93836623D01*
X130726816Y-93836623D02*
X130964911Y-93836623D01*
X130964911Y-93836623D02*
X131083959Y-93896147D01*
X131083959Y-93896147D02*
X131203006Y-94015195D01*
X131203006Y-94015195D02*
X131262530Y-94253290D01*
X131262530Y-94253290D02*
X131262530Y-94669957D01*
X131262530Y-94669957D02*
X131203006Y-94908052D01*
X131203006Y-94908052D02*
X131083959Y-95027100D01*
X131083959Y-95027100D02*
X130964911Y-95086623D01*
X130964911Y-95086623D02*
X130726816Y-95086623D01*
X130726816Y-95086623D02*
X130607768Y-95027100D01*
X130607768Y-95027100D02*
X130488721Y-94908052D01*
X130488721Y-94908052D02*
X130429197Y-94669957D01*
X130429197Y-94669957D02*
X130429197Y-94253290D01*
X130429197Y-94253290D02*
X130488721Y-94015195D01*
X130488721Y-94015195D02*
X130607768Y-93896147D01*
X130607768Y-93896147D02*
X130726816Y-93836623D01*
X131619673Y-93836623D02*
X132333959Y-93836623D01*
X131976816Y-95086623D02*
X131976816Y-93836623D01*
X83586623Y-109820802D02*
X82336623Y-109820802D01*
X82336623Y-109820802D02*
X83229480Y-109404136D01*
X83229480Y-109404136D02*
X82336623Y-108987469D01*
X82336623Y-108987469D02*
X83586623Y-108987469D01*
X82336623Y-108154136D02*
X82336623Y-107916041D01*
X82336623Y-107916041D02*
X82396147Y-107796993D01*
X82396147Y-107796993D02*
X82515195Y-107677946D01*
X82515195Y-107677946D02*
X82753290Y-107618422D01*
X82753290Y-107618422D02*
X83169957Y-107618422D01*
X83169957Y-107618422D02*
X83408052Y-107677946D01*
X83408052Y-107677946D02*
X83527100Y-107796993D01*
X83527100Y-107796993D02*
X83586623Y-107916041D01*
X83586623Y-107916041D02*
X83586623Y-108154136D01*
X83586623Y-108154136D02*
X83527100Y-108273184D01*
X83527100Y-108273184D02*
X83408052Y-108392231D01*
X83408052Y-108392231D02*
X83169957Y-108451755D01*
X83169957Y-108451755D02*
X82753290Y-108451755D01*
X82753290Y-108451755D02*
X82515195Y-108392231D01*
X82515195Y-108392231D02*
X82396147Y-108273184D01*
X82396147Y-108273184D02*
X82336623Y-108154136D01*
X82336623Y-107261279D02*
X82336623Y-106546993D01*
X83586623Y-106904136D02*
X82336623Y-106904136D01*
X82336623Y-105892231D02*
X82336623Y-105654136D01*
X82336623Y-105654136D02*
X82396147Y-105535088D01*
X82396147Y-105535088D02*
X82515195Y-105416041D01*
X82515195Y-105416041D02*
X82753290Y-105356517D01*
X82753290Y-105356517D02*
X83169957Y-105356517D01*
X83169957Y-105356517D02*
X83408052Y-105416041D01*
X83408052Y-105416041D02*
X83527100Y-105535088D01*
X83527100Y-105535088D02*
X83586623Y-105654136D01*
X83586623Y-105654136D02*
X83586623Y-105892231D01*
X83586623Y-105892231D02*
X83527100Y-106011279D01*
X83527100Y-106011279D02*
X83408052Y-106130326D01*
X83408052Y-106130326D02*
X83169957Y-106189850D01*
X83169957Y-106189850D02*
X82753290Y-106189850D01*
X82753290Y-106189850D02*
X82515195Y-106130326D01*
X82515195Y-106130326D02*
X82396147Y-106011279D01*
X82396147Y-106011279D02*
X82336623Y-105892231D01*
X83586623Y-104106517D02*
X82991385Y-104523183D01*
X83586623Y-104820802D02*
X82336623Y-104820802D01*
X82336623Y-104820802D02*
X82336623Y-104344612D01*
X82336623Y-104344612D02*
X82396147Y-104225564D01*
X82396147Y-104225564D02*
X82455671Y-104166041D01*
X82455671Y-104166041D02*
X82574719Y-104106517D01*
X82574719Y-104106517D02*
X82753290Y-104106517D01*
X82753290Y-104106517D02*
X82872338Y-104166041D01*
X82872338Y-104166041D02*
X82931861Y-104225564D01*
X82931861Y-104225564D02*
X82991385Y-104344612D01*
X82991385Y-104344612D02*
X82991385Y-104820802D01*
X83586623Y-102618421D02*
X82336623Y-102618421D01*
X82336623Y-102618421D02*
X82336623Y-102320802D01*
X82336623Y-102320802D02*
X82396147Y-102142231D01*
X82396147Y-102142231D02*
X82515195Y-102023183D01*
X82515195Y-102023183D02*
X82634242Y-101963660D01*
X82634242Y-101963660D02*
X82872338Y-101904136D01*
X82872338Y-101904136D02*
X83050909Y-101904136D01*
X83050909Y-101904136D02*
X83289004Y-101963660D01*
X83289004Y-101963660D02*
X83408052Y-102023183D01*
X83408052Y-102023183D02*
X83527100Y-102142231D01*
X83527100Y-102142231D02*
X83586623Y-102320802D01*
X83586623Y-102320802D02*
X83586623Y-102618421D01*
X83586623Y-100654136D02*
X82991385Y-101070802D01*
X83586623Y-101368421D02*
X82336623Y-101368421D01*
X82336623Y-101368421D02*
X82336623Y-100892231D01*
X82336623Y-100892231D02*
X82396147Y-100773183D01*
X82396147Y-100773183D02*
X82455671Y-100713660D01*
X82455671Y-100713660D02*
X82574719Y-100654136D01*
X82574719Y-100654136D02*
X82753290Y-100654136D01*
X82753290Y-100654136D02*
X82872338Y-100713660D01*
X82872338Y-100713660D02*
X82931861Y-100773183D01*
X82931861Y-100773183D02*
X82991385Y-100892231D01*
X82991385Y-100892231D02*
X82991385Y-101368421D01*
X83586623Y-100118421D02*
X82336623Y-100118421D01*
X82336623Y-99701755D02*
X83586623Y-99285088D01*
X83586623Y-99285088D02*
X82336623Y-98868422D01*
X82931861Y-98451754D02*
X82931861Y-98035088D01*
X83586623Y-97856516D02*
X83586623Y-98451754D01*
X83586623Y-98451754D02*
X82336623Y-98451754D01*
X82336623Y-98451754D02*
X82336623Y-97856516D01*
X83586623Y-96606517D02*
X82991385Y-97023183D01*
X83586623Y-97320802D02*
X82336623Y-97320802D01*
X82336623Y-97320802D02*
X82336623Y-96844612D01*
X82336623Y-96844612D02*
X82396147Y-96725564D01*
X82396147Y-96725564D02*
X82455671Y-96666041D01*
X82455671Y-96666041D02*
X82574719Y-96606517D01*
X82574719Y-96606517D02*
X82753290Y-96606517D01*
X82753290Y-96606517D02*
X82872338Y-96666041D01*
X82872338Y-96666041D02*
X82931861Y-96725564D01*
X82931861Y-96725564D02*
X82991385Y-96844612D01*
X82991385Y-96844612D02*
X82991385Y-97320802D01*
X137679197Y-111086623D02*
X137679197Y-112098528D01*
X137679197Y-112098528D02*
X137738720Y-112217576D01*
X137738720Y-112217576D02*
X137798244Y-112277100D01*
X137798244Y-112277100D02*
X137917292Y-112336623D01*
X137917292Y-112336623D02*
X138155387Y-112336623D01*
X138155387Y-112336623D02*
X138274435Y-112277100D01*
X138274435Y-112277100D02*
X138333958Y-112217576D01*
X138333958Y-112217576D02*
X138393482Y-112098528D01*
X138393482Y-112098528D02*
X138393482Y-111086623D01*
X138929197Y-112277100D02*
X139107768Y-112336623D01*
X139107768Y-112336623D02*
X139405387Y-112336623D01*
X139405387Y-112336623D02*
X139524435Y-112277100D01*
X139524435Y-112277100D02*
X139583959Y-112217576D01*
X139583959Y-112217576D02*
X139643482Y-112098528D01*
X139643482Y-112098528D02*
X139643482Y-111979480D01*
X139643482Y-111979480D02*
X139583959Y-111860433D01*
X139583959Y-111860433D02*
X139524435Y-111800909D01*
X139524435Y-111800909D02*
X139405387Y-111741385D01*
X139405387Y-111741385D02*
X139167292Y-111681861D01*
X139167292Y-111681861D02*
X139048244Y-111622338D01*
X139048244Y-111622338D02*
X138988721Y-111562814D01*
X138988721Y-111562814D02*
X138929197Y-111443766D01*
X138929197Y-111443766D02*
X138929197Y-111324719D01*
X138929197Y-111324719D02*
X138988721Y-111205671D01*
X138988721Y-111205671D02*
X139048244Y-111146147D01*
X139048244Y-111146147D02*
X139167292Y-111086623D01*
X139167292Y-111086623D02*
X139464911Y-111086623D01*
X139464911Y-111086623D02*
X139643482Y-111146147D01*
X140595863Y-111681861D02*
X140774435Y-111741385D01*
X140774435Y-111741385D02*
X140833958Y-111800909D01*
X140833958Y-111800909D02*
X140893482Y-111919957D01*
X140893482Y-111919957D02*
X140893482Y-112098528D01*
X140893482Y-112098528D02*
X140833958Y-112217576D01*
X140833958Y-112217576D02*
X140774435Y-112277100D01*
X140774435Y-112277100D02*
X140655387Y-112336623D01*
X140655387Y-112336623D02*
X140179197Y-112336623D01*
X140179197Y-112336623D02*
X140179197Y-111086623D01*
X140179197Y-111086623D02*
X140595863Y-111086623D01*
X140595863Y-111086623D02*
X140714911Y-111146147D01*
X140714911Y-111146147D02*
X140774435Y-111205671D01*
X140774435Y-111205671D02*
X140833958Y-111324719D01*
X140833958Y-111324719D02*
X140833958Y-111443766D01*
X140833958Y-111443766D02*
X140774435Y-111562814D01*
X140774435Y-111562814D02*
X140714911Y-111622338D01*
X140714911Y-111622338D02*
X140595863Y-111681861D01*
X140595863Y-111681861D02*
X140179197Y-111681861D01*
X68095863Y-112431861D02*
X68274435Y-112491385D01*
X68274435Y-112491385D02*
X68333958Y-112550909D01*
X68333958Y-112550909D02*
X68393482Y-112669957D01*
X68393482Y-112669957D02*
X68393482Y-112848528D01*
X68393482Y-112848528D02*
X68333958Y-112967576D01*
X68333958Y-112967576D02*
X68274435Y-113027100D01*
X68274435Y-113027100D02*
X68155387Y-113086623D01*
X68155387Y-113086623D02*
X67679197Y-113086623D01*
X67679197Y-113086623D02*
X67679197Y-111836623D01*
X67679197Y-111836623D02*
X68095863Y-111836623D01*
X68095863Y-111836623D02*
X68214911Y-111896147D01*
X68214911Y-111896147D02*
X68274435Y-111955671D01*
X68274435Y-111955671D02*
X68333958Y-112074719D01*
X68333958Y-112074719D02*
X68333958Y-112193766D01*
X68333958Y-112193766D02*
X68274435Y-112312814D01*
X68274435Y-112312814D02*
X68214911Y-112372338D01*
X68214911Y-112372338D02*
X68095863Y-112431861D01*
X68095863Y-112431861D02*
X67679197Y-112431861D01*
X68929197Y-111836623D02*
X68929197Y-112848528D01*
X68929197Y-112848528D02*
X68988720Y-112967576D01*
X68988720Y-112967576D02*
X69048244Y-113027100D01*
X69048244Y-113027100D02*
X69167292Y-113086623D01*
X69167292Y-113086623D02*
X69405387Y-113086623D01*
X69405387Y-113086623D02*
X69524435Y-113027100D01*
X69524435Y-113027100D02*
X69583958Y-112967576D01*
X69583958Y-112967576D02*
X69643482Y-112848528D01*
X69643482Y-112848528D02*
X69643482Y-111836623D01*
X70953006Y-112967576D02*
X70893482Y-113027100D01*
X70893482Y-113027100D02*
X70714911Y-113086623D01*
X70714911Y-113086623D02*
X70595863Y-113086623D01*
X70595863Y-113086623D02*
X70417292Y-113027100D01*
X70417292Y-113027100D02*
X70298244Y-112908052D01*
X70298244Y-112908052D02*
X70238721Y-112789004D01*
X70238721Y-112789004D02*
X70179197Y-112550909D01*
X70179197Y-112550909D02*
X70179197Y-112372338D01*
X70179197Y-112372338D02*
X70238721Y-112134242D01*
X70238721Y-112134242D02*
X70298244Y-112015195D01*
X70298244Y-112015195D02*
X70417292Y-111896147D01*
X70417292Y-111896147D02*
X70595863Y-111836623D01*
X70595863Y-111836623D02*
X70714911Y-111836623D01*
X70714911Y-111836623D02*
X70893482Y-111896147D01*
X70893482Y-111896147D02*
X70953006Y-111955671D01*
X71488721Y-113086623D02*
X71488721Y-111836623D01*
X72203006Y-113086623D02*
X71667292Y-112372338D01*
X72203006Y-111836623D02*
X71488721Y-112550909D01*
X74405387Y-112967576D02*
X74345863Y-113027100D01*
X74345863Y-113027100D02*
X74167292Y-113086623D01*
X74167292Y-113086623D02*
X74048244Y-113086623D01*
X74048244Y-113086623D02*
X73869673Y-113027100D01*
X73869673Y-113027100D02*
X73750625Y-112908052D01*
X73750625Y-112908052D02*
X73691102Y-112789004D01*
X73691102Y-112789004D02*
X73631578Y-112550909D01*
X73631578Y-112550909D02*
X73631578Y-112372338D01*
X73631578Y-112372338D02*
X73691102Y-112134242D01*
X73691102Y-112134242D02*
X73750625Y-112015195D01*
X73750625Y-112015195D02*
X73869673Y-111896147D01*
X73869673Y-111896147D02*
X74048244Y-111836623D01*
X74048244Y-111836623D02*
X74167292Y-111836623D01*
X74167292Y-111836623D02*
X74345863Y-111896147D01*
X74345863Y-111896147D02*
X74405387Y-111955671D01*
X75179197Y-111836623D02*
X75417292Y-111836623D01*
X75417292Y-111836623D02*
X75536340Y-111896147D01*
X75536340Y-111896147D02*
X75655387Y-112015195D01*
X75655387Y-112015195D02*
X75714911Y-112253290D01*
X75714911Y-112253290D02*
X75714911Y-112669957D01*
X75714911Y-112669957D02*
X75655387Y-112908052D01*
X75655387Y-112908052D02*
X75536340Y-113027100D01*
X75536340Y-113027100D02*
X75417292Y-113086623D01*
X75417292Y-113086623D02*
X75179197Y-113086623D01*
X75179197Y-113086623D02*
X75060149Y-113027100D01*
X75060149Y-113027100D02*
X74941102Y-112908052D01*
X74941102Y-112908052D02*
X74881578Y-112669957D01*
X74881578Y-112669957D02*
X74881578Y-112253290D01*
X74881578Y-112253290D02*
X74941102Y-112015195D01*
X74941102Y-112015195D02*
X75060149Y-111896147D01*
X75060149Y-111896147D02*
X75179197Y-111836623D01*
X76250626Y-113086623D02*
X76250626Y-111836623D01*
X76250626Y-111836623D02*
X76964911Y-113086623D01*
X76964911Y-113086623D02*
X76964911Y-111836623D01*
X77381578Y-111836623D02*
X77798245Y-113086623D01*
X77798245Y-113086623D02*
X78214911Y-111836623D01*
X78631579Y-112431861D02*
X79048245Y-112431861D01*
X79226817Y-113086623D02*
X78631579Y-113086623D01*
X78631579Y-113086623D02*
X78631579Y-111836623D01*
X78631579Y-111836623D02*
X79226817Y-111836623D01*
X80476816Y-113086623D02*
X80060150Y-112491385D01*
X79762531Y-113086623D02*
X79762531Y-111836623D01*
X79762531Y-111836623D02*
X80238721Y-111836623D01*
X80238721Y-111836623D02*
X80357769Y-111896147D01*
X80357769Y-111896147D02*
X80417292Y-111955671D01*
X80417292Y-111955671D02*
X80476816Y-112074719D01*
X80476816Y-112074719D02*
X80476816Y-112253290D01*
X80476816Y-112253290D02*
X80417292Y-112372338D01*
X80417292Y-112372338D02*
X80357769Y-112431861D01*
X80357769Y-112431861D02*
X80238721Y-112491385D01*
X80238721Y-112491385D02*
X79762531Y-112491385D01*
X80833959Y-111836623D02*
X81548245Y-111836623D01*
X81191102Y-113086623D02*
X81191102Y-111836623D01*
X81964912Y-112431861D02*
X82381578Y-112431861D01*
X82560150Y-113086623D02*
X81964912Y-113086623D01*
X81964912Y-113086623D02*
X81964912Y-111836623D01*
X81964912Y-111836623D02*
X82560150Y-111836623D01*
X83810149Y-113086623D02*
X83393483Y-112491385D01*
X83095864Y-113086623D02*
X83095864Y-111836623D01*
X83095864Y-111836623D02*
X83572054Y-111836623D01*
X83572054Y-111836623D02*
X83691102Y-111896147D01*
X83691102Y-111896147D02*
X83750625Y-111955671D01*
X83750625Y-111955671D02*
X83810149Y-112074719D01*
X83810149Y-112074719D02*
X83810149Y-112253290D01*
X83810149Y-112253290D02*
X83750625Y-112372338D01*
X83750625Y-112372338D02*
X83691102Y-112431861D01*
X83691102Y-112431861D02*
X83572054Y-112491385D01*
X83572054Y-112491385D02*
X83095864Y-112491385D01*
X125179197Y-103860433D02*
X126131578Y-103860433D01*
X121833958Y-98086623D02*
X121119673Y-98086623D01*
X121476816Y-98086623D02*
X121476816Y-96836623D01*
X121476816Y-96836623D02*
X121357768Y-97015195D01*
X121357768Y-97015195D02*
X121238720Y-97134242D01*
X121238720Y-97134242D02*
X121119673Y-97193766D01*
X110393482Y-110336623D02*
X109976816Y-109741385D01*
X109679197Y-110336623D02*
X109679197Y-109086623D01*
X109679197Y-109086623D02*
X110155387Y-109086623D01*
X110155387Y-109086623D02*
X110274435Y-109146147D01*
X110274435Y-109146147D02*
X110333958Y-109205671D01*
X110333958Y-109205671D02*
X110393482Y-109324719D01*
X110393482Y-109324719D02*
X110393482Y-109503290D01*
X110393482Y-109503290D02*
X110333958Y-109622338D01*
X110333958Y-109622338D02*
X110274435Y-109681861D01*
X110274435Y-109681861D02*
X110155387Y-109741385D01*
X110155387Y-109741385D02*
X109679197Y-109741385D01*
X110929197Y-109681861D02*
X111345863Y-109681861D01*
X111524435Y-110336623D02*
X110929197Y-110336623D01*
X110929197Y-110336623D02*
X110929197Y-109086623D01*
X110929197Y-109086623D02*
X111524435Y-109086623D01*
X112000625Y-110277100D02*
X112179196Y-110336623D01*
X112179196Y-110336623D02*
X112476815Y-110336623D01*
X112476815Y-110336623D02*
X112595863Y-110277100D01*
X112595863Y-110277100D02*
X112655387Y-110217576D01*
X112655387Y-110217576D02*
X112714910Y-110098528D01*
X112714910Y-110098528D02*
X112714910Y-109979480D01*
X112714910Y-109979480D02*
X112655387Y-109860433D01*
X112655387Y-109860433D02*
X112595863Y-109800909D01*
X112595863Y-109800909D02*
X112476815Y-109741385D01*
X112476815Y-109741385D02*
X112238720Y-109681861D01*
X112238720Y-109681861D02*
X112119672Y-109622338D01*
X112119672Y-109622338D02*
X112060149Y-109562814D01*
X112060149Y-109562814D02*
X112000625Y-109443766D01*
X112000625Y-109443766D02*
X112000625Y-109324719D01*
X112000625Y-109324719D02*
X112060149Y-109205671D01*
X112060149Y-109205671D02*
X112119672Y-109146147D01*
X112119672Y-109146147D02*
X112238720Y-109086623D01*
X112238720Y-109086623D02*
X112536339Y-109086623D01*
X112536339Y-109086623D02*
X112714910Y-109146147D01*
X113250625Y-109681861D02*
X113667291Y-109681861D01*
X113845863Y-110336623D02*
X113250625Y-110336623D01*
X113250625Y-110336623D02*
X113250625Y-109086623D01*
X113250625Y-109086623D02*
X113845863Y-109086623D01*
X114203005Y-109086623D02*
X114917291Y-109086623D01*
X114560148Y-110336623D02*
X114560148Y-109086623D01*
D10*
X64107142Y-140109580D02*
X64059523Y-140157200D01*
X64059523Y-140157200D02*
X63916666Y-140204819D01*
X63916666Y-140204819D02*
X63821428Y-140204819D01*
X63821428Y-140204819D02*
X63678571Y-140157200D01*
X63678571Y-140157200D02*
X63583333Y-140061961D01*
X63583333Y-140061961D02*
X63535714Y-139966723D01*
X63535714Y-139966723D02*
X63488095Y-139776247D01*
X63488095Y-139776247D02*
X63488095Y-139633390D01*
X63488095Y-139633390D02*
X63535714Y-139442914D01*
X63535714Y-139442914D02*
X63583333Y-139347676D01*
X63583333Y-139347676D02*
X63678571Y-139252438D01*
X63678571Y-139252438D02*
X63821428Y-139204819D01*
X63821428Y-139204819D02*
X63916666Y-139204819D01*
X63916666Y-139204819D02*
X64059523Y-139252438D01*
X64059523Y-139252438D02*
X64107142Y-139300057D01*
X65059523Y-140204819D02*
X64488095Y-140204819D01*
X64773809Y-140204819D02*
X64773809Y-139204819D01*
X64773809Y-139204819D02*
X64678571Y-139347676D01*
X64678571Y-139347676D02*
X64583333Y-139442914D01*
X64583333Y-139442914D02*
X64488095Y-139490533D01*
X65916666Y-139538152D02*
X65916666Y-140204819D01*
X65678571Y-139157200D02*
X65440476Y-139871485D01*
X65440476Y-139871485D02*
X66059523Y-139871485D01*
X120333333Y-108954819D02*
X120000000Y-108478628D01*
X119761905Y-108954819D02*
X119761905Y-107954819D01*
X119761905Y-107954819D02*
X120142857Y-107954819D01*
X120142857Y-107954819D02*
X120238095Y-108002438D01*
X120238095Y-108002438D02*
X120285714Y-108050057D01*
X120285714Y-108050057D02*
X120333333Y-108145295D01*
X120333333Y-108145295D02*
X120333333Y-108288152D01*
X120333333Y-108288152D02*
X120285714Y-108383390D01*
X120285714Y-108383390D02*
X120238095Y-108431009D01*
X120238095Y-108431009D02*
X120142857Y-108478628D01*
X120142857Y-108478628D02*
X119761905Y-108478628D01*
X120666667Y-107954819D02*
X121285714Y-107954819D01*
X121285714Y-107954819D02*
X120952381Y-108335771D01*
X120952381Y-108335771D02*
X121095238Y-108335771D01*
X121095238Y-108335771D02*
X121190476Y-108383390D01*
X121190476Y-108383390D02*
X121238095Y-108431009D01*
X121238095Y-108431009D02*
X121285714Y-108526247D01*
X121285714Y-108526247D02*
X121285714Y-108764342D01*
X121285714Y-108764342D02*
X121238095Y-108859580D01*
X121238095Y-108859580D02*
X121190476Y-108907200D01*
X121190476Y-108907200D02*
X121095238Y-108954819D01*
X121095238Y-108954819D02*
X120809524Y-108954819D01*
X120809524Y-108954819D02*
X120714286Y-108907200D01*
X120714286Y-108907200D02*
X120666667Y-108859580D01*
X113583333Y-126359580D02*
X113535714Y-126407200D01*
X113535714Y-126407200D02*
X113392857Y-126454819D01*
X113392857Y-126454819D02*
X113297619Y-126454819D01*
X113297619Y-126454819D02*
X113154762Y-126407200D01*
X113154762Y-126407200D02*
X113059524Y-126311961D01*
X113059524Y-126311961D02*
X113011905Y-126216723D01*
X113011905Y-126216723D02*
X112964286Y-126026247D01*
X112964286Y-126026247D02*
X112964286Y-125883390D01*
X112964286Y-125883390D02*
X113011905Y-125692914D01*
X113011905Y-125692914D02*
X113059524Y-125597676D01*
X113059524Y-125597676D02*
X113154762Y-125502438D01*
X113154762Y-125502438D02*
X113297619Y-125454819D01*
X113297619Y-125454819D02*
X113392857Y-125454819D01*
X113392857Y-125454819D02*
X113535714Y-125502438D01*
X113535714Y-125502438D02*
X113583333Y-125550057D01*
X114154762Y-125883390D02*
X114059524Y-125835771D01*
X114059524Y-125835771D02*
X114011905Y-125788152D01*
X114011905Y-125788152D02*
X113964286Y-125692914D01*
X113964286Y-125692914D02*
X113964286Y-125645295D01*
X113964286Y-125645295D02*
X114011905Y-125550057D01*
X114011905Y-125550057D02*
X114059524Y-125502438D01*
X114059524Y-125502438D02*
X114154762Y-125454819D01*
X114154762Y-125454819D02*
X114345238Y-125454819D01*
X114345238Y-125454819D02*
X114440476Y-125502438D01*
X114440476Y-125502438D02*
X114488095Y-125550057D01*
X114488095Y-125550057D02*
X114535714Y-125645295D01*
X114535714Y-125645295D02*
X114535714Y-125692914D01*
X114535714Y-125692914D02*
X114488095Y-125788152D01*
X114488095Y-125788152D02*
X114440476Y-125835771D01*
X114440476Y-125835771D02*
X114345238Y-125883390D01*
X114345238Y-125883390D02*
X114154762Y-125883390D01*
X114154762Y-125883390D02*
X114059524Y-125931009D01*
X114059524Y-125931009D02*
X114011905Y-125978628D01*
X114011905Y-125978628D02*
X113964286Y-126073866D01*
X113964286Y-126073866D02*
X113964286Y-126264342D01*
X113964286Y-126264342D02*
X114011905Y-126359580D01*
X114011905Y-126359580D02*
X114059524Y-126407200D01*
X114059524Y-126407200D02*
X114154762Y-126454819D01*
X114154762Y-126454819D02*
X114345238Y-126454819D01*
X114345238Y-126454819D02*
X114440476Y-126407200D01*
X114440476Y-126407200D02*
X114488095Y-126359580D01*
X114488095Y-126359580D02*
X114535714Y-126264342D01*
X114535714Y-126264342D02*
X114535714Y-126073866D01*
X114535714Y-126073866D02*
X114488095Y-125978628D01*
X114488095Y-125978628D02*
X114440476Y-125931009D01*
X114440476Y-125931009D02*
X114345238Y-125883390D01*
X113833333Y-122359580D02*
X113785714Y-122407200D01*
X113785714Y-122407200D02*
X113642857Y-122454819D01*
X113642857Y-122454819D02*
X113547619Y-122454819D01*
X113547619Y-122454819D02*
X113404762Y-122407200D01*
X113404762Y-122407200D02*
X113309524Y-122311961D01*
X113309524Y-122311961D02*
X113261905Y-122216723D01*
X113261905Y-122216723D02*
X113214286Y-122026247D01*
X113214286Y-122026247D02*
X113214286Y-121883390D01*
X113214286Y-121883390D02*
X113261905Y-121692914D01*
X113261905Y-121692914D02*
X113309524Y-121597676D01*
X113309524Y-121597676D02*
X113404762Y-121502438D01*
X113404762Y-121502438D02*
X113547619Y-121454819D01*
X113547619Y-121454819D02*
X113642857Y-121454819D01*
X113642857Y-121454819D02*
X113785714Y-121502438D01*
X113785714Y-121502438D02*
X113833333Y-121550057D01*
X114690476Y-121454819D02*
X114500000Y-121454819D01*
X114500000Y-121454819D02*
X114404762Y-121502438D01*
X114404762Y-121502438D02*
X114357143Y-121550057D01*
X114357143Y-121550057D02*
X114261905Y-121692914D01*
X114261905Y-121692914D02*
X114214286Y-121883390D01*
X114214286Y-121883390D02*
X114214286Y-122264342D01*
X114214286Y-122264342D02*
X114261905Y-122359580D01*
X114261905Y-122359580D02*
X114309524Y-122407200D01*
X114309524Y-122407200D02*
X114404762Y-122454819D01*
X114404762Y-122454819D02*
X114595238Y-122454819D01*
X114595238Y-122454819D02*
X114690476Y-122407200D01*
X114690476Y-122407200D02*
X114738095Y-122359580D01*
X114738095Y-122359580D02*
X114785714Y-122264342D01*
X114785714Y-122264342D02*
X114785714Y-122026247D01*
X114785714Y-122026247D02*
X114738095Y-121931009D01*
X114738095Y-121931009D02*
X114690476Y-121883390D01*
X114690476Y-121883390D02*
X114595238Y-121835771D01*
X114595238Y-121835771D02*
X114404762Y-121835771D01*
X114404762Y-121835771D02*
X114309524Y-121883390D01*
X114309524Y-121883390D02*
X114261905Y-121931009D01*
X114261905Y-121931009D02*
X114214286Y-122026247D01*
X132833333Y-113704819D02*
X132500000Y-113228628D01*
X132261905Y-113704819D02*
X132261905Y-112704819D01*
X132261905Y-112704819D02*
X132642857Y-112704819D01*
X132642857Y-112704819D02*
X132738095Y-112752438D01*
X132738095Y-112752438D02*
X132785714Y-112800057D01*
X132785714Y-112800057D02*
X132833333Y-112895295D01*
X132833333Y-112895295D02*
X132833333Y-113038152D01*
X132833333Y-113038152D02*
X132785714Y-113133390D01*
X132785714Y-113133390D02*
X132738095Y-113181009D01*
X132738095Y-113181009D02*
X132642857Y-113228628D01*
X132642857Y-113228628D02*
X132261905Y-113228628D01*
X133214286Y-112800057D02*
X133261905Y-112752438D01*
X133261905Y-112752438D02*
X133357143Y-112704819D01*
X133357143Y-112704819D02*
X133595238Y-112704819D01*
X133595238Y-112704819D02*
X133690476Y-112752438D01*
X133690476Y-112752438D02*
X133738095Y-112800057D01*
X133738095Y-112800057D02*
X133785714Y-112895295D01*
X133785714Y-112895295D02*
X133785714Y-112990533D01*
X133785714Y-112990533D02*
X133738095Y-113133390D01*
X133738095Y-113133390D02*
X133166667Y-113704819D01*
X133166667Y-113704819D02*
X133785714Y-113704819D01*
X122488095Y-125704819D02*
X122488095Y-126514342D01*
X122488095Y-126514342D02*
X122535714Y-126609580D01*
X122535714Y-126609580D02*
X122583333Y-126657200D01*
X122583333Y-126657200D02*
X122678571Y-126704819D01*
X122678571Y-126704819D02*
X122869047Y-126704819D01*
X122869047Y-126704819D02*
X122964285Y-126657200D01*
X122964285Y-126657200D02*
X123011904Y-126609580D01*
X123011904Y-126609580D02*
X123059523Y-126514342D01*
X123059523Y-126514342D02*
X123059523Y-125704819D01*
X124059523Y-126704819D02*
X123488095Y-126704819D01*
X123773809Y-126704819D02*
X123773809Y-125704819D01*
X123773809Y-125704819D02*
X123678571Y-125847676D01*
X123678571Y-125847676D02*
X123583333Y-125942914D01*
X123583333Y-125942914D02*
X123488095Y-125990533D01*
X130083333Y-113109580D02*
X130035714Y-113157200D01*
X130035714Y-113157200D02*
X129892857Y-113204819D01*
X129892857Y-113204819D02*
X129797619Y-113204819D01*
X129797619Y-113204819D02*
X129654762Y-113157200D01*
X129654762Y-113157200D02*
X129559524Y-113061961D01*
X129559524Y-113061961D02*
X129511905Y-112966723D01*
X129511905Y-112966723D02*
X129464286Y-112776247D01*
X129464286Y-112776247D02*
X129464286Y-112633390D01*
X129464286Y-112633390D02*
X129511905Y-112442914D01*
X129511905Y-112442914D02*
X129559524Y-112347676D01*
X129559524Y-112347676D02*
X129654762Y-112252438D01*
X129654762Y-112252438D02*
X129797619Y-112204819D01*
X129797619Y-112204819D02*
X129892857Y-112204819D01*
X129892857Y-112204819D02*
X130035714Y-112252438D01*
X130035714Y-112252438D02*
X130083333Y-112300057D01*
X130416667Y-112204819D02*
X131035714Y-112204819D01*
X131035714Y-112204819D02*
X130702381Y-112585771D01*
X130702381Y-112585771D02*
X130845238Y-112585771D01*
X130845238Y-112585771D02*
X130940476Y-112633390D01*
X130940476Y-112633390D02*
X130988095Y-112681009D01*
X130988095Y-112681009D02*
X131035714Y-112776247D01*
X131035714Y-112776247D02*
X131035714Y-113014342D01*
X131035714Y-113014342D02*
X130988095Y-113109580D01*
X130988095Y-113109580D02*
X130940476Y-113157200D01*
X130940476Y-113157200D02*
X130845238Y-113204819D01*
X130845238Y-113204819D02*
X130559524Y-113204819D01*
X130559524Y-113204819D02*
X130464286Y-113157200D01*
X130464286Y-113157200D02*
X130416667Y-113109580D01*
X92211905Y-134404819D02*
X92211905Y-133404819D01*
X92211905Y-133404819D02*
X92450000Y-133404819D01*
X92450000Y-133404819D02*
X92592857Y-133452438D01*
X92592857Y-133452438D02*
X92688095Y-133547676D01*
X92688095Y-133547676D02*
X92735714Y-133642914D01*
X92735714Y-133642914D02*
X92783333Y-133833390D01*
X92783333Y-133833390D02*
X92783333Y-133976247D01*
X92783333Y-133976247D02*
X92735714Y-134166723D01*
X92735714Y-134166723D02*
X92688095Y-134261961D01*
X92688095Y-134261961D02*
X92592857Y-134357200D01*
X92592857Y-134357200D02*
X92450000Y-134404819D01*
X92450000Y-134404819D02*
X92211905Y-134404819D01*
X93735714Y-134404819D02*
X93164286Y-134404819D01*
X93450000Y-134404819D02*
X93450000Y-133404819D01*
X93450000Y-133404819D02*
X93354762Y-133547676D01*
X93354762Y-133547676D02*
X93259524Y-133642914D01*
X93259524Y-133642914D02*
X93164286Y-133690533D01*
X131333333Y-125109580D02*
X131285714Y-125157200D01*
X131285714Y-125157200D02*
X131142857Y-125204819D01*
X131142857Y-125204819D02*
X131047619Y-125204819D01*
X131047619Y-125204819D02*
X130904762Y-125157200D01*
X130904762Y-125157200D02*
X130809524Y-125061961D01*
X130809524Y-125061961D02*
X130761905Y-124966723D01*
X130761905Y-124966723D02*
X130714286Y-124776247D01*
X130714286Y-124776247D02*
X130714286Y-124633390D01*
X130714286Y-124633390D02*
X130761905Y-124442914D01*
X130761905Y-124442914D02*
X130809524Y-124347676D01*
X130809524Y-124347676D02*
X130904762Y-124252438D01*
X130904762Y-124252438D02*
X131047619Y-124204819D01*
X131047619Y-124204819D02*
X131142857Y-124204819D01*
X131142857Y-124204819D02*
X131285714Y-124252438D01*
X131285714Y-124252438D02*
X131333333Y-124300057D01*
X132238095Y-124204819D02*
X131761905Y-124204819D01*
X131761905Y-124204819D02*
X131714286Y-124681009D01*
X131714286Y-124681009D02*
X131761905Y-124633390D01*
X131761905Y-124633390D02*
X131857143Y-124585771D01*
X131857143Y-124585771D02*
X132095238Y-124585771D01*
X132095238Y-124585771D02*
X132190476Y-124633390D01*
X132190476Y-124633390D02*
X132238095Y-124681009D01*
X132238095Y-124681009D02*
X132285714Y-124776247D01*
X132285714Y-124776247D02*
X132285714Y-125014342D01*
X132285714Y-125014342D02*
X132238095Y-125109580D01*
X132238095Y-125109580D02*
X132190476Y-125157200D01*
X132190476Y-125157200D02*
X132095238Y-125204819D01*
X132095238Y-125204819D02*
X131857143Y-125204819D01*
X131857143Y-125204819D02*
X131761905Y-125157200D01*
X131761905Y-125157200D02*
X131714286Y-125109580D01*
X109023809Y-116478628D02*
X109023809Y-116954819D01*
X108690476Y-115954819D02*
X109023809Y-116478628D01*
X109023809Y-116478628D02*
X109357142Y-115954819D01*
X110214285Y-116954819D02*
X109642857Y-116954819D01*
X109928571Y-116954819D02*
X109928571Y-115954819D01*
X109928571Y-115954819D02*
X109833333Y-116097676D01*
X109833333Y-116097676D02*
X109738095Y-116192914D01*
X109738095Y-116192914D02*
X109642857Y-116240533D01*
X117704819Y-107166666D02*
X117228628Y-107499999D01*
X117704819Y-107738094D02*
X116704819Y-107738094D01*
X116704819Y-107738094D02*
X116704819Y-107357142D01*
X116704819Y-107357142D02*
X116752438Y-107261904D01*
X116752438Y-107261904D02*
X116800057Y-107214285D01*
X116800057Y-107214285D02*
X116895295Y-107166666D01*
X116895295Y-107166666D02*
X117038152Y-107166666D01*
X117038152Y-107166666D02*
X117133390Y-107214285D01*
X117133390Y-107214285D02*
X117181009Y-107261904D01*
X117181009Y-107261904D02*
X117228628Y-107357142D01*
X117228628Y-107357142D02*
X117228628Y-107738094D01*
X116704819Y-106309523D02*
X116704819Y-106499999D01*
X116704819Y-106499999D02*
X116752438Y-106595237D01*
X116752438Y-106595237D02*
X116800057Y-106642856D01*
X116800057Y-106642856D02*
X116942914Y-106738094D01*
X116942914Y-106738094D02*
X117133390Y-106785713D01*
X117133390Y-106785713D02*
X117514342Y-106785713D01*
X117514342Y-106785713D02*
X117609580Y-106738094D01*
X117609580Y-106738094D02*
X117657200Y-106690475D01*
X117657200Y-106690475D02*
X117704819Y-106595237D01*
X117704819Y-106595237D02*
X117704819Y-106404761D01*
X117704819Y-106404761D02*
X117657200Y-106309523D01*
X117657200Y-106309523D02*
X117609580Y-106261904D01*
X117609580Y-106261904D02*
X117514342Y-106214285D01*
X117514342Y-106214285D02*
X117276247Y-106214285D01*
X117276247Y-106214285D02*
X117181009Y-106261904D01*
X117181009Y-106261904D02*
X117133390Y-106309523D01*
X117133390Y-106309523D02*
X117085771Y-106404761D01*
X117085771Y-106404761D02*
X117085771Y-106595237D01*
X117085771Y-106595237D02*
X117133390Y-106690475D01*
X117133390Y-106690475D02*
X117181009Y-106738094D01*
X117181009Y-106738094D02*
X117276247Y-106785713D01*
X138416666Y-124704819D02*
X138416666Y-125419104D01*
X138416666Y-125419104D02*
X138369047Y-125561961D01*
X138369047Y-125561961D02*
X138273809Y-125657200D01*
X138273809Y-125657200D02*
X138130952Y-125704819D01*
X138130952Y-125704819D02*
X138035714Y-125704819D01*
X139416666Y-125704819D02*
X138845238Y-125704819D01*
X139130952Y-125704819D02*
X139130952Y-124704819D01*
X139130952Y-124704819D02*
X139035714Y-124847676D01*
X139035714Y-124847676D02*
X138940476Y-124942914D01*
X138940476Y-124942914D02*
X138845238Y-124990533D01*
X70011905Y-132204819D02*
X70011905Y-131204819D01*
X70011905Y-131204819D02*
X70250000Y-131204819D01*
X70250000Y-131204819D02*
X70392857Y-131252438D01*
X70392857Y-131252438D02*
X70488095Y-131347676D01*
X70488095Y-131347676D02*
X70535714Y-131442914D01*
X70535714Y-131442914D02*
X70583333Y-131633390D01*
X70583333Y-131633390D02*
X70583333Y-131776247D01*
X70583333Y-131776247D02*
X70535714Y-131966723D01*
X70535714Y-131966723D02*
X70488095Y-132061961D01*
X70488095Y-132061961D02*
X70392857Y-132157200D01*
X70392857Y-132157200D02*
X70250000Y-132204819D01*
X70250000Y-132204819D02*
X70011905Y-132204819D01*
X70964286Y-131300057D02*
X71011905Y-131252438D01*
X71011905Y-131252438D02*
X71107143Y-131204819D01*
X71107143Y-131204819D02*
X71345238Y-131204819D01*
X71345238Y-131204819D02*
X71440476Y-131252438D01*
X71440476Y-131252438D02*
X71488095Y-131300057D01*
X71488095Y-131300057D02*
X71535714Y-131395295D01*
X71535714Y-131395295D02*
X71535714Y-131490533D01*
X71535714Y-131490533D02*
X71488095Y-131633390D01*
X71488095Y-131633390D02*
X70916667Y-132204819D01*
X70916667Y-132204819D02*
X71535714Y-132204819D01*
X76357142Y-98459580D02*
X76309523Y-98507200D01*
X76309523Y-98507200D02*
X76166666Y-98554819D01*
X76166666Y-98554819D02*
X76071428Y-98554819D01*
X76071428Y-98554819D02*
X75928571Y-98507200D01*
X75928571Y-98507200D02*
X75833333Y-98411961D01*
X75833333Y-98411961D02*
X75785714Y-98316723D01*
X75785714Y-98316723D02*
X75738095Y-98126247D01*
X75738095Y-98126247D02*
X75738095Y-97983390D01*
X75738095Y-97983390D02*
X75785714Y-97792914D01*
X75785714Y-97792914D02*
X75833333Y-97697676D01*
X75833333Y-97697676D02*
X75928571Y-97602438D01*
X75928571Y-97602438D02*
X76071428Y-97554819D01*
X76071428Y-97554819D02*
X76166666Y-97554819D01*
X76166666Y-97554819D02*
X76309523Y-97602438D01*
X76309523Y-97602438D02*
X76357142Y-97650057D01*
X77309523Y-98554819D02*
X76738095Y-98554819D01*
X77023809Y-98554819D02*
X77023809Y-97554819D01*
X77023809Y-97554819D02*
X76928571Y-97697676D01*
X76928571Y-97697676D02*
X76833333Y-97792914D01*
X76833333Y-97792914D02*
X76738095Y-97840533D01*
X78214285Y-97554819D02*
X77738095Y-97554819D01*
X77738095Y-97554819D02*
X77690476Y-98031009D01*
X77690476Y-98031009D02*
X77738095Y-97983390D01*
X77738095Y-97983390D02*
X77833333Y-97935771D01*
X77833333Y-97935771D02*
X78071428Y-97935771D01*
X78071428Y-97935771D02*
X78166666Y-97983390D01*
X78166666Y-97983390D02*
X78214285Y-98031009D01*
X78214285Y-98031009D02*
X78261904Y-98126247D01*
X78261904Y-98126247D02*
X78261904Y-98364342D01*
X78261904Y-98364342D02*
X78214285Y-98459580D01*
X78214285Y-98459580D02*
X78166666Y-98507200D01*
X78166666Y-98507200D02*
X78071428Y-98554819D01*
X78071428Y-98554819D02*
X77833333Y-98554819D01*
X77833333Y-98554819D02*
X77738095Y-98507200D01*
X77738095Y-98507200D02*
X77690476Y-98459580D01*
X115083333Y-112109580D02*
X115035714Y-112157200D01*
X115035714Y-112157200D02*
X114892857Y-112204819D01*
X114892857Y-112204819D02*
X114797619Y-112204819D01*
X114797619Y-112204819D02*
X114654762Y-112157200D01*
X114654762Y-112157200D02*
X114559524Y-112061961D01*
X114559524Y-112061961D02*
X114511905Y-111966723D01*
X114511905Y-111966723D02*
X114464286Y-111776247D01*
X114464286Y-111776247D02*
X114464286Y-111633390D01*
X114464286Y-111633390D02*
X114511905Y-111442914D01*
X114511905Y-111442914D02*
X114559524Y-111347676D01*
X114559524Y-111347676D02*
X114654762Y-111252438D01*
X114654762Y-111252438D02*
X114797619Y-111204819D01*
X114797619Y-111204819D02*
X114892857Y-111204819D01*
X114892857Y-111204819D02*
X115035714Y-111252438D01*
X115035714Y-111252438D02*
X115083333Y-111300057D01*
X116035714Y-112204819D02*
X115464286Y-112204819D01*
X115750000Y-112204819D02*
X115750000Y-111204819D01*
X115750000Y-111204819D02*
X115654762Y-111347676D01*
X115654762Y-111347676D02*
X115559524Y-111442914D01*
X115559524Y-111442914D02*
X115464286Y-111490533D01*
X84209166Y-130954819D02*
X84209166Y-131669104D01*
X84209166Y-131669104D02*
X84161547Y-131811961D01*
X84161547Y-131811961D02*
X84066309Y-131907200D01*
X84066309Y-131907200D02*
X83923452Y-131954819D01*
X83923452Y-131954819D02*
X83828214Y-131954819D01*
X85161547Y-130954819D02*
X84685357Y-130954819D01*
X84685357Y-130954819D02*
X84637738Y-131431009D01*
X84637738Y-131431009D02*
X84685357Y-131383390D01*
X84685357Y-131383390D02*
X84780595Y-131335771D01*
X84780595Y-131335771D02*
X85018690Y-131335771D01*
X85018690Y-131335771D02*
X85113928Y-131383390D01*
X85113928Y-131383390D02*
X85161547Y-131431009D01*
X85161547Y-131431009D02*
X85209166Y-131526247D01*
X85209166Y-131526247D02*
X85209166Y-131764342D01*
X85209166Y-131764342D02*
X85161547Y-131859580D01*
X85161547Y-131859580D02*
X85113928Y-131907200D01*
X85113928Y-131907200D02*
X85018690Y-131954819D01*
X85018690Y-131954819D02*
X84780595Y-131954819D01*
X84780595Y-131954819D02*
X84685357Y-131907200D01*
X84685357Y-131907200D02*
X84637738Y-131859580D01*
X119357142Y-127859580D02*
X119309523Y-127907200D01*
X119309523Y-127907200D02*
X119166666Y-127954819D01*
X119166666Y-127954819D02*
X119071428Y-127954819D01*
X119071428Y-127954819D02*
X118928571Y-127907200D01*
X118928571Y-127907200D02*
X118833333Y-127811961D01*
X118833333Y-127811961D02*
X118785714Y-127716723D01*
X118785714Y-127716723D02*
X118738095Y-127526247D01*
X118738095Y-127526247D02*
X118738095Y-127383390D01*
X118738095Y-127383390D02*
X118785714Y-127192914D01*
X118785714Y-127192914D02*
X118833333Y-127097676D01*
X118833333Y-127097676D02*
X118928571Y-127002438D01*
X118928571Y-127002438D02*
X119071428Y-126954819D01*
X119071428Y-126954819D02*
X119166666Y-126954819D01*
X119166666Y-126954819D02*
X119309523Y-127002438D01*
X119309523Y-127002438D02*
X119357142Y-127050057D01*
X120309523Y-127954819D02*
X119738095Y-127954819D01*
X120023809Y-127954819D02*
X120023809Y-126954819D01*
X120023809Y-126954819D02*
X119928571Y-127097676D01*
X119928571Y-127097676D02*
X119833333Y-127192914D01*
X119833333Y-127192914D02*
X119738095Y-127240533D01*
X121166666Y-126954819D02*
X120976190Y-126954819D01*
X120976190Y-126954819D02*
X120880952Y-127002438D01*
X120880952Y-127002438D02*
X120833333Y-127050057D01*
X120833333Y-127050057D02*
X120738095Y-127192914D01*
X120738095Y-127192914D02*
X120690476Y-127383390D01*
X120690476Y-127383390D02*
X120690476Y-127764342D01*
X120690476Y-127764342D02*
X120738095Y-127859580D01*
X120738095Y-127859580D02*
X120785714Y-127907200D01*
X120785714Y-127907200D02*
X120880952Y-127954819D01*
X120880952Y-127954819D02*
X121071428Y-127954819D01*
X121071428Y-127954819D02*
X121166666Y-127907200D01*
X121166666Y-127907200D02*
X121214285Y-127859580D01*
X121214285Y-127859580D02*
X121261904Y-127764342D01*
X121261904Y-127764342D02*
X121261904Y-127526247D01*
X121261904Y-127526247D02*
X121214285Y-127431009D01*
X121214285Y-127431009D02*
X121166666Y-127383390D01*
X121166666Y-127383390D02*
X121071428Y-127335771D01*
X121071428Y-127335771D02*
X120880952Y-127335771D01*
X120880952Y-127335771D02*
X120785714Y-127383390D01*
X120785714Y-127383390D02*
X120738095Y-127431009D01*
X120738095Y-127431009D02*
X120690476Y-127526247D01*
X101239104Y-140204285D02*
X101239104Y-139728095D01*
X101524819Y-140299523D02*
X100524819Y-139966190D01*
X100524819Y-139966190D02*
X101524819Y-139632857D01*
X100620057Y-139347142D02*
X100572438Y-139299523D01*
X100572438Y-139299523D02*
X100524819Y-139204285D01*
X100524819Y-139204285D02*
X100524819Y-138966190D01*
X100524819Y-138966190D02*
X100572438Y-138870952D01*
X100572438Y-138870952D02*
X100620057Y-138823333D01*
X100620057Y-138823333D02*
X100715295Y-138775714D01*
X100715295Y-138775714D02*
X100810533Y-138775714D01*
X100810533Y-138775714D02*
X100953390Y-138823333D01*
X100953390Y-138823333D02*
X101524819Y-139394761D01*
X101524819Y-139394761D02*
X101524819Y-138775714D01*
X105785714Y-95919104D02*
X106261904Y-95919104D01*
X105690476Y-96204819D02*
X106023809Y-95204819D01*
X106023809Y-95204819D02*
X106357142Y-96204819D01*
X107214285Y-96204819D02*
X106642857Y-96204819D01*
X106928571Y-96204819D02*
X106928571Y-95204819D01*
X106928571Y-95204819D02*
X106833333Y-95347676D01*
X106833333Y-95347676D02*
X106738095Y-95442914D01*
X106738095Y-95442914D02*
X106642857Y-95490533D01*
X99188095Y-141154819D02*
X99188095Y-141964342D01*
X99188095Y-141964342D02*
X99235714Y-142059580D01*
X99235714Y-142059580D02*
X99283333Y-142107200D01*
X99283333Y-142107200D02*
X99378571Y-142154819D01*
X99378571Y-142154819D02*
X99569047Y-142154819D01*
X99569047Y-142154819D02*
X99664285Y-142107200D01*
X99664285Y-142107200D02*
X99711904Y-142059580D01*
X99711904Y-142059580D02*
X99759523Y-141964342D01*
X99759523Y-141964342D02*
X99759523Y-141154819D01*
X100188095Y-141250057D02*
X100235714Y-141202438D01*
X100235714Y-141202438D02*
X100330952Y-141154819D01*
X100330952Y-141154819D02*
X100569047Y-141154819D01*
X100569047Y-141154819D02*
X100664285Y-141202438D01*
X100664285Y-141202438D02*
X100711904Y-141250057D01*
X100711904Y-141250057D02*
X100759523Y-141345295D01*
X100759523Y-141345295D02*
X100759523Y-141440533D01*
X100759523Y-141440533D02*
X100711904Y-141583390D01*
X100711904Y-141583390D02*
X100140476Y-142154819D01*
X100140476Y-142154819D02*
X100759523Y-142154819D01*
X88907142Y-137059580D02*
X88859523Y-137107200D01*
X88859523Y-137107200D02*
X88716666Y-137154819D01*
X88716666Y-137154819D02*
X88621428Y-137154819D01*
X88621428Y-137154819D02*
X88478571Y-137107200D01*
X88478571Y-137107200D02*
X88383333Y-137011961D01*
X88383333Y-137011961D02*
X88335714Y-136916723D01*
X88335714Y-136916723D02*
X88288095Y-136726247D01*
X88288095Y-136726247D02*
X88288095Y-136583390D01*
X88288095Y-136583390D02*
X88335714Y-136392914D01*
X88335714Y-136392914D02*
X88383333Y-136297676D01*
X88383333Y-136297676D02*
X88478571Y-136202438D01*
X88478571Y-136202438D02*
X88621428Y-136154819D01*
X88621428Y-136154819D02*
X88716666Y-136154819D01*
X88716666Y-136154819D02*
X88859523Y-136202438D01*
X88859523Y-136202438D02*
X88907142Y-136250057D01*
X89859523Y-137154819D02*
X89288095Y-137154819D01*
X89573809Y-137154819D02*
X89573809Y-136154819D01*
X89573809Y-136154819D02*
X89478571Y-136297676D01*
X89478571Y-136297676D02*
X89383333Y-136392914D01*
X89383333Y-136392914D02*
X89288095Y-136440533D01*
X90240476Y-136250057D02*
X90288095Y-136202438D01*
X90288095Y-136202438D02*
X90383333Y-136154819D01*
X90383333Y-136154819D02*
X90621428Y-136154819D01*
X90621428Y-136154819D02*
X90716666Y-136202438D01*
X90716666Y-136202438D02*
X90764285Y-136250057D01*
X90764285Y-136250057D02*
X90811904Y-136345295D01*
X90811904Y-136345295D02*
X90811904Y-136440533D01*
X90811904Y-136440533D02*
X90764285Y-136583390D01*
X90764285Y-136583390D02*
X90192857Y-137154819D01*
X90192857Y-137154819D02*
X90811904Y-137154819D01*
X122583333Y-109204819D02*
X122250000Y-108728628D01*
X122011905Y-109204819D02*
X122011905Y-108204819D01*
X122011905Y-108204819D02*
X122392857Y-108204819D01*
X122392857Y-108204819D02*
X122488095Y-108252438D01*
X122488095Y-108252438D02*
X122535714Y-108300057D01*
X122535714Y-108300057D02*
X122583333Y-108395295D01*
X122583333Y-108395295D02*
X122583333Y-108538152D01*
X122583333Y-108538152D02*
X122535714Y-108633390D01*
X122535714Y-108633390D02*
X122488095Y-108681009D01*
X122488095Y-108681009D02*
X122392857Y-108728628D01*
X122392857Y-108728628D02*
X122011905Y-108728628D01*
X123535714Y-109204819D02*
X122964286Y-109204819D01*
X123250000Y-109204819D02*
X123250000Y-108204819D01*
X123250000Y-108204819D02*
X123154762Y-108347676D01*
X123154762Y-108347676D02*
X123059524Y-108442914D01*
X123059524Y-108442914D02*
X122964286Y-108490533D01*
X129583333Y-127359580D02*
X129535714Y-127407200D01*
X129535714Y-127407200D02*
X129392857Y-127454819D01*
X129392857Y-127454819D02*
X129297619Y-127454819D01*
X129297619Y-127454819D02*
X129154762Y-127407200D01*
X129154762Y-127407200D02*
X129059524Y-127311961D01*
X129059524Y-127311961D02*
X129011905Y-127216723D01*
X129011905Y-127216723D02*
X128964286Y-127026247D01*
X128964286Y-127026247D02*
X128964286Y-126883390D01*
X128964286Y-126883390D02*
X129011905Y-126692914D01*
X129011905Y-126692914D02*
X129059524Y-126597676D01*
X129059524Y-126597676D02*
X129154762Y-126502438D01*
X129154762Y-126502438D02*
X129297619Y-126454819D01*
X129297619Y-126454819D02*
X129392857Y-126454819D01*
X129392857Y-126454819D02*
X129535714Y-126502438D01*
X129535714Y-126502438D02*
X129583333Y-126550057D01*
X129964286Y-126550057D02*
X130011905Y-126502438D01*
X130011905Y-126502438D02*
X130107143Y-126454819D01*
X130107143Y-126454819D02*
X130345238Y-126454819D01*
X130345238Y-126454819D02*
X130440476Y-126502438D01*
X130440476Y-126502438D02*
X130488095Y-126550057D01*
X130488095Y-126550057D02*
X130535714Y-126645295D01*
X130535714Y-126645295D02*
X130535714Y-126740533D01*
X130535714Y-126740533D02*
X130488095Y-126883390D01*
X130488095Y-126883390D02*
X129916667Y-127454819D01*
X129916667Y-127454819D02*
X130535714Y-127454819D01*
X127857142Y-129359580D02*
X127809523Y-129407200D01*
X127809523Y-129407200D02*
X127666666Y-129454819D01*
X127666666Y-129454819D02*
X127571428Y-129454819D01*
X127571428Y-129454819D02*
X127428571Y-129407200D01*
X127428571Y-129407200D02*
X127333333Y-129311961D01*
X127333333Y-129311961D02*
X127285714Y-129216723D01*
X127285714Y-129216723D02*
X127238095Y-129026247D01*
X127238095Y-129026247D02*
X127238095Y-128883390D01*
X127238095Y-128883390D02*
X127285714Y-128692914D01*
X127285714Y-128692914D02*
X127333333Y-128597676D01*
X127333333Y-128597676D02*
X127428571Y-128502438D01*
X127428571Y-128502438D02*
X127571428Y-128454819D01*
X127571428Y-128454819D02*
X127666666Y-128454819D01*
X127666666Y-128454819D02*
X127809523Y-128502438D01*
X127809523Y-128502438D02*
X127857142Y-128550057D01*
X128809523Y-129454819D02*
X128238095Y-129454819D01*
X128523809Y-129454819D02*
X128523809Y-128454819D01*
X128523809Y-128454819D02*
X128428571Y-128597676D01*
X128428571Y-128597676D02*
X128333333Y-128692914D01*
X128333333Y-128692914D02*
X128238095Y-128740533D01*
X129142857Y-128454819D02*
X129809523Y-128454819D01*
X129809523Y-128454819D02*
X129380952Y-129454819D01*
X107907200Y-104333332D02*
X107954819Y-104190475D01*
X107954819Y-104190475D02*
X107954819Y-103952380D01*
X107954819Y-103952380D02*
X107907200Y-103857142D01*
X107907200Y-103857142D02*
X107859580Y-103809523D01*
X107859580Y-103809523D02*
X107764342Y-103761904D01*
X107764342Y-103761904D02*
X107669104Y-103761904D01*
X107669104Y-103761904D02*
X107573866Y-103809523D01*
X107573866Y-103809523D02*
X107526247Y-103857142D01*
X107526247Y-103857142D02*
X107478628Y-103952380D01*
X107478628Y-103952380D02*
X107431009Y-104142856D01*
X107431009Y-104142856D02*
X107383390Y-104238094D01*
X107383390Y-104238094D02*
X107335771Y-104285713D01*
X107335771Y-104285713D02*
X107240533Y-104333332D01*
X107240533Y-104333332D02*
X107145295Y-104333332D01*
X107145295Y-104333332D02*
X107050057Y-104285713D01*
X107050057Y-104285713D02*
X107002438Y-104238094D01*
X107002438Y-104238094D02*
X106954819Y-104142856D01*
X106954819Y-104142856D02*
X106954819Y-103904761D01*
X106954819Y-103904761D02*
X107002438Y-103761904D01*
X106954819Y-103428570D02*
X107954819Y-103190475D01*
X107954819Y-103190475D02*
X107240533Y-102999999D01*
X107240533Y-102999999D02*
X107954819Y-102809523D01*
X107954819Y-102809523D02*
X106954819Y-102571428D01*
X107050057Y-102238094D02*
X107002438Y-102190475D01*
X107002438Y-102190475D02*
X106954819Y-102095237D01*
X106954819Y-102095237D02*
X106954819Y-101857142D01*
X106954819Y-101857142D02*
X107002438Y-101761904D01*
X107002438Y-101761904D02*
X107050057Y-101714285D01*
X107050057Y-101714285D02*
X107145295Y-101666666D01*
X107145295Y-101666666D02*
X107240533Y-101666666D01*
X107240533Y-101666666D02*
X107383390Y-101714285D01*
X107383390Y-101714285D02*
X107954819Y-102285713D01*
X107954819Y-102285713D02*
X107954819Y-101666666D01*
X118333333Y-110109580D02*
X118285714Y-110157200D01*
X118285714Y-110157200D02*
X118142857Y-110204819D01*
X118142857Y-110204819D02*
X118047619Y-110204819D01*
X118047619Y-110204819D02*
X117904762Y-110157200D01*
X117904762Y-110157200D02*
X117809524Y-110061961D01*
X117809524Y-110061961D02*
X117761905Y-109966723D01*
X117761905Y-109966723D02*
X117714286Y-109776247D01*
X117714286Y-109776247D02*
X117714286Y-109633390D01*
X117714286Y-109633390D02*
X117761905Y-109442914D01*
X117761905Y-109442914D02*
X117809524Y-109347676D01*
X117809524Y-109347676D02*
X117904762Y-109252438D01*
X117904762Y-109252438D02*
X118047619Y-109204819D01*
X118047619Y-109204819D02*
X118142857Y-109204819D01*
X118142857Y-109204819D02*
X118285714Y-109252438D01*
X118285714Y-109252438D02*
X118333333Y-109300057D01*
X119190476Y-109538152D02*
X119190476Y-110204819D01*
X118952381Y-109157200D02*
X118714286Y-109871485D01*
X118714286Y-109871485D02*
X119333333Y-109871485D01*
X117407200Y-95928332D02*
X117454819Y-95785475D01*
X117454819Y-95785475D02*
X117454819Y-95547380D01*
X117454819Y-95547380D02*
X117407200Y-95452142D01*
X117407200Y-95452142D02*
X117359580Y-95404523D01*
X117359580Y-95404523D02*
X117264342Y-95356904D01*
X117264342Y-95356904D02*
X117169104Y-95356904D01*
X117169104Y-95356904D02*
X117073866Y-95404523D01*
X117073866Y-95404523D02*
X117026247Y-95452142D01*
X117026247Y-95452142D02*
X116978628Y-95547380D01*
X116978628Y-95547380D02*
X116931009Y-95737856D01*
X116931009Y-95737856D02*
X116883390Y-95833094D01*
X116883390Y-95833094D02*
X116835771Y-95880713D01*
X116835771Y-95880713D02*
X116740533Y-95928332D01*
X116740533Y-95928332D02*
X116645295Y-95928332D01*
X116645295Y-95928332D02*
X116550057Y-95880713D01*
X116550057Y-95880713D02*
X116502438Y-95833094D01*
X116502438Y-95833094D02*
X116454819Y-95737856D01*
X116454819Y-95737856D02*
X116454819Y-95499761D01*
X116454819Y-95499761D02*
X116502438Y-95356904D01*
X116454819Y-95023570D02*
X117454819Y-94785475D01*
X117454819Y-94785475D02*
X116740533Y-94594999D01*
X116740533Y-94594999D02*
X117454819Y-94404523D01*
X117454819Y-94404523D02*
X116454819Y-94166428D01*
X117454819Y-93261666D02*
X117454819Y-93833094D01*
X117454819Y-93547380D02*
X116454819Y-93547380D01*
X116454819Y-93547380D02*
X116597676Y-93642618D01*
X116597676Y-93642618D02*
X116692914Y-93737856D01*
X116692914Y-93737856D02*
X116740533Y-93833094D01*
X99533333Y-134404819D02*
X99200000Y-133928628D01*
X98961905Y-134404819D02*
X98961905Y-133404819D01*
X98961905Y-133404819D02*
X99342857Y-133404819D01*
X99342857Y-133404819D02*
X99438095Y-133452438D01*
X99438095Y-133452438D02*
X99485714Y-133500057D01*
X99485714Y-133500057D02*
X99533333Y-133595295D01*
X99533333Y-133595295D02*
X99533333Y-133738152D01*
X99533333Y-133738152D02*
X99485714Y-133833390D01*
X99485714Y-133833390D02*
X99438095Y-133881009D01*
X99438095Y-133881009D02*
X99342857Y-133928628D01*
X99342857Y-133928628D02*
X98961905Y-133928628D01*
X100390476Y-133738152D02*
X100390476Y-134404819D01*
X100152381Y-133357200D02*
X99914286Y-134071485D01*
X99914286Y-134071485D02*
X100533333Y-134071485D01*
X133609580Y-144142857D02*
X133657200Y-144190476D01*
X133657200Y-144190476D02*
X133704819Y-144333333D01*
X133704819Y-144333333D02*
X133704819Y-144428571D01*
X133704819Y-144428571D02*
X133657200Y-144571428D01*
X133657200Y-144571428D02*
X133561961Y-144666666D01*
X133561961Y-144666666D02*
X133466723Y-144714285D01*
X133466723Y-144714285D02*
X133276247Y-144761904D01*
X133276247Y-144761904D02*
X133133390Y-144761904D01*
X133133390Y-144761904D02*
X132942914Y-144714285D01*
X132942914Y-144714285D02*
X132847676Y-144666666D01*
X132847676Y-144666666D02*
X132752438Y-144571428D01*
X132752438Y-144571428D02*
X132704819Y-144428571D01*
X132704819Y-144428571D02*
X132704819Y-144333333D01*
X132704819Y-144333333D02*
X132752438Y-144190476D01*
X132752438Y-144190476D02*
X132800057Y-144142857D01*
X133704819Y-143190476D02*
X133704819Y-143761904D01*
X133704819Y-143476190D02*
X132704819Y-143476190D01*
X132704819Y-143476190D02*
X132847676Y-143571428D01*
X132847676Y-143571428D02*
X132942914Y-143666666D01*
X132942914Y-143666666D02*
X132990533Y-143761904D01*
X133133390Y-142619047D02*
X133085771Y-142714285D01*
X133085771Y-142714285D02*
X133038152Y-142761904D01*
X133038152Y-142761904D02*
X132942914Y-142809523D01*
X132942914Y-142809523D02*
X132895295Y-142809523D01*
X132895295Y-142809523D02*
X132800057Y-142761904D01*
X132800057Y-142761904D02*
X132752438Y-142714285D01*
X132752438Y-142714285D02*
X132704819Y-142619047D01*
X132704819Y-142619047D02*
X132704819Y-142428571D01*
X132704819Y-142428571D02*
X132752438Y-142333333D01*
X132752438Y-142333333D02*
X132800057Y-142285714D01*
X132800057Y-142285714D02*
X132895295Y-142238095D01*
X132895295Y-142238095D02*
X132942914Y-142238095D01*
X132942914Y-142238095D02*
X133038152Y-142285714D01*
X133038152Y-142285714D02*
X133085771Y-142333333D01*
X133085771Y-142333333D02*
X133133390Y-142428571D01*
X133133390Y-142428571D02*
X133133390Y-142619047D01*
X133133390Y-142619047D02*
X133181009Y-142714285D01*
X133181009Y-142714285D02*
X133228628Y-142761904D01*
X133228628Y-142761904D02*
X133323866Y-142809523D01*
X133323866Y-142809523D02*
X133514342Y-142809523D01*
X133514342Y-142809523D02*
X133609580Y-142761904D01*
X133609580Y-142761904D02*
X133657200Y-142714285D01*
X133657200Y-142714285D02*
X133704819Y-142619047D01*
X133704819Y-142619047D02*
X133704819Y-142428571D01*
X133704819Y-142428571D02*
X133657200Y-142333333D01*
X133657200Y-142333333D02*
X133609580Y-142285714D01*
X133609580Y-142285714D02*
X133514342Y-142238095D01*
X133514342Y-142238095D02*
X133323866Y-142238095D01*
X133323866Y-142238095D02*
X133228628Y-142285714D01*
X133228628Y-142285714D02*
X133181009Y-142333333D01*
X133181009Y-142333333D02*
X133133390Y-142428571D01*
X111857142Y-120839580D02*
X111809523Y-120887200D01*
X111809523Y-120887200D02*
X111666666Y-120934819D01*
X111666666Y-120934819D02*
X111571428Y-120934819D01*
X111571428Y-120934819D02*
X111428571Y-120887200D01*
X111428571Y-120887200D02*
X111333333Y-120791961D01*
X111333333Y-120791961D02*
X111285714Y-120696723D01*
X111285714Y-120696723D02*
X111238095Y-120506247D01*
X111238095Y-120506247D02*
X111238095Y-120363390D01*
X111238095Y-120363390D02*
X111285714Y-120172914D01*
X111285714Y-120172914D02*
X111333333Y-120077676D01*
X111333333Y-120077676D02*
X111428571Y-119982438D01*
X111428571Y-119982438D02*
X111571428Y-119934819D01*
X111571428Y-119934819D02*
X111666666Y-119934819D01*
X111666666Y-119934819D02*
X111809523Y-119982438D01*
X111809523Y-119982438D02*
X111857142Y-120030057D01*
X112809523Y-120934819D02*
X112238095Y-120934819D01*
X112523809Y-120934819D02*
X112523809Y-119934819D01*
X112523809Y-119934819D02*
X112428571Y-120077676D01*
X112428571Y-120077676D02*
X112333333Y-120172914D01*
X112333333Y-120172914D02*
X112238095Y-120220533D01*
X113761904Y-120934819D02*
X113190476Y-120934819D01*
X113476190Y-120934819D02*
X113476190Y-119934819D01*
X113476190Y-119934819D02*
X113380952Y-120077676D01*
X113380952Y-120077676D02*
X113285714Y-120172914D01*
X113285714Y-120172914D02*
X113190476Y-120220533D01*
X110957142Y-113859580D02*
X110909523Y-113907200D01*
X110909523Y-113907200D02*
X110766666Y-113954819D01*
X110766666Y-113954819D02*
X110671428Y-113954819D01*
X110671428Y-113954819D02*
X110528571Y-113907200D01*
X110528571Y-113907200D02*
X110433333Y-113811961D01*
X110433333Y-113811961D02*
X110385714Y-113716723D01*
X110385714Y-113716723D02*
X110338095Y-113526247D01*
X110338095Y-113526247D02*
X110338095Y-113383390D01*
X110338095Y-113383390D02*
X110385714Y-113192914D01*
X110385714Y-113192914D02*
X110433333Y-113097676D01*
X110433333Y-113097676D02*
X110528571Y-113002438D01*
X110528571Y-113002438D02*
X110671428Y-112954819D01*
X110671428Y-112954819D02*
X110766666Y-112954819D01*
X110766666Y-112954819D02*
X110909523Y-113002438D01*
X110909523Y-113002438D02*
X110957142Y-113050057D01*
X111909523Y-113954819D02*
X111338095Y-113954819D01*
X111623809Y-113954819D02*
X111623809Y-112954819D01*
X111623809Y-112954819D02*
X111528571Y-113097676D01*
X111528571Y-113097676D02*
X111433333Y-113192914D01*
X111433333Y-113192914D02*
X111338095Y-113240533D01*
X112528571Y-112954819D02*
X112623809Y-112954819D01*
X112623809Y-112954819D02*
X112719047Y-113002438D01*
X112719047Y-113002438D02*
X112766666Y-113050057D01*
X112766666Y-113050057D02*
X112814285Y-113145295D01*
X112814285Y-113145295D02*
X112861904Y-113335771D01*
X112861904Y-113335771D02*
X112861904Y-113573866D01*
X112861904Y-113573866D02*
X112814285Y-113764342D01*
X112814285Y-113764342D02*
X112766666Y-113859580D01*
X112766666Y-113859580D02*
X112719047Y-113907200D01*
X112719047Y-113907200D02*
X112623809Y-113954819D01*
X112623809Y-113954819D02*
X112528571Y-113954819D01*
X112528571Y-113954819D02*
X112433333Y-113907200D01*
X112433333Y-113907200D02*
X112385714Y-113859580D01*
X112385714Y-113859580D02*
X112338095Y-113764342D01*
X112338095Y-113764342D02*
X112290476Y-113573866D01*
X112290476Y-113573866D02*
X112290476Y-113335771D01*
X112290476Y-113335771D02*
X112338095Y-113145295D01*
X112338095Y-113145295D02*
X112385714Y-113050057D01*
X112385714Y-113050057D02*
X112433333Y-113002438D01*
X112433333Y-113002438D02*
X112528571Y-112954819D01*
X129690476Y-130344819D02*
X129690476Y-131059104D01*
X129690476Y-131059104D02*
X129642857Y-131201961D01*
X129642857Y-131201961D02*
X129547619Y-131297200D01*
X129547619Y-131297200D02*
X129404762Y-131344819D01*
X129404762Y-131344819D02*
X129309524Y-131344819D01*
X130690476Y-131344819D02*
X130119048Y-131344819D01*
X130404762Y-131344819D02*
X130404762Y-130344819D01*
X130404762Y-130344819D02*
X130309524Y-130487676D01*
X130309524Y-130487676D02*
X130214286Y-130582914D01*
X130214286Y-130582914D02*
X130119048Y-130630533D01*
X131547619Y-130344819D02*
X131357143Y-130344819D01*
X131357143Y-130344819D02*
X131261905Y-130392438D01*
X131261905Y-130392438D02*
X131214286Y-130440057D01*
X131214286Y-130440057D02*
X131119048Y-130582914D01*
X131119048Y-130582914D02*
X131071429Y-130773390D01*
X131071429Y-130773390D02*
X131071429Y-131154342D01*
X131071429Y-131154342D02*
X131119048Y-131249580D01*
X131119048Y-131249580D02*
X131166667Y-131297200D01*
X131166667Y-131297200D02*
X131261905Y-131344819D01*
X131261905Y-131344819D02*
X131452381Y-131344819D01*
X131452381Y-131344819D02*
X131547619Y-131297200D01*
X131547619Y-131297200D02*
X131595238Y-131249580D01*
X131595238Y-131249580D02*
X131642857Y-131154342D01*
X131642857Y-131154342D02*
X131642857Y-130916247D01*
X131642857Y-130916247D02*
X131595238Y-130821009D01*
X131595238Y-130821009D02*
X131547619Y-130773390D01*
X131547619Y-130773390D02*
X131452381Y-130725771D01*
X131452381Y-130725771D02*
X131261905Y-130725771D01*
X131261905Y-130725771D02*
X131166667Y-130773390D01*
X131166667Y-130773390D02*
X131119048Y-130821009D01*
X131119048Y-130821009D02*
X131071429Y-130916247D01*
X112583333Y-123859580D02*
X112535714Y-123907200D01*
X112535714Y-123907200D02*
X112392857Y-123954819D01*
X112392857Y-123954819D02*
X112297619Y-123954819D01*
X112297619Y-123954819D02*
X112154762Y-123907200D01*
X112154762Y-123907200D02*
X112059524Y-123811961D01*
X112059524Y-123811961D02*
X112011905Y-123716723D01*
X112011905Y-123716723D02*
X111964286Y-123526247D01*
X111964286Y-123526247D02*
X111964286Y-123383390D01*
X111964286Y-123383390D02*
X112011905Y-123192914D01*
X112011905Y-123192914D02*
X112059524Y-123097676D01*
X112059524Y-123097676D02*
X112154762Y-123002438D01*
X112154762Y-123002438D02*
X112297619Y-122954819D01*
X112297619Y-122954819D02*
X112392857Y-122954819D01*
X112392857Y-122954819D02*
X112535714Y-123002438D01*
X112535714Y-123002438D02*
X112583333Y-123050057D01*
X112916667Y-122954819D02*
X113583333Y-122954819D01*
X113583333Y-122954819D02*
X113154762Y-123954819D01*
X115766666Y-126681009D02*
X115433333Y-126681009D01*
X115433333Y-127204819D02*
X115433333Y-126204819D01*
X115433333Y-126204819D02*
X115909523Y-126204819D01*
X116623809Y-126681009D02*
X116766666Y-126728628D01*
X116766666Y-126728628D02*
X116814285Y-126776247D01*
X116814285Y-126776247D02*
X116861904Y-126871485D01*
X116861904Y-126871485D02*
X116861904Y-127014342D01*
X116861904Y-127014342D02*
X116814285Y-127109580D01*
X116814285Y-127109580D02*
X116766666Y-127157200D01*
X116766666Y-127157200D02*
X116671428Y-127204819D01*
X116671428Y-127204819D02*
X116290476Y-127204819D01*
X116290476Y-127204819D02*
X116290476Y-126204819D01*
X116290476Y-126204819D02*
X116623809Y-126204819D01*
X116623809Y-126204819D02*
X116719047Y-126252438D01*
X116719047Y-126252438D02*
X116766666Y-126300057D01*
X116766666Y-126300057D02*
X116814285Y-126395295D01*
X116814285Y-126395295D02*
X116814285Y-126490533D01*
X116814285Y-126490533D02*
X116766666Y-126585771D01*
X116766666Y-126585771D02*
X116719047Y-126633390D01*
X116719047Y-126633390D02*
X116623809Y-126681009D01*
X116623809Y-126681009D02*
X116290476Y-126681009D01*
X117814285Y-127204819D02*
X117242857Y-127204819D01*
X117528571Y-127204819D02*
X117528571Y-126204819D01*
X117528571Y-126204819D02*
X117433333Y-126347676D01*
X117433333Y-126347676D02*
X117338095Y-126442914D01*
X117338095Y-126442914D02*
X117242857Y-126490533D01*
X112033333Y-96509580D02*
X111985714Y-96557200D01*
X111985714Y-96557200D02*
X111842857Y-96604819D01*
X111842857Y-96604819D02*
X111747619Y-96604819D01*
X111747619Y-96604819D02*
X111604762Y-96557200D01*
X111604762Y-96557200D02*
X111509524Y-96461961D01*
X111509524Y-96461961D02*
X111461905Y-96366723D01*
X111461905Y-96366723D02*
X111414286Y-96176247D01*
X111414286Y-96176247D02*
X111414286Y-96033390D01*
X111414286Y-96033390D02*
X111461905Y-95842914D01*
X111461905Y-95842914D02*
X111509524Y-95747676D01*
X111509524Y-95747676D02*
X111604762Y-95652438D01*
X111604762Y-95652438D02*
X111747619Y-95604819D01*
X111747619Y-95604819D02*
X111842857Y-95604819D01*
X111842857Y-95604819D02*
X111985714Y-95652438D01*
X111985714Y-95652438D02*
X112033333Y-95700057D01*
X112509524Y-96604819D02*
X112700000Y-96604819D01*
X112700000Y-96604819D02*
X112795238Y-96557200D01*
X112795238Y-96557200D02*
X112842857Y-96509580D01*
X112842857Y-96509580D02*
X112938095Y-96366723D01*
X112938095Y-96366723D02*
X112985714Y-96176247D01*
X112985714Y-96176247D02*
X112985714Y-95795295D01*
X112985714Y-95795295D02*
X112938095Y-95700057D01*
X112938095Y-95700057D02*
X112890476Y-95652438D01*
X112890476Y-95652438D02*
X112795238Y-95604819D01*
X112795238Y-95604819D02*
X112604762Y-95604819D01*
X112604762Y-95604819D02*
X112509524Y-95652438D01*
X112509524Y-95652438D02*
X112461905Y-95700057D01*
X112461905Y-95700057D02*
X112414286Y-95795295D01*
X112414286Y-95795295D02*
X112414286Y-96033390D01*
X112414286Y-96033390D02*
X112461905Y-96128628D01*
X112461905Y-96128628D02*
X112509524Y-96176247D01*
X112509524Y-96176247D02*
X112604762Y-96223866D01*
X112604762Y-96223866D02*
X112795238Y-96223866D01*
X112795238Y-96223866D02*
X112890476Y-96176247D01*
X112890476Y-96176247D02*
X112938095Y-96128628D01*
X112938095Y-96128628D02*
X112985714Y-96033390D01*
D12*
%TO.C,C14*%
X74620000Y-141750000D02*
G75*
G02*
X66380000Y-141750000I-4120000J0D01*
G01*
X66380000Y-141750000D02*
G75*
G02*
X74620000Y-141750000I4120000J0D01*
G01*
%TO.C,R3*%
X120420000Y-106346359D02*
X120420000Y-106653641D01*
X121180000Y-106346359D02*
X121180000Y-106653641D01*
%TO.C,J14*%
X103120000Y-109120000D02*
X104500000Y-109120000D01*
X103120000Y-110500000D02*
X103120000Y-109120000D01*
X103120000Y-111770000D02*
X103120000Y-111880000D01*
X103120000Y-111770000D02*
X105880000Y-111770000D01*
X103120000Y-111880000D02*
X105880000Y-111880000D01*
X105880000Y-111770000D02*
X105880000Y-111880000D01*
%TO.C,C8*%
X114907836Y-124240000D02*
X114692164Y-124240000D01*
X114907836Y-124960000D02*
X114692164Y-124960000D01*
%TO.C,C6*%
X115040000Y-120907836D02*
X115040000Y-120692164D01*
X115760000Y-120907836D02*
X115760000Y-120692164D01*
%TO.C,R2*%
X131620000Y-115346359D02*
X131620000Y-115653641D01*
X132380000Y-115346359D02*
X132380000Y-115653641D01*
%TO.C,U1*%
X117615000Y-113440000D02*
X118565000Y-113440000D01*
X117615000Y-114390000D02*
X117615000Y-113440000D01*
X117615000Y-123660000D02*
X117615000Y-122710000D01*
X118565000Y-123660000D02*
X117615000Y-123660000D01*
X126885000Y-113440000D02*
X127835000Y-113440000D01*
X127835000Y-113440000D02*
X127835000Y-114390000D01*
X127835000Y-122710000D02*
X127835000Y-123660000D01*
X127835000Y-123660000D02*
X126885000Y-123660000D01*
X116975000Y-114390000D02*
X116635000Y-113920000D01*
X117315000Y-113920000D01*
X116975000Y-114390000D01*
G36*
X116975000Y-114390000D02*
G01*
X116635000Y-113920000D01*
X117315000Y-113920000D01*
X116975000Y-114390000D01*
G37*
%TO.C,C3*%
X129890000Y-114142164D02*
X129890000Y-114357836D01*
X130610000Y-114142164D02*
X130610000Y-114357836D01*
%TO.C,D1*%
X94800000Y-134685000D02*
X97085000Y-134685000D01*
X97085000Y-133215000D02*
X94800000Y-133215000D01*
X97085000Y-134685000D02*
X97085000Y-133215000D01*
%TO.C,C5*%
X128359420Y-124240000D02*
X128640580Y-124240000D01*
X128359420Y-125260000D02*
X128640580Y-125260000D01*
%TO.C,Y1*%
X110440000Y-115420000D02*
X110440000Y-119540000D01*
X113860000Y-115420000D02*
X110440000Y-115420000D01*
%TO.C,R6*%
X118846359Y-106620000D02*
X119153641Y-106620000D01*
X118846359Y-107380000D02*
X119153641Y-107380000D01*
%TO.C,C13*%
X96738748Y-135915000D02*
X97261252Y-135915000D01*
X96738748Y-137385000D02*
X97261252Y-137385000D01*
D13*
%TO.C,G\u002A\u002A\u002A*%
G36*
X141399351Y-135579404D02*
G01*
X141399658Y-135630479D01*
X141399737Y-135672687D01*
X141399558Y-135707161D01*
X141399086Y-135735034D01*
X141398289Y-135757441D01*
X141397135Y-135775513D01*
X141395591Y-135790385D01*
X141393625Y-135803189D01*
X141392787Y-135807609D01*
X141381986Y-135852343D01*
X141366980Y-135900754D01*
X141348897Y-135949922D01*
X141328866Y-135996930D01*
X141308016Y-136038857D01*
X141294217Y-136062547D01*
X141283055Y-136079283D01*
X141268005Y-136100482D01*
X141250476Y-136124300D01*
X141231876Y-136148896D01*
X141213612Y-136172428D01*
X141197094Y-136193055D01*
X141183730Y-136208934D01*
X141175845Y-136217375D01*
X141160424Y-136232063D01*
X141160424Y-136001882D01*
X141160450Y-135944268D01*
X141160603Y-135895564D01*
X141161001Y-135854683D01*
X141161758Y-135820532D01*
X141162991Y-135792022D01*
X141164817Y-135768062D01*
X141167350Y-135747562D01*
X141170707Y-135729432D01*
X141175004Y-135712582D01*
X141180357Y-135695920D01*
X141186882Y-135678358D01*
X141194694Y-135658804D01*
X141197703Y-135651413D01*
X141223397Y-135594801D01*
X141251844Y-135545512D01*
X141284887Y-135500907D01*
X141324367Y-135458346D01*
X141347961Y-135436230D01*
X141397971Y-135391208D01*
X141399351Y-135579404D01*
G37*
G36*
X140317015Y-136500108D02*
G01*
X140317730Y-136514152D01*
X140318330Y-136536553D01*
X140318806Y-136566491D01*
X140319149Y-136603144D01*
X140319350Y-136645689D01*
X140319401Y-136693306D01*
X140319294Y-136745172D01*
X140319169Y-136774049D01*
X140317759Y-137052854D01*
X140305934Y-137085360D01*
X140280237Y-137146519D01*
X140246968Y-137210545D01*
X140207362Y-137275571D01*
X140162657Y-137339725D01*
X140114087Y-137401139D01*
X140062890Y-137457942D01*
X140052773Y-137468254D01*
X140032921Y-137487838D01*
X140009450Y-137510416D01*
X139983664Y-137534790D01*
X139956868Y-137559762D01*
X139930366Y-137584136D01*
X139905464Y-137606713D01*
X139883467Y-137626295D01*
X139865678Y-137641686D01*
X139853404Y-137651687D01*
X139851032Y-137653429D01*
X139839749Y-137661332D01*
X139841284Y-137339590D01*
X139842818Y-137017847D01*
X139856782Y-136972838D01*
X139884147Y-136901358D01*
X139920550Y-136834085D01*
X139965899Y-136771140D01*
X140020103Y-136712642D01*
X140083071Y-136658713D01*
X140109693Y-136639150D01*
X140135269Y-136620919D01*
X140162206Y-136601369D01*
X140187327Y-136582823D01*
X140207455Y-136567607D01*
X140207737Y-136567390D01*
X140229726Y-136550877D01*
X140252299Y-136534703D01*
X140273805Y-136519965D01*
X140292595Y-136507762D01*
X140307018Y-136499190D01*
X140315423Y-136495349D01*
X140316194Y-136495244D01*
X140317015Y-136500108D01*
G37*
G36*
X141399549Y-134677386D02*
G01*
X141399886Y-134689954D01*
X141400077Y-134710990D01*
X141400124Y-134738961D01*
X141400029Y-134772334D01*
X141399795Y-134809577D01*
X141399424Y-134849156D01*
X141399272Y-134862423D01*
X141398725Y-134906066D01*
X141398172Y-134941048D01*
X141397513Y-134968710D01*
X141396642Y-134990392D01*
X141395460Y-135007435D01*
X141393861Y-135021178D01*
X141391744Y-135032964D01*
X141389007Y-135044131D01*
X141385546Y-135056021D01*
X141384080Y-135060812D01*
X141362839Y-135122768D01*
X141339067Y-135177284D01*
X141311301Y-135226861D01*
X141278083Y-135274003D01*
X141237952Y-135321213D01*
X141222673Y-135337516D01*
X141160461Y-135402529D01*
X141161693Y-135120870D01*
X141161975Y-135060471D01*
X141162266Y-135009297D01*
X141162594Y-134966574D01*
X141162986Y-134931527D01*
X141163467Y-134903378D01*
X141164064Y-134881353D01*
X141164805Y-134864677D01*
X141165716Y-134852572D01*
X141166822Y-134844265D01*
X141168152Y-134838978D01*
X141169732Y-134835937D01*
X141171529Y-134834398D01*
X141178141Y-134829698D01*
X141191110Y-134819664D01*
X141209118Y-134805375D01*
X141230844Y-134787907D01*
X141254971Y-134768338D01*
X141280178Y-134747745D01*
X141305147Y-134727207D01*
X141328557Y-134707799D01*
X141349089Y-134690601D01*
X141365425Y-134676688D01*
X141375467Y-134667850D01*
X141397971Y-134647381D01*
X141399549Y-134677386D01*
G37*
G36*
X140920377Y-136194111D02*
G01*
X140920355Y-136249744D01*
X140920266Y-136296358D01*
X140920073Y-136334935D01*
X140919741Y-136366458D01*
X140919235Y-136391910D01*
X140918519Y-136412272D01*
X140917558Y-136428529D01*
X140916316Y-136441661D01*
X140914758Y-136452652D01*
X140912847Y-136462485D01*
X140910549Y-136472142D01*
X140910283Y-136473190D01*
X140900760Y-136502809D01*
X140886299Y-136537921D01*
X140868102Y-136576121D01*
X140847372Y-136615008D01*
X140825311Y-136652177D01*
X140806655Y-136680281D01*
X140788161Y-136704325D01*
X140763320Y-136733350D01*
X140733480Y-136765945D01*
X140699988Y-136800703D01*
X140664193Y-136836215D01*
X140627443Y-136871072D01*
X140601563Y-136894603D01*
X140560306Y-136931390D01*
X140560306Y-136665522D01*
X140560417Y-136596556D01*
X140560747Y-136536560D01*
X140561294Y-136485703D01*
X140562054Y-136444152D01*
X140563023Y-136412075D01*
X140564200Y-136389642D01*
X140565579Y-136377021D01*
X140565756Y-136376185D01*
X140572415Y-136355351D01*
X140583687Y-136328536D01*
X140598436Y-136297939D01*
X140615523Y-136265763D01*
X140633813Y-136234209D01*
X140652168Y-136205478D01*
X140659085Y-136195531D01*
X140681725Y-136166169D01*
X140709085Y-136134286D01*
X140739267Y-136101814D01*
X140770371Y-136070687D01*
X140800501Y-136042837D01*
X140827756Y-136020197D01*
X140840361Y-136010988D01*
X140860322Y-135997221D01*
X140880018Y-135983485D01*
X140895923Y-135972240D01*
X140899123Y-135969941D01*
X140920377Y-135954590D01*
X140920377Y-136194111D01*
G37*
G36*
X140916560Y-135059636D02*
G01*
X140917703Y-135073724D01*
X140918640Y-135097319D01*
X140919373Y-135130518D01*
X140919906Y-135173413D01*
X140920238Y-135226102D01*
X140920374Y-135288677D01*
X140920377Y-135301710D01*
X140920354Y-135358340D01*
X140920262Y-135405926D01*
X140920070Y-135445426D01*
X140919743Y-135477798D01*
X140919250Y-135504000D01*
X140918558Y-135524988D01*
X140917633Y-135541722D01*
X140916444Y-135555159D01*
X140914958Y-135566257D01*
X140913141Y-135575973D01*
X140910961Y-135585266D01*
X140910646Y-135586508D01*
X140893249Y-135638838D01*
X140867956Y-135692617D01*
X140836122Y-135745491D01*
X140799101Y-135795107D01*
X140774884Y-135822417D01*
X140754021Y-135842396D01*
X140727642Y-135864670D01*
X140697741Y-135887826D01*
X140666311Y-135910453D01*
X140635346Y-135931138D01*
X140606839Y-135948467D01*
X140582784Y-135961030D01*
X140574059Y-135964708D01*
X140560306Y-135969893D01*
X140560306Y-135695209D01*
X140560417Y-135623700D01*
X140560746Y-135561571D01*
X140561294Y-135508921D01*
X140562057Y-135465853D01*
X140563034Y-135432467D01*
X140564223Y-135408864D01*
X140565622Y-135395146D01*
X140565834Y-135394024D01*
X140577873Y-135354479D01*
X140597224Y-135312907D01*
X140622311Y-135271872D01*
X140651561Y-135233938D01*
X140683398Y-135201670D01*
X140684593Y-135200629D01*
X140701034Y-135187401D01*
X140722631Y-135171517D01*
X140747978Y-135153866D01*
X140775664Y-135135338D01*
X140804281Y-135116822D01*
X140832421Y-135099208D01*
X140858676Y-135083386D01*
X140881636Y-135070246D01*
X140899894Y-135060676D01*
X140912040Y-135055568D01*
X140915210Y-135054961D01*
X140916560Y-135059636D01*
G37*
G36*
X141501109Y-133785208D02*
G01*
X141505907Y-133786954D01*
X141509849Y-133790698D01*
X141513012Y-133797190D01*
X141515474Y-133807180D01*
X141517313Y-133821417D01*
X141518608Y-133840651D01*
X141519435Y-133865633D01*
X141519874Y-133897111D01*
X141520001Y-133935835D01*
X141519896Y-133982556D01*
X141519635Y-134038024D01*
X141519411Y-134080779D01*
X141517995Y-134353094D01*
X141495908Y-134397717D01*
X141484120Y-134420398D01*
X141472357Y-134439872D01*
X141459513Y-134457030D01*
X141444484Y-134472763D01*
X141426166Y-134487963D01*
X141403456Y-134503521D01*
X141375247Y-134520328D01*
X141340437Y-134539275D01*
X141297921Y-134561255D01*
X141285449Y-134567585D01*
X141250943Y-134585057D01*
X141217901Y-134601789D01*
X141187801Y-134617034D01*
X141162116Y-134630045D01*
X141142322Y-134640074D01*
X141129895Y-134646374D01*
X141129450Y-134646600D01*
X141106510Y-134656228D01*
X141084137Y-134662117D01*
X141064912Y-134663823D01*
X141051416Y-134660898D01*
X141050403Y-134660282D01*
X141048811Y-134658211D01*
X141047457Y-134653810D01*
X141046322Y-134646344D01*
X141045388Y-134635073D01*
X141044635Y-134619262D01*
X141044046Y-134598172D01*
X141043602Y-134571066D01*
X141043284Y-134537206D01*
X141043074Y-134495856D01*
X141042954Y-134446279D01*
X141042905Y-134387735D01*
X141042901Y-134361256D01*
X141042901Y-134067266D01*
X141060978Y-134029416D01*
X141078349Y-133999190D01*
X141100667Y-133969440D01*
X141125655Y-133942726D01*
X141151037Y-133921612D01*
X141163829Y-133913592D01*
X141178476Y-133906314D01*
X141199885Y-133896604D01*
X141226685Y-133885008D01*
X141257503Y-133872068D01*
X141290969Y-133858330D01*
X141325712Y-133844337D01*
X141360360Y-133830633D01*
X141393542Y-133817763D01*
X141423886Y-133806271D01*
X141450022Y-133796700D01*
X141470578Y-133789595D01*
X141484182Y-133785500D01*
X141488631Y-133784711D01*
X141495376Y-133784710D01*
X141501109Y-133785208D01*
G37*
G36*
X140316518Y-135489996D02*
G01*
X140317518Y-135504651D01*
X140318368Y-135528710D01*
X140319062Y-135561878D01*
X140319594Y-135603857D01*
X140319960Y-135654348D01*
X140320154Y-135713054D01*
X140320185Y-135758849D01*
X140320165Y-135821705D01*
X140320073Y-135875497D01*
X140319810Y-135921165D01*
X140319276Y-135959649D01*
X140318369Y-135991886D01*
X140316990Y-136018817D01*
X140315038Y-136041379D01*
X140312413Y-136060512D01*
X140309014Y-136077156D01*
X140304742Y-136092248D01*
X140299496Y-136106728D01*
X140293175Y-136121535D01*
X140285680Y-136137608D01*
X140278003Y-136153606D01*
X140235717Y-136232074D01*
X140187198Y-136303811D01*
X140131614Y-136369795D01*
X140068137Y-136431003D01*
X139995934Y-136488414D01*
X139990182Y-136492566D01*
X139965430Y-136510435D01*
X139940768Y-136528439D01*
X139918639Y-136544781D01*
X139901486Y-136557665D01*
X139897676Y-136560587D01*
X139880878Y-136573324D01*
X139865236Y-136584770D01*
X139854033Y-136592523D01*
X139853717Y-136592727D01*
X139839765Y-136601677D01*
X139841377Y-136264655D01*
X139841702Y-136198311D01*
X139842013Y-136141192D01*
X139842336Y-136092522D01*
X139842696Y-136051524D01*
X139843121Y-136017422D01*
X139843635Y-135989440D01*
X139844265Y-135966800D01*
X139845036Y-135948727D01*
X139845975Y-135934444D01*
X139847108Y-135923174D01*
X139848460Y-135914141D01*
X139850058Y-135906569D01*
X139851928Y-135899680D01*
X139853786Y-135893669D01*
X139877465Y-135833825D01*
X139909447Y-135777777D01*
X139950312Y-135724624D01*
X139988866Y-135684464D01*
X140007283Y-135668394D01*
X140032551Y-135648523D01*
X140062884Y-135626098D01*
X140096497Y-135602364D01*
X140131605Y-135578568D01*
X140166423Y-135555956D01*
X140199166Y-135535773D01*
X140215759Y-135526094D01*
X140232013Y-135517622D01*
X140251836Y-135508401D01*
X140272676Y-135499483D01*
X140291980Y-135491919D01*
X140307199Y-135486762D01*
X140315372Y-135485045D01*
X140316518Y-135489996D01*
G37*
G36*
X137303143Y-133407711D02*
G01*
X137337277Y-133408659D01*
X137362686Y-133410329D01*
X137380000Y-133412753D01*
X137384681Y-133413906D01*
X137393805Y-133417020D01*
X137411230Y-133423381D01*
X137435942Y-133432604D01*
X137466922Y-133444303D01*
X137503155Y-133458092D01*
X137543623Y-133473586D01*
X137587311Y-133490400D01*
X137633201Y-133508148D01*
X137633859Y-133508403D01*
X137860533Y-133596286D01*
X137833898Y-133612851D01*
X137822191Y-133619032D01*
X137802558Y-133628149D01*
X137776438Y-133639619D01*
X137745269Y-133652863D01*
X137710489Y-133667297D01*
X137673537Y-133682342D01*
X137635851Y-133697416D01*
X137598867Y-133711937D01*
X137564026Y-133725324D01*
X137532765Y-133736996D01*
X137506521Y-133746370D01*
X137490203Y-133751795D01*
X137428484Y-133768658D01*
X137362926Y-133781948D01*
X137296193Y-133791344D01*
X137230947Y-133796527D01*
X137169853Y-133797175D01*
X137132131Y-133794871D01*
X137115784Y-133793161D01*
X137101068Y-133791147D01*
X137086667Y-133788421D01*
X137071264Y-133784575D01*
X137053540Y-133779200D01*
X137032179Y-133771887D01*
X137005862Y-133762230D01*
X136973274Y-133749818D01*
X136933096Y-133734244D01*
X136919590Y-133728981D01*
X136881093Y-133713983D01*
X136841192Y-133698459D01*
X136802176Y-133683298D01*
X136766335Y-133669389D01*
X136735960Y-133657623D01*
X136719550Y-133651281D01*
X136683393Y-133637273D01*
X136655588Y-133626323D01*
X136635125Y-133617968D01*
X136620993Y-133611744D01*
X136612183Y-133607189D01*
X136607685Y-133603839D01*
X136606489Y-133601231D01*
X136607032Y-133599668D01*
X136614924Y-133593062D01*
X136632309Y-133583403D01*
X136659156Y-133570704D01*
X136695437Y-133554978D01*
X136741123Y-133536237D01*
X136796185Y-133514495D01*
X136823385Y-133503977D01*
X136883441Y-133481233D01*
X136935877Y-133462279D01*
X136982187Y-133446786D01*
X137023865Y-133434422D01*
X137062405Y-133424857D01*
X137099301Y-133417761D01*
X137136045Y-133412803D01*
X137174133Y-133409652D01*
X137215058Y-133407979D01*
X137259657Y-133407453D01*
X137303143Y-133407711D01*
G37*
G36*
X139947736Y-133076491D02*
G01*
X139985193Y-133080924D01*
X139999235Y-133084041D01*
X140017817Y-133089314D01*
X140041630Y-133096986D01*
X140071364Y-133107302D01*
X140107709Y-133120507D01*
X140151355Y-133136845D01*
X140202993Y-133156561D01*
X140251403Y-133175273D01*
X140296104Y-133192689D01*
X140337832Y-133209069D01*
X140375683Y-133224051D01*
X140408755Y-133237271D01*
X140436144Y-133248366D01*
X140456948Y-133256973D01*
X140470263Y-133262728D01*
X140475187Y-133265269D01*
X140475197Y-133265301D01*
X140470789Y-133269546D01*
X140458183Y-133276866D01*
X140438524Y-133286770D01*
X140412958Y-133298767D01*
X140382630Y-133312366D01*
X140348686Y-133327074D01*
X140312272Y-133342401D01*
X140274534Y-133357856D01*
X140236617Y-133372946D01*
X140199666Y-133387182D01*
X140164828Y-133400070D01*
X140142724Y-133407886D01*
X140076863Y-133427220D01*
X140005400Y-133442124D01*
X139931844Y-133452095D01*
X139859703Y-133456634D01*
X139805158Y-133456008D01*
X139784067Y-133454494D01*
X139763662Y-133451880D01*
X139742533Y-133447760D01*
X139719274Y-133441731D01*
X139692475Y-133433387D01*
X139660728Y-133422322D01*
X139622624Y-133408133D01*
X139576755Y-133390414D01*
X139576046Y-133390136D01*
X139535219Y-133374192D01*
X139492202Y-133357409D01*
X139449359Y-133340707D01*
X139409054Y-133325009D01*
X139373652Y-133311236D01*
X139348770Y-133301571D01*
X139316284Y-133289002D01*
X139292609Y-133279450D01*
X139277339Y-133272043D01*
X139270068Y-133265911D01*
X139270393Y-133260183D01*
X139277906Y-133253987D01*
X139292204Y-133246454D01*
X139312881Y-133236711D01*
X139317562Y-133234508D01*
X139339231Y-133224766D01*
X139367865Y-133212616D01*
X139401675Y-133198754D01*
X139438868Y-133183872D01*
X139477656Y-133168668D01*
X139516247Y-133153834D01*
X139552851Y-133140067D01*
X139585678Y-133128060D01*
X139612938Y-133118509D01*
X139632839Y-133112107D01*
X139633470Y-133111923D01*
X139683543Y-133099287D01*
X139737513Y-133089082D01*
X139793149Y-133081503D01*
X139848218Y-133076747D01*
X139900491Y-133075011D01*
X139947736Y-133076491D01*
G37*
G36*
X139036629Y-132732648D02*
G01*
X139070096Y-132733751D01*
X139096485Y-132735616D01*
X139114378Y-132738174D01*
X139115022Y-132738318D01*
X139126595Y-132741700D01*
X139145509Y-132748103D01*
X139170696Y-132757106D01*
X139201084Y-132768293D01*
X139235604Y-132781244D01*
X139273186Y-132795540D01*
X139312760Y-132810763D01*
X139353257Y-132826494D01*
X139393607Y-132842314D01*
X139432739Y-132857805D01*
X139469585Y-132872548D01*
X139503073Y-132886123D01*
X139532134Y-132898114D01*
X139555699Y-132908100D01*
X139572698Y-132915663D01*
X139582060Y-132920384D01*
X139583563Y-132921694D01*
X139577463Y-132927542D01*
X139562264Y-132936419D01*
X139538345Y-132948154D01*
X139506081Y-132962575D01*
X139465851Y-132979511D01*
X139418032Y-132998789D01*
X139390630Y-133009550D01*
X139344534Y-133027419D01*
X139306280Y-133041993D01*
X139274443Y-133053742D01*
X139247599Y-133063137D01*
X139224323Y-133070646D01*
X139203190Y-133076740D01*
X139182775Y-133081889D01*
X139161654Y-133086563D01*
X139149627Y-133089019D01*
X139087809Y-133099456D01*
X139026262Y-133106213D01*
X138967098Y-133109197D01*
X138912428Y-133108314D01*
X138864363Y-133103470D01*
X138855800Y-133102031D01*
X138843985Y-133098972D01*
X138824817Y-133092889D01*
X138799358Y-133084191D01*
X138768669Y-133073286D01*
X138733812Y-133060585D01*
X138695848Y-133046496D01*
X138655837Y-133031429D01*
X138614842Y-133015793D01*
X138573924Y-132999996D01*
X138534144Y-132984449D01*
X138496564Y-132969560D01*
X138462245Y-132955739D01*
X138432247Y-132943394D01*
X138407633Y-132932935D01*
X138389465Y-132924772D01*
X138378802Y-132919312D01*
X138376378Y-132917196D01*
X138382455Y-132911293D01*
X138397824Y-132902378D01*
X138422270Y-132890547D01*
X138455577Y-132875895D01*
X138497532Y-132858520D01*
X138547918Y-132838516D01*
X138584188Y-132824494D01*
X138643700Y-132802091D01*
X138695674Y-132783537D01*
X138741654Y-132768489D01*
X138783183Y-132756603D01*
X138821804Y-132747534D01*
X138859062Y-132740938D01*
X138896498Y-132736473D01*
X138935655Y-132733793D01*
X138978079Y-132732555D01*
X138997499Y-132732381D01*
X139036629Y-132732648D01*
G37*
G36*
X137266262Y-134069033D02*
G01*
X137275820Y-134072186D01*
X137293349Y-134078714D01*
X137317600Y-134088120D01*
X137347319Y-134099910D01*
X137381255Y-134113589D01*
X137418158Y-134128662D01*
X137444693Y-134139615D01*
X137486631Y-134156998D01*
X137529719Y-134174853D01*
X137572026Y-134192380D01*
X137611622Y-134208780D01*
X137646579Y-134223254D01*
X137674966Y-134235002D01*
X137683697Y-134238613D01*
X137735006Y-134261526D01*
X137777717Y-134284658D01*
X137813191Y-134309158D01*
X137842791Y-134336170D01*
X137867877Y-134366843D01*
X137889810Y-134402322D01*
X137898854Y-134419836D01*
X137917286Y-134457343D01*
X137917286Y-134774057D01*
X137917278Y-134838165D01*
X137917238Y-134893012D01*
X137917145Y-134939340D01*
X137916975Y-134977892D01*
X137916708Y-135009408D01*
X137916320Y-135034630D01*
X137915789Y-135054301D01*
X137915094Y-135069161D01*
X137914211Y-135079953D01*
X137913120Y-135087417D01*
X137911796Y-135092297D01*
X137910219Y-135095333D01*
X137908366Y-135097266D01*
X137907578Y-135097871D01*
X137895679Y-135102306D01*
X137877921Y-135104289D01*
X137858179Y-135103687D01*
X137840323Y-135100367D01*
X137839771Y-135100197D01*
X137832500Y-135097179D01*
X137817273Y-135090299D01*
X137795137Y-135080058D01*
X137767135Y-135066957D01*
X137734315Y-135051494D01*
X137697721Y-135034170D01*
X137658399Y-135015484D01*
X137617395Y-134995938D01*
X137575754Y-134976030D01*
X137534522Y-134956261D01*
X137494744Y-134937130D01*
X137457466Y-134919138D01*
X137423733Y-134902784D01*
X137394591Y-134888568D01*
X137371085Y-134876991D01*
X137354262Y-134868552D01*
X137345166Y-134863751D01*
X137344673Y-134863462D01*
X137302944Y-134832570D01*
X137265832Y-134793258D01*
X137234006Y-134746297D01*
X137220143Y-134719895D01*
X137202145Y-134682387D01*
X137200701Y-134392584D01*
X137200430Y-134324876D01*
X137200346Y-134266709D01*
X137200455Y-134217625D01*
X137200763Y-134177162D01*
X137201277Y-134144864D01*
X137202003Y-134120269D01*
X137202948Y-134102919D01*
X137204119Y-134092355D01*
X137204969Y-134088991D01*
X137215569Y-134075610D01*
X137232687Y-134068021D01*
X137254247Y-134066901D01*
X137266262Y-134069033D01*
G37*
G36*
X139971770Y-133760685D02*
G01*
X139992294Y-133762307D01*
X140012989Y-133765306D01*
X140034961Y-133769959D01*
X140059314Y-133776542D01*
X140087154Y-133785332D01*
X140119584Y-133796605D01*
X140157711Y-133810638D01*
X140202639Y-133827708D01*
X140255473Y-133848091D01*
X140271102Y-133854146D01*
X140315013Y-133871177D01*
X140356625Y-133887341D01*
X140394885Y-133902227D01*
X140428743Y-133915425D01*
X140457147Y-133926525D01*
X140479046Y-133935116D01*
X140493388Y-133940789D01*
X140498306Y-133942778D01*
X140517280Y-133950706D01*
X140505036Y-133960292D01*
X140491191Y-133969280D01*
X140469256Y-133980840D01*
X140439007Y-133995072D01*
X140400217Y-134012074D01*
X140352659Y-134031945D01*
X140296108Y-134054784D01*
X140230338Y-134080690D01*
X140218744Y-134085203D01*
X140129050Y-134115362D01*
X140039632Y-134135839D01*
X139949334Y-134146851D01*
X139877672Y-134149010D01*
X139851157Y-134148658D01*
X139827337Y-134148106D01*
X139808454Y-134147421D01*
X139796748Y-134146673D01*
X139795156Y-134146476D01*
X139783427Y-134144377D01*
X139770665Y-134141442D01*
X139755895Y-134137330D01*
X139738144Y-134131701D01*
X139716439Y-134124213D01*
X139689808Y-134114525D01*
X139657276Y-134102297D01*
X139617871Y-134087189D01*
X139570620Y-134068858D01*
X139545106Y-134058909D01*
X139502466Y-134042276D01*
X139461752Y-134026423D01*
X139424128Y-134011801D01*
X139390757Y-133998861D01*
X139362803Y-133988053D01*
X139341428Y-133979830D01*
X139327796Y-133974641D01*
X139325063Y-133973623D01*
X139309459Y-133967515D01*
X139297709Y-133962235D01*
X139293327Y-133959648D01*
X139294420Y-133954786D01*
X139304707Y-133946865D01*
X139323906Y-133936022D01*
X139351734Y-133922395D01*
X139387909Y-133906122D01*
X139432147Y-133887340D01*
X139484167Y-133866187D01*
X139489342Y-133864124D01*
X139549700Y-133840483D01*
X139602501Y-133820774D01*
X139649217Y-133804629D01*
X139691322Y-133791679D01*
X139730288Y-133781557D01*
X139767588Y-133773892D01*
X139804695Y-133768318D01*
X139843081Y-133764465D01*
X139884220Y-133761965D01*
X139900176Y-133761318D01*
X139926816Y-133760467D01*
X139950312Y-133760164D01*
X139971770Y-133760685D01*
G37*
G36*
X139102910Y-134107858D02*
G01*
X139136644Y-134109027D01*
X139162015Y-134111138D01*
X139179824Y-134114234D01*
X139180035Y-134114287D01*
X139190478Y-134117570D01*
X139209117Y-134124095D01*
X139234836Y-134133446D01*
X139266522Y-134145209D01*
X139303059Y-134158966D01*
X139343335Y-134174303D01*
X139386233Y-134190803D01*
X139412580Y-134201017D01*
X139456246Y-134217976D01*
X139497706Y-134234047D01*
X139535885Y-134248814D01*
X139569708Y-134261863D01*
X139598101Y-134272780D01*
X139619989Y-134281151D01*
X139634296Y-134286561D01*
X139638879Y-134288243D01*
X139650955Y-134293564D01*
X139657220Y-134298448D01*
X139657413Y-134300162D01*
X139650396Y-134305937D01*
X139635217Y-134314719D01*
X139613075Y-134325996D01*
X139585169Y-134339257D01*
X139552699Y-134353991D01*
X139516865Y-134369686D01*
X139478867Y-134385831D01*
X139439905Y-134401915D01*
X139401177Y-134417426D01*
X139363885Y-134431854D01*
X139329228Y-134444685D01*
X139298406Y-134455411D01*
X139277554Y-134462058D01*
X139199607Y-134482045D01*
X139120917Y-134495563D01*
X139043648Y-134502376D01*
X138969966Y-134502246D01*
X138934986Y-134499487D01*
X138911030Y-134495951D01*
X138885945Y-134490755D01*
X138867473Y-134485718D01*
X138855434Y-134481509D01*
X138836055Y-134474363D01*
X138810453Y-134464716D01*
X138779741Y-134453004D01*
X138745033Y-134439661D01*
X138707444Y-134425125D01*
X138668088Y-134409831D01*
X138628079Y-134394215D01*
X138588532Y-134378712D01*
X138550560Y-134363759D01*
X138515279Y-134349791D01*
X138483802Y-134337245D01*
X138457243Y-134326555D01*
X138436718Y-134318158D01*
X138423339Y-134312490D01*
X138418249Y-134310015D01*
X138417100Y-134305760D01*
X138421509Y-134300047D01*
X138431987Y-134292624D01*
X138449044Y-134283241D01*
X138473191Y-134271647D01*
X138504937Y-134257590D01*
X138544794Y-134240821D01*
X138593271Y-134221089D01*
X138624925Y-134208431D01*
X138686170Y-134184485D01*
X138739885Y-134164536D01*
X138787553Y-134148239D01*
X138830655Y-134135252D01*
X138870675Y-134125230D01*
X138909094Y-134117831D01*
X138947393Y-134112711D01*
X138987056Y-134109526D01*
X139029564Y-134107933D01*
X139060011Y-134107586D01*
X139102910Y-134107858D01*
G37*
G36*
X138205117Y-133755641D02*
G01*
X138252147Y-133759773D01*
X138264854Y-133761800D01*
X138273736Y-133763636D01*
X138284264Y-133766328D01*
X138297098Y-133770120D01*
X138312900Y-133775256D01*
X138332331Y-133781980D01*
X138356053Y-133790537D01*
X138384728Y-133801170D01*
X138419016Y-133814123D01*
X138459579Y-133829640D01*
X138507079Y-133847966D01*
X138562176Y-133869344D01*
X138625533Y-133894018D01*
X138665892Y-133909766D01*
X138699295Y-133922776D01*
X138723949Y-133932737D01*
X138740321Y-133940481D01*
X138748881Y-133946841D01*
X138750097Y-133952647D01*
X138744438Y-133958732D01*
X138732373Y-133965926D01*
X138714371Y-133975062D01*
X138705266Y-133979621D01*
X138689661Y-133986892D01*
X138666340Y-133996990D01*
X138636952Y-134009265D01*
X138603145Y-134023067D01*
X138566565Y-134037746D01*
X138528861Y-134052652D01*
X138491680Y-134067135D01*
X138456669Y-134080545D01*
X138425476Y-134092232D01*
X138399748Y-134101546D01*
X138381134Y-134107837D01*
X138377377Y-134108981D01*
X138317569Y-134124226D01*
X138254903Y-134136126D01*
X138191582Y-134144477D01*
X138129812Y-134149073D01*
X138071799Y-134149710D01*
X138019746Y-134146181D01*
X138002889Y-134143851D01*
X137991789Y-134140985D01*
X137972379Y-134134748D01*
X137945630Y-134125495D01*
X137912517Y-134113578D01*
X137874012Y-134099351D01*
X137831088Y-134083166D01*
X137784717Y-134065377D01*
X137755341Y-134053962D01*
X137710661Y-134036526D01*
X137668467Y-134020074D01*
X137629749Y-134004991D01*
X137595498Y-133991664D01*
X137566704Y-133980477D01*
X137544358Y-133971816D01*
X137529451Y-133966065D01*
X137523231Y-133963703D01*
X137513916Y-133958500D01*
X137511082Y-133953117D01*
X137511090Y-133953092D01*
X137517319Y-133946902D01*
X137532690Y-133937700D01*
X137556858Y-133925642D01*
X137589479Y-133910888D01*
X137630210Y-133893596D01*
X137678706Y-133873925D01*
X137709745Y-133861687D01*
X137744959Y-133848009D01*
X137779221Y-133834846D01*
X137810776Y-133822861D01*
X137837869Y-133812718D01*
X137858745Y-133805080D01*
X137869362Y-133801362D01*
X137920576Y-133786460D01*
X137976654Y-133774174D01*
X138035372Y-133764727D01*
X138094505Y-133758341D01*
X138151828Y-133755238D01*
X138205117Y-133755641D01*
G37*
G36*
X138175812Y-133067577D02*
G01*
X138205846Y-133068237D01*
X138228977Y-133069487D01*
X138246749Y-133071423D01*
X138260708Y-133074140D01*
X138264854Y-133075257D01*
X138275136Y-133078682D01*
X138293045Y-133085138D01*
X138317475Y-133094198D01*
X138347320Y-133105431D01*
X138381476Y-133118410D01*
X138418837Y-133132705D01*
X138458298Y-133147887D01*
X138498752Y-133163529D01*
X138539095Y-133179201D01*
X138578222Y-133194474D01*
X138615026Y-133208920D01*
X138648403Y-133222110D01*
X138677246Y-133233614D01*
X138700451Y-133243005D01*
X138716912Y-133249854D01*
X138725524Y-133253731D01*
X138726487Y-133254314D01*
X138724676Y-133258630D01*
X138714072Y-133266022D01*
X138695298Y-133276194D01*
X138668976Y-133288848D01*
X138635729Y-133303688D01*
X138596180Y-133320415D01*
X138550951Y-133338734D01*
X138542409Y-133342117D01*
X138485563Y-133364275D01*
X138436350Y-133382759D01*
X138393281Y-133398000D01*
X138354869Y-133410431D01*
X138319627Y-133420484D01*
X138286065Y-133428589D01*
X138252697Y-133435180D01*
X138218035Y-133440687D01*
X138189971Y-133444406D01*
X138160049Y-133447085D01*
X138124919Y-133448616D01*
X138087352Y-133449028D01*
X138050122Y-133448350D01*
X138015998Y-133446610D01*
X137987754Y-133443838D01*
X137977298Y-133442187D01*
X137962149Y-133438372D01*
X137939690Y-133431433D01*
X137911867Y-133422034D01*
X137880628Y-133410839D01*
X137847919Y-133398515D01*
X137837270Y-133394367D01*
X137799860Y-133379687D01*
X137756433Y-133362678D01*
X137710296Y-133344633D01*
X137664755Y-133326845D01*
X137623115Y-133310607D01*
X137615406Y-133307605D01*
X137583460Y-133294976D01*
X137554840Y-133283300D01*
X137530798Y-133273117D01*
X137512588Y-133264968D01*
X137501461Y-133259394D01*
X137498502Y-133257140D01*
X137503171Y-133251519D01*
X137517125Y-133242915D01*
X137540136Y-133231431D01*
X137571974Y-133217171D01*
X137612413Y-133200237D01*
X137661223Y-133180732D01*
X137707245Y-133162926D01*
X137766336Y-133140641D01*
X137817721Y-133122048D01*
X137862856Y-133106824D01*
X137903195Y-133094647D01*
X137940194Y-133085192D01*
X137975307Y-133078136D01*
X138009990Y-133073158D01*
X138045697Y-133069932D01*
X138083884Y-133068138D01*
X138126006Y-133067450D01*
X138137329Y-133067413D01*
X138175812Y-133067577D01*
G37*
G36*
X140822686Y-133421082D02*
G01*
X140861240Y-133423867D01*
X140892749Y-133428946D01*
X140902874Y-133431608D01*
X140916789Y-133436242D01*
X140937683Y-133443750D01*
X140964479Y-133453704D01*
X140996096Y-133465678D01*
X141031456Y-133479247D01*
X141069479Y-133493982D01*
X141109088Y-133509459D01*
X141149202Y-133525249D01*
X141188743Y-133540928D01*
X141226631Y-133556068D01*
X141261789Y-133570243D01*
X141293137Y-133583027D01*
X141319595Y-133593992D01*
X141340086Y-133602714D01*
X141353529Y-133608764D01*
X141358847Y-133611717D01*
X141358887Y-133611847D01*
X141352955Y-133618030D01*
X141338217Y-133627075D01*
X141314548Y-133639042D01*
X141281827Y-133653987D01*
X141239928Y-133671967D01*
X141188730Y-133693042D01*
X141160424Y-133704429D01*
X141108087Y-133725070D01*
X141063266Y-133742053D01*
X141024377Y-133755876D01*
X140989838Y-133767035D01*
X140958065Y-133776027D01*
X140927476Y-133783349D01*
X140896488Y-133789496D01*
X140880369Y-133792281D01*
X140853005Y-133795896D01*
X140820088Y-133798814D01*
X140784078Y-133800959D01*
X140747438Y-133802252D01*
X140712629Y-133802614D01*
X140682112Y-133801967D01*
X140658349Y-133800232D01*
X140653061Y-133799513D01*
X140633296Y-133795902D01*
X140614609Y-133791685D01*
X140605551Y-133789163D01*
X140594986Y-133785471D01*
X140576898Y-133778784D01*
X140552402Y-133769538D01*
X140522613Y-133758169D01*
X140488649Y-133745113D01*
X140451623Y-133730805D01*
X140412652Y-133715680D01*
X140372852Y-133700173D01*
X140333337Y-133684722D01*
X140295224Y-133669760D01*
X140259628Y-133655724D01*
X140227664Y-133643049D01*
X140200449Y-133632170D01*
X140179097Y-133623524D01*
X140164725Y-133617545D01*
X140158448Y-133614669D01*
X140158298Y-133614558D01*
X140158264Y-133610009D01*
X140165686Y-133603247D01*
X140180886Y-133594115D01*
X140204188Y-133582451D01*
X140235916Y-133568098D01*
X140276393Y-133550894D01*
X140325943Y-133530681D01*
X140339160Y-133525389D01*
X140386220Y-133506686D01*
X140425401Y-133491349D01*
X140458065Y-133478913D01*
X140485573Y-133468917D01*
X140509287Y-133460898D01*
X140530569Y-133454395D01*
X140550780Y-133448944D01*
X140571283Y-133444084D01*
X140591217Y-133439810D01*
X140636291Y-133431879D01*
X140683889Y-133425990D01*
X140732096Y-133422194D01*
X140779000Y-133420541D01*
X140822686Y-133421082D01*
G37*
G36*
X136519567Y-133776082D02*
G01*
X136528817Y-133778765D01*
X136545772Y-133785092D01*
X136569076Y-133794470D01*
X136597372Y-133806307D01*
X136629305Y-133820011D01*
X136663519Y-133834989D01*
X136698657Y-133850650D01*
X136733364Y-133866400D01*
X136766284Y-133881647D01*
X136796061Y-133895799D01*
X136815993Y-133905577D01*
X136856924Y-133931296D01*
X136892858Y-133964410D01*
X136922422Y-134003248D01*
X136944242Y-134046140D01*
X136952646Y-134071609D01*
X136954197Y-134079454D01*
X136955512Y-134090897D01*
X136956608Y-134106681D01*
X136957501Y-134127545D01*
X136958207Y-134154231D01*
X136958745Y-134187479D01*
X136959130Y-134228031D01*
X136959379Y-134276628D01*
X136959509Y-134334011D01*
X136959538Y-134375752D01*
X136959463Y-134436451D01*
X136959217Y-134491436D01*
X136958810Y-134540094D01*
X136958253Y-134581813D01*
X136957556Y-134615980D01*
X136956728Y-134641984D01*
X136955781Y-134659212D01*
X136954723Y-134667052D01*
X136954720Y-134667059D01*
X136946114Y-134676862D01*
X136930986Y-134680511D01*
X136910668Y-134678050D01*
X136886490Y-134669519D01*
X136876339Y-134664576D01*
X136864353Y-134658201D01*
X136845025Y-134647796D01*
X136819782Y-134634134D01*
X136790053Y-134617992D01*
X136757267Y-134600142D01*
X136722852Y-134581361D01*
X136717267Y-134578309D01*
X136672615Y-134553613D01*
X136635875Y-134532505D01*
X136605988Y-134514155D01*
X136581891Y-134497737D01*
X136562521Y-134482423D01*
X136546818Y-134467386D01*
X136533718Y-134451799D01*
X136522162Y-134434834D01*
X136512995Y-134419141D01*
X136506002Y-134406457D01*
X136500056Y-134395038D01*
X136495074Y-134383981D01*
X136490970Y-134372385D01*
X136487658Y-134359347D01*
X136485055Y-134343963D01*
X136483074Y-134325332D01*
X136481631Y-134302550D01*
X136480641Y-134274715D01*
X136480018Y-134240925D01*
X136479677Y-134200277D01*
X136479534Y-134151868D01*
X136479503Y-134094795D01*
X136479503Y-134063858D01*
X136479509Y-134005168D01*
X136479549Y-133955662D01*
X136479654Y-133914520D01*
X136479854Y-133880926D01*
X136480180Y-133854060D01*
X136480664Y-133833105D01*
X136481336Y-133817241D01*
X136482228Y-133805650D01*
X136483369Y-133797514D01*
X136484792Y-133792016D01*
X136486527Y-133788335D01*
X136488606Y-133785654D01*
X136490086Y-133784130D01*
X136500473Y-133776880D01*
X136513608Y-133775463D01*
X136519567Y-133776082D01*
G37*
G36*
X139082297Y-133414516D02*
G01*
X139114401Y-133416355D01*
X139139808Y-133419317D01*
X139147528Y-133420807D01*
X139158438Y-133424011D01*
X139176744Y-133430233D01*
X139201389Y-133439060D01*
X139231320Y-133450082D01*
X139265478Y-133462886D01*
X139302810Y-133477061D01*
X139342259Y-133492194D01*
X139382770Y-133507874D01*
X139423286Y-133523689D01*
X139462752Y-133539227D01*
X139500112Y-133554076D01*
X139534311Y-133567824D01*
X139564292Y-133580059D01*
X139589000Y-133590370D01*
X139607380Y-133598345D01*
X139618374Y-133603571D01*
X139621109Y-133605564D01*
X139612331Y-133611474D01*
X139595516Y-133620426D01*
X139571962Y-133631866D01*
X139542964Y-133645242D01*
X139509819Y-133659999D01*
X139473823Y-133675584D01*
X139436275Y-133691443D01*
X139398469Y-133707024D01*
X139361703Y-133721773D01*
X139327273Y-133735135D01*
X139296476Y-133746559D01*
X139270609Y-133755489D01*
X139267552Y-133756478D01*
X139229670Y-133767249D01*
X139185740Y-133777511D01*
X139139706Y-133786415D01*
X139100701Y-133792437D01*
X139077916Y-133794761D01*
X139049326Y-133796623D01*
X139017333Y-133797976D01*
X138984344Y-133798774D01*
X138952763Y-133798970D01*
X138924996Y-133798518D01*
X138903447Y-133797372D01*
X138894978Y-133796407D01*
X138883909Y-133794428D01*
X138871788Y-133791651D01*
X138857699Y-133787753D01*
X138840724Y-133782410D01*
X138819947Y-133775300D01*
X138794452Y-133766099D01*
X138763320Y-133754485D01*
X138725637Y-133740134D01*
X138680484Y-133722724D01*
X138627646Y-133702204D01*
X138583738Y-133685116D01*
X138542293Y-133668992D01*
X138504328Y-133654228D01*
X138470859Y-133641219D01*
X138442903Y-133630359D01*
X138421477Y-133622045D01*
X138407597Y-133616671D01*
X138402771Y-133614814D01*
X138388157Y-133609269D01*
X138406921Y-133596518D01*
X138415469Y-133590996D01*
X138425162Y-133585436D01*
X138437032Y-133579394D01*
X138452105Y-133572424D01*
X138471411Y-133564081D01*
X138495979Y-133553920D01*
X138526838Y-133541496D01*
X138565015Y-133526365D01*
X138609657Y-133508819D01*
X138666150Y-133487128D01*
X138715389Y-133469308D01*
X138759109Y-133454841D01*
X138799044Y-133443215D01*
X138836930Y-133433912D01*
X138874502Y-133426417D01*
X138902480Y-133421829D01*
X138933287Y-133418198D01*
X138968991Y-133415641D01*
X139007273Y-133414169D01*
X139045815Y-133413791D01*
X139082297Y-133414516D01*
G37*
G36*
X138864830Y-136791525D02*
G01*
X138883397Y-136795012D01*
X138909459Y-136800496D01*
X138941924Y-136807707D01*
X138979702Y-136816376D01*
X139021702Y-136826235D01*
X139066832Y-136837013D01*
X139114004Y-136848443D01*
X139162125Y-136860255D01*
X139210105Y-136872180D01*
X139256853Y-136883949D01*
X139301278Y-136895293D01*
X139342291Y-136905943D01*
X139378799Y-136915630D01*
X139409713Y-136924085D01*
X139433942Y-136931039D01*
X139450394Y-136936223D01*
X139457076Y-136938838D01*
X139485822Y-136957288D01*
X139514790Y-136982714D01*
X139541445Y-137012480D01*
X139563250Y-137043950D01*
X139569905Y-137056141D01*
X139579858Y-137077940D01*
X139588515Y-137100293D01*
X139594251Y-137118940D01*
X139594857Y-137121621D01*
X139596132Y-137132339D01*
X139597187Y-137151317D01*
X139598028Y-137178794D01*
X139598655Y-137215010D01*
X139599073Y-137260204D01*
X139599283Y-137314616D01*
X139599289Y-137378485D01*
X139599094Y-137452052D01*
X139599009Y-137473161D01*
X139597617Y-137798001D01*
X139585100Y-137820354D01*
X139569907Y-137841162D01*
X139550827Y-137855365D01*
X139527027Y-137863102D01*
X139497675Y-137864514D01*
X139461938Y-137859741D01*
X139418982Y-137848921D01*
X139417581Y-137848507D01*
X139401382Y-137843738D01*
X139376823Y-137836560D01*
X139345155Y-137827335D01*
X139307628Y-137816426D01*
X139265493Y-137804198D01*
X139219999Y-137791013D01*
X139172398Y-137777234D01*
X139132525Y-137765706D01*
X139076414Y-137749340D01*
X139025568Y-137734206D01*
X138980693Y-137720526D01*
X138942500Y-137708525D01*
X138911697Y-137698425D01*
X138888992Y-137690450D01*
X138875093Y-137684824D01*
X138873461Y-137684015D01*
X138838106Y-137659941D01*
X138808265Y-137628109D01*
X138784738Y-137589585D01*
X138768321Y-137545430D01*
X138767703Y-137543102D01*
X138765939Y-137531225D01*
X138764374Y-137510612D01*
X138763009Y-137482327D01*
X138761843Y-137447431D01*
X138760877Y-137406988D01*
X138760111Y-137362060D01*
X138759544Y-137313711D01*
X138759177Y-137263003D01*
X138759010Y-137210999D01*
X138759043Y-137158762D01*
X138759276Y-137107355D01*
X138759709Y-137057840D01*
X138760343Y-137011280D01*
X138761177Y-136968739D01*
X138762211Y-136931278D01*
X138763446Y-136899961D01*
X138764881Y-136875851D01*
X138766517Y-136860011D01*
X138767648Y-136854765D01*
X138782042Y-136827131D01*
X138802650Y-136806621D01*
X138828329Y-136794080D01*
X138854847Y-136790302D01*
X138864830Y-136791525D01*
G37*
G36*
X136708953Y-135060332D02*
G01*
X136732478Y-135064805D01*
X136764686Y-135072048D01*
X136805146Y-135081960D01*
X136853422Y-135094443D01*
X136879582Y-135101409D01*
X136924502Y-135113443D01*
X136972389Y-135126222D01*
X137020769Y-135139089D01*
X137067166Y-135151389D01*
X137109105Y-135162462D01*
X137144110Y-135171652D01*
X137147134Y-135172443D01*
X137181028Y-135181603D01*
X137213613Y-135190976D01*
X137242960Y-135199964D01*
X137267139Y-135207967D01*
X137284220Y-135214388D01*
X137288207Y-135216172D01*
X137325906Y-135239217D01*
X137360967Y-135269819D01*
X137391501Y-135305795D01*
X137415618Y-135344957D01*
X137429981Y-135380151D01*
X137432013Y-135387115D01*
X137433744Y-135394261D01*
X137435195Y-135402394D01*
X137436384Y-135412321D01*
X137437333Y-135424847D01*
X137438061Y-135440780D01*
X137438587Y-135460924D01*
X137438933Y-135486085D01*
X137439117Y-135517071D01*
X137439160Y-135554686D01*
X137439082Y-135599737D01*
X137438903Y-135653030D01*
X137438643Y-135715371D01*
X137438588Y-135727860D01*
X137437192Y-136042935D01*
X137424566Y-136067462D01*
X137407179Y-136091050D01*
X137383872Y-136106958D01*
X137355985Y-136114387D01*
X137345137Y-136114832D01*
X137336068Y-136113489D01*
X137318246Y-136109735D01*
X137292566Y-136103794D01*
X137259924Y-136095889D01*
X137221216Y-136086241D01*
X137177339Y-136075074D01*
X137129186Y-136062611D01*
X137077656Y-136049073D01*
X137037043Y-136038272D01*
X136967144Y-136019477D01*
X136906664Y-136002978D01*
X136855304Y-135988689D01*
X136812770Y-135976523D01*
X136778764Y-135966394D01*
X136752990Y-135958216D01*
X136735152Y-135951902D01*
X136725385Y-135947608D01*
X136693505Y-135925320D01*
X136663949Y-135895375D01*
X136638366Y-135860095D01*
X136618405Y-135821801D01*
X136605715Y-135782814D01*
X136604645Y-135777603D01*
X136603323Y-135766468D01*
X136602235Y-135747977D01*
X136601377Y-135721769D01*
X136600743Y-135687483D01*
X136600330Y-135644758D01*
X136600133Y-135593234D01*
X136600148Y-135532548D01*
X136600370Y-135462340D01*
X136600485Y-135437536D01*
X136600815Y-135373937D01*
X136601141Y-135319566D01*
X136601490Y-135273649D01*
X136601886Y-135235411D01*
X136602355Y-135204079D01*
X136602924Y-135178878D01*
X136603617Y-135159034D01*
X136604462Y-135143773D01*
X136605483Y-135132321D01*
X136606706Y-135123903D01*
X136608157Y-135117746D01*
X136609862Y-135113076D01*
X136611382Y-135109972D01*
X136627926Y-135084987D01*
X136646909Y-135068877D01*
X136670129Y-135060536D01*
X136694545Y-135058728D01*
X136708953Y-135060332D01*
G37*
G36*
X136695973Y-136211437D02*
G01*
X136711877Y-136215001D01*
X136735345Y-136220609D01*
X136765326Y-136227986D01*
X136800772Y-136236861D01*
X136840633Y-136246961D01*
X136883861Y-136258013D01*
X136929406Y-136269745D01*
X136976219Y-136281883D01*
X137023251Y-136294156D01*
X137069452Y-136306289D01*
X137113775Y-136318012D01*
X137155168Y-136329050D01*
X137192584Y-136339132D01*
X137224974Y-136347984D01*
X137251287Y-136355335D01*
X137270475Y-136360910D01*
X137279661Y-136363797D01*
X137315313Y-136380753D01*
X137348951Y-136406019D01*
X137379181Y-136437919D01*
X137404609Y-136474782D01*
X137423843Y-136514933D01*
X137434040Y-136549251D01*
X137435236Y-136559928D01*
X137436297Y-136579382D01*
X137437221Y-136606528D01*
X137438009Y-136640285D01*
X137438661Y-136679570D01*
X137439175Y-136723300D01*
X137439553Y-136770393D01*
X137439793Y-136819766D01*
X137439896Y-136870336D01*
X137439861Y-136921021D01*
X137439688Y-136970738D01*
X137439377Y-137018404D01*
X137438928Y-137062937D01*
X137438340Y-137103254D01*
X137437613Y-137138273D01*
X137436747Y-137166911D01*
X137435742Y-137188085D01*
X137434598Y-137200713D01*
X137434172Y-137202884D01*
X137427379Y-137220479D01*
X137418007Y-137237012D01*
X137416832Y-137238629D01*
X137399180Y-137254918D01*
X137375061Y-137267655D01*
X137347720Y-137275687D01*
X137320402Y-137277860D01*
X137309666Y-137276739D01*
X137301649Y-137274816D01*
X137285427Y-137270487D01*
X137262399Y-137264140D01*
X137233963Y-137256166D01*
X137201520Y-137246953D01*
X137167138Y-137237084D01*
X137092887Y-137215639D01*
X137027632Y-137196738D01*
X136970747Y-137180187D01*
X136921608Y-137165793D01*
X136879590Y-137153363D01*
X136844068Y-137142704D01*
X136814418Y-137133621D01*
X136790014Y-137125922D01*
X136770232Y-137119414D01*
X136754448Y-137113904D01*
X136742036Y-137109197D01*
X136732371Y-137105102D01*
X136724829Y-137101424D01*
X136720215Y-137098838D01*
X136686894Y-137073754D01*
X136656924Y-137040993D01*
X136631853Y-137002712D01*
X136613233Y-136961072D01*
X136607305Y-136941554D01*
X136605641Y-136934145D01*
X136604231Y-136925315D01*
X136603059Y-136914272D01*
X136602109Y-136900224D01*
X136601366Y-136882378D01*
X136600815Y-136859944D01*
X136600441Y-136832128D01*
X136600229Y-136798140D01*
X136600162Y-136757186D01*
X136600226Y-136708475D01*
X136600406Y-136651216D01*
X136600633Y-136596346D01*
X136602027Y-136282423D01*
X136614665Y-136257558D01*
X136630953Y-136235329D01*
X136652965Y-136219270D01*
X136678210Y-136210975D01*
X136688681Y-136210188D01*
X136695973Y-136211437D01*
G37*
G36*
X137781131Y-136486612D02*
G01*
X137798036Y-136490524D01*
X137822430Y-136496678D01*
X137853262Y-136504777D01*
X137889483Y-136514523D01*
X137930040Y-136525617D01*
X137973883Y-136537761D01*
X138019963Y-136550657D01*
X138067227Y-136564007D01*
X138114626Y-136577513D01*
X138161108Y-136590877D01*
X138205623Y-136603799D01*
X138247121Y-136615983D01*
X138284551Y-136627129D01*
X138316861Y-136636940D01*
X138343002Y-136645117D01*
X138361922Y-136651363D01*
X138372571Y-136655379D01*
X138373096Y-136655624D01*
X138404718Y-136675716D01*
X138435005Y-136703911D01*
X138462572Y-136738312D01*
X138486033Y-136777020D01*
X138504001Y-136818137D01*
X138512315Y-136846255D01*
X138513860Y-136857856D01*
X138515237Y-136878137D01*
X138516446Y-136906036D01*
X138517485Y-136940489D01*
X138518354Y-136980435D01*
X138519052Y-137024810D01*
X138519578Y-137072554D01*
X138519931Y-137122602D01*
X138520110Y-137173894D01*
X138520115Y-137225366D01*
X138519945Y-137275956D01*
X138519598Y-137324602D01*
X138519074Y-137370241D01*
X138518372Y-137411812D01*
X138517492Y-137448250D01*
X138516431Y-137478495D01*
X138515191Y-137501484D01*
X138513769Y-137516154D01*
X138512856Y-137520446D01*
X138503149Y-137536536D01*
X138487272Y-137551543D01*
X138485918Y-137552518D01*
X138473535Y-137560296D01*
X138461405Y-137564951D01*
X138446000Y-137567438D01*
X138426323Y-137568614D01*
X138404882Y-137568679D01*
X138384977Y-137567419D01*
X138370664Y-137565102D01*
X138369875Y-137564877D01*
X138361867Y-137562522D01*
X138345190Y-137557662D01*
X138320787Y-137550568D01*
X138289597Y-137541514D01*
X138252561Y-137530773D01*
X138210620Y-137518617D01*
X138164714Y-137505319D01*
X138115784Y-137491152D01*
X138085762Y-137482463D01*
X138035334Y-137467789D01*
X137987276Y-137453648D01*
X137942544Y-137440331D01*
X137902095Y-137428132D01*
X137866885Y-137417341D01*
X137837872Y-137408251D01*
X137816012Y-137401155D01*
X137802262Y-137396344D01*
X137798395Y-137394724D01*
X137775245Y-137379176D01*
X137751540Y-137356836D01*
X137729793Y-137330434D01*
X137712515Y-137302698D01*
X137711051Y-137299797D01*
X137704979Y-137287334D01*
X137699737Y-137275842D01*
X137695266Y-137264515D01*
X137691511Y-137252548D01*
X137688413Y-137239136D01*
X137685915Y-137223474D01*
X137683959Y-137204758D01*
X137682487Y-137182182D01*
X137681444Y-137154941D01*
X137680770Y-137122230D01*
X137680409Y-137083244D01*
X137680302Y-137037179D01*
X137680394Y-136983229D01*
X137680625Y-136920589D01*
X137680817Y-136876295D01*
X137682240Y-136552756D01*
X137695922Y-136529481D01*
X137714421Y-136507332D01*
X137738725Y-136492220D01*
X137766529Y-136485473D01*
X137772767Y-136485242D01*
X137781131Y-136486612D01*
G37*
G36*
X140771601Y-134085687D02*
G01*
X140778617Y-134089026D01*
X140784822Y-134093892D01*
X140787503Y-134096469D01*
X140800354Y-134109320D01*
X140800354Y-134388695D01*
X140800348Y-134451597D01*
X140800278Y-134505373D01*
X140800057Y-134550898D01*
X140799604Y-134589048D01*
X140798835Y-134620698D01*
X140797667Y-134646724D01*
X140796015Y-134668000D01*
X140793798Y-134685404D01*
X140790930Y-134699810D01*
X140787329Y-134712093D01*
X140782912Y-134723130D01*
X140777594Y-134733796D01*
X140771293Y-134744966D01*
X140765459Y-134754902D01*
X140736200Y-134797748D01*
X140703363Y-134833367D01*
X140681439Y-134851387D01*
X140672541Y-134856857D01*
X140655610Y-134866313D01*
X140631560Y-134879278D01*
X140601308Y-134895272D01*
X140565768Y-134913815D01*
X140525857Y-134934430D01*
X140482490Y-134956637D01*
X140436582Y-134979956D01*
X140412220Y-134992257D01*
X140358790Y-135019153D01*
X140313488Y-135041876D01*
X140275524Y-135060785D01*
X140244110Y-135076238D01*
X140218456Y-135088593D01*
X140197774Y-135098210D01*
X140181275Y-135105447D01*
X140168169Y-135110663D01*
X140157668Y-135114216D01*
X140148983Y-135116466D01*
X140141324Y-135117770D01*
X140134665Y-135118432D01*
X140113847Y-135119109D01*
X140100224Y-135117114D01*
X140092714Y-135113315D01*
X140090643Y-135111516D01*
X140088875Y-135108974D01*
X140087382Y-135104926D01*
X140086135Y-135098610D01*
X140085106Y-135089264D01*
X140084269Y-135076127D01*
X140083594Y-135058435D01*
X140083054Y-135035427D01*
X140082620Y-135006341D01*
X140082265Y-134970414D01*
X140081960Y-134926885D01*
X140081679Y-134874991D01*
X140081391Y-134813970D01*
X140081346Y-134804094D01*
X140081074Y-134741446D01*
X140080885Y-134687972D01*
X140080798Y-134642844D01*
X140080836Y-134605235D01*
X140081020Y-134574315D01*
X140081371Y-134549259D01*
X140081910Y-134529238D01*
X140082658Y-134513423D01*
X140083637Y-134500988D01*
X140084869Y-134491105D01*
X140086373Y-134482945D01*
X140088171Y-134475681D01*
X140089925Y-134469666D01*
X140108257Y-134426226D01*
X140136392Y-134384395D01*
X140173774Y-134344660D01*
X140182199Y-134336855D01*
X140189763Y-134330038D01*
X140197242Y-134323823D01*
X140205415Y-134317822D01*
X140215057Y-134311648D01*
X140226945Y-134304914D01*
X140241857Y-134297234D01*
X140260569Y-134288221D01*
X140283859Y-134277487D01*
X140312502Y-134264647D01*
X140347277Y-134249312D01*
X140388959Y-134231095D01*
X140438327Y-134209611D01*
X140490293Y-134187021D01*
X140547056Y-134162405D01*
X140595438Y-134141622D01*
X140636195Y-134124442D01*
X140670085Y-134110635D01*
X140697864Y-134099969D01*
X140720290Y-134092213D01*
X140738119Y-134087138D01*
X140752109Y-134084513D01*
X140763018Y-134084106D01*
X140771601Y-134085687D01*
G37*
G36*
X139807510Y-134469103D02*
G01*
X139825177Y-134478462D01*
X139835378Y-134492915D01*
X139836359Y-134500499D01*
X139837245Y-134517425D01*
X139838028Y-134543034D01*
X139838696Y-134576666D01*
X139839241Y-134617662D01*
X139839653Y-134665363D01*
X139839920Y-134719109D01*
X139840034Y-134778241D01*
X139840035Y-134801486D01*
X139840002Y-134863302D01*
X139839940Y-134915952D01*
X139839822Y-134960269D01*
X139839618Y-134997089D01*
X139839299Y-135027248D01*
X139838838Y-135051580D01*
X139838205Y-135070920D01*
X139837371Y-135086103D01*
X139836308Y-135097965D01*
X139834988Y-135107341D01*
X139833380Y-135115065D01*
X139831458Y-135121972D01*
X139829191Y-135128898D01*
X139828726Y-135130265D01*
X139813260Y-135167887D01*
X139792947Y-135202759D01*
X139766214Y-135237278D01*
X139740145Y-135265247D01*
X139721765Y-135283318D01*
X139705989Y-135297301D01*
X139690247Y-135309010D01*
X139671965Y-135320257D01*
X139648570Y-135332854D01*
X139632624Y-135340998D01*
X139602123Y-135356264D01*
X139567360Y-135373396D01*
X139529450Y-135391867D01*
X139489505Y-135411153D01*
X139448638Y-135430729D01*
X139407964Y-135450067D01*
X139368594Y-135468644D01*
X139331643Y-135485934D01*
X139298223Y-135501410D01*
X139269448Y-135514548D01*
X139246431Y-135524822D01*
X139230285Y-135531707D01*
X139222543Y-135534572D01*
X139200158Y-135538603D01*
X139176513Y-135539599D01*
X139155253Y-135537632D01*
X139140282Y-135532920D01*
X139129759Y-135524569D01*
X139124381Y-135516844D01*
X139123737Y-135510328D01*
X139123119Y-135494683D01*
X139122536Y-135470781D01*
X139122000Y-135439493D01*
X139121521Y-135401692D01*
X139121111Y-135358250D01*
X139120779Y-135310040D01*
X139120536Y-135257934D01*
X139120393Y-135202803D01*
X139120374Y-135189264D01*
X139120314Y-135124796D01*
X139120302Y-135069530D01*
X139120360Y-135022664D01*
X139120509Y-134983398D01*
X139120773Y-134950931D01*
X139121172Y-134924463D01*
X139121730Y-134903192D01*
X139122468Y-134886319D01*
X139123408Y-134873042D01*
X139124572Y-134862560D01*
X139125982Y-134854074D01*
X139127660Y-134846783D01*
X139129629Y-134839884D01*
X139130030Y-134838578D01*
X139145245Y-134802284D01*
X139168108Y-134764700D01*
X139196841Y-134727881D01*
X139229666Y-134693886D01*
X139264807Y-134664772D01*
X139298450Y-134643647D01*
X139309863Y-134638322D01*
X139329362Y-134629948D01*
X139355679Y-134619026D01*
X139387548Y-134606053D01*
X139423701Y-134591529D01*
X139462872Y-134575951D01*
X139503793Y-134559820D01*
X139545198Y-134543633D01*
X139585820Y-134527890D01*
X139624392Y-134513088D01*
X139659647Y-134499727D01*
X139690319Y-134488305D01*
X139715139Y-134479321D01*
X139722267Y-134476824D01*
X139754935Y-134468125D01*
X139783723Y-134465604D01*
X139807510Y-134469103D01*
G37*
G36*
X138230890Y-134446532D02*
G01*
X138244653Y-134449521D01*
X138264928Y-134455626D01*
X138289054Y-134463979D01*
X138314369Y-134473708D01*
X138315983Y-134474364D01*
X138363627Y-134493901D01*
X138412095Y-134513995D01*
X138460359Y-134534201D01*
X138507389Y-134554076D01*
X138552155Y-134573176D01*
X138593628Y-134591059D01*
X138630779Y-134607281D01*
X138662577Y-134621398D01*
X138687994Y-134632967D01*
X138705999Y-134641545D01*
X138714330Y-134645929D01*
X138736425Y-134661379D01*
X138761524Y-134682890D01*
X138787277Y-134708073D01*
X138811338Y-134734539D01*
X138831357Y-134759900D01*
X138841378Y-134775151D01*
X138852846Y-134797057D01*
X138863606Y-134821512D01*
X138870242Y-134839922D01*
X138872239Y-134846783D01*
X138873944Y-134853856D01*
X138875377Y-134861933D01*
X138876556Y-134871806D01*
X138877501Y-134884269D01*
X138878232Y-134900115D01*
X138878766Y-134920137D01*
X138879124Y-134945127D01*
X138879324Y-134975879D01*
X138879386Y-135013185D01*
X138879329Y-135057839D01*
X138879171Y-135110632D01*
X138878932Y-135172359D01*
X138878834Y-135196065D01*
X138878545Y-135261175D01*
X138878254Y-135317014D01*
X138877936Y-135364315D01*
X138877571Y-135403808D01*
X138877136Y-135436227D01*
X138876609Y-135462302D01*
X138875968Y-135482766D01*
X138875191Y-135498349D01*
X138874255Y-135509785D01*
X138873139Y-135517803D01*
X138871820Y-135523137D01*
X138870276Y-135526517D01*
X138868786Y-135528387D01*
X138856392Y-135534954D01*
X138837283Y-135538425D01*
X138814270Y-135538740D01*
X138790169Y-135535841D01*
X138769954Y-135530465D01*
X138759589Y-135526095D01*
X138741496Y-135517725D01*
X138716839Y-135505939D01*
X138686780Y-135491320D01*
X138652481Y-135474452D01*
X138615105Y-135455919D01*
X138575814Y-135436304D01*
X138535771Y-135416192D01*
X138496138Y-135396165D01*
X138458078Y-135376809D01*
X138422753Y-135358705D01*
X138391326Y-135342439D01*
X138364959Y-135328594D01*
X138344815Y-135317753D01*
X138332856Y-135310982D01*
X138287453Y-135278852D01*
X138246775Y-135240086D01*
X138212174Y-135196367D01*
X138185000Y-135149378D01*
X138167898Y-135105313D01*
X138166183Y-135098529D01*
X138164725Y-135090099D01*
X138163503Y-135079220D01*
X138162498Y-135065088D01*
X138161689Y-135046897D01*
X138161057Y-135023844D01*
X138160581Y-134995123D01*
X138160241Y-134959931D01*
X138160017Y-134917463D01*
X138159889Y-134866915D01*
X138159838Y-134807481D01*
X138159834Y-134781825D01*
X138159919Y-134716643D01*
X138160169Y-134658094D01*
X138160576Y-134606654D01*
X138161133Y-134562798D01*
X138161832Y-134527002D01*
X138162666Y-134499740D01*
X138163626Y-134481489D01*
X138164706Y-134472723D01*
X138164803Y-134472430D01*
X138174755Y-134459403D01*
X138191853Y-134450299D01*
X138213693Y-134446059D01*
X138230890Y-134446532D01*
G37*
G36*
X139284601Y-135701535D02*
G01*
X139301373Y-135705484D01*
X139323622Y-135711346D01*
X139349330Y-135718530D01*
X139376481Y-135726448D01*
X139403055Y-135734511D01*
X139427036Y-135742128D01*
X139446406Y-135748710D01*
X139459147Y-135753669D01*
X139459856Y-135753995D01*
X139482988Y-135768100D01*
X139508012Y-135788719D01*
X139532448Y-135813368D01*
X139553817Y-135839564D01*
X139568705Y-135863027D01*
X139574787Y-135874596D01*
X139580028Y-135885197D01*
X139584491Y-135895638D01*
X139588239Y-135906729D01*
X139591333Y-135919280D01*
X139593837Y-135934100D01*
X139595813Y-135951997D01*
X139597322Y-135973782D01*
X139598429Y-136000263D01*
X139599194Y-136032250D01*
X139599680Y-136070553D01*
X139599951Y-136115980D01*
X139600067Y-136169342D01*
X139600092Y-136231446D01*
X139600089Y-136270000D01*
X139600003Y-136337918D01*
X139599759Y-136399300D01*
X139599367Y-136453675D01*
X139598832Y-136500570D01*
X139598162Y-136539513D01*
X139597363Y-136570032D01*
X139596444Y-136591654D01*
X139595411Y-136603908D01*
X139595036Y-136605854D01*
X139584155Y-136631585D01*
X139567838Y-136653498D01*
X139551547Y-136666598D01*
X139530876Y-136674308D01*
X139504652Y-136677778D01*
X139476496Y-136676751D01*
X139457589Y-136673224D01*
X139447896Y-136670777D01*
X139429515Y-136666221D01*
X139403480Y-136659806D01*
X139370821Y-136651787D01*
X139332571Y-136642417D01*
X139289762Y-136631948D01*
X139243424Y-136620633D01*
X139194591Y-136608725D01*
X139182535Y-136605788D01*
X139117474Y-136589791D01*
X139060160Y-136575391D01*
X139010931Y-136562677D01*
X138970122Y-136551740D01*
X138938069Y-136542669D01*
X138915110Y-136535556D01*
X138901579Y-136530489D01*
X138901439Y-136530424D01*
X138868213Y-136510098D01*
X138836915Y-136481847D01*
X138809118Y-136447743D01*
X138786393Y-136409858D01*
X138770312Y-136370261D01*
X138765408Y-136351220D01*
X138764669Y-136342941D01*
X138763953Y-136326053D01*
X138763266Y-136301571D01*
X138762614Y-136270510D01*
X138762004Y-136233885D01*
X138761441Y-136192713D01*
X138760932Y-136148009D01*
X138760483Y-136100787D01*
X138760101Y-136052063D01*
X138759790Y-136002854D01*
X138759558Y-135954173D01*
X138759410Y-135907037D01*
X138759353Y-135862460D01*
X138759392Y-135821459D01*
X138759535Y-135785049D01*
X138759787Y-135754245D01*
X138760154Y-135730062D01*
X138760643Y-135713516D01*
X138761259Y-135705622D01*
X138761491Y-135705089D01*
X138766289Y-135707036D01*
X138778964Y-135712510D01*
X138798261Y-135720960D01*
X138822923Y-135731833D01*
X138851694Y-135744578D01*
X138875263Y-135755056D01*
X138907126Y-135768989D01*
X138936663Y-135781429D01*
X138962433Y-135791807D01*
X138982990Y-135799553D01*
X138996894Y-135804096D01*
X139001854Y-135805066D01*
X139010165Y-135803204D01*
X139026322Y-135797933D01*
X139048967Y-135789758D01*
X139076739Y-135779185D01*
X139108282Y-135766718D01*
X139142236Y-135752864D01*
X139142878Y-135752598D01*
X139176348Y-135738807D01*
X139206922Y-135726371D01*
X139233346Y-135715785D01*
X139254371Y-135707547D01*
X139268745Y-135702151D01*
X139275217Y-135700094D01*
X139275323Y-135700088D01*
X139284601Y-135701535D01*
G37*
G36*
X137760062Y-135321268D02*
G01*
X137777460Y-135324804D01*
X137801819Y-135330277D01*
X137831795Y-135337344D01*
X137866042Y-135345662D01*
X137903216Y-135354886D01*
X137941971Y-135364674D01*
X137980962Y-135374681D01*
X138018845Y-135384565D01*
X138054274Y-135393981D01*
X138085905Y-135402587D01*
X138112392Y-135410038D01*
X138132391Y-135415991D01*
X138144556Y-135420102D01*
X138146894Y-135421137D01*
X138155615Y-135426596D01*
X138169402Y-135436055D01*
X138185325Y-135447501D01*
X138185882Y-135447911D01*
X138197961Y-135455754D01*
X138217571Y-135467224D01*
X138243265Y-135481532D01*
X138273600Y-135497890D01*
X138307131Y-135515511D01*
X138342412Y-135533605D01*
X138349307Y-135537088D01*
X138483331Y-135604621D01*
X138496322Y-135633601D01*
X138504400Y-135653472D01*
X138511367Y-135673778D01*
X138514487Y-135685085D01*
X138515604Y-135695001D01*
X138516592Y-135713758D01*
X138517451Y-135740279D01*
X138518182Y-135773491D01*
X138518784Y-135812318D01*
X138519258Y-135855687D01*
X138519605Y-135902521D01*
X138519823Y-135951745D01*
X138519913Y-136002287D01*
X138519876Y-136053069D01*
X138519712Y-136103018D01*
X138519420Y-136151059D01*
X138519001Y-136196117D01*
X138518455Y-136237117D01*
X138517783Y-136272984D01*
X138516983Y-136302644D01*
X138516057Y-136325021D01*
X138515005Y-136339042D01*
X138514396Y-136342714D01*
X138502876Y-136367958D01*
X138484117Y-136386448D01*
X138471306Y-136393369D01*
X138454592Y-136397620D01*
X138432793Y-136399488D01*
X138410584Y-136398768D01*
X138397381Y-136396632D01*
X138390332Y-136394712D01*
X138374860Y-136390367D01*
X138352152Y-136383933D01*
X138323398Y-136375749D01*
X138289785Y-136366153D01*
X138252504Y-136355484D01*
X138222346Y-136346837D01*
X138149474Y-136325933D01*
X138085562Y-136307591D01*
X138029963Y-136291585D01*
X137982030Y-136277689D01*
X137941118Y-136265678D01*
X137906580Y-136255325D01*
X137877769Y-136246404D01*
X137854041Y-136238689D01*
X137834747Y-136231955D01*
X137819242Y-136225976D01*
X137806881Y-136220525D01*
X137797015Y-136215376D01*
X137789000Y-136210305D01*
X137782188Y-136205084D01*
X137775934Y-136199488D01*
X137769591Y-136193291D01*
X137762513Y-136186267D01*
X137762223Y-136185982D01*
X137728107Y-136146333D01*
X137702059Y-136102547D01*
X137693484Y-136082467D01*
X137691218Y-136076309D01*
X137689276Y-136070226D01*
X137687628Y-136063429D01*
X137686245Y-136055128D01*
X137685100Y-136044531D01*
X137684163Y-136030850D01*
X137683406Y-136013293D01*
X137682800Y-135991070D01*
X137682317Y-135963392D01*
X137681927Y-135929466D01*
X137681603Y-135888505D01*
X137681315Y-135839716D01*
X137681035Y-135782310D01*
X137680812Y-135732990D01*
X137680518Y-135663972D01*
X137680332Y-135604222D01*
X137680308Y-135553003D01*
X137680500Y-135509580D01*
X137680962Y-135473220D01*
X137681747Y-135443186D01*
X137682911Y-135418743D01*
X137684506Y-135399157D01*
X137686587Y-135383692D01*
X137689208Y-135371613D01*
X137692422Y-135362186D01*
X137696285Y-135354675D01*
X137700849Y-135348346D01*
X137706168Y-135342462D01*
X137709758Y-135338827D01*
X137722631Y-135327285D01*
X137733802Y-135321690D01*
X137747649Y-135320044D01*
X137750971Y-135320013D01*
X137760062Y-135321268D01*
G37*
D12*
%TO.C,J1*%
X134675000Y-120800000D02*
X134675000Y-120100000D01*
X135265000Y-116700000D02*
X135265000Y-115550000D01*
X135265000Y-120800000D02*
X134675000Y-120800000D01*
X135265000Y-121950000D02*
X135265000Y-120800000D01*
X137575000Y-114790000D02*
X140175000Y-114790000D01*
X140175000Y-122710000D02*
X137575000Y-122710000D01*
X143075000Y-122710000D02*
X144735000Y-122710000D01*
X144735000Y-114790000D02*
X143075000Y-114790000D01*
X144735000Y-122710000D02*
X144735000Y-114790000D01*
%TO.C,D2*%
X67490000Y-132600000D02*
X67490000Y-135900000D01*
X67490000Y-132600000D02*
X73000000Y-132600000D01*
X67490000Y-135900000D02*
X73000000Y-135900000D01*
%TO.C,J2*%
X127390000Y-101505000D02*
X127390000Y-101839970D01*
X127390000Y-102660030D02*
X127390000Y-102995000D01*
X130265000Y-101505000D02*
X127390000Y-101505000D01*
X130265000Y-101505000D02*
X130265000Y-101564435D01*
X130265000Y-102935565D02*
X130265000Y-102995000D01*
X130265000Y-102995000D02*
X127390000Y-102995000D01*
X131000000Y-101505000D02*
X131735000Y-101505000D01*
X131735000Y-101505000D02*
X131735000Y-102250000D01*
%TO.C,C15*%
X81370000Y-103500000D02*
G75*
G02*
X73130000Y-103500000I-4120000J0D01*
G01*
X73130000Y-103500000D02*
G75*
G02*
X81370000Y-103500000I4120000J0D01*
G01*
%TO.C,C1*%
X114890000Y-114337836D02*
X114890000Y-114122164D01*
X115610000Y-114337836D02*
X115610000Y-114122164D01*
%TO.C,J12*%
X125755000Y-129265000D02*
X126500000Y-129265000D01*
X125755000Y-130000000D02*
X125755000Y-129265000D01*
X125755000Y-130735000D02*
X125755000Y-132610000D01*
X125755000Y-130735000D02*
X125814435Y-130735000D01*
X125755000Y-132610000D02*
X126089970Y-132610000D01*
X126910030Y-132610000D02*
X127245000Y-132610000D01*
X127185565Y-130735000D02*
X127245000Y-130735000D01*
X127245000Y-130735000D02*
X127245000Y-132610000D01*
%TO.C,J3*%
X122015000Y-102995000D02*
X122015000Y-102250000D01*
X122750000Y-102995000D02*
X122015000Y-102995000D01*
X123485000Y-101505000D02*
X126360000Y-101505000D01*
X123485000Y-101564435D02*
X123485000Y-101505000D01*
X123485000Y-102995000D02*
X123485000Y-102935565D01*
X123485000Y-102995000D02*
X126360000Y-102995000D01*
X126360000Y-101839970D02*
X126360000Y-101505000D01*
X126360000Y-102995000D02*
X126360000Y-102660030D01*
%TO.C,J5*%
X76492500Y-133450000D02*
X76492500Y-132400000D01*
X76692500Y-132600000D02*
X79292500Y-132600000D01*
X76692500Y-147300000D02*
X76692500Y-132600000D01*
X77542500Y-132400000D02*
X76492500Y-132400000D01*
X83192500Y-132600000D02*
X85892500Y-132600000D01*
X85892500Y-132600000D02*
X85892500Y-134500000D01*
X85892500Y-138500000D02*
X85892500Y-147300000D01*
X85892500Y-147300000D02*
X76692500Y-147300000D01*
%TO.C,C16*%
X119857836Y-125640000D02*
X119642164Y-125640000D01*
X119857836Y-126360000D02*
X119642164Y-126360000D01*
%TO.C,J4*%
X117255000Y-99515000D02*
X118000000Y-99515000D01*
X117255000Y-100250000D02*
X117255000Y-99515000D01*
X117255000Y-100985000D02*
X117255000Y-103860000D01*
X117255000Y-100985000D02*
X117314435Y-100985000D01*
X117255000Y-103860000D02*
X117589970Y-103860000D01*
X118410030Y-103860000D02*
X118745000Y-103860000D01*
X118685565Y-100985000D02*
X118745000Y-100985000D01*
X118745000Y-100985000D02*
X118745000Y-103860000D01*
%TO.C,A2*%
X102210000Y-131740000D02*
X102210000Y-144570000D01*
X102210000Y-134410000D02*
X122790000Y-134410000D01*
X102210000Y-144570000D02*
X104880000Y-144570000D01*
X102210000Y-145840000D02*
X102210000Y-147240000D01*
X102210000Y-147240000D02*
X103610000Y-147240000D01*
X104880000Y-144570000D02*
X104880000Y-147240000D01*
X104880000Y-144570000D02*
X122790000Y-144570000D01*
X104880000Y-147240000D02*
X122790000Y-147240000D01*
X122790000Y-131740000D02*
X102210000Y-131740000D01*
X122790000Y-147240000D02*
X122790000Y-131740000D01*
%TO.C,A1*%
X84710000Y-92260000D02*
X84710000Y-107760000D01*
X84710000Y-107760000D02*
X105290000Y-107760000D01*
X102620000Y-92260000D02*
X84710000Y-92260000D01*
X102620000Y-94930000D02*
X84710000Y-94930000D01*
X102620000Y-94930000D02*
X102620000Y-92260000D01*
X105290000Y-92260000D02*
X103890000Y-92260000D01*
X105290000Y-93660000D02*
X105290000Y-92260000D01*
X105290000Y-94930000D02*
X102620000Y-94930000D01*
X105290000Y-105090000D02*
X84710000Y-105090000D01*
X105290000Y-107760000D02*
X105290000Y-94930000D01*
%TO.C,U2*%
X91590000Y-140400000D02*
X91590000Y-144160000D01*
X91590000Y-144160000D02*
X92850000Y-144160000D01*
X98410000Y-140400000D02*
X98410000Y-144160000D01*
X98410000Y-144160000D02*
X97150000Y-144160000D01*
X98640000Y-139360000D02*
X98310000Y-139120000D01*
X98640000Y-138880000D01*
X98640000Y-139360000D01*
G36*
X98640000Y-139360000D02*
G01*
X98310000Y-139120000D01*
X98640000Y-138880000D01*
X98640000Y-139360000D01*
G37*
%TO.C,C12*%
X92688748Y-135915000D02*
X93211252Y-135915000D01*
X92688748Y-137385000D02*
X93211252Y-137385000D01*
%TO.C,J15*%
X62062500Y-127020000D02*
X63442500Y-127020000D01*
X62062500Y-128400000D02*
X62062500Y-127020000D01*
X62062500Y-129670000D02*
X62062500Y-129780000D01*
X62062500Y-129670000D02*
X64822500Y-129670000D01*
X62062500Y-129780000D02*
X64822500Y-129780000D01*
X64822500Y-129670000D02*
X64822500Y-129780000D01*
%TO.C,R1*%
X121620000Y-106846359D02*
X121620000Y-107153641D01*
X122380000Y-106846359D02*
X122380000Y-107153641D01*
%TO.C,J6*%
X62120000Y-109120000D02*
X63500000Y-109120000D01*
X62120000Y-110500000D02*
X62120000Y-109120000D01*
X62120000Y-111770000D02*
X62120000Y-111880000D01*
X62120000Y-111770000D02*
X64880000Y-111770000D01*
X62120000Y-111880000D02*
X64880000Y-111880000D01*
X64880000Y-111770000D02*
X64880000Y-111880000D01*
%TO.C,J13*%
X103062500Y-127020000D02*
X104442500Y-127020000D01*
X103062500Y-128400000D02*
X103062500Y-127020000D01*
X103062500Y-129670000D02*
X103062500Y-129780000D01*
X103062500Y-129670000D02*
X105822500Y-129670000D01*
X103062500Y-129780000D02*
X105822500Y-129780000D01*
X105822500Y-129670000D02*
X105822500Y-129780000D01*
%TO.C,C2*%
X127140000Y-126392164D02*
X127140000Y-126607836D01*
X127860000Y-126392164D02*
X127860000Y-126607836D01*
%TO.C,C17*%
X125715000Y-126884420D02*
X125715000Y-127165580D01*
X126735000Y-126884420D02*
X126735000Y-127165580D01*
%TO.C,SW2*%
X108750000Y-100750000D02*
X108750000Y-105250000D01*
X111250000Y-106500000D02*
X112750000Y-106500000D01*
X112750000Y-99500000D02*
X111250000Y-99500000D01*
X115250000Y-105250000D02*
X115250000Y-100750000D01*
%TO.C,J9*%
X106255000Y-101110000D02*
X106589970Y-101110000D01*
X107410030Y-101110000D02*
X107745000Y-101110000D01*
X106255000Y-98235000D02*
X106255000Y-101110000D01*
X106255000Y-98235000D02*
X106314435Y-98235000D01*
X107685565Y-98235000D02*
X107745000Y-98235000D01*
X107745000Y-98235000D02*
X107745000Y-101110000D01*
X106255000Y-97500000D02*
X106255000Y-96765000D01*
X106255000Y-96765000D02*
X107000000Y-96765000D01*
%TO.C,C4*%
X118642164Y-110640000D02*
X118857836Y-110640000D01*
X118642164Y-111360000D02*
X118857836Y-111360000D01*
%TO.C,SW1*%
X119050000Y-93600000D02*
X119050000Y-94390000D01*
X121100000Y-95440000D02*
X120900000Y-95440000D01*
X122600000Y-91300000D02*
X122600000Y-92590000D01*
X122600000Y-91300000D02*
X122800000Y-91090000D01*
X123700000Y-91090000D02*
X122800000Y-91090000D01*
X123900000Y-91300000D02*
X123700000Y-91090000D01*
X123900000Y-92590000D02*
X123900000Y-91300000D01*
X124100000Y-95440000D02*
X122400000Y-95440000D01*
X125350000Y-92590000D02*
X119650000Y-92590000D01*
X125950000Y-94390000D02*
X125950000Y-93600000D01*
%TO.C,R4*%
X97620000Y-133896359D02*
X97620000Y-134203641D01*
X98380000Y-133896359D02*
X98380000Y-134203641D01*
%TO.C,C18*%
X132120000Y-143500000D02*
G75*
G02*
X123880000Y-143500000I-4120000J0D01*
G01*
X123880000Y-143500000D02*
G75*
G02*
X132120000Y-143500000I4120000J0D01*
G01*
%TO.C,C11*%
X114390000Y-118372164D02*
X114390000Y-118587836D01*
X115110000Y-118372164D02*
X115110000Y-118587836D01*
%TO.C,C10*%
X114390000Y-116587836D02*
X114390000Y-116372164D01*
X115110000Y-116587836D02*
X115110000Y-116372164D01*
%TO.C,J16*%
X129755000Y-131765000D02*
X130500000Y-131765000D01*
X129755000Y-132500000D02*
X129755000Y-131765000D01*
X129755000Y-133235000D02*
X129755000Y-136110000D01*
X129755000Y-133235000D02*
X129814435Y-133235000D01*
X129755000Y-136110000D02*
X130089970Y-136110000D01*
X130910030Y-136110000D02*
X131245000Y-136110000D01*
X131185565Y-133235000D02*
X131245000Y-133235000D01*
X131245000Y-133235000D02*
X131245000Y-136110000D01*
%TO.C,C7*%
X114907836Y-123040000D02*
X114692164Y-123040000D01*
X114907836Y-123760000D02*
X114692164Y-123760000D01*
%TO.C,FB1*%
X116090000Y-124662779D02*
X116090000Y-124337221D01*
X117110000Y-124662779D02*
X117110000Y-124337221D01*
%TO.C,C9*%
X112307836Y-97040000D02*
X112092164Y-97040000D01*
X112307836Y-97760000D02*
X112092164Y-97760000D01*
%TD*%
M02*
