%TF.GenerationSoftware,KiCad,Pcbnew,9.0.2*%
%TF.CreationDate,2026-02-02T21:35:46+01:00*%
%TF.ProjectId,rubiks-cub,72756269-6b73-42d6-9375-622e6b696361,rev?*%
%TF.SameCoordinates,Original*%
%TF.FileFunction,Copper,L2,Bot*%
%TF.FilePolarity,Positive*%
%FSLAX46Y46*%
G04 Gerber Fmt 4.6, Leading zero omitted, Abs format (unit mm)*
G04 Created by KiCad (PCBNEW 9.0.2) date 2026-02-02 21:35:46*
%MOMM*%
%LPD*%
G01*
G04 APERTURE LIST*
G04 Aperture macros list*
%AMRoundRect*
0 Rectangle with rounded corners*
0 $1 Rounding radius*
0 $2 $3 $4 $5 $6 $7 $8 $9 X,Y pos of 4 corners*
0 Add a 4 corners polygon primitive as box body*
4,1,4,$2,$3,$4,$5,$6,$7,$8,$9,$2,$3,0*
0 Add four circle primitives for the rounded corners*
1,1,$1+$1,$2,$3*
1,1,$1+$1,$4,$5*
1,1,$1+$1,$6,$7*
1,1,$1+$1,$8,$9*
0 Add four rect primitives between the rounded corners*
20,1,$1+$1,$2,$3,$4,$5,0*
20,1,$1+$1,$4,$5,$6,$7,0*
20,1,$1+$1,$6,$7,$8,$9,0*
20,1,$1+$1,$8,$9,$2,$3,0*%
G04 Aperture macros list end*
%TA.AperFunction,ComponentPad*%
%ADD10C,1.600000*%
%TD*%
%TA.AperFunction,ComponentPad*%
%ADD11R,1.700000X1.700000*%
%TD*%
%TA.AperFunction,ComponentPad*%
%ADD12R,0.850000X0.850000*%
%TD*%
%TA.AperFunction,ComponentPad*%
%ADD13C,0.850000*%
%TD*%
%TA.AperFunction,ComponentPad*%
%ADD14R,3.500000X3.500000*%
%TD*%
%TA.AperFunction,ComponentPad*%
%ADD15RoundRect,0.750000X1.000000X-0.750000X1.000000X0.750000X-1.000000X0.750000X-1.000000X-0.750000X0*%
%TD*%
%TA.AperFunction,ComponentPad*%
%ADD16RoundRect,0.875000X0.875000X-0.875000X0.875000X0.875000X-0.875000X0.875000X-0.875000X-0.875000X0*%
%TD*%
%TA.AperFunction,ComponentPad*%
%ADD17R,1.600000X1.600000*%
%TD*%
%TA.AperFunction,ComponentPad*%
%ADD18O,1.600000X1.600000*%
%TD*%
%TA.AperFunction,ComponentPad*%
%ADD19C,2.000000*%
%TD*%
%TA.AperFunction,ViaPad*%
%ADD20C,0.600000*%
%TD*%
%TA.AperFunction,ViaPad*%
%ADD21C,1.000000*%
%TD*%
%TA.AperFunction,ViaPad*%
%ADD22C,0.700000*%
%TD*%
%TA.AperFunction,Conductor*%
%ADD23C,1.000000*%
%TD*%
%TA.AperFunction,Conductor*%
%ADD24C,0.500000*%
%TD*%
%TA.AperFunction,Conductor*%
%ADD25C,0.300000*%
%TD*%
G04 APERTURE END LIST*
D10*
%TO.P,C14,1*%
%TO.N,+12V*%
X70500000Y-140000000D03*
%TO.P,C14,2*%
%TO.N,GND*%
X70500000Y-143500000D03*
%TD*%
D11*
%TO.P,J14,1,Pin_1*%
%TO.N,+5V*%
X104500000Y-110500000D03*
%TD*%
D12*
%TO.P,J2,1,Pin_1*%
%TO.N,+3.3V*%
X131000000Y-102250000D03*
D13*
%TO.P,J2,2,Pin_2*%
%TO.N,/SW_DIO*%
X130000000Y-102250000D03*
%TO.P,J2,3,Pin_3*%
%TO.N,/SW_CLK*%
X129000000Y-102250000D03*
%TO.P,J2,4,Pin_4*%
%TO.N,GND*%
X128000000Y-102250000D03*
%TD*%
D10*
%TO.P,C15,1*%
%TO.N,GND*%
X79000000Y-103500000D03*
%TO.P,C15,2*%
%TO.N,+12V*%
X75500000Y-103500000D03*
%TD*%
D12*
%TO.P,J12,1,Pin_1*%
%TO.N,/SERVO1*%
X126500000Y-130000000D03*
D13*
%TO.P,J12,2,Pin_2*%
%TO.N,+5V*%
X126500000Y-131000000D03*
%TO.P,J12,3,Pin_3*%
%TO.N,GND*%
X126500000Y-132000000D03*
%TD*%
D12*
%TO.P,J3,1,Pin_1*%
%TO.N,+3.3V*%
X122750000Y-102250000D03*
D13*
%TO.P,J3,2,Pin_2*%
%TO.N,/USART1_RX*%
X123750000Y-102250000D03*
%TO.P,J3,3,Pin_3*%
%TO.N,/USART1_TX*%
X124750000Y-102250000D03*
%TO.P,J3,4,Pin_4*%
%TO.N,GND*%
X125750000Y-102250000D03*
%TD*%
D14*
%TO.P,J5,1*%
%TO.N,/DC_IN*%
X81292500Y-133500000D03*
D15*
%TO.P,J5,2*%
%TO.N,GND*%
X81292500Y-139500000D03*
D16*
%TO.P,J5,3*%
%TO.N,N/C*%
X85992500Y-136500000D03*
%TD*%
D12*
%TO.P,J4,1,Pin_1*%
%TO.N,+3.3V*%
X118000000Y-100250000D03*
D13*
%TO.P,J4,2,Pin_2*%
%TO.N,/I2C_SCL*%
X118000000Y-101250000D03*
%TO.P,J4,3,Pin_3*%
%TO.N,/I2C_SDA*%
X118000000Y-102250000D03*
%TO.P,J4,4,Pin_4*%
%TO.N,GND*%
X118000000Y-103250000D03*
%TD*%
D17*
%TO.P,A2,1,GND*%
%TO.N,GND*%
X103610000Y-145840000D03*
D18*
%TO.P,A2,2,VDD*%
%TO.N,+3.3V*%
X106150000Y-145840000D03*
%TO.P,A2,3,1B*%
%TO.N,Net-(A2-1B)*%
X108690000Y-145840000D03*
%TO.P,A2,4,1A*%
%TO.N,Net-(A2-1A)*%
X111230000Y-145840000D03*
%TO.P,A2,5,2A*%
%TO.N,Net-(A2-2A)*%
X113770000Y-145840000D03*
%TO.P,A2,6,2B*%
%TO.N,Net-(A2-2B)*%
X116310000Y-145840000D03*
%TO.P,A2,7,GND*%
%TO.N,GND*%
X118850000Y-145840000D03*
%TO.P,A2,8,VMOT*%
%TO.N,+12V*%
X121390000Y-145840000D03*
%TO.P,A2,9,~{ENABLE}*%
%TO.N,/enable_sm_2*%
X121390000Y-133140000D03*
%TO.P,A2,10,MS1*%
%TO.N,unconnected-(A2-MS1-Pad10)*%
X118850000Y-133140000D03*
%TO.P,A2,11,MS2*%
%TO.N,unconnected-(A2-MS2-Pad11)*%
X116310000Y-133140000D03*
%TO.P,A2,12,MS3*%
%TO.N,unconnected-(A2-MS3-Pad12)*%
X113770000Y-133140000D03*
%TO.P,A2,13,~{RESET}*%
%TO.N,Net-(A2-~{RESET})*%
X111230000Y-133140000D03*
%TO.P,A2,14,~{SLEEP}*%
X108690000Y-133140000D03*
%TO.P,A2,15,STEP*%
%TO.N,/step_sm_2*%
X106150000Y-133140000D03*
%TO.P,A2,16,DIR*%
%TO.N,/dir_sm_2*%
X103610000Y-133140000D03*
%TD*%
D17*
%TO.P,A1,1,GND*%
%TO.N,GND*%
X103890000Y-93660000D03*
D18*
%TO.P,A1,2,VDD*%
%TO.N,+3.3V*%
X101350000Y-93660000D03*
%TO.P,A1,3,1B*%
%TO.N,Net-(A1-1B)*%
X98810000Y-93660000D03*
%TO.P,A1,4,1A*%
%TO.N,Net-(A1-1A)*%
X96270000Y-93660000D03*
%TO.P,A1,5,2A*%
%TO.N,Net-(A1-2A)*%
X93730000Y-93660000D03*
%TO.P,A1,6,2B*%
%TO.N,Net-(A1-2B)*%
X91190000Y-93660000D03*
%TO.P,A1,7,GND*%
%TO.N,GND*%
X88650000Y-93660000D03*
%TO.P,A1,8,VMOT*%
%TO.N,+12V*%
X86110000Y-93660000D03*
%TO.P,A1,9,~{ENABLE}*%
%TO.N,/enable_sm_1*%
X86110000Y-106360000D03*
%TO.P,A1,10,MS1*%
%TO.N,unconnected-(A1-MS1-Pad10)*%
X88650000Y-106360000D03*
%TO.P,A1,11,MS2*%
%TO.N,unconnected-(A1-MS2-Pad11)*%
X91190000Y-106360000D03*
%TO.P,A1,12,MS3*%
%TO.N,unconnected-(A1-MS3-Pad12)*%
X93730000Y-106360000D03*
%TO.P,A1,13,~{RESET}*%
%TO.N,Net-(A1-~{RESET})*%
X96270000Y-106360000D03*
%TO.P,A1,14,~{SLEEP}*%
X98810000Y-106360000D03*
%TO.P,A1,15,STEP*%
%TO.N,/step_sm_1*%
X101350000Y-106360000D03*
%TO.P,A1,16,DIR*%
%TO.N,/dir_sm_1*%
X103890000Y-106360000D03*
%TD*%
D11*
%TO.P,J15,1,Pin_1*%
%TO.N,GND*%
X63442500Y-128400000D03*
%TD*%
%TO.P,J6,1,Pin_1*%
%TO.N,+12V*%
X63500000Y-110500000D03*
%TD*%
%TO.P,J13,1,Pin_1*%
%TO.N,GND*%
X104442500Y-128400000D03*
%TD*%
D19*
%TO.P,SW2,1,1*%
%TO.N,GND*%
X109750000Y-106250000D03*
X109750000Y-99750000D03*
%TO.P,SW2,2,2*%
%TO.N,/NRST*%
X114250000Y-106250000D03*
X114250000Y-99750000D03*
%TD*%
D12*
%TO.P,J9,1,Pin_1*%
%TO.N,Net-(A1-1B)*%
X107000000Y-97500000D03*
D13*
%TO.P,J9,2,Pin_2*%
%TO.N,Net-(A1-1A)*%
X107000000Y-98500000D03*
%TO.P,J9,3,Pin_3*%
%TO.N,Net-(A1-2A)*%
X107000000Y-99500000D03*
%TO.P,J9,4,Pin_4*%
%TO.N,Net-(A1-2B)*%
X107000000Y-100500000D03*
%TD*%
D10*
%TO.P,C18,1*%
%TO.N,GND*%
X128000000Y-141750000D03*
%TO.P,C18,2*%
%TO.N,+12V*%
X128000000Y-145250000D03*
%TD*%
D12*
%TO.P,J16,1,Pin_1*%
%TO.N,Net-(A2-1B)*%
X130500000Y-132500000D03*
D13*
%TO.P,J16,2,Pin_2*%
%TO.N,Net-(A2-1A)*%
X130500000Y-133500000D03*
%TO.P,J16,3,Pin_3*%
%TO.N,Net-(A2-2A)*%
X130500000Y-134500000D03*
%TO.P,J16,4,Pin_4*%
%TO.N,Net-(A2-2B)*%
X130500000Y-135500000D03*
%TD*%
D20*
%TO.N,*%
X132000000Y-138000000D03*
X119000000Y-138000000D03*
%TO.N,+12V*%
X75500000Y-144000000D03*
%TO.N,GND*%
X125000000Y-132000000D03*
%TO.N,+5V*%
X125000000Y-131000000D03*
%TO.N,GND*%
X130500000Y-142000000D03*
%TO.N,+3.3V*%
X103000000Y-96000000D03*
X109000000Y-95500000D03*
%TO.N,/step_sm_1*%
X106500000Y-124000000D03*
X119500000Y-119250000D03*
%TO.N,+3.3V*%
X97500000Y-131750000D03*
X126750000Y-115000000D03*
X116500000Y-113750000D03*
X125707806Y-115792194D03*
X125000000Y-121500000D03*
X110500000Y-129750000D03*
X117750000Y-112500000D03*
X124500000Y-99250000D03*
X120250000Y-98000000D03*
X126500000Y-123000000D03*
%TO.N,GND*%
X131000000Y-118000000D03*
X99200000Y-136200000D03*
D21*
X106750000Y-127750000D03*
D20*
X69000000Y-98000000D03*
X93450000Y-135200000D03*
D22*
X112500000Y-114880000D03*
D21*
X80000000Y-142750000D03*
D20*
X108250000Y-117500000D03*
D22*
X126750000Y-104000000D03*
D20*
X129000000Y-98000000D03*
D22*
X133500000Y-116250000D03*
D21*
X81000000Y-142750000D03*
X82000000Y-142750000D03*
X69750000Y-145000000D03*
D20*
X89000000Y-118000000D03*
X70250000Y-128000000D03*
X99200000Y-138700000D03*
X70000000Y-117500000D03*
D21*
X71750000Y-145000000D03*
D22*
X130250000Y-115675000D03*
D20*
X133000000Y-140250000D03*
X69000000Y-106250000D03*
X99000000Y-118000000D03*
D21*
X63500000Y-131250000D03*
D20*
X129000000Y-128000000D03*
D22*
X119475000Y-122775000D03*
D21*
X78500000Y-105000000D03*
D22*
X118500000Y-105000000D03*
D20*
X119000000Y-129000000D03*
X99000000Y-108000000D03*
X79000000Y-98000000D03*
X139000000Y-108000000D03*
X79000000Y-118000000D03*
D21*
X106000000Y-94540000D03*
D20*
X139000000Y-98000000D03*
D21*
X64500000Y-131250000D03*
D20*
X120250000Y-114250000D03*
X89000000Y-138000000D03*
X99000000Y-101500000D03*
D22*
X124750000Y-97000000D03*
D20*
X118750000Y-97750000D03*
X120500000Y-116750000D03*
X99200000Y-134950000D03*
X68250000Y-137500000D03*
X139000000Y-128000000D03*
D21*
X88000000Y-95250000D03*
D20*
X79000000Y-128000000D03*
X89000000Y-108000000D03*
X94450000Y-135200000D03*
D21*
X62500000Y-131250000D03*
D20*
X109750000Y-108250000D03*
D22*
X125507102Y-122960000D03*
D20*
X99000000Y-128000000D03*
X108750000Y-127500000D03*
X89000000Y-128000000D03*
X101000000Y-145750000D03*
D21*
X70750000Y-145250000D03*
D20*
X79000000Y-138000000D03*
D21*
X79500000Y-105000000D03*
X89000000Y-95250000D03*
X106750000Y-128750000D03*
D22*
X114000000Y-119980000D03*
D20*
X110000000Y-98000000D03*
X99200000Y-139450000D03*
D21*
X106000000Y-92960000D03*
D20*
X99200000Y-136950000D03*
D22*
X115500000Y-112750000D03*
D20*
X139000000Y-118000000D03*
D22*
X118500000Y-121000000D03*
D20*
X136000000Y-131750000D03*
X99000000Y-138000000D03*
D22*
X109950000Y-118580000D03*
D20*
%TO.N,/dir_sm_1*%
X119000000Y-118150000D03*
X105500000Y-123000000D03*
%TO.N,/enable_sm_1*%
X107250000Y-125500000D03*
X119500000Y-120250000D03*
%TO.N,+5V*%
X111000000Y-128000000D03*
%TD*%
D23*
%TO.N,+12V*%
X119550000Y-144000000D02*
X121390000Y-145840000D01*
X75500000Y-144000000D02*
X119550000Y-144000000D01*
D24*
%TO.N,+5V*%
X124500000Y-130500000D02*
X125000000Y-131000000D01*
X111000000Y-128000000D02*
X113500000Y-130500000D01*
X113500000Y-130500000D02*
X124500000Y-130500000D01*
D25*
%TO.N,+3.3V*%
X103000000Y-96000000D02*
X108500000Y-96000000D01*
X108500000Y-96000000D02*
X109000000Y-95500000D01*
%TO.N,/step_sm_1*%
X106750000Y-124000000D02*
X106500000Y-124000000D01*
X118500000Y-119250000D02*
X113750000Y-124000000D01*
X113750000Y-124000000D02*
X106750000Y-124000000D01*
X119500000Y-119250000D02*
X118500000Y-119250000D01*
%TO.N,+3.3V*%
X98000000Y-131750000D02*
X97500000Y-131750000D01*
X126500000Y-123000000D02*
X125000000Y-121500000D01*
X124500000Y-99250000D02*
X123250000Y-98000000D01*
X108500000Y-131750000D02*
X110500000Y-129750000D01*
X126500000Y-115000000D02*
X125707806Y-115792194D01*
X98000000Y-131750000D02*
X108500000Y-131750000D01*
X126750000Y-115000000D02*
X126500000Y-115000000D01*
X117750000Y-112500000D02*
X116500000Y-113750000D01*
X123250000Y-98000000D02*
X120250000Y-98000000D01*
%TO.N,/dir_sm_1*%
X117850000Y-118150000D02*
X113000000Y-123000000D01*
X113000000Y-123000000D02*
X105750000Y-123000000D01*
X119000000Y-118150000D02*
X117850000Y-118150000D01*
X105750000Y-123000000D02*
X105500000Y-123000000D01*
%TO.N,/enable_sm_1*%
X107750000Y-125500000D02*
X107250000Y-125500000D01*
X119500000Y-120250000D02*
X119500000Y-121000000D01*
X115000000Y-125500000D02*
X107750000Y-125500000D01*
X119500000Y-121000000D02*
X115000000Y-125500000D01*
%TD*%
%TA.AperFunction,Conductor*%
%TO.N,GND*%
G36*
X142003243Y-92000669D02*
G01*
X142280182Y-92015184D01*
X142287575Y-92015794D01*
X142349875Y-92022813D01*
X142355353Y-92023555D01*
X142597128Y-92061848D01*
X142605289Y-92063423D01*
X142660830Y-92076100D01*
X142665181Y-92077179D01*
X142908157Y-92142284D01*
X142916999Y-92145013D01*
X142959629Y-92159930D01*
X142963079Y-92161195D01*
X143209378Y-92255739D01*
X143218711Y-92259770D01*
X143239307Y-92269689D01*
X143241754Y-92270900D01*
X143493968Y-92399411D01*
X143505199Y-92405896D01*
X143654437Y-92502812D01*
X143757608Y-92569812D01*
X143768109Y-92577441D01*
X144002010Y-92766850D01*
X144011655Y-92775535D01*
X144224464Y-92988344D01*
X144233149Y-92997989D01*
X144422558Y-93231890D01*
X144430187Y-93242391D01*
X144594101Y-93494796D01*
X144600591Y-93506036D01*
X144729075Y-93758199D01*
X144730309Y-93760691D01*
X144740223Y-93781277D01*
X144744268Y-93790643D01*
X144838791Y-94036887D01*
X144840068Y-94040369D01*
X144854985Y-94082999D01*
X144857719Y-94091860D01*
X144922806Y-94334766D01*
X144923917Y-94339245D01*
X144930033Y-94366044D01*
X144936569Y-94394679D01*
X144938150Y-94402872D01*
X144976440Y-94644627D01*
X144977187Y-94650142D01*
X144984204Y-94712424D01*
X144984814Y-94719816D01*
X144999330Y-94996755D01*
X144999500Y-95003246D01*
X144999500Y-144996753D01*
X144999330Y-145003244D01*
X144984814Y-145280182D01*
X144984204Y-145287574D01*
X144977187Y-145349856D01*
X144976440Y-145355371D01*
X144938150Y-145597126D01*
X144936569Y-145605319D01*
X144923923Y-145660729D01*
X144922806Y-145665232D01*
X144857719Y-145908138D01*
X144854985Y-145916999D01*
X144840068Y-145959629D01*
X144838791Y-145963111D01*
X144744268Y-146209355D01*
X144740223Y-146218721D01*
X144730309Y-146239307D01*
X144729075Y-146241799D01*
X144600591Y-146493964D01*
X144594105Y-146505197D01*
X144560510Y-146556930D01*
X144430187Y-146757609D01*
X144422558Y-146768109D01*
X144233149Y-147002010D01*
X144224464Y-147011655D01*
X144011655Y-147224464D01*
X144002010Y-147233149D01*
X143768109Y-147422558D01*
X143757609Y-147430187D01*
X143505197Y-147594105D01*
X143493964Y-147600591D01*
X143241799Y-147729075D01*
X143239307Y-147730309D01*
X143218721Y-147740223D01*
X143209355Y-147744268D01*
X142963111Y-147838791D01*
X142959629Y-147840068D01*
X142916999Y-147854985D01*
X142908138Y-147857719D01*
X142665232Y-147922806D01*
X142660729Y-147923923D01*
X142605319Y-147936569D01*
X142597126Y-147938150D01*
X142355371Y-147976440D01*
X142349856Y-147977187D01*
X142287574Y-147984204D01*
X142280182Y-147984814D01*
X142003244Y-147999330D01*
X141996753Y-147999500D01*
X62003246Y-147999500D01*
X61996757Y-147999330D01*
X61986676Y-147998801D01*
X61719816Y-147984814D01*
X61712424Y-147984204D01*
X61650142Y-147977187D01*
X61644627Y-147976440D01*
X61402872Y-147938150D01*
X61394679Y-147936569D01*
X61366044Y-147930033D01*
X61339245Y-147923917D01*
X61334766Y-147922806D01*
X61091860Y-147857719D01*
X61082999Y-147854985D01*
X61040369Y-147840068D01*
X61036887Y-147838791D01*
X60790643Y-147744268D01*
X60781277Y-147740223D01*
X60760691Y-147730309D01*
X60758199Y-147729075D01*
X60506036Y-147600591D01*
X60494796Y-147594101D01*
X60242391Y-147430187D01*
X60231890Y-147422558D01*
X59997989Y-147233149D01*
X59988344Y-147224464D01*
X59775535Y-147011655D01*
X59766850Y-147002010D01*
X59577441Y-146768109D01*
X59569812Y-146757608D01*
X59524496Y-146687827D01*
X59405896Y-146505199D01*
X59399408Y-146493963D01*
X59270900Y-146241754D01*
X59269689Y-146239307D01*
X59259770Y-146218711D01*
X59255739Y-146209378D01*
X59161195Y-145963079D01*
X59159930Y-145959629D01*
X59145013Y-145916999D01*
X59142284Y-145908157D01*
X59077179Y-145665181D01*
X59076100Y-145660830D01*
X59063423Y-145605289D01*
X59061848Y-145597126D01*
X59049620Y-145519920D01*
X59023555Y-145355353D01*
X59022811Y-145349856D01*
X59015794Y-145287574D01*
X59015184Y-145280181D01*
X59000670Y-145003243D01*
X59000500Y-144996753D01*
X59000500Y-144893713D01*
X60649500Y-144893713D01*
X60649500Y-145106286D01*
X60682324Y-145313533D01*
X60682754Y-145316243D01*
X60744961Y-145507697D01*
X60748444Y-145518414D01*
X60844951Y-145707820D01*
X60969890Y-145879786D01*
X61120213Y-146030109D01*
X61292179Y-146155048D01*
X61292181Y-146155049D01*
X61292184Y-146155051D01*
X61481588Y-146251557D01*
X61683757Y-146317246D01*
X61893713Y-146350500D01*
X61893714Y-146350500D01*
X62106286Y-146350500D01*
X62106287Y-146350500D01*
X62316243Y-146317246D01*
X62518412Y-146251557D01*
X62707816Y-146155051D01*
X62797352Y-146090000D01*
X62879786Y-146030109D01*
X62879788Y-146030106D01*
X62879792Y-146030104D01*
X63030104Y-145879792D01*
X63030106Y-145879788D01*
X63030109Y-145879786D01*
X63155048Y-145707820D01*
X63155047Y-145707820D01*
X63155051Y-145707816D01*
X63251557Y-145518412D01*
X63317246Y-145316243D01*
X63350500Y-145106287D01*
X63350500Y-144893713D01*
X63317246Y-144683757D01*
X63251557Y-144481588D01*
X63155051Y-144292184D01*
X63155049Y-144292181D01*
X63155048Y-144292179D01*
X63030109Y-144120213D01*
X62879786Y-143969890D01*
X62707820Y-143844951D01*
X62518414Y-143748444D01*
X62518413Y-143748443D01*
X62518412Y-143748443D01*
X62316243Y-143682754D01*
X62316241Y-143682753D01*
X62316240Y-143682753D01*
X62137186Y-143654394D01*
X62106287Y-143649500D01*
X61893713Y-143649500D01*
X61862814Y-143654394D01*
X61683760Y-143682753D01*
X61481585Y-143748444D01*
X61292179Y-143844951D01*
X61120213Y-143969890D01*
X60969890Y-144120213D01*
X60844951Y-144292179D01*
X60748444Y-144481585D01*
X60682753Y-144683760D01*
X60649500Y-144893713D01*
X59000500Y-144893713D01*
X59000500Y-143397682D01*
X69200000Y-143397682D01*
X69200000Y-143602317D01*
X69232009Y-143804417D01*
X69295244Y-143999031D01*
X69388141Y-144181350D01*
X69388147Y-144181359D01*
X69420523Y-144225921D01*
X69420524Y-144225922D01*
X70100000Y-143546446D01*
X70100000Y-143552661D01*
X70127259Y-143654394D01*
X70179920Y-143745606D01*
X70254394Y-143820080D01*
X70345606Y-143872741D01*
X70447339Y-143900000D01*
X70453553Y-143900000D01*
X69774076Y-144579474D01*
X69818650Y-144611859D01*
X70000968Y-144704755D01*
X70195582Y-144767990D01*
X70397683Y-144800000D01*
X70602317Y-144800000D01*
X70804417Y-144767990D01*
X70999031Y-144704755D01*
X71181349Y-144611859D01*
X71225921Y-144579474D01*
X70546447Y-143900000D01*
X70552661Y-143900000D01*
X70654394Y-143872741D01*
X70745606Y-143820080D01*
X70820080Y-143745606D01*
X70872741Y-143654394D01*
X70900000Y-143552661D01*
X70900000Y-143546448D01*
X71579474Y-144225922D01*
X71579474Y-144225921D01*
X71611859Y-144181349D01*
X71704755Y-143999029D01*
X71730059Y-143921153D01*
X74699500Y-143921153D01*
X74699500Y-144078846D01*
X74730261Y-144233489D01*
X74730264Y-144233501D01*
X74790602Y-144379172D01*
X74790609Y-144379185D01*
X74878210Y-144510288D01*
X74878213Y-144510292D01*
X74989707Y-144621786D01*
X74989711Y-144621789D01*
X75120814Y-144709390D01*
X75120827Y-144709397D01*
X75262285Y-144767990D01*
X75266503Y-144769737D01*
X75418644Y-144800000D01*
X75421153Y-144800499D01*
X75421156Y-144800500D01*
X75421158Y-144800500D01*
X102192561Y-144800500D01*
X102259600Y-144820185D01*
X102305355Y-144872989D01*
X102315850Y-144937756D01*
X102310000Y-144992155D01*
X102310000Y-145590000D01*
X103294314Y-145590000D01*
X103289920Y-145594394D01*
X103237259Y-145685606D01*
X103210000Y-145787339D01*
X103210000Y-145892661D01*
X103237259Y-145994394D01*
X103289920Y-146085606D01*
X103294314Y-146090000D01*
X102310000Y-146090000D01*
X102310000Y-146687844D01*
X102316401Y-146747372D01*
X102316403Y-146747379D01*
X102366645Y-146882086D01*
X102366649Y-146882093D01*
X102452809Y-146997187D01*
X102452812Y-146997190D01*
X102567906Y-147083350D01*
X102567913Y-147083354D01*
X102702620Y-147133596D01*
X102702627Y-147133598D01*
X102762155Y-147139999D01*
X102762172Y-147140000D01*
X103360000Y-147140000D01*
X103360000Y-146155686D01*
X103364394Y-146160080D01*
X103455606Y-146212741D01*
X103557339Y-146240000D01*
X103662661Y-146240000D01*
X103764394Y-146212741D01*
X103855606Y-146160080D01*
X103860000Y-146155686D01*
X103860000Y-147140000D01*
X104457828Y-147140000D01*
X104457844Y-147139999D01*
X104517372Y-147133598D01*
X104517379Y-147133596D01*
X104652086Y-147083354D01*
X104652093Y-147083350D01*
X104767187Y-146997190D01*
X104767190Y-146997187D01*
X104853350Y-146882093D01*
X104853354Y-146882086D01*
X104903596Y-146747379D01*
X104903598Y-146747372D01*
X104909999Y-146687844D01*
X104910000Y-146687827D01*
X104910000Y-146346919D01*
X104929685Y-146279880D01*
X104982489Y-146234125D01*
X105051647Y-146224181D01*
X105115203Y-146253206D01*
X105144485Y-146290625D01*
X105208766Y-146416786D01*
X105239357Y-146458890D01*
X105310586Y-146556928D01*
X105433072Y-146679414D01*
X105573212Y-146781232D01*
X105727555Y-146859873D01*
X105892299Y-146913402D01*
X106063389Y-146940500D01*
X106063390Y-146940500D01*
X106236610Y-146940500D01*
X106236611Y-146940500D01*
X106407701Y-146913402D01*
X106572445Y-146859873D01*
X106726788Y-146781232D01*
X106866928Y-146679414D01*
X106989414Y-146556928D01*
X107091232Y-146416788D01*
X107169873Y-146262445D01*
X107223402Y-146097701D01*
X107250500Y-145926611D01*
X107250500Y-145753389D01*
X107223402Y-145582299D01*
X107169873Y-145417555D01*
X107091232Y-145263212D01*
X106989414Y-145123072D01*
X106878523Y-145012181D01*
X106845038Y-144950858D01*
X106850022Y-144881166D01*
X106891894Y-144825233D01*
X106957358Y-144800816D01*
X106966204Y-144800500D01*
X107873796Y-144800500D01*
X107940835Y-144820185D01*
X107986590Y-144872989D01*
X107996534Y-144942147D01*
X107967509Y-145005703D01*
X107961477Y-145012181D01*
X107850588Y-145123069D01*
X107850588Y-145123070D01*
X107850586Y-145123072D01*
X107825754Y-145157250D01*
X107748768Y-145263211D01*
X107670128Y-145417552D01*
X107670127Y-145417554D01*
X107670127Y-145417555D01*
X107653977Y-145467259D01*
X107616597Y-145582302D01*
X107589500Y-145753389D01*
X107589500Y-145926610D01*
X107615934Y-146093512D01*
X107616598Y-146097701D01*
X107670127Y-146262445D01*
X107748768Y-146416788D01*
X107850586Y-146556928D01*
X107973072Y-146679414D01*
X108113212Y-146781232D01*
X108267555Y-146859873D01*
X108432299Y-146913402D01*
X108603389Y-146940500D01*
X108603390Y-146940500D01*
X108776610Y-146940500D01*
X108776611Y-146940500D01*
X108947701Y-146913402D01*
X109112445Y-146859873D01*
X109266788Y-146781232D01*
X109406928Y-146679414D01*
X109529414Y-146556928D01*
X109631232Y-146416788D01*
X109709873Y-146262445D01*
X109763402Y-146097701D01*
X109790500Y-145926611D01*
X109790500Y-145753389D01*
X109763402Y-145582299D01*
X109709873Y-145417555D01*
X109631232Y-145263212D01*
X109529414Y-145123072D01*
X109418523Y-145012181D01*
X109385038Y-144950858D01*
X109390022Y-144881166D01*
X109431894Y-144825233D01*
X109497358Y-144800816D01*
X109506204Y-144800500D01*
X110413796Y-144800500D01*
X110480835Y-144820185D01*
X110526590Y-144872989D01*
X110536534Y-144942147D01*
X110507509Y-145005703D01*
X110501477Y-145012181D01*
X110390588Y-145123069D01*
X110390588Y-145123070D01*
X110390586Y-145123072D01*
X110365754Y-145157250D01*
X110288768Y-145263211D01*
X110210128Y-145417552D01*
X110210127Y-145417554D01*
X110210127Y-145417555D01*
X110193977Y-145467259D01*
X110156597Y-145582302D01*
X110129500Y-145753389D01*
X110129500Y-145926610D01*
X110155934Y-146093512D01*
X110156598Y-146097701D01*
X110210127Y-146262445D01*
X110288768Y-146416788D01*
X110390586Y-146556928D01*
X110513072Y-146679414D01*
X110653212Y-146781232D01*
X110807555Y-146859873D01*
X110972299Y-146913402D01*
X111143389Y-146940500D01*
X111143390Y-146940500D01*
X111316610Y-146940500D01*
X111316611Y-146940500D01*
X111487701Y-146913402D01*
X111652445Y-146859873D01*
X111806788Y-146781232D01*
X111946928Y-146679414D01*
X112069414Y-146556928D01*
X112171232Y-146416788D01*
X112249873Y-146262445D01*
X112303402Y-146097701D01*
X112330500Y-145926611D01*
X112330500Y-145753389D01*
X112303402Y-145582299D01*
X112249873Y-145417555D01*
X112171232Y-145263212D01*
X112069414Y-145123072D01*
X111958523Y-145012181D01*
X111925038Y-144950858D01*
X111930022Y-144881166D01*
X111971894Y-144825233D01*
X112037358Y-144800816D01*
X112046204Y-144800500D01*
X112953796Y-144800500D01*
X113020835Y-144820185D01*
X113066590Y-144872989D01*
X113076534Y-144942147D01*
X113047509Y-145005703D01*
X113041477Y-145012181D01*
X112930588Y-145123069D01*
X112930588Y-145123070D01*
X112930586Y-145123072D01*
X112905754Y-145157250D01*
X112828768Y-145263211D01*
X112750128Y-145417552D01*
X112750127Y-145417554D01*
X112750127Y-145417555D01*
X112733977Y-145467259D01*
X112696597Y-145582302D01*
X112669500Y-145753389D01*
X112669500Y-145926610D01*
X112695934Y-146093512D01*
X112696598Y-146097701D01*
X112750127Y-146262445D01*
X112828768Y-146416788D01*
X112930586Y-146556928D01*
X113053072Y-146679414D01*
X113193212Y-146781232D01*
X113347555Y-146859873D01*
X113512299Y-146913402D01*
X113683389Y-146940500D01*
X113683390Y-146940500D01*
X113856610Y-146940500D01*
X113856611Y-146940500D01*
X114027701Y-146913402D01*
X114192445Y-146859873D01*
X114346788Y-146781232D01*
X114486928Y-146679414D01*
X114609414Y-146556928D01*
X114711232Y-146416788D01*
X114789873Y-146262445D01*
X114843402Y-146097701D01*
X114870500Y-145926611D01*
X114870500Y-145753389D01*
X114843402Y-145582299D01*
X114789873Y-145417555D01*
X114711232Y-145263212D01*
X114609414Y-145123072D01*
X114498523Y-145012181D01*
X114465038Y-144950858D01*
X114470022Y-144881166D01*
X114511894Y-144825233D01*
X114577358Y-144800816D01*
X114586204Y-144800500D01*
X115493796Y-144800500D01*
X115560835Y-144820185D01*
X115606590Y-144872989D01*
X115616534Y-144942147D01*
X115587509Y-145005703D01*
X115581477Y-145012181D01*
X115470588Y-145123069D01*
X115470588Y-145123070D01*
X115470586Y-145123072D01*
X115445754Y-145157250D01*
X115368768Y-145263211D01*
X115290128Y-145417552D01*
X115290127Y-145417554D01*
X115290127Y-145417555D01*
X115273977Y-145467259D01*
X115236597Y-145582302D01*
X115209500Y-145753389D01*
X115209500Y-145926610D01*
X115235934Y-146093512D01*
X115236598Y-146097701D01*
X115290127Y-146262445D01*
X115368768Y-146416788D01*
X115470586Y-146556928D01*
X115593072Y-146679414D01*
X115733212Y-146781232D01*
X115887555Y-146859873D01*
X116052299Y-146913402D01*
X116223389Y-146940500D01*
X116223390Y-146940500D01*
X116396610Y-146940500D01*
X116396611Y-146940500D01*
X116567701Y-146913402D01*
X116732445Y-146859873D01*
X116886788Y-146781232D01*
X117026928Y-146679414D01*
X117149414Y-146556928D01*
X117251232Y-146416788D01*
X117329873Y-146262445D01*
X117357186Y-146178384D01*
X117396622Y-146120711D01*
X117460981Y-146093512D01*
X117529827Y-146105427D01*
X117581303Y-146152671D01*
X117593047Y-146178385D01*
X117645244Y-146339031D01*
X117738140Y-146521349D01*
X117858417Y-146686894D01*
X117858417Y-146686895D01*
X118003104Y-146831582D01*
X118168650Y-146951859D01*
X118350968Y-147044754D01*
X118545578Y-147107988D01*
X118600000Y-147116607D01*
X118600000Y-146155686D01*
X118604394Y-146160080D01*
X118695606Y-146212741D01*
X118797339Y-146240000D01*
X118902661Y-146240000D01*
X119004394Y-146212741D01*
X119095606Y-146160080D01*
X119100000Y-146155686D01*
X119100000Y-147116606D01*
X119154421Y-147107988D01*
X119349031Y-147044754D01*
X119531349Y-146951859D01*
X119696894Y-146831582D01*
X119696895Y-146831582D01*
X119841582Y-146686895D01*
X119841582Y-146686894D01*
X119961859Y-146521349D01*
X120054755Y-146339029D01*
X120106952Y-146178386D01*
X120146389Y-146120710D01*
X120210748Y-146093512D01*
X120279594Y-146105427D01*
X120331070Y-146152671D01*
X120342814Y-146178385D01*
X120370128Y-146262449D01*
X120421906Y-146364068D01*
X120448768Y-146416788D01*
X120550586Y-146556928D01*
X120673072Y-146679414D01*
X120813212Y-146781232D01*
X120967555Y-146859873D01*
X121132299Y-146913402D01*
X121303389Y-146940500D01*
X121303390Y-146940500D01*
X121476610Y-146940500D01*
X121476611Y-146940500D01*
X121647701Y-146913402D01*
X121812445Y-146859873D01*
X121966788Y-146781232D01*
X122106928Y-146679414D01*
X122229414Y-146556928D01*
X122331232Y-146416788D01*
X122409873Y-146262445D01*
X122463402Y-146097701D01*
X122490500Y-145926611D01*
X122490500Y-145753389D01*
X122463402Y-145582299D01*
X122409873Y-145417555D01*
X122331232Y-145263212D01*
X122258706Y-145163389D01*
X126899500Y-145163389D01*
X126899500Y-145336610D01*
X126925633Y-145501613D01*
X126926598Y-145507701D01*
X126980127Y-145672445D01*
X127058768Y-145826788D01*
X127160586Y-145966928D01*
X127283072Y-146089414D01*
X127423212Y-146191232D01*
X127577555Y-146269873D01*
X127742299Y-146323402D01*
X127913389Y-146350500D01*
X127913390Y-146350500D01*
X128086610Y-146350500D01*
X128086611Y-146350500D01*
X128257701Y-146323402D01*
X128422445Y-146269873D01*
X128576788Y-146191232D01*
X128716928Y-146089414D01*
X128839414Y-145966928D01*
X128941232Y-145826788D01*
X129019873Y-145672445D01*
X129073402Y-145507701D01*
X129100500Y-145336611D01*
X129100500Y-145163389D01*
X129073402Y-144992299D01*
X129041369Y-144893713D01*
X140649500Y-144893713D01*
X140649500Y-145106286D01*
X140682324Y-145313533D01*
X140682754Y-145316243D01*
X140744961Y-145507697D01*
X140748444Y-145518414D01*
X140844951Y-145707820D01*
X140969890Y-145879786D01*
X141120213Y-146030109D01*
X141292179Y-146155048D01*
X141292181Y-146155049D01*
X141292184Y-146155051D01*
X141481588Y-146251557D01*
X141683757Y-146317246D01*
X141893713Y-146350500D01*
X141893714Y-146350500D01*
X142106286Y-146350500D01*
X142106287Y-146350500D01*
X142316243Y-146317246D01*
X142518412Y-146251557D01*
X142707816Y-146155051D01*
X142797352Y-146090000D01*
X142879786Y-146030109D01*
X142879788Y-146030106D01*
X142879792Y-146030104D01*
X143030104Y-145879792D01*
X143030106Y-145879788D01*
X143030109Y-145879786D01*
X143155048Y-145707820D01*
X143155047Y-145707820D01*
X143155051Y-145707816D01*
X143251557Y-145518412D01*
X143317246Y-145316243D01*
X143350500Y-145106287D01*
X143350500Y-144893713D01*
X143317246Y-144683757D01*
X143251557Y-144481588D01*
X143155051Y-144292184D01*
X143155049Y-144292181D01*
X143155048Y-144292179D01*
X143030109Y-144120213D01*
X142879786Y-143969890D01*
X142707820Y-143844951D01*
X142518414Y-143748444D01*
X142518413Y-143748443D01*
X142518412Y-143748443D01*
X142316243Y-143682754D01*
X142316241Y-143682753D01*
X142316240Y-143682753D01*
X142137186Y-143654394D01*
X142106287Y-143649500D01*
X141893713Y-143649500D01*
X141862814Y-143654394D01*
X141683760Y-143682753D01*
X141481585Y-143748444D01*
X141292179Y-143844951D01*
X141120213Y-143969890D01*
X140969890Y-144120213D01*
X140844951Y-144292179D01*
X140748444Y-144481585D01*
X140682753Y-144683760D01*
X140649500Y-144893713D01*
X129041369Y-144893713D01*
X129019873Y-144827555D01*
X128941232Y-144673212D01*
X128839414Y-144533072D01*
X128716928Y-144410586D01*
X128576788Y-144308768D01*
X128422445Y-144230127D01*
X128257701Y-144176598D01*
X128257699Y-144176597D01*
X128257698Y-144176597D01*
X128126271Y-144155781D01*
X128086611Y-144149500D01*
X127913389Y-144149500D01*
X127873728Y-144155781D01*
X127742302Y-144176597D01*
X127577552Y-144230128D01*
X127423211Y-144308768D01*
X127343256Y-144366859D01*
X127283072Y-144410586D01*
X127283070Y-144410588D01*
X127283069Y-144410588D01*
X127160588Y-144533069D01*
X127160588Y-144533070D01*
X127160586Y-144533072D01*
X127133369Y-144570533D01*
X127058768Y-144673211D01*
X126980128Y-144827552D01*
X126926597Y-144992302D01*
X126899500Y-145163389D01*
X122258706Y-145163389D01*
X122229414Y-145123072D01*
X122106928Y-145000586D01*
X121966788Y-144898768D01*
X121812445Y-144820127D01*
X121647701Y-144766598D01*
X121647699Y-144766597D01*
X121647698Y-144766597D01*
X121516271Y-144745781D01*
X121476611Y-144739500D01*
X121476610Y-144739500D01*
X121472940Y-144739500D01*
X121405901Y-144719815D01*
X121385259Y-144703181D01*
X120060292Y-143378213D01*
X120060288Y-143378210D01*
X119929185Y-143290609D01*
X119929172Y-143290602D01*
X119783501Y-143230264D01*
X119783489Y-143230261D01*
X119628845Y-143199500D01*
X119628842Y-143199500D01*
X75421158Y-143199500D01*
X75421155Y-143199500D01*
X75266510Y-143230261D01*
X75266498Y-143230264D01*
X75120827Y-143290602D01*
X75120814Y-143290609D01*
X74989711Y-143378210D01*
X74989707Y-143378213D01*
X74878213Y-143489707D01*
X74878210Y-143489711D01*
X74790609Y-143620814D01*
X74790602Y-143620827D01*
X74730264Y-143766498D01*
X74730261Y-143766510D01*
X74699500Y-143921153D01*
X71730059Y-143921153D01*
X71744488Y-143876748D01*
X71744488Y-143876747D01*
X71767990Y-143804417D01*
X71800000Y-143602317D01*
X71800000Y-143397682D01*
X71767990Y-143195582D01*
X71704755Y-143000968D01*
X71621978Y-142838510D01*
X71621977Y-142838508D01*
X71611859Y-142818650D01*
X71579474Y-142774077D01*
X71579474Y-142774076D01*
X70900000Y-143453551D01*
X70900000Y-143447339D01*
X70872741Y-143345606D01*
X70820080Y-143254394D01*
X70745606Y-143179920D01*
X70654394Y-143127259D01*
X70552661Y-143100000D01*
X70546446Y-143100000D01*
X71225922Y-142420524D01*
X71225921Y-142420523D01*
X71181359Y-142388147D01*
X71181350Y-142388141D01*
X70999031Y-142295244D01*
X70804417Y-142232009D01*
X70602317Y-142200000D01*
X70397683Y-142200000D01*
X70195582Y-142232009D01*
X70000968Y-142295244D01*
X69818644Y-142388143D01*
X69774077Y-142420523D01*
X69774077Y-142420524D01*
X70453554Y-143100000D01*
X70447339Y-143100000D01*
X70345606Y-143127259D01*
X70254394Y-143179920D01*
X70179920Y-143254394D01*
X70127259Y-143345606D01*
X70100000Y-143447339D01*
X70100000Y-143453553D01*
X69420524Y-142774077D01*
X69420523Y-142774077D01*
X69388143Y-142818644D01*
X69295244Y-143000968D01*
X69232009Y-143195582D01*
X69200000Y-143397682D01*
X59000500Y-143397682D01*
X59000500Y-141647682D01*
X126700000Y-141647682D01*
X126700000Y-141852317D01*
X126732009Y-142054417D01*
X126795244Y-142249031D01*
X126888141Y-142431350D01*
X126888147Y-142431359D01*
X126920523Y-142475921D01*
X126920524Y-142475922D01*
X127600000Y-141796446D01*
X127600000Y-141802661D01*
X127627259Y-141904394D01*
X127679920Y-141995606D01*
X127754394Y-142070080D01*
X127845606Y-142122741D01*
X127947339Y-142150000D01*
X127953553Y-142150000D01*
X127274076Y-142829474D01*
X127318650Y-142861859D01*
X127500968Y-142954755D01*
X127695582Y-143017990D01*
X127897683Y-143050000D01*
X128102317Y-143050000D01*
X128304417Y-143017990D01*
X128499031Y-142954755D01*
X128681349Y-142861859D01*
X128725921Y-142829474D01*
X128046447Y-142150000D01*
X128052661Y-142150000D01*
X128154394Y-142122741D01*
X128245606Y-142070080D01*
X128320080Y-141995606D01*
X128372741Y-141904394D01*
X128400000Y-141802661D01*
X128400000Y-141796448D01*
X129079474Y-142475922D01*
X129079474Y-142475921D01*
X129111859Y-142431349D01*
X129204755Y-142249031D01*
X129267990Y-142054417D01*
X129300000Y-141852317D01*
X129300000Y-141647682D01*
X129267990Y-141445582D01*
X129204755Y-141250968D01*
X129111859Y-141068650D01*
X129079474Y-141024077D01*
X129079474Y-141024076D01*
X128400000Y-141703551D01*
X128400000Y-141697339D01*
X128372741Y-141595606D01*
X128320080Y-141504394D01*
X128245606Y-141429920D01*
X128154394Y-141377259D01*
X128052661Y-141350000D01*
X128046446Y-141350000D01*
X128725922Y-140670524D01*
X128725921Y-140670523D01*
X128681359Y-140638147D01*
X128681350Y-140638141D01*
X128499031Y-140545244D01*
X128304417Y-140482009D01*
X128102317Y-140450000D01*
X127897683Y-140450000D01*
X127695582Y-140482009D01*
X127500968Y-140545244D01*
X127318644Y-140638143D01*
X127274077Y-140670523D01*
X127274077Y-140670524D01*
X127953554Y-141350000D01*
X127947339Y-141350000D01*
X127845606Y-141377259D01*
X127754394Y-141429920D01*
X127679920Y-141504394D01*
X127627259Y-141595606D01*
X127600000Y-141697339D01*
X127600000Y-141703553D01*
X126920524Y-141024077D01*
X126920523Y-141024077D01*
X126888143Y-141068644D01*
X126795244Y-141250968D01*
X126732009Y-141445582D01*
X126700000Y-141647682D01*
X59000500Y-141647682D01*
X59000500Y-139913389D01*
X69399500Y-139913389D01*
X69399500Y-140086611D01*
X69426598Y-140257701D01*
X69480127Y-140422445D01*
X69558768Y-140576788D01*
X69660586Y-140716928D01*
X69783072Y-140839414D01*
X69923212Y-140941232D01*
X70077555Y-141019873D01*
X70242299Y-141073402D01*
X70413389Y-141100500D01*
X70413390Y-141100500D01*
X70586610Y-141100500D01*
X70586611Y-141100500D01*
X70757701Y-141073402D01*
X70922445Y-141019873D01*
X71076788Y-140941232D01*
X71216928Y-140839414D01*
X71339414Y-140716928D01*
X71441232Y-140576788D01*
X71519873Y-140422445D01*
X71573402Y-140257701D01*
X71600500Y-140086611D01*
X71600500Y-139913389D01*
X71573402Y-139742299D01*
X71519873Y-139577555D01*
X71441232Y-139423212D01*
X71339414Y-139283072D01*
X71216928Y-139160586D01*
X71076788Y-139058768D01*
X70922445Y-138980127D01*
X70757701Y-138926598D01*
X70757699Y-138926597D01*
X70757698Y-138926597D01*
X70626271Y-138905781D01*
X70586611Y-138899500D01*
X70413389Y-138899500D01*
X70373728Y-138905781D01*
X70242302Y-138926597D01*
X70077552Y-138980128D01*
X69923211Y-139058768D01*
X69866597Y-139099901D01*
X69783072Y-139160586D01*
X69783070Y-139160588D01*
X69783069Y-139160588D01*
X69660588Y-139283069D01*
X69660588Y-139283070D01*
X69660586Y-139283072D01*
X69643196Y-139307007D01*
X69558768Y-139423211D01*
X69480128Y-139577552D01*
X69426597Y-139742302D01*
X69425378Y-139750000D01*
X69399500Y-139913389D01*
X59000500Y-139913389D01*
X59000500Y-138685803D01*
X79042500Y-138685803D01*
X79042500Y-139250000D01*
X79859488Y-139250000D01*
X79826575Y-139307007D01*
X79792500Y-139434174D01*
X79792500Y-139565826D01*
X79826575Y-139692993D01*
X79859488Y-139750000D01*
X79042501Y-139750000D01*
X79042501Y-140314197D01*
X79052900Y-140446332D01*
X79107877Y-140664519D01*
X79200928Y-140869374D01*
X79200931Y-140869380D01*
X79329059Y-141054323D01*
X79329069Y-141054335D01*
X79488164Y-141213430D01*
X79488176Y-141213440D01*
X79673119Y-141341568D01*
X79673125Y-141341571D01*
X79877980Y-141434622D01*
X80096167Y-141489599D01*
X80228310Y-141499999D01*
X81042499Y-141499999D01*
X81042500Y-141499998D01*
X81042500Y-140000000D01*
X81542500Y-140000000D01*
X81542500Y-141499999D01*
X82356682Y-141499999D01*
X82356697Y-141499998D01*
X82488832Y-141489599D01*
X82707019Y-141434622D01*
X82911874Y-141341571D01*
X82911880Y-141341568D01*
X83096823Y-141213440D01*
X83096835Y-141213430D01*
X83255930Y-141054335D01*
X83255940Y-141054323D01*
X83384068Y-140869380D01*
X83384071Y-140869374D01*
X83476221Y-140666502D01*
X83476222Y-140666499D01*
X83476224Y-140666496D01*
X83477122Y-140664518D01*
X83532099Y-140446332D01*
X83542499Y-140314196D01*
X83542500Y-140314184D01*
X83542500Y-139750000D01*
X82725512Y-139750000D01*
X82758425Y-139692993D01*
X82792500Y-139565826D01*
X82792500Y-139434174D01*
X82758425Y-139307007D01*
X82725512Y-139250000D01*
X83542499Y-139250000D01*
X83542499Y-138685817D01*
X83542498Y-138685802D01*
X83532099Y-138553667D01*
X83477122Y-138335480D01*
X83384071Y-138130625D01*
X83384068Y-138130619D01*
X83255940Y-137945676D01*
X83255930Y-137945664D01*
X83096835Y-137786569D01*
X83096823Y-137786559D01*
X82911880Y-137658431D01*
X82911874Y-137658428D01*
X82707019Y-137565377D01*
X82488832Y-137510400D01*
X82356696Y-137500000D01*
X81542500Y-137500000D01*
X81542500Y-139000000D01*
X81042500Y-139000000D01*
X81042500Y-137500000D01*
X80228317Y-137500000D01*
X80228302Y-137500001D01*
X80096167Y-137510400D01*
X79877980Y-137565377D01*
X79673125Y-137658428D01*
X79673119Y-137658431D01*
X79488176Y-137786559D01*
X79488164Y-137786569D01*
X79329069Y-137945664D01*
X79329059Y-137945676D01*
X79200931Y-138130619D01*
X79200928Y-138130625D01*
X79107877Y-138335480D01*
X79052900Y-138553667D01*
X79042500Y-138685803D01*
X59000500Y-138685803D01*
X59000500Y-135552444D01*
X83942000Y-135552444D01*
X83942000Y-137447555D01*
X83948284Y-137538093D01*
X83948286Y-137538109D01*
X83998159Y-137750156D01*
X83998161Y-137750161D01*
X83998162Y-137750164D01*
X84086157Y-137949454D01*
X84186986Y-138096646D01*
X84209273Y-138129181D01*
X84209278Y-138129187D01*
X84363312Y-138283221D01*
X84363318Y-138283226D01*
X84543046Y-138406343D01*
X84742336Y-138494338D01*
X84742341Y-138494339D01*
X84742343Y-138494340D01*
X84954390Y-138544213D01*
X84954395Y-138544213D01*
X84954401Y-138544215D01*
X85004704Y-138547706D01*
X85044944Y-138550500D01*
X85044948Y-138550500D01*
X86940056Y-138550500D01*
X86976270Y-138547986D01*
X87030599Y-138544215D01*
X87030605Y-138544213D01*
X87030609Y-138544213D01*
X87242656Y-138494340D01*
X87242656Y-138494339D01*
X87242664Y-138494338D01*
X87441954Y-138406343D01*
X87621682Y-138283226D01*
X87775726Y-138129182D01*
X87898843Y-137949454D01*
X87911432Y-137920943D01*
X118399500Y-137920943D01*
X118399500Y-138079057D01*
X118412933Y-138129187D01*
X118440423Y-138231783D01*
X118440426Y-138231790D01*
X118519475Y-138368709D01*
X118519479Y-138368714D01*
X118519480Y-138368716D01*
X118631284Y-138480520D01*
X118631286Y-138480521D01*
X118631290Y-138480524D01*
X118741608Y-138544215D01*
X118768216Y-138559577D01*
X118920943Y-138600500D01*
X118920945Y-138600500D01*
X119079055Y-138600500D01*
X119079057Y-138600500D01*
X119231784Y-138559577D01*
X119368716Y-138480520D01*
X119480520Y-138368716D01*
X119559577Y-138231784D01*
X119600500Y-138079057D01*
X119600500Y-137920943D01*
X131399500Y-137920943D01*
X131399500Y-138079057D01*
X131412933Y-138129187D01*
X131440423Y-138231783D01*
X131440426Y-138231790D01*
X131519475Y-138368709D01*
X131519479Y-138368714D01*
X131519480Y-138368716D01*
X131631284Y-138480520D01*
X131631286Y-138480521D01*
X131631290Y-138480524D01*
X131741608Y-138544215D01*
X131768216Y-138559577D01*
X131920943Y-138600500D01*
X131920945Y-138600500D01*
X132079055Y-138600500D01*
X132079057Y-138600500D01*
X132231784Y-138559577D01*
X132368716Y-138480520D01*
X132480520Y-138368716D01*
X132559577Y-138231784D01*
X132600500Y-138079057D01*
X132600500Y-137920943D01*
X132559577Y-137768216D01*
X132549150Y-137750156D01*
X132480524Y-137631290D01*
X132480518Y-137631282D01*
X132368717Y-137519481D01*
X132368709Y-137519475D01*
X132231790Y-137440426D01*
X132231786Y-137440424D01*
X132231784Y-137440423D01*
X132079057Y-137399500D01*
X131920943Y-137399500D01*
X131768216Y-137440423D01*
X131768209Y-137440426D01*
X131631290Y-137519475D01*
X131631282Y-137519481D01*
X131519481Y-137631282D01*
X131519475Y-137631290D01*
X131440426Y-137768209D01*
X131440423Y-137768216D01*
X131399500Y-137920943D01*
X119600500Y-137920943D01*
X119559577Y-137768216D01*
X119549150Y-137750156D01*
X119480524Y-137631290D01*
X119480518Y-137631282D01*
X119368717Y-137519481D01*
X119368709Y-137519475D01*
X119231790Y-137440426D01*
X119231786Y-137440424D01*
X119231784Y-137440423D01*
X119079057Y-137399500D01*
X118920943Y-137399500D01*
X118768216Y-137440423D01*
X118768209Y-137440426D01*
X118631290Y-137519475D01*
X118631282Y-137519481D01*
X118519481Y-137631282D01*
X118519475Y-137631290D01*
X118440426Y-137768209D01*
X118440423Y-137768216D01*
X118399500Y-137920943D01*
X87911432Y-137920943D01*
X87986838Y-137750164D01*
X87986840Y-137750156D01*
X88036713Y-137538109D01*
X88036713Y-137538105D01*
X88036715Y-137538099D01*
X88043000Y-137447552D01*
X88043000Y-135552448D01*
X88042662Y-135547585D01*
X88039513Y-135502206D01*
X88036715Y-135461901D01*
X88036713Y-135461895D01*
X88036713Y-135461890D01*
X87986840Y-135249843D01*
X87986839Y-135249841D01*
X87986838Y-135249836D01*
X87898843Y-135050546D01*
X87775726Y-134870818D01*
X87775721Y-134870812D01*
X87621687Y-134716778D01*
X87621681Y-134716773D01*
X87589146Y-134694486D01*
X87441954Y-134593657D01*
X87242664Y-134505662D01*
X87242661Y-134505661D01*
X87242656Y-134505659D01*
X87030609Y-134455786D01*
X87030593Y-134455784D01*
X86940056Y-134449500D01*
X86940052Y-134449500D01*
X85044948Y-134449500D01*
X85044944Y-134449500D01*
X84954406Y-134455784D01*
X84954390Y-134455786D01*
X84742343Y-134505659D01*
X84742336Y-134505662D01*
X84543050Y-134593655D01*
X84543049Y-134593655D01*
X84543046Y-134593657D01*
X84466607Y-134646018D01*
X84363318Y-134716773D01*
X84363312Y-134716778D01*
X84209278Y-134870812D01*
X84209273Y-134870818D01*
X84138518Y-134974107D01*
X84086157Y-135050546D01*
X84086155Y-135050549D01*
X84086155Y-135050550D01*
X83998162Y-135249836D01*
X83998159Y-135249843D01*
X83948286Y-135461890D01*
X83948284Y-135461906D01*
X83942000Y-135552444D01*
X59000500Y-135552444D01*
X59000500Y-131705131D01*
X79242000Y-131705131D01*
X79242000Y-135294856D01*
X79242002Y-135294882D01*
X79244913Y-135319987D01*
X79244915Y-135319991D01*
X79290293Y-135422764D01*
X79290294Y-135422765D01*
X79369735Y-135502206D01*
X79472509Y-135547585D01*
X79497635Y-135550500D01*
X83087364Y-135550499D01*
X83087379Y-135550497D01*
X83087382Y-135550497D01*
X83112487Y-135547586D01*
X83112488Y-135547585D01*
X83112491Y-135547585D01*
X83215265Y-135502206D01*
X83294706Y-135422765D01*
X83340085Y-135319991D01*
X83343000Y-135294865D01*
X83342999Y-131705136D01*
X83340085Y-131680009D01*
X83336082Y-131670943D01*
X96899500Y-131670943D01*
X96899500Y-131829057D01*
X96931980Y-131950272D01*
X96940423Y-131981783D01*
X96940426Y-131981790D01*
X97019475Y-132118709D01*
X97019479Y-132118714D01*
X97019480Y-132118716D01*
X97131284Y-132230520D01*
X97131286Y-132230521D01*
X97131290Y-132230524D01*
X97199328Y-132269805D01*
X97268216Y-132309577D01*
X97420943Y-132350500D01*
X97420945Y-132350500D01*
X97579055Y-132350500D01*
X97579057Y-132350500D01*
X97731784Y-132309577D01*
X97868716Y-132230520D01*
X97868721Y-132230514D01*
X97874443Y-132226125D01*
X97939612Y-132200930D01*
X97949931Y-132200500D01*
X102693796Y-132200500D01*
X102760835Y-132220185D01*
X102806590Y-132272989D01*
X102816534Y-132342147D01*
X102787509Y-132405703D01*
X102781477Y-132412181D01*
X102770588Y-132423069D01*
X102770588Y-132423070D01*
X102770586Y-132423072D01*
X102747427Y-132454948D01*
X102668768Y-132563211D01*
X102590128Y-132717552D01*
X102536597Y-132882302D01*
X102522730Y-132969856D01*
X102509500Y-133053389D01*
X102509500Y-133226611D01*
X102536598Y-133397701D01*
X102590127Y-133562445D01*
X102668768Y-133716788D01*
X102770586Y-133856928D01*
X102893072Y-133979414D01*
X103033212Y-134081232D01*
X103187555Y-134159873D01*
X103352299Y-134213402D01*
X103523389Y-134240500D01*
X103523390Y-134240500D01*
X103696610Y-134240500D01*
X103696611Y-134240500D01*
X103867701Y-134213402D01*
X104032445Y-134159873D01*
X104186788Y-134081232D01*
X104326928Y-133979414D01*
X104449414Y-133856928D01*
X104551232Y-133716788D01*
X104629873Y-133562445D01*
X104683402Y-133397701D01*
X104710500Y-133226611D01*
X104710500Y-133053389D01*
X104683402Y-132882299D01*
X104629873Y-132717555D01*
X104551232Y-132563212D01*
X104449414Y-132423072D01*
X104438523Y-132412181D01*
X104405038Y-132350858D01*
X104410022Y-132281166D01*
X104451894Y-132225233D01*
X104517358Y-132200816D01*
X104526204Y-132200500D01*
X105233796Y-132200500D01*
X105300835Y-132220185D01*
X105346590Y-132272989D01*
X105356534Y-132342147D01*
X105327509Y-132405703D01*
X105321477Y-132412181D01*
X105310588Y-132423069D01*
X105310588Y-132423070D01*
X105310586Y-132423072D01*
X105287427Y-132454948D01*
X105208768Y-132563211D01*
X105130128Y-132717552D01*
X105076597Y-132882302D01*
X105062730Y-132969856D01*
X105049500Y-133053389D01*
X105049500Y-133226611D01*
X105076598Y-133397701D01*
X105130127Y-133562445D01*
X105208768Y-133716788D01*
X105310586Y-133856928D01*
X105433072Y-133979414D01*
X105573212Y-134081232D01*
X105727555Y-134159873D01*
X105892299Y-134213402D01*
X106063389Y-134240500D01*
X106063390Y-134240500D01*
X106236610Y-134240500D01*
X106236611Y-134240500D01*
X106407701Y-134213402D01*
X106572445Y-134159873D01*
X106726788Y-134081232D01*
X106866928Y-133979414D01*
X106989414Y-133856928D01*
X107091232Y-133716788D01*
X107169873Y-133562445D01*
X107223402Y-133397701D01*
X107250500Y-133226611D01*
X107250500Y-133053389D01*
X107223402Y-132882299D01*
X107169873Y-132717555D01*
X107091232Y-132563212D01*
X106989414Y-132423072D01*
X106978523Y-132412181D01*
X106945038Y-132350858D01*
X106950022Y-132281166D01*
X106991894Y-132225233D01*
X107057358Y-132200816D01*
X107066204Y-132200500D01*
X107773796Y-132200500D01*
X107840835Y-132220185D01*
X107886590Y-132272989D01*
X107896534Y-132342147D01*
X107867509Y-132405703D01*
X107861477Y-132412181D01*
X107850588Y-132423069D01*
X107850588Y-132423070D01*
X107850586Y-132423072D01*
X107827427Y-132454948D01*
X107748768Y-132563211D01*
X107670128Y-132717552D01*
X107616597Y-132882302D01*
X107602730Y-132969856D01*
X107589500Y-133053389D01*
X107589500Y-133226611D01*
X107616598Y-133397701D01*
X107670127Y-133562445D01*
X107748768Y-133716788D01*
X107850586Y-133856928D01*
X107973072Y-133979414D01*
X108113212Y-134081232D01*
X108267555Y-134159873D01*
X108432299Y-134213402D01*
X108603389Y-134240500D01*
X108603390Y-134240500D01*
X108776610Y-134240500D01*
X108776611Y-134240500D01*
X108947701Y-134213402D01*
X109112445Y-134159873D01*
X109266788Y-134081232D01*
X109406928Y-133979414D01*
X109529414Y-133856928D01*
X109631232Y-133716788D01*
X109709873Y-133562445D01*
X109763402Y-133397701D01*
X109790500Y-133226611D01*
X109790500Y-133053389D01*
X110129500Y-133053389D01*
X110129500Y-133226611D01*
X110156598Y-133397701D01*
X110210127Y-133562445D01*
X110288768Y-133716788D01*
X110390586Y-133856928D01*
X110513072Y-133979414D01*
X110653212Y-134081232D01*
X110807555Y-134159873D01*
X110972299Y-134213402D01*
X111143389Y-134240500D01*
X111143390Y-134240500D01*
X111316610Y-134240500D01*
X111316611Y-134240500D01*
X111487701Y-134213402D01*
X111652445Y-134159873D01*
X111806788Y-134081232D01*
X111946928Y-133979414D01*
X112069414Y-133856928D01*
X112171232Y-133716788D01*
X112249873Y-133562445D01*
X112303402Y-133397701D01*
X112330500Y-133226611D01*
X112330500Y-133053389D01*
X112669500Y-133053389D01*
X112669500Y-133226611D01*
X112696598Y-133397701D01*
X112750127Y-133562445D01*
X112828768Y-133716788D01*
X112930586Y-133856928D01*
X113053072Y-133979414D01*
X113193212Y-134081232D01*
X113347555Y-134159873D01*
X113512299Y-134213402D01*
X113683389Y-134240500D01*
X113683390Y-134240500D01*
X113856610Y-134240500D01*
X113856611Y-134240500D01*
X114027701Y-134213402D01*
X114192445Y-134159873D01*
X114346788Y-134081232D01*
X114486928Y-133979414D01*
X114609414Y-133856928D01*
X114711232Y-133716788D01*
X114789873Y-133562445D01*
X114843402Y-133397701D01*
X114870500Y-133226611D01*
X114870500Y-133053389D01*
X115209500Y-133053389D01*
X115209500Y-133226611D01*
X115236598Y-133397701D01*
X115290127Y-133562445D01*
X115368768Y-133716788D01*
X115470586Y-133856928D01*
X115593072Y-133979414D01*
X115733212Y-134081232D01*
X115887555Y-134159873D01*
X116052299Y-134213402D01*
X116223389Y-134240500D01*
X116223390Y-134240500D01*
X116396610Y-134240500D01*
X116396611Y-134240500D01*
X116567701Y-134213402D01*
X116732445Y-134159873D01*
X116886788Y-134081232D01*
X117026928Y-133979414D01*
X117149414Y-133856928D01*
X117251232Y-133716788D01*
X117329873Y-133562445D01*
X117383402Y-133397701D01*
X117410500Y-133226611D01*
X117410500Y-133053389D01*
X117749500Y-133053389D01*
X117749500Y-133226611D01*
X117776598Y-133397701D01*
X117830127Y-133562445D01*
X117908768Y-133716788D01*
X118010586Y-133856928D01*
X118133072Y-133979414D01*
X118273212Y-134081232D01*
X118427555Y-134159873D01*
X118592299Y-134213402D01*
X118763389Y-134240500D01*
X118763390Y-134240500D01*
X118936610Y-134240500D01*
X118936611Y-134240500D01*
X119107701Y-134213402D01*
X119272445Y-134159873D01*
X119426788Y-134081232D01*
X119566928Y-133979414D01*
X119689414Y-133856928D01*
X119791232Y-133716788D01*
X119869873Y-133562445D01*
X119923402Y-133397701D01*
X119950500Y-133226611D01*
X119950500Y-133053389D01*
X120289500Y-133053389D01*
X120289500Y-133226611D01*
X120316598Y-133397701D01*
X120370127Y-133562445D01*
X120448768Y-133716788D01*
X120550586Y-133856928D01*
X120673072Y-133979414D01*
X120813212Y-134081232D01*
X120967555Y-134159873D01*
X121132299Y-134213402D01*
X121303389Y-134240500D01*
X121303390Y-134240500D01*
X121476610Y-134240500D01*
X121476611Y-134240500D01*
X121647701Y-134213402D01*
X121812445Y-134159873D01*
X121966788Y-134081232D01*
X122106928Y-133979414D01*
X122229414Y-133856928D01*
X122331232Y-133716788D01*
X122405281Y-133571457D01*
X129774499Y-133571457D01*
X129802379Y-133711614D01*
X129802381Y-133711620D01*
X129857069Y-133843650D01*
X129857073Y-133843657D01*
X129915507Y-133931110D01*
X129936384Y-133997787D01*
X129917899Y-134065167D01*
X129915507Y-134068890D01*
X129857073Y-134156342D01*
X129857069Y-134156349D01*
X129802381Y-134288379D01*
X129802379Y-134288385D01*
X129774500Y-134428542D01*
X129774500Y-134428545D01*
X129774500Y-134571455D01*
X129774500Y-134571457D01*
X129774499Y-134571457D01*
X129802379Y-134711614D01*
X129802381Y-134711620D01*
X129857069Y-134843650D01*
X129857073Y-134843657D01*
X129915507Y-134931110D01*
X129936384Y-134997787D01*
X129917899Y-135065167D01*
X129915507Y-135068890D01*
X129857073Y-135156342D01*
X129857069Y-135156349D01*
X129802381Y-135288379D01*
X129802379Y-135288385D01*
X129774500Y-135428542D01*
X129774500Y-135428545D01*
X129774500Y-135571455D01*
X129774500Y-135571457D01*
X129774499Y-135571457D01*
X129802379Y-135711614D01*
X129802381Y-135711620D01*
X129857069Y-135843650D01*
X129857074Y-135843659D01*
X129936467Y-135962478D01*
X129936470Y-135962482D01*
X130037517Y-136063529D01*
X130037521Y-136063532D01*
X130156340Y-136142925D01*
X130156346Y-136142928D01*
X130156347Y-136142929D01*
X130288380Y-136197619D01*
X130288384Y-136197619D01*
X130288385Y-136197620D01*
X130428542Y-136225500D01*
X130428545Y-136225500D01*
X130571457Y-136225500D01*
X130665751Y-136206742D01*
X130711620Y-136197619D01*
X130843653Y-136142929D01*
X130962479Y-136063532D01*
X131063532Y-135962479D01*
X131142929Y-135843653D01*
X131197619Y-135711620D01*
X131225500Y-135571455D01*
X131225500Y-135428545D01*
X131225500Y-135428542D01*
X131197620Y-135288385D01*
X131197619Y-135288384D01*
X131197619Y-135288380D01*
X131142929Y-135156347D01*
X131142926Y-135156342D01*
X131142925Y-135156340D01*
X131084493Y-135068891D01*
X131063615Y-135002214D01*
X131082099Y-134934833D01*
X131084493Y-134931109D01*
X131142925Y-134843659D01*
X131142926Y-134843657D01*
X131142929Y-134843653D01*
X131197619Y-134711620D01*
X131225500Y-134571455D01*
X131225500Y-134428545D01*
X131225500Y-134428542D01*
X131197620Y-134288385D01*
X131197619Y-134288384D01*
X131197619Y-134288380D01*
X131142929Y-134156347D01*
X131142926Y-134156342D01*
X131142925Y-134156340D01*
X131084493Y-134068891D01*
X131063615Y-134002214D01*
X131082099Y-133934833D01*
X131084493Y-133931109D01*
X131142925Y-133843659D01*
X131142926Y-133843657D01*
X131142929Y-133843653D01*
X131197619Y-133711620D01*
X131225500Y-133571455D01*
X131225500Y-133428545D01*
X131225500Y-133428542D01*
X131197620Y-133288385D01*
X131197619Y-133288384D01*
X131197619Y-133288380D01*
X131166439Y-133213106D01*
X131158971Y-133143642D01*
X131173349Y-133108623D01*
X131172565Y-133108277D01*
X131222583Y-132994995D01*
X131222585Y-132994991D01*
X131225500Y-132969865D01*
X131225499Y-132030136D01*
X131225497Y-132030117D01*
X131222586Y-132005012D01*
X131222585Y-132005010D01*
X131222585Y-132005009D01*
X131177206Y-131902235D01*
X131097765Y-131822794D01*
X131033040Y-131794215D01*
X130994992Y-131777415D01*
X130969865Y-131774500D01*
X130030143Y-131774500D01*
X130030117Y-131774502D01*
X130005012Y-131777413D01*
X130005008Y-131777415D01*
X129902235Y-131822793D01*
X129822794Y-131902234D01*
X129777415Y-132005006D01*
X129777415Y-132005008D01*
X129774500Y-132030131D01*
X129774500Y-132969856D01*
X129774502Y-132969882D01*
X129777413Y-132994987D01*
X129777415Y-132994991D01*
X129827435Y-133108276D01*
X129825686Y-133109048D01*
X129842944Y-133162014D01*
X129833559Y-133213110D01*
X129802381Y-133288379D01*
X129802379Y-133288385D01*
X129774500Y-133428542D01*
X129774500Y-133428545D01*
X129774500Y-133571455D01*
X129774500Y-133571457D01*
X129774499Y-133571457D01*
X122405281Y-133571457D01*
X122409873Y-133562445D01*
X122463402Y-133397701D01*
X122490500Y-133226611D01*
X122490500Y-133053389D01*
X122463402Y-132882299D01*
X122439423Y-132808500D01*
X126045050Y-132808500D01*
X126061849Y-132819725D01*
X126061855Y-132819728D01*
X126230182Y-132889451D01*
X126230194Y-132889454D01*
X126408890Y-132924999D01*
X126408894Y-132925000D01*
X126591106Y-132925000D01*
X126591109Y-132924999D01*
X126769805Y-132889454D01*
X126769813Y-132889452D01*
X126938151Y-132819724D01*
X126938154Y-132819723D01*
X126954947Y-132808500D01*
X126954948Y-132808500D01*
X126500001Y-132353553D01*
X126500000Y-132353553D01*
X126045050Y-132808500D01*
X122439423Y-132808500D01*
X122409873Y-132717555D01*
X122331232Y-132563212D01*
X122229414Y-132423072D01*
X122106928Y-132300586D01*
X121966788Y-132198768D01*
X121812445Y-132120127D01*
X121647701Y-132066598D01*
X121647699Y-132066597D01*
X121647698Y-132066597D01*
X121516271Y-132045781D01*
X121476611Y-132039500D01*
X121303389Y-132039500D01*
X121263728Y-132045781D01*
X121132302Y-132066597D01*
X121049927Y-132093362D01*
X120971895Y-132118717D01*
X120967552Y-132120128D01*
X120813211Y-132198768D01*
X120742697Y-132250000D01*
X120673072Y-132300586D01*
X120673070Y-132300588D01*
X120673069Y-132300588D01*
X120550588Y-132423069D01*
X120550588Y-132423070D01*
X120550586Y-132423072D01*
X120527427Y-132454948D01*
X120448768Y-132563211D01*
X120370128Y-132717552D01*
X120316597Y-132882302D01*
X120302730Y-132969856D01*
X120289500Y-133053389D01*
X119950500Y-133053389D01*
X119923402Y-132882299D01*
X119869873Y-132717555D01*
X119791232Y-132563212D01*
X119689414Y-132423072D01*
X119566928Y-132300586D01*
X119426788Y-132198768D01*
X119272445Y-132120127D01*
X119107701Y-132066598D01*
X119107699Y-132066597D01*
X119107698Y-132066597D01*
X118976271Y-132045781D01*
X118936611Y-132039500D01*
X118763389Y-132039500D01*
X118723728Y-132045781D01*
X118592302Y-132066597D01*
X118509927Y-132093362D01*
X118431895Y-132118717D01*
X118427552Y-132120128D01*
X118273211Y-132198768D01*
X118202697Y-132250000D01*
X118133072Y-132300586D01*
X118133070Y-132300588D01*
X118133069Y-132300588D01*
X118010588Y-132423069D01*
X118010588Y-132423070D01*
X118010586Y-132423072D01*
X117987427Y-132454948D01*
X117908768Y-132563211D01*
X117830128Y-132717552D01*
X117776597Y-132882302D01*
X117762730Y-132969856D01*
X117749500Y-133053389D01*
X117410500Y-133053389D01*
X117383402Y-132882299D01*
X117329873Y-132717555D01*
X117251232Y-132563212D01*
X117149414Y-132423072D01*
X117026928Y-132300586D01*
X116886788Y-132198768D01*
X116732445Y-132120127D01*
X116567701Y-132066598D01*
X116567699Y-132066597D01*
X116567698Y-132066597D01*
X116436271Y-132045781D01*
X116396611Y-132039500D01*
X116223389Y-132039500D01*
X116183728Y-132045781D01*
X116052302Y-132066597D01*
X115969927Y-132093362D01*
X115891895Y-132118717D01*
X115887552Y-132120128D01*
X115733211Y-132198768D01*
X115662697Y-132250000D01*
X115593072Y-132300586D01*
X115593070Y-132300588D01*
X115593069Y-132300588D01*
X115470588Y-132423069D01*
X115470588Y-132423070D01*
X115470586Y-132423072D01*
X115447427Y-132454948D01*
X115368768Y-132563211D01*
X115290128Y-132717552D01*
X115236597Y-132882302D01*
X115222730Y-132969856D01*
X115209500Y-133053389D01*
X114870500Y-133053389D01*
X114843402Y-132882299D01*
X114789873Y-132717555D01*
X114711232Y-132563212D01*
X114609414Y-132423072D01*
X114486928Y-132300586D01*
X114346788Y-132198768D01*
X114192445Y-132120127D01*
X114027701Y-132066598D01*
X114027699Y-132066597D01*
X114027698Y-132066597D01*
X113896271Y-132045781D01*
X113856611Y-132039500D01*
X113683389Y-132039500D01*
X113643728Y-132045781D01*
X113512302Y-132066597D01*
X113429927Y-132093362D01*
X113351895Y-132118717D01*
X113347552Y-132120128D01*
X113193211Y-132198768D01*
X113122697Y-132250000D01*
X113053072Y-132300586D01*
X113053070Y-132300588D01*
X113053069Y-132300588D01*
X112930588Y-132423069D01*
X112930588Y-132423070D01*
X112930586Y-132423072D01*
X112907427Y-132454948D01*
X112828768Y-132563211D01*
X112750128Y-132717552D01*
X112696597Y-132882302D01*
X112682730Y-132969856D01*
X112669500Y-133053389D01*
X112330500Y-133053389D01*
X112303402Y-132882299D01*
X112249873Y-132717555D01*
X112171232Y-132563212D01*
X112069414Y-132423072D01*
X111946928Y-132300586D01*
X111806788Y-132198768D01*
X111652445Y-132120127D01*
X111487701Y-132066598D01*
X111487699Y-132066597D01*
X111487698Y-132066597D01*
X111356271Y-132045781D01*
X111316611Y-132039500D01*
X111143389Y-132039500D01*
X111103728Y-132045781D01*
X110972302Y-132066597D01*
X110889927Y-132093362D01*
X110811895Y-132118717D01*
X110807552Y-132120128D01*
X110653211Y-132198768D01*
X110582697Y-132250000D01*
X110513072Y-132300586D01*
X110513070Y-132300588D01*
X110513069Y-132300588D01*
X110390588Y-132423069D01*
X110390588Y-132423070D01*
X110390586Y-132423072D01*
X110367427Y-132454948D01*
X110288768Y-132563211D01*
X110210128Y-132717552D01*
X110156597Y-132882302D01*
X110142730Y-132969856D01*
X110129500Y-133053389D01*
X109790500Y-133053389D01*
X109763402Y-132882299D01*
X109709873Y-132717555D01*
X109631232Y-132563212D01*
X109529414Y-132423072D01*
X109406928Y-132300586D01*
X109266788Y-132198768D01*
X109112445Y-132120127D01*
X109044139Y-132097933D01*
X108986466Y-132058496D01*
X108959268Y-131994137D01*
X108971183Y-131925291D01*
X108994776Y-131892325D01*
X110500404Y-130386698D01*
X110561725Y-130353215D01*
X110571901Y-130351441D01*
X110579045Y-130350500D01*
X110579057Y-130350500D01*
X110731784Y-130309577D01*
X110868716Y-130230520D01*
X110980520Y-130118716D01*
X111059577Y-129981784D01*
X111100500Y-129829057D01*
X111100500Y-129670943D01*
X111059577Y-129518216D01*
X111051952Y-129505009D01*
X110980524Y-129381290D01*
X110980518Y-129381282D01*
X110868717Y-129269481D01*
X110868709Y-129269475D01*
X110731790Y-129190426D01*
X110731786Y-129190424D01*
X110731784Y-129190423D01*
X110579057Y-129149500D01*
X110420943Y-129149500D01*
X110268216Y-129190423D01*
X110268209Y-129190426D01*
X110131290Y-129269475D01*
X110131282Y-129269481D01*
X110019481Y-129381282D01*
X110019475Y-129381290D01*
X109940426Y-129518209D01*
X109940423Y-129518216D01*
X109899498Y-129670949D01*
X109898556Y-129678107D01*
X109870287Y-129742003D01*
X109863299Y-129749597D01*
X108349716Y-131263181D01*
X108288393Y-131296666D01*
X108262035Y-131299500D01*
X97949931Y-131299500D01*
X97882892Y-131279815D01*
X97874443Y-131273875D01*
X97868709Y-131269475D01*
X97731790Y-131190426D01*
X97731786Y-131190424D01*
X97731784Y-131190423D01*
X97579057Y-131149500D01*
X97420943Y-131149500D01*
X97268216Y-131190423D01*
X97268209Y-131190426D01*
X97131290Y-131269475D01*
X97131282Y-131269481D01*
X97019481Y-131381282D01*
X97019475Y-131381290D01*
X96940426Y-131518209D01*
X96940423Y-131518216D01*
X96899500Y-131670943D01*
X83336082Y-131670943D01*
X83332662Y-131663198D01*
X83294706Y-131577235D01*
X83215265Y-131497794D01*
X83112492Y-131452415D01*
X83087365Y-131449500D01*
X79497643Y-131449500D01*
X79497617Y-131449502D01*
X79472512Y-131452413D01*
X79472508Y-131452415D01*
X79369735Y-131497793D01*
X79290294Y-131577234D01*
X79244915Y-131680006D01*
X79244915Y-131680008D01*
X79242000Y-131705131D01*
X59000500Y-131705131D01*
X59000500Y-127502155D01*
X62092500Y-127502155D01*
X62092500Y-128150000D01*
X63009488Y-128150000D01*
X62976575Y-128207007D01*
X62942500Y-128334174D01*
X62942500Y-128465826D01*
X62976575Y-128592993D01*
X63009488Y-128650000D01*
X62092500Y-128650000D01*
X62092500Y-129297844D01*
X62098901Y-129357372D01*
X62098903Y-129357379D01*
X62149145Y-129492086D01*
X62149149Y-129492093D01*
X62235309Y-129607187D01*
X62235312Y-129607190D01*
X62350406Y-129693350D01*
X62350413Y-129693354D01*
X62485120Y-129743596D01*
X62485127Y-129743598D01*
X62544655Y-129749999D01*
X62544672Y-129750000D01*
X63192500Y-129750000D01*
X63192500Y-128833012D01*
X63249507Y-128865925D01*
X63376674Y-128900000D01*
X63508326Y-128900000D01*
X63635493Y-128865925D01*
X63692500Y-128833012D01*
X63692500Y-129750000D01*
X64340328Y-129750000D01*
X64340344Y-129749999D01*
X64399872Y-129743598D01*
X64399879Y-129743596D01*
X64534586Y-129693354D01*
X64534593Y-129693350D01*
X64649687Y-129607190D01*
X64649690Y-129607187D01*
X64735850Y-129492093D01*
X64735854Y-129492086D01*
X64786096Y-129357379D01*
X64786098Y-129357372D01*
X64792499Y-129297844D01*
X64792500Y-129297827D01*
X64792500Y-128650000D01*
X63875512Y-128650000D01*
X63908425Y-128592993D01*
X63942500Y-128465826D01*
X63942500Y-128334174D01*
X63908425Y-128207007D01*
X63875512Y-128150000D01*
X64792500Y-128150000D01*
X64792500Y-127502172D01*
X64792499Y-127502155D01*
X103092500Y-127502155D01*
X103092500Y-128150000D01*
X104009488Y-128150000D01*
X103976575Y-128207007D01*
X103942500Y-128334174D01*
X103942500Y-128465826D01*
X103976575Y-128592993D01*
X104009488Y-128650000D01*
X103092500Y-128650000D01*
X103092500Y-129297844D01*
X103098901Y-129357372D01*
X103098903Y-129357379D01*
X103149145Y-129492086D01*
X103149149Y-129492093D01*
X103235309Y-129607187D01*
X103235312Y-129607190D01*
X103350406Y-129693350D01*
X103350413Y-129693354D01*
X103485120Y-129743596D01*
X103485127Y-129743598D01*
X103544655Y-129749999D01*
X103544672Y-129750000D01*
X104192500Y-129750000D01*
X104192500Y-128833012D01*
X104249507Y-128865925D01*
X104376674Y-128900000D01*
X104508326Y-128900000D01*
X104635493Y-128865925D01*
X104692500Y-128833012D01*
X104692500Y-129750000D01*
X105340328Y-129750000D01*
X105340344Y-129749999D01*
X105399872Y-129743598D01*
X105399879Y-129743596D01*
X105534586Y-129693354D01*
X105534593Y-129693350D01*
X105649687Y-129607190D01*
X105649690Y-129607187D01*
X105735850Y-129492093D01*
X105735854Y-129492086D01*
X105786096Y-129357379D01*
X105786098Y-129357372D01*
X105792499Y-129297844D01*
X105792500Y-129297827D01*
X105792500Y-128650000D01*
X104875512Y-128650000D01*
X104908425Y-128592993D01*
X104942500Y-128465826D01*
X104942500Y-128334174D01*
X104908425Y-128207007D01*
X104875512Y-128150000D01*
X105792500Y-128150000D01*
X105792500Y-127920943D01*
X110399500Y-127920943D01*
X110399500Y-128079056D01*
X110440423Y-128231783D01*
X110440426Y-128231790D01*
X110519475Y-128368709D01*
X110519479Y-128368714D01*
X110519480Y-128368716D01*
X110631284Y-128480520D01*
X110631286Y-128480521D01*
X110631290Y-128480524D01*
X110775254Y-128563641D01*
X110774895Y-128564262D01*
X110807570Y-128586095D01*
X113161985Y-130940510D01*
X113287515Y-131012984D01*
X113427525Y-131050500D01*
X113427526Y-131050500D01*
X113572474Y-131050500D01*
X124220613Y-131050500D01*
X124250053Y-131059144D01*
X124280040Y-131065668D01*
X124285055Y-131069422D01*
X124287652Y-131070185D01*
X124308294Y-131086819D01*
X124413905Y-131192430D01*
X124435737Y-131225105D01*
X124436359Y-131224746D01*
X124519477Y-131368712D01*
X124519479Y-131368715D01*
X124519480Y-131368716D01*
X124631284Y-131480520D01*
X124631286Y-131480521D01*
X124631290Y-131480524D01*
X124752132Y-131550291D01*
X124768216Y-131559577D01*
X124920943Y-131600500D01*
X124920945Y-131600500D01*
X125079055Y-131600500D01*
X125079057Y-131600500D01*
X125231784Y-131559577D01*
X125368716Y-131480520D01*
X125480520Y-131368716D01*
X125559577Y-131231784D01*
X125563939Y-131215501D01*
X125600303Y-131155842D01*
X125663149Y-131125312D01*
X125732525Y-131133606D01*
X125786403Y-131178090D01*
X125795072Y-131193048D01*
X125801158Y-131205473D01*
X125802381Y-131211620D01*
X125857071Y-131343653D01*
X125901174Y-131409658D01*
X125904824Y-131417109D01*
X125909385Y-131443698D01*
X125917446Y-131469442D01*
X125915203Y-131477616D01*
X125916637Y-131485973D01*
X125906099Y-131510805D01*
X125898962Y-131536823D01*
X125892653Y-131542489D01*
X125889343Y-131550291D01*
X125867055Y-131565483D01*
X125846983Y-131583513D01*
X125838615Y-131584868D01*
X125831610Y-131589644D01*
X125804640Y-131590374D01*
X125778013Y-131594689D01*
X125770239Y-131591305D01*
X125761766Y-131591535D01*
X125738688Y-131577572D01*
X125713949Y-131566804D01*
X125705785Y-131559337D01*
X125691498Y-131545050D01*
X125680274Y-131561848D01*
X125610547Y-131730186D01*
X125610545Y-131730194D01*
X125575000Y-131908890D01*
X125575000Y-132091109D01*
X125610545Y-132269805D01*
X125610548Y-132269817D01*
X125680271Y-132438145D01*
X125691498Y-132454947D01*
X126146446Y-132000000D01*
X126146446Y-131999999D01*
X126096719Y-131950272D01*
X126250000Y-131950272D01*
X126250000Y-132049728D01*
X126288060Y-132141614D01*
X126358386Y-132211940D01*
X126450272Y-132250000D01*
X126549728Y-132250000D01*
X126641614Y-132211940D01*
X126711940Y-132141614D01*
X126750000Y-132049728D01*
X126750000Y-131950272D01*
X126711940Y-131858386D01*
X126641614Y-131788060D01*
X126549728Y-131750000D01*
X126450272Y-131750000D01*
X126358386Y-131788060D01*
X126288060Y-131858386D01*
X126250000Y-131950272D01*
X126096719Y-131950272D01*
X125940660Y-131794213D01*
X125907175Y-131732890D01*
X125912159Y-131663198D01*
X125954031Y-131607265D01*
X126019495Y-131582848D01*
X126087768Y-131597700D01*
X126097232Y-131603430D01*
X126156340Y-131642925D01*
X126156346Y-131642928D01*
X126156347Y-131642929D01*
X126288380Y-131697619D01*
X126288384Y-131697619D01*
X126288385Y-131697620D01*
X126428542Y-131725500D01*
X126428545Y-131725500D01*
X126571457Y-131725500D01*
X126673900Y-131705122D01*
X126711620Y-131697619D01*
X126843653Y-131642929D01*
X126902765Y-131603431D01*
X126969440Y-131582554D01*
X127036821Y-131601038D01*
X127083511Y-131653016D01*
X127094688Y-131721986D01*
X127066803Y-131786050D01*
X127059337Y-131794215D01*
X126853553Y-132000000D01*
X126853553Y-132000001D01*
X127308500Y-132454948D01*
X127308500Y-132454947D01*
X127319723Y-132438154D01*
X127319724Y-132438151D01*
X127389452Y-132269813D01*
X127389454Y-132269805D01*
X127424999Y-132091109D01*
X127425000Y-132091106D01*
X127425000Y-131908894D01*
X127424999Y-131908890D01*
X127389454Y-131730194D01*
X127389451Y-131730182D01*
X127319728Y-131561855D01*
X127319725Y-131561849D01*
X127308499Y-131545050D01*
X127294215Y-131559335D01*
X127232892Y-131592819D01*
X127163200Y-131587834D01*
X127107267Y-131545963D01*
X127082851Y-131480498D01*
X127097703Y-131412225D01*
X127103434Y-131402761D01*
X127142929Y-131343653D01*
X127197619Y-131211620D01*
X127225500Y-131071455D01*
X127225500Y-130928545D01*
X127225500Y-130928542D01*
X127197620Y-130788385D01*
X127197619Y-130788384D01*
X127197619Y-130788380D01*
X127166439Y-130713106D01*
X127158971Y-130643642D01*
X127173349Y-130608623D01*
X127172565Y-130608277D01*
X127222583Y-130494995D01*
X127222585Y-130494991D01*
X127225500Y-130469865D01*
X127225499Y-129530136D01*
X127224116Y-129518209D01*
X127222586Y-129505012D01*
X127222585Y-129505010D01*
X127222585Y-129505009D01*
X127177206Y-129402235D01*
X127097765Y-129322794D01*
X127097763Y-129322793D01*
X126994992Y-129277415D01*
X126969865Y-129274500D01*
X126030143Y-129274500D01*
X126030117Y-129274502D01*
X126005012Y-129277413D01*
X126005008Y-129277415D01*
X125902235Y-129322793D01*
X125822794Y-129402234D01*
X125777415Y-129505006D01*
X125777415Y-129505008D01*
X125774500Y-129530131D01*
X125774500Y-130469856D01*
X125774502Y-130469882D01*
X125777413Y-130494987D01*
X125777415Y-130494991D01*
X125826565Y-130606306D01*
X125829525Y-130609445D01*
X125834523Y-130636169D01*
X125842944Y-130662014D01*
X125841182Y-130671777D01*
X125842370Y-130678124D01*
X125834153Y-130710748D01*
X125833860Y-130712377D01*
X125833720Y-130712719D01*
X125802381Y-130788380D01*
X125801840Y-130791098D01*
X125798576Y-130799124D01*
X125780227Y-130822193D01*
X125764066Y-130846847D01*
X125758723Y-130849228D01*
X125755083Y-130853806D01*
X125727173Y-130863293D01*
X125700251Y-130875296D01*
X125694469Y-130874411D01*
X125688932Y-130876294D01*
X125660322Y-130869186D01*
X125631185Y-130864728D01*
X125626799Y-130860858D01*
X125621123Y-130859448D01*
X125600897Y-130838001D01*
X125578797Y-130818498D01*
X125575594Y-130811168D01*
X125573187Y-130808616D01*
X125572220Y-130803448D01*
X125563939Y-130784497D01*
X125559577Y-130768216D01*
X125559573Y-130768209D01*
X125480524Y-130631290D01*
X125480518Y-130631282D01*
X125368717Y-130519481D01*
X125368712Y-130519477D01*
X125224746Y-130436359D01*
X125225105Y-130435737D01*
X125192430Y-130413905D01*
X124838016Y-130059491D01*
X124838015Y-130059490D01*
X124712485Y-129987016D01*
X124712482Y-129987015D01*
X124692960Y-129981783D01*
X124692960Y-129981784D01*
X124632717Y-129965642D01*
X124572475Y-129949500D01*
X124572474Y-129949500D01*
X113779387Y-129949500D01*
X113712348Y-129929815D01*
X113691706Y-129913181D01*
X111586095Y-127807570D01*
X111564262Y-127774895D01*
X111563641Y-127775254D01*
X111480524Y-127631290D01*
X111480518Y-127631282D01*
X111368717Y-127519481D01*
X111368709Y-127519475D01*
X111231790Y-127440426D01*
X111231786Y-127440424D01*
X111231784Y-127440423D01*
X111079057Y-127399500D01*
X110920943Y-127399500D01*
X110768216Y-127440423D01*
X110768209Y-127440426D01*
X110631290Y-127519475D01*
X110631282Y-127519481D01*
X110519481Y-127631282D01*
X110519475Y-127631290D01*
X110440426Y-127768209D01*
X110440423Y-127768216D01*
X110399500Y-127920943D01*
X105792500Y-127920943D01*
X105792500Y-127502172D01*
X105792499Y-127502155D01*
X105786098Y-127442627D01*
X105786096Y-127442620D01*
X105735854Y-127307913D01*
X105735850Y-127307906D01*
X105649690Y-127192812D01*
X105649687Y-127192809D01*
X105534593Y-127106649D01*
X105534586Y-127106645D01*
X105399879Y-127056403D01*
X105399872Y-127056401D01*
X105340344Y-127050000D01*
X104692500Y-127050000D01*
X104692500Y-127966988D01*
X104635493Y-127934075D01*
X104508326Y-127900000D01*
X104376674Y-127900000D01*
X104249507Y-127934075D01*
X104192500Y-127966988D01*
X104192500Y-127050000D01*
X103544655Y-127050000D01*
X103485127Y-127056401D01*
X103485120Y-127056403D01*
X103350413Y-127106645D01*
X103350406Y-127106649D01*
X103235312Y-127192809D01*
X103235309Y-127192812D01*
X103149149Y-127307906D01*
X103149145Y-127307913D01*
X103098903Y-127442620D01*
X103098901Y-127442627D01*
X103092500Y-127502155D01*
X64792499Y-127502155D01*
X64786098Y-127442627D01*
X64786096Y-127442620D01*
X64735854Y-127307913D01*
X64735850Y-127307906D01*
X64649690Y-127192812D01*
X64649687Y-127192809D01*
X64534593Y-127106649D01*
X64534586Y-127106645D01*
X64399879Y-127056403D01*
X64399872Y-127056401D01*
X64340344Y-127050000D01*
X63692500Y-127050000D01*
X63692500Y-127966988D01*
X63635493Y-127934075D01*
X63508326Y-127900000D01*
X63376674Y-127900000D01*
X63249507Y-127934075D01*
X63192500Y-127966988D01*
X63192500Y-127050000D01*
X62544655Y-127050000D01*
X62485127Y-127056401D01*
X62485120Y-127056403D01*
X62350413Y-127106645D01*
X62350406Y-127106649D01*
X62235312Y-127192809D01*
X62235309Y-127192812D01*
X62149149Y-127307906D01*
X62149145Y-127307913D01*
X62098903Y-127442620D01*
X62098901Y-127442627D01*
X62092500Y-127502155D01*
X59000500Y-127502155D01*
X59000500Y-122920943D01*
X104899500Y-122920943D01*
X104899500Y-123079056D01*
X104940423Y-123231783D01*
X104940426Y-123231790D01*
X105019475Y-123368709D01*
X105019479Y-123368714D01*
X105019480Y-123368716D01*
X105131284Y-123480520D01*
X105131286Y-123480521D01*
X105131290Y-123480524D01*
X105216666Y-123529815D01*
X105268216Y-123559577D01*
X105420943Y-123600500D01*
X105420945Y-123600500D01*
X105579055Y-123600500D01*
X105579057Y-123600500D01*
X105731784Y-123559577D01*
X105824654Y-123505958D01*
X105892553Y-123489486D01*
X105958580Y-123512339D01*
X106001771Y-123567260D01*
X106008412Y-123636813D01*
X105994041Y-123675345D01*
X105940423Y-123768215D01*
X105940423Y-123768216D01*
X105899500Y-123920943D01*
X105899500Y-124079056D01*
X105940423Y-124231783D01*
X105940426Y-124231790D01*
X106019475Y-124368709D01*
X106019479Y-124368714D01*
X106019480Y-124368716D01*
X106131284Y-124480520D01*
X106131286Y-124480521D01*
X106131290Y-124480524D01*
X106268209Y-124559573D01*
X106268216Y-124559577D01*
X106420943Y-124600500D01*
X106420945Y-124600500D01*
X106579055Y-124600500D01*
X106579057Y-124600500D01*
X106731784Y-124559577D01*
X106868716Y-124480520D01*
X106868721Y-124480514D01*
X106874443Y-124476125D01*
X106939612Y-124450930D01*
X106949931Y-124450500D01*
X113809308Y-124450500D01*
X113809309Y-124450500D01*
X113899673Y-124426286D01*
X113923887Y-124419799D01*
X114026614Y-124360489D01*
X118650284Y-119736819D01*
X118677211Y-119722115D01*
X118703030Y-119705523D01*
X118709230Y-119704631D01*
X118711607Y-119703334D01*
X118737965Y-119700500D01*
X118909081Y-119700500D01*
X118976120Y-119720185D01*
X119021875Y-119772989D01*
X119031819Y-119842147D01*
X119016469Y-119886499D01*
X118940423Y-120018215D01*
X118940423Y-120018216D01*
X118899500Y-120170943D01*
X118899500Y-120329056D01*
X118940423Y-120481783D01*
X118940426Y-120481790D01*
X119019473Y-120618706D01*
X119019477Y-120618712D01*
X119019480Y-120618716D01*
X119019482Y-120618718D01*
X119023872Y-120624438D01*
X119032116Y-120645762D01*
X119044477Y-120664995D01*
X119047391Y-120685268D01*
X119049069Y-120689606D01*
X119049500Y-120699930D01*
X119049500Y-120762035D01*
X119029815Y-120829074D01*
X119013181Y-120849716D01*
X114849716Y-125013181D01*
X114788393Y-125046666D01*
X114762035Y-125049500D01*
X107699931Y-125049500D01*
X107632892Y-125029815D01*
X107624443Y-125023875D01*
X107618709Y-125019475D01*
X107481790Y-124940426D01*
X107481786Y-124940424D01*
X107481784Y-124940423D01*
X107329057Y-124899500D01*
X107170943Y-124899500D01*
X107018216Y-124940423D01*
X107018209Y-124940426D01*
X106881290Y-125019475D01*
X106881282Y-125019481D01*
X106769481Y-125131282D01*
X106769475Y-125131290D01*
X106690426Y-125268209D01*
X106690423Y-125268216D01*
X106649500Y-125420943D01*
X106649500Y-125579056D01*
X106690423Y-125731783D01*
X106690426Y-125731790D01*
X106769475Y-125868709D01*
X106769479Y-125868714D01*
X106769480Y-125868716D01*
X106881284Y-125980520D01*
X106881286Y-125980521D01*
X106881290Y-125980524D01*
X107018209Y-126059573D01*
X107018216Y-126059577D01*
X107170943Y-126100500D01*
X107170945Y-126100500D01*
X107329055Y-126100500D01*
X107329057Y-126100500D01*
X107481784Y-126059577D01*
X107618716Y-125980520D01*
X107618721Y-125980514D01*
X107624443Y-125976125D01*
X107689612Y-125950930D01*
X107699931Y-125950500D01*
X115059308Y-125950500D01*
X115059309Y-125950500D01*
X115149673Y-125926286D01*
X115173887Y-125919799D01*
X115276614Y-125860489D01*
X119716160Y-121420943D01*
X124399500Y-121420943D01*
X124399500Y-121579057D01*
X124411430Y-121623578D01*
X124440423Y-121731783D01*
X124440426Y-121731790D01*
X124519475Y-121868709D01*
X124519479Y-121868714D01*
X124519480Y-121868716D01*
X124631284Y-121980520D01*
X124631286Y-121980521D01*
X124631290Y-121980524D01*
X124768209Y-122059573D01*
X124768216Y-122059577D01*
X124920943Y-122100500D01*
X124920945Y-122100500D01*
X124928099Y-122101442D01*
X124991996Y-122129707D01*
X124999597Y-122136700D01*
X125863299Y-123000402D01*
X125896784Y-123061725D01*
X125898556Y-123071893D01*
X125899498Y-123079050D01*
X125940423Y-123231783D01*
X125940426Y-123231790D01*
X126019475Y-123368709D01*
X126019479Y-123368714D01*
X126019480Y-123368716D01*
X126131284Y-123480520D01*
X126131286Y-123480521D01*
X126131290Y-123480524D01*
X126216666Y-123529815D01*
X126268216Y-123559577D01*
X126420943Y-123600500D01*
X126420945Y-123600500D01*
X126579055Y-123600500D01*
X126579057Y-123600500D01*
X126731784Y-123559577D01*
X126868716Y-123480520D01*
X126980520Y-123368716D01*
X127059577Y-123231784D01*
X127100500Y-123079057D01*
X127100500Y-122920943D01*
X127059577Y-122768216D01*
X127059573Y-122768209D01*
X126980524Y-122631290D01*
X126980518Y-122631282D01*
X126868717Y-122519481D01*
X126868709Y-122519475D01*
X126731790Y-122440426D01*
X126731786Y-122440424D01*
X126731784Y-122440423D01*
X126579057Y-122399500D01*
X126579050Y-122399498D01*
X126571893Y-122398556D01*
X126507997Y-122370287D01*
X126500402Y-122363299D01*
X125636700Y-121499597D01*
X125603215Y-121438274D01*
X125601442Y-121428099D01*
X125600500Y-121420945D01*
X125600500Y-121420943D01*
X125559577Y-121268216D01*
X125505117Y-121173887D01*
X125480523Y-121131288D01*
X125480518Y-121131282D01*
X125368717Y-121019481D01*
X125368712Y-121019477D01*
X125367877Y-121018995D01*
X138024499Y-121018995D01*
X138051418Y-121154322D01*
X138051421Y-121154332D01*
X138104221Y-121281804D01*
X138104228Y-121281817D01*
X138180885Y-121396541D01*
X138180888Y-121396545D01*
X138278454Y-121494111D01*
X138278458Y-121494114D01*
X138393182Y-121570771D01*
X138393195Y-121570778D01*
X138520667Y-121623578D01*
X138520672Y-121623580D01*
X138520676Y-121623580D01*
X138520677Y-121623581D01*
X138656004Y-121650500D01*
X138656007Y-121650500D01*
X138793995Y-121650500D01*
X138885041Y-121632389D01*
X138929328Y-121623580D01*
X139056811Y-121570775D01*
X139171542Y-121494114D01*
X139269114Y-121396542D01*
X139345775Y-121281811D01*
X139398580Y-121154328D01*
X139425403Y-121019481D01*
X139425500Y-121018995D01*
X139425500Y-120881004D01*
X139398581Y-120745677D01*
X139398580Y-120745676D01*
X139398580Y-120745672D01*
X139351865Y-120632891D01*
X139345778Y-120618195D01*
X139345771Y-120618182D01*
X139269114Y-120503458D01*
X139269111Y-120503454D01*
X139171545Y-120405888D01*
X139171541Y-120405885D01*
X139056817Y-120329228D01*
X139056804Y-120329221D01*
X138929332Y-120276421D01*
X138929322Y-120276418D01*
X138793995Y-120249500D01*
X138793993Y-120249500D01*
X138656007Y-120249500D01*
X138656005Y-120249500D01*
X138520677Y-120276418D01*
X138520667Y-120276421D01*
X138393195Y-120329221D01*
X138393182Y-120329228D01*
X138278458Y-120405885D01*
X138278454Y-120405888D01*
X138180888Y-120503454D01*
X138180885Y-120503458D01*
X138104228Y-120618182D01*
X138104221Y-120618195D01*
X138051421Y-120745667D01*
X138051418Y-120745677D01*
X138024500Y-120881004D01*
X138024500Y-120881007D01*
X138024500Y-121018993D01*
X138024500Y-121018995D01*
X138024499Y-121018995D01*
X125367877Y-121018995D01*
X125304324Y-120982303D01*
X125304323Y-120982303D01*
X125231784Y-120940423D01*
X125079057Y-120899500D01*
X124920943Y-120899500D01*
X124768216Y-120940423D01*
X124768209Y-120940426D01*
X124631290Y-121019475D01*
X124631282Y-121019481D01*
X124519481Y-121131282D01*
X124519477Y-121131288D01*
X124440426Y-121268209D01*
X124440423Y-121268216D01*
X124399500Y-121420943D01*
X119716160Y-121420943D01*
X119860489Y-121276614D01*
X119919799Y-121173887D01*
X119931214Y-121131284D01*
X119950500Y-121059309D01*
X119950500Y-120699930D01*
X119970185Y-120632891D01*
X119976128Y-120624438D01*
X119980512Y-120618723D01*
X119980520Y-120618716D01*
X119980829Y-120618182D01*
X120004012Y-120578025D01*
X120059577Y-120481784D01*
X120100500Y-120329057D01*
X120100500Y-120170943D01*
X120059577Y-120018216D01*
X119983531Y-119886499D01*
X119980524Y-119881290D01*
X119980518Y-119881282D01*
X119936917Y-119837681D01*
X119903432Y-119776358D01*
X119908416Y-119706666D01*
X119936917Y-119662319D01*
X119980520Y-119618716D01*
X120059577Y-119481784D01*
X120100500Y-119329057D01*
X120100500Y-119170943D01*
X120059577Y-119018216D01*
X119985270Y-118889511D01*
X119980524Y-118881290D01*
X119980518Y-118881282D01*
X119868717Y-118769481D01*
X119868709Y-118769475D01*
X119731790Y-118690426D01*
X119731785Y-118690423D01*
X119666719Y-118672989D01*
X119584420Y-118650937D01*
X119524762Y-118614573D01*
X119494233Y-118551726D01*
X119502528Y-118482350D01*
X119509129Y-118469163D01*
X119559577Y-118381784D01*
X119600500Y-118229057D01*
X119600500Y-118070943D01*
X119559577Y-117918216D01*
X119485270Y-117789511D01*
X119480524Y-117781290D01*
X119480518Y-117781282D01*
X119368717Y-117669481D01*
X119368709Y-117669475D01*
X119231790Y-117590426D01*
X119231786Y-117590424D01*
X119231784Y-117590423D01*
X119079057Y-117549500D01*
X118920943Y-117549500D01*
X118768216Y-117590423D01*
X118768209Y-117590426D01*
X118631290Y-117669475D01*
X118625557Y-117673875D01*
X118560388Y-117699070D01*
X118550069Y-117699500D01*
X117790691Y-117699500D01*
X117700325Y-117723713D01*
X117700324Y-117723712D01*
X117676115Y-117730200D01*
X117676106Y-117730204D01*
X117573392Y-117789505D01*
X117573384Y-117789511D01*
X112849716Y-122513181D01*
X112788393Y-122546666D01*
X112762035Y-122549500D01*
X105949931Y-122549500D01*
X105882892Y-122529815D01*
X105874443Y-122523875D01*
X105868709Y-122519475D01*
X105731790Y-122440426D01*
X105731786Y-122440424D01*
X105731784Y-122440423D01*
X105579057Y-122399500D01*
X105420943Y-122399500D01*
X105268216Y-122440423D01*
X105268209Y-122440426D01*
X105131290Y-122519475D01*
X105131282Y-122519481D01*
X105019481Y-122631282D01*
X105019475Y-122631290D01*
X104940426Y-122768209D01*
X104940423Y-122768216D01*
X104899500Y-122920943D01*
X59000500Y-122920943D01*
X59000500Y-116618995D01*
X138024499Y-116618995D01*
X138051418Y-116754322D01*
X138051421Y-116754332D01*
X138104221Y-116881804D01*
X138104228Y-116881817D01*
X138180885Y-116996541D01*
X138180888Y-116996545D01*
X138278454Y-117094111D01*
X138278458Y-117094114D01*
X138393182Y-117170771D01*
X138393195Y-117170778D01*
X138520667Y-117223578D01*
X138520672Y-117223580D01*
X138520676Y-117223580D01*
X138520677Y-117223581D01*
X138656004Y-117250500D01*
X138656007Y-117250500D01*
X138793995Y-117250500D01*
X138885041Y-117232389D01*
X138929328Y-117223580D01*
X139056811Y-117170775D01*
X139171542Y-117094114D01*
X139269114Y-116996542D01*
X139345775Y-116881811D01*
X139398580Y-116754328D01*
X139425500Y-116618993D01*
X139425500Y-116481007D01*
X139425500Y-116481004D01*
X139398581Y-116345677D01*
X139398580Y-116345676D01*
X139398580Y-116345672D01*
X139368359Y-116272712D01*
X139345778Y-116218195D01*
X139345771Y-116218182D01*
X139269114Y-116103458D01*
X139269111Y-116103454D01*
X139171545Y-116005888D01*
X139171541Y-116005885D01*
X139056817Y-115929228D01*
X139056804Y-115929221D01*
X138929332Y-115876421D01*
X138929322Y-115876418D01*
X138793995Y-115849500D01*
X138793993Y-115849500D01*
X138656007Y-115849500D01*
X138656005Y-115849500D01*
X138520677Y-115876418D01*
X138520667Y-115876421D01*
X138393195Y-115929221D01*
X138393182Y-115929228D01*
X138278458Y-116005885D01*
X138278454Y-116005888D01*
X138180888Y-116103454D01*
X138180885Y-116103458D01*
X138104228Y-116218182D01*
X138104221Y-116218195D01*
X138051421Y-116345667D01*
X138051418Y-116345677D01*
X138024500Y-116481004D01*
X138024500Y-116481007D01*
X138024500Y-116618993D01*
X138024500Y-116618995D01*
X138024499Y-116618995D01*
X59000500Y-116618995D01*
X59000500Y-115713137D01*
X125107306Y-115713137D01*
X125107306Y-115871251D01*
X125143382Y-116005886D01*
X125148229Y-116023977D01*
X125148232Y-116023984D01*
X125227281Y-116160903D01*
X125227285Y-116160908D01*
X125227286Y-116160910D01*
X125339090Y-116272714D01*
X125339092Y-116272715D01*
X125339096Y-116272718D01*
X125465449Y-116345667D01*
X125476022Y-116351771D01*
X125628749Y-116392694D01*
X125628751Y-116392694D01*
X125786860Y-116392694D01*
X125786863Y-116392694D01*
X125939590Y-116351771D01*
X126076522Y-116272714D01*
X126188326Y-116160910D01*
X126267383Y-116023978D01*
X126308306Y-115871251D01*
X126308306Y-115871238D01*
X126309247Y-115864095D01*
X126318495Y-115843187D01*
X126323355Y-115820850D01*
X126335631Y-115804451D01*
X126337513Y-115800197D01*
X126344496Y-115792606D01*
X126514370Y-115622731D01*
X126575691Y-115589248D01*
X126634141Y-115590638D01*
X126670943Y-115600500D01*
X126670945Y-115600500D01*
X126829055Y-115600500D01*
X126829057Y-115600500D01*
X126981784Y-115559577D01*
X127118716Y-115480520D01*
X127230520Y-115368716D01*
X127309577Y-115231784D01*
X127350500Y-115079057D01*
X127350500Y-114920943D01*
X127309577Y-114768216D01*
X127235270Y-114639511D01*
X127230524Y-114631290D01*
X127230518Y-114631282D01*
X127118717Y-114519481D01*
X127118709Y-114519475D01*
X126981790Y-114440426D01*
X126981786Y-114440424D01*
X126981784Y-114440423D01*
X126829057Y-114399500D01*
X126670943Y-114399500D01*
X126518216Y-114440423D01*
X126518209Y-114440426D01*
X126381285Y-114519478D01*
X126324519Y-114576243D01*
X126298841Y-114595945D01*
X126282696Y-114605268D01*
X126223389Y-114639508D01*
X126223383Y-114639513D01*
X125707403Y-115155493D01*
X125646080Y-115188978D01*
X125635913Y-115190750D01*
X125628755Y-115191692D01*
X125476022Y-115232617D01*
X125476015Y-115232620D01*
X125339096Y-115311669D01*
X125339088Y-115311675D01*
X125227287Y-115423476D01*
X125227281Y-115423484D01*
X125148232Y-115560403D01*
X125148229Y-115560410D01*
X125107306Y-115713137D01*
X59000500Y-115713137D01*
X59000500Y-113670943D01*
X115899500Y-113670943D01*
X115899500Y-113829056D01*
X115940423Y-113981783D01*
X115940426Y-113981790D01*
X116019475Y-114118709D01*
X116019479Y-114118714D01*
X116019480Y-114118716D01*
X116131284Y-114230520D01*
X116131286Y-114230521D01*
X116131290Y-114230524D01*
X116268209Y-114309573D01*
X116268216Y-114309577D01*
X116420943Y-114350500D01*
X116420945Y-114350500D01*
X116579055Y-114350500D01*
X116579057Y-114350500D01*
X116731784Y-114309577D01*
X116868716Y-114230520D01*
X116980520Y-114118716D01*
X117059577Y-113981784D01*
X117100500Y-113829057D01*
X117100500Y-113829044D01*
X117101441Y-113821901D01*
X117129707Y-113758003D01*
X117136688Y-113750414D01*
X117750404Y-113136698D01*
X117811725Y-113103215D01*
X117821901Y-113101441D01*
X117829045Y-113100500D01*
X117829057Y-113100500D01*
X117981784Y-113059577D01*
X118118716Y-112980520D01*
X118230520Y-112868716D01*
X118309577Y-112731784D01*
X118350500Y-112579057D01*
X118350500Y-112420943D01*
X118309577Y-112268216D01*
X118309573Y-112268209D01*
X118230524Y-112131290D01*
X118230518Y-112131282D01*
X118118717Y-112019481D01*
X118118709Y-112019475D01*
X117981790Y-111940426D01*
X117981786Y-111940424D01*
X117981784Y-111940423D01*
X117829057Y-111899500D01*
X117670943Y-111899500D01*
X117518216Y-111940423D01*
X117518209Y-111940426D01*
X117381290Y-112019475D01*
X117381282Y-112019481D01*
X117269481Y-112131282D01*
X117269475Y-112131290D01*
X117190426Y-112268209D01*
X117190423Y-112268216D01*
X117149498Y-112420949D01*
X117148556Y-112428107D01*
X117120287Y-112492003D01*
X117113299Y-112499597D01*
X116499597Y-113113299D01*
X116438274Y-113146784D01*
X116428107Y-113148556D01*
X116420949Y-113149498D01*
X116268216Y-113190423D01*
X116268209Y-113190426D01*
X116131290Y-113269475D01*
X116131282Y-113269481D01*
X116019481Y-113381282D01*
X116019475Y-113381290D01*
X115940426Y-113518209D01*
X115940423Y-113518216D01*
X115899500Y-113670943D01*
X59000500Y-113670943D01*
X59000500Y-109605131D01*
X62349500Y-109605131D01*
X62349500Y-111394856D01*
X62349502Y-111394882D01*
X62352413Y-111419987D01*
X62352415Y-111419991D01*
X62397793Y-111522764D01*
X62397794Y-111522765D01*
X62477235Y-111602206D01*
X62580009Y-111647585D01*
X62605135Y-111650500D01*
X64394864Y-111650499D01*
X64394879Y-111650497D01*
X64394882Y-111650497D01*
X64419987Y-111647586D01*
X64419988Y-111647585D01*
X64419991Y-111647585D01*
X64522765Y-111602206D01*
X64602206Y-111522765D01*
X64647585Y-111419991D01*
X64650500Y-111394865D01*
X64650499Y-109605136D01*
X64650499Y-109605135D01*
X64650499Y-109605131D01*
X103349500Y-109605131D01*
X103349500Y-111394856D01*
X103349502Y-111394882D01*
X103352413Y-111419987D01*
X103352415Y-111419991D01*
X103397793Y-111522764D01*
X103397794Y-111522765D01*
X103477235Y-111602206D01*
X103580009Y-111647585D01*
X103605135Y-111650500D01*
X105394864Y-111650499D01*
X105394879Y-111650497D01*
X105394882Y-111650497D01*
X105419987Y-111647586D01*
X105419988Y-111647585D01*
X105419991Y-111647585D01*
X105522765Y-111602206D01*
X105602206Y-111522765D01*
X105647585Y-111419991D01*
X105650500Y-111394865D01*
X105650499Y-109605136D01*
X105650497Y-109605117D01*
X105647586Y-109580012D01*
X105647585Y-109580010D01*
X105647585Y-109580009D01*
X105602206Y-109477235D01*
X105522765Y-109397794D01*
X105522763Y-109397793D01*
X105419992Y-109352415D01*
X105394865Y-109349500D01*
X103605143Y-109349500D01*
X103605117Y-109349502D01*
X103580012Y-109352413D01*
X103580008Y-109352415D01*
X103477235Y-109397793D01*
X103397794Y-109477234D01*
X103352415Y-109580006D01*
X103352415Y-109580008D01*
X103349500Y-109605131D01*
X64650499Y-109605131D01*
X64650499Y-109605130D01*
X64647586Y-109580012D01*
X64647585Y-109580010D01*
X64647585Y-109580009D01*
X64602206Y-109477235D01*
X64522765Y-109397794D01*
X64522763Y-109397793D01*
X64419992Y-109352415D01*
X64394865Y-109349500D01*
X62605143Y-109349500D01*
X62605117Y-109349502D01*
X62580012Y-109352413D01*
X62580008Y-109352415D01*
X62477235Y-109397793D01*
X62397794Y-109477234D01*
X62352415Y-109580006D01*
X62352415Y-109580008D01*
X62349500Y-109605131D01*
X59000500Y-109605131D01*
X59000500Y-106273389D01*
X85009500Y-106273389D01*
X85009500Y-106446610D01*
X85031847Y-106587708D01*
X85036598Y-106617701D01*
X85090127Y-106782445D01*
X85168768Y-106936788D01*
X85270586Y-107076928D01*
X85393072Y-107199414D01*
X85533212Y-107301232D01*
X85687555Y-107379873D01*
X85852299Y-107433402D01*
X86023389Y-107460500D01*
X86023390Y-107460500D01*
X86196610Y-107460500D01*
X86196611Y-107460500D01*
X86367701Y-107433402D01*
X86532445Y-107379873D01*
X86686788Y-107301232D01*
X86826928Y-107199414D01*
X86949414Y-107076928D01*
X87051232Y-106936788D01*
X87129873Y-106782445D01*
X87183402Y-106617701D01*
X87210500Y-106446611D01*
X87210500Y-106273389D01*
X87549500Y-106273389D01*
X87549500Y-106446610D01*
X87571847Y-106587708D01*
X87576598Y-106617701D01*
X87630127Y-106782445D01*
X87708768Y-106936788D01*
X87810586Y-107076928D01*
X87933072Y-107199414D01*
X88073212Y-107301232D01*
X88227555Y-107379873D01*
X88392299Y-107433402D01*
X88563389Y-107460500D01*
X88563390Y-107460500D01*
X88736610Y-107460500D01*
X88736611Y-107460500D01*
X88907701Y-107433402D01*
X89072445Y-107379873D01*
X89226788Y-107301232D01*
X89366928Y-107199414D01*
X89489414Y-107076928D01*
X89591232Y-106936788D01*
X89669873Y-106782445D01*
X89723402Y-106617701D01*
X89750500Y-106446611D01*
X89750500Y-106273389D01*
X90089500Y-106273389D01*
X90089500Y-106446610D01*
X90111847Y-106587708D01*
X90116598Y-106617701D01*
X90170127Y-106782445D01*
X90248768Y-106936788D01*
X90350586Y-107076928D01*
X90473072Y-107199414D01*
X90613212Y-107301232D01*
X90767555Y-107379873D01*
X90932299Y-107433402D01*
X91103389Y-107460500D01*
X91103390Y-107460500D01*
X91276610Y-107460500D01*
X91276611Y-107460500D01*
X91447701Y-107433402D01*
X91612445Y-107379873D01*
X91766788Y-107301232D01*
X91906928Y-107199414D01*
X92029414Y-107076928D01*
X92131232Y-106936788D01*
X92209873Y-106782445D01*
X92263402Y-106617701D01*
X92290500Y-106446611D01*
X92290500Y-106273389D01*
X92629500Y-106273389D01*
X92629500Y-106446610D01*
X92651847Y-106587708D01*
X92656598Y-106617701D01*
X92710127Y-106782445D01*
X92788768Y-106936788D01*
X92890586Y-107076928D01*
X93013072Y-107199414D01*
X93153212Y-107301232D01*
X93307555Y-107379873D01*
X93472299Y-107433402D01*
X93643389Y-107460500D01*
X93643390Y-107460500D01*
X93816610Y-107460500D01*
X93816611Y-107460500D01*
X93987701Y-107433402D01*
X94152445Y-107379873D01*
X94306788Y-107301232D01*
X94446928Y-107199414D01*
X94569414Y-107076928D01*
X94671232Y-106936788D01*
X94749873Y-106782445D01*
X94803402Y-106617701D01*
X94830500Y-106446611D01*
X94830500Y-106273389D01*
X95169500Y-106273389D01*
X95169500Y-106446610D01*
X95191847Y-106587708D01*
X95196598Y-106617701D01*
X95250127Y-106782445D01*
X95328768Y-106936788D01*
X95430586Y-107076928D01*
X95553072Y-107199414D01*
X95693212Y-107301232D01*
X95847555Y-107379873D01*
X96012299Y-107433402D01*
X96183389Y-107460500D01*
X96183390Y-107460500D01*
X96356610Y-107460500D01*
X96356611Y-107460500D01*
X96527701Y-107433402D01*
X96692445Y-107379873D01*
X96846788Y-107301232D01*
X96986928Y-107199414D01*
X97109414Y-107076928D01*
X97211232Y-106936788D01*
X97289873Y-106782445D01*
X97343402Y-106617701D01*
X97370500Y-106446611D01*
X97370500Y-106273389D01*
X97709500Y-106273389D01*
X97709500Y-106446610D01*
X97731847Y-106587708D01*
X97736598Y-106617701D01*
X97790127Y-106782445D01*
X97868768Y-106936788D01*
X97970586Y-107076928D01*
X98093072Y-107199414D01*
X98233212Y-107301232D01*
X98387555Y-107379873D01*
X98552299Y-107433402D01*
X98723389Y-107460500D01*
X98723390Y-107460500D01*
X98896610Y-107460500D01*
X98896611Y-107460500D01*
X99067701Y-107433402D01*
X99232445Y-107379873D01*
X99386788Y-107301232D01*
X99526928Y-107199414D01*
X99649414Y-107076928D01*
X99751232Y-106936788D01*
X99829873Y-106782445D01*
X99883402Y-106617701D01*
X99910500Y-106446611D01*
X99910500Y-106273389D01*
X100249500Y-106273389D01*
X100249500Y-106446610D01*
X100271847Y-106587708D01*
X100276598Y-106617701D01*
X100330127Y-106782445D01*
X100408768Y-106936788D01*
X100510586Y-107076928D01*
X100633072Y-107199414D01*
X100773212Y-107301232D01*
X100927555Y-107379873D01*
X101092299Y-107433402D01*
X101263389Y-107460500D01*
X101263390Y-107460500D01*
X101436610Y-107460500D01*
X101436611Y-107460500D01*
X101607701Y-107433402D01*
X101772445Y-107379873D01*
X101926788Y-107301232D01*
X102066928Y-107199414D01*
X102189414Y-107076928D01*
X102291232Y-106936788D01*
X102369873Y-106782445D01*
X102423402Y-106617701D01*
X102450500Y-106446611D01*
X102450500Y-106273389D01*
X102789500Y-106273389D01*
X102789500Y-106446610D01*
X102811847Y-106587708D01*
X102816598Y-106617701D01*
X102870127Y-106782445D01*
X102948768Y-106936788D01*
X103050586Y-107076928D01*
X103173072Y-107199414D01*
X103313212Y-107301232D01*
X103467555Y-107379873D01*
X103632299Y-107433402D01*
X103803389Y-107460500D01*
X103803390Y-107460500D01*
X103976610Y-107460500D01*
X103976611Y-107460500D01*
X104147701Y-107433402D01*
X104312445Y-107379873D01*
X104466788Y-107301232D01*
X104606928Y-107199414D01*
X104729414Y-107076928D01*
X104831232Y-106936788D01*
X104909873Y-106782445D01*
X104963402Y-106617701D01*
X104990500Y-106446611D01*
X104990500Y-106273389D01*
X104986796Y-106250000D01*
X104970399Y-106146472D01*
X104968098Y-106131947D01*
X108250000Y-106131947D01*
X108250000Y-106368052D01*
X108286934Y-106601247D01*
X108359897Y-106825802D01*
X108467087Y-107036174D01*
X108527338Y-107119104D01*
X108527340Y-107119105D01*
X109226212Y-106420233D01*
X109237482Y-106462292D01*
X109309890Y-106587708D01*
X109412292Y-106690110D01*
X109537708Y-106762518D01*
X109579765Y-106773787D01*
X108880893Y-107472658D01*
X108963828Y-107532914D01*
X109174197Y-107640102D01*
X109398752Y-107713065D01*
X109398751Y-107713065D01*
X109631948Y-107750000D01*
X109868052Y-107750000D01*
X110101247Y-107713065D01*
X110325802Y-107640102D01*
X110536163Y-107532918D01*
X110536169Y-107532914D01*
X110619104Y-107472658D01*
X110619105Y-107472658D01*
X109920233Y-106773787D01*
X109962292Y-106762518D01*
X110087708Y-106690110D01*
X110190110Y-106587708D01*
X110262518Y-106462292D01*
X110273787Y-106420233D01*
X110972658Y-107119105D01*
X110972658Y-107119104D01*
X111032914Y-107036169D01*
X111032918Y-107036163D01*
X111140102Y-106825802D01*
X111213065Y-106601247D01*
X111250000Y-106368052D01*
X111250000Y-106147648D01*
X112949500Y-106147648D01*
X112949500Y-106352351D01*
X112981522Y-106554534D01*
X113044781Y-106749223D01*
X113137715Y-106931613D01*
X113258028Y-107097213D01*
X113402786Y-107241971D01*
X113557749Y-107354556D01*
X113568390Y-107362287D01*
X113684607Y-107421503D01*
X113750776Y-107455218D01*
X113750778Y-107455218D01*
X113750781Y-107455220D01*
X113804450Y-107472658D01*
X113945465Y-107518477D01*
X114036616Y-107532914D01*
X114147648Y-107550500D01*
X114147649Y-107550500D01*
X114352351Y-107550500D01*
X114352352Y-107550500D01*
X114554534Y-107518477D01*
X114749219Y-107455220D01*
X114931610Y-107362287D01*
X115024590Y-107294732D01*
X115097213Y-107241971D01*
X115097215Y-107241968D01*
X115097219Y-107241966D01*
X115241966Y-107097219D01*
X115241968Y-107097215D01*
X115241971Y-107097213D01*
X115294732Y-107024590D01*
X115362287Y-106931610D01*
X115455220Y-106749219D01*
X115518477Y-106554534D01*
X115550500Y-106352352D01*
X115550500Y-106147648D01*
X115518477Y-105945466D01*
X115502549Y-105896446D01*
X115455218Y-105750776D01*
X115400338Y-105643069D01*
X115362287Y-105568390D01*
X115327556Y-105520586D01*
X115241971Y-105402786D01*
X115097213Y-105258028D01*
X114931613Y-105137715D01*
X114931612Y-105137714D01*
X114931610Y-105137713D01*
X114874653Y-105108691D01*
X114749223Y-105044781D01*
X114554534Y-104981522D01*
X114379995Y-104953878D01*
X114352352Y-104949500D01*
X114147648Y-104949500D01*
X114123329Y-104953351D01*
X113945465Y-104981522D01*
X113750776Y-105044781D01*
X113568386Y-105137715D01*
X113402786Y-105258028D01*
X113258028Y-105402786D01*
X113137715Y-105568386D01*
X113044781Y-105750776D01*
X112981522Y-105945465D01*
X112949500Y-106147648D01*
X111250000Y-106147648D01*
X111250000Y-106131947D01*
X111213065Y-105898752D01*
X111140102Y-105674197D01*
X111032914Y-105463828D01*
X110972658Y-105380894D01*
X110972658Y-105380893D01*
X110273787Y-106079765D01*
X110262518Y-106037708D01*
X110190110Y-105912292D01*
X110087708Y-105809890D01*
X109962292Y-105737482D01*
X109920234Y-105726212D01*
X110619105Y-105027340D01*
X110619104Y-105027338D01*
X110536174Y-104967087D01*
X110325802Y-104859897D01*
X110101247Y-104786934D01*
X110101248Y-104786934D01*
X109868052Y-104750000D01*
X109631948Y-104750000D01*
X109398752Y-104786934D01*
X109174197Y-104859897D01*
X108963830Y-104967084D01*
X108880894Y-105027340D01*
X109579766Y-105726212D01*
X109537708Y-105737482D01*
X109412292Y-105809890D01*
X109309890Y-105912292D01*
X109237482Y-106037708D01*
X109226212Y-106079766D01*
X108527340Y-105380894D01*
X108467084Y-105463830D01*
X108359897Y-105674197D01*
X108286934Y-105898752D01*
X108250000Y-106131947D01*
X104968098Y-106131947D01*
X104963402Y-106102301D01*
X104963402Y-106102299D01*
X104909873Y-105937555D01*
X104831232Y-105783212D01*
X104729414Y-105643072D01*
X104606928Y-105520586D01*
X104466788Y-105418768D01*
X104312445Y-105340127D01*
X104147701Y-105286598D01*
X104147699Y-105286597D01*
X104147698Y-105286597D01*
X104016271Y-105265781D01*
X103976611Y-105259500D01*
X103803389Y-105259500D01*
X103763728Y-105265781D01*
X103632302Y-105286597D01*
X103467552Y-105340128D01*
X103313211Y-105418768D01*
X103233256Y-105476859D01*
X103173072Y-105520586D01*
X103173070Y-105520588D01*
X103173069Y-105520588D01*
X103050588Y-105643069D01*
X103050588Y-105643070D01*
X103050586Y-105643072D01*
X103009225Y-105700000D01*
X102948768Y-105783211D01*
X102870128Y-105937552D01*
X102816597Y-106102302D01*
X102789500Y-106273389D01*
X102450500Y-106273389D01*
X102423402Y-106102299D01*
X102369873Y-105937555D01*
X102291232Y-105783212D01*
X102189414Y-105643072D01*
X102066928Y-105520586D01*
X101926788Y-105418768D01*
X101772445Y-105340127D01*
X101607701Y-105286598D01*
X101607699Y-105286597D01*
X101607698Y-105286597D01*
X101476271Y-105265781D01*
X101436611Y-105259500D01*
X101263389Y-105259500D01*
X101223728Y-105265781D01*
X101092302Y-105286597D01*
X100927552Y-105340128D01*
X100773211Y-105418768D01*
X100693256Y-105476859D01*
X100633072Y-105520586D01*
X100633070Y-105520588D01*
X100633069Y-105520588D01*
X100510588Y-105643069D01*
X100510588Y-105643070D01*
X100510586Y-105643072D01*
X100469225Y-105700000D01*
X100408768Y-105783211D01*
X100330128Y-105937552D01*
X100276597Y-106102302D01*
X100249500Y-106273389D01*
X99910500Y-106273389D01*
X99883402Y-106102299D01*
X99829873Y-105937555D01*
X99751232Y-105783212D01*
X99649414Y-105643072D01*
X99526928Y-105520586D01*
X99386788Y-105418768D01*
X99232445Y-105340127D01*
X99067701Y-105286598D01*
X99067699Y-105286597D01*
X99067698Y-105286597D01*
X98936271Y-105265781D01*
X98896611Y-105259500D01*
X98723389Y-105259500D01*
X98683728Y-105265781D01*
X98552302Y-105286597D01*
X98387552Y-105340128D01*
X98233211Y-105418768D01*
X98153256Y-105476859D01*
X98093072Y-105520586D01*
X98093070Y-105520588D01*
X98093069Y-105520588D01*
X97970588Y-105643069D01*
X97970588Y-105643070D01*
X97970586Y-105643072D01*
X97929225Y-105700000D01*
X97868768Y-105783211D01*
X97790128Y-105937552D01*
X97736597Y-106102302D01*
X97709500Y-106273389D01*
X97370500Y-106273389D01*
X97343402Y-106102299D01*
X97289873Y-105937555D01*
X97211232Y-105783212D01*
X97109414Y-105643072D01*
X96986928Y-105520586D01*
X96846788Y-105418768D01*
X96692445Y-105340127D01*
X96527701Y-105286598D01*
X96527699Y-105286597D01*
X96527698Y-105286597D01*
X96396271Y-105265781D01*
X96356611Y-105259500D01*
X96183389Y-105259500D01*
X96143728Y-105265781D01*
X96012302Y-105286597D01*
X95847552Y-105340128D01*
X95693211Y-105418768D01*
X95613256Y-105476859D01*
X95553072Y-105520586D01*
X95553070Y-105520588D01*
X95553069Y-105520588D01*
X95430588Y-105643069D01*
X95430588Y-105643070D01*
X95430586Y-105643072D01*
X95389225Y-105700000D01*
X95328768Y-105783211D01*
X95250128Y-105937552D01*
X95196597Y-106102302D01*
X95169500Y-106273389D01*
X94830500Y-106273389D01*
X94803402Y-106102299D01*
X94749873Y-105937555D01*
X94671232Y-105783212D01*
X94569414Y-105643072D01*
X94446928Y-105520586D01*
X94306788Y-105418768D01*
X94152445Y-105340127D01*
X93987701Y-105286598D01*
X93987699Y-105286597D01*
X93987698Y-105286597D01*
X93856271Y-105265781D01*
X93816611Y-105259500D01*
X93643389Y-105259500D01*
X93603728Y-105265781D01*
X93472302Y-105286597D01*
X93307552Y-105340128D01*
X93153211Y-105418768D01*
X93073256Y-105476859D01*
X93013072Y-105520586D01*
X93013070Y-105520588D01*
X93013069Y-105520588D01*
X92890588Y-105643069D01*
X92890588Y-105643070D01*
X92890586Y-105643072D01*
X92849225Y-105700000D01*
X92788768Y-105783211D01*
X92710128Y-105937552D01*
X92656597Y-106102302D01*
X92629500Y-106273389D01*
X92290500Y-106273389D01*
X92263402Y-106102299D01*
X92209873Y-105937555D01*
X92131232Y-105783212D01*
X92029414Y-105643072D01*
X91906928Y-105520586D01*
X91766788Y-105418768D01*
X91612445Y-105340127D01*
X91447701Y-105286598D01*
X91447699Y-105286597D01*
X91447698Y-105286597D01*
X91316271Y-105265781D01*
X91276611Y-105259500D01*
X91103389Y-105259500D01*
X91063728Y-105265781D01*
X90932302Y-105286597D01*
X90767552Y-105340128D01*
X90613211Y-105418768D01*
X90533256Y-105476859D01*
X90473072Y-105520586D01*
X90473070Y-105520588D01*
X90473069Y-105520588D01*
X90350588Y-105643069D01*
X90350588Y-105643070D01*
X90350586Y-105643072D01*
X90309225Y-105700000D01*
X90248768Y-105783211D01*
X90170128Y-105937552D01*
X90116597Y-106102302D01*
X90089500Y-106273389D01*
X89750500Y-106273389D01*
X89723402Y-106102299D01*
X89669873Y-105937555D01*
X89591232Y-105783212D01*
X89489414Y-105643072D01*
X89366928Y-105520586D01*
X89226788Y-105418768D01*
X89072445Y-105340127D01*
X88907701Y-105286598D01*
X88907699Y-105286597D01*
X88907698Y-105286597D01*
X88776271Y-105265781D01*
X88736611Y-105259500D01*
X88563389Y-105259500D01*
X88523728Y-105265781D01*
X88392302Y-105286597D01*
X88227552Y-105340128D01*
X88073211Y-105418768D01*
X87993256Y-105476859D01*
X87933072Y-105520586D01*
X87933070Y-105520588D01*
X87933069Y-105520588D01*
X87810588Y-105643069D01*
X87810588Y-105643070D01*
X87810586Y-105643072D01*
X87769225Y-105700000D01*
X87708768Y-105783211D01*
X87630128Y-105937552D01*
X87576597Y-106102302D01*
X87549500Y-106273389D01*
X87210500Y-106273389D01*
X87183402Y-106102299D01*
X87129873Y-105937555D01*
X87051232Y-105783212D01*
X86949414Y-105643072D01*
X86826928Y-105520586D01*
X86686788Y-105418768D01*
X86532445Y-105340127D01*
X86367701Y-105286598D01*
X86367699Y-105286597D01*
X86367698Y-105286597D01*
X86236271Y-105265781D01*
X86196611Y-105259500D01*
X86023389Y-105259500D01*
X85983728Y-105265781D01*
X85852302Y-105286597D01*
X85687552Y-105340128D01*
X85533211Y-105418768D01*
X85453256Y-105476859D01*
X85393072Y-105520586D01*
X85393070Y-105520588D01*
X85393069Y-105520588D01*
X85270588Y-105643069D01*
X85270588Y-105643070D01*
X85270586Y-105643072D01*
X85229225Y-105700000D01*
X85168768Y-105783211D01*
X85090128Y-105937552D01*
X85036597Y-106102302D01*
X85009500Y-106273389D01*
X59000500Y-106273389D01*
X59000500Y-103413389D01*
X74399500Y-103413389D01*
X74399500Y-103586610D01*
X74418242Y-103704947D01*
X74426598Y-103757701D01*
X74480127Y-103922445D01*
X74558768Y-104076788D01*
X74660586Y-104216928D01*
X74783072Y-104339414D01*
X74923212Y-104441232D01*
X75077555Y-104519873D01*
X75242299Y-104573402D01*
X75413389Y-104600500D01*
X75413390Y-104600500D01*
X75586610Y-104600500D01*
X75586611Y-104600500D01*
X75757701Y-104573402D01*
X75922445Y-104519873D01*
X76076788Y-104441232D01*
X76216928Y-104339414D01*
X76339414Y-104216928D01*
X76441232Y-104076788D01*
X76519873Y-103922445D01*
X76573402Y-103757701D01*
X76600500Y-103586611D01*
X76600500Y-103413389D01*
X76598012Y-103397682D01*
X77700000Y-103397682D01*
X77700000Y-103602317D01*
X77732009Y-103804417D01*
X77795244Y-103999031D01*
X77888141Y-104181350D01*
X77888147Y-104181359D01*
X77920523Y-104225921D01*
X77920524Y-104225922D01*
X78600000Y-103546446D01*
X78600000Y-103552661D01*
X78627259Y-103654394D01*
X78679920Y-103745606D01*
X78754394Y-103820080D01*
X78845606Y-103872741D01*
X78947339Y-103900000D01*
X78953553Y-103900000D01*
X78274076Y-104579474D01*
X78318650Y-104611859D01*
X78500968Y-104704755D01*
X78695582Y-104767990D01*
X78897683Y-104800000D01*
X79102317Y-104800000D01*
X79304417Y-104767990D01*
X79499031Y-104704755D01*
X79681349Y-104611859D01*
X79725921Y-104579474D01*
X79046447Y-103900000D01*
X79052661Y-103900000D01*
X79154394Y-103872741D01*
X79245606Y-103820080D01*
X79320080Y-103745606D01*
X79372741Y-103654394D01*
X79400000Y-103552661D01*
X79400000Y-103546447D01*
X80079474Y-104225921D01*
X80111859Y-104181349D01*
X80174453Y-104058500D01*
X117545050Y-104058500D01*
X117561849Y-104069725D01*
X117561855Y-104069728D01*
X117730182Y-104139451D01*
X117730194Y-104139454D01*
X117908890Y-104174999D01*
X117908894Y-104175000D01*
X118091106Y-104175000D01*
X118091109Y-104174999D01*
X118269805Y-104139454D01*
X118269813Y-104139452D01*
X118438151Y-104069724D01*
X118438154Y-104069723D01*
X118454947Y-104058500D01*
X118454948Y-104058500D01*
X118000001Y-103603553D01*
X118000000Y-103603553D01*
X117545050Y-104058500D01*
X80174453Y-104058500D01*
X80204754Y-103999031D01*
X80212898Y-103973970D01*
X80267990Y-103804417D01*
X80300000Y-103602317D01*
X80300000Y-103397682D01*
X80267989Y-103195581D01*
X80267990Y-103195581D01*
X80266540Y-103191119D01*
X80266539Y-103191118D01*
X80256067Y-103158890D01*
X117075000Y-103158890D01*
X117075000Y-103341109D01*
X117110545Y-103519805D01*
X117110548Y-103519817D01*
X117180271Y-103688145D01*
X117191498Y-103704947D01*
X117646446Y-103250000D01*
X117646446Y-103249999D01*
X117596719Y-103200272D01*
X117750000Y-103200272D01*
X117750000Y-103299728D01*
X117788060Y-103391614D01*
X117858386Y-103461940D01*
X117950272Y-103500000D01*
X118049728Y-103500000D01*
X118141614Y-103461940D01*
X118211940Y-103391614D01*
X118250000Y-103299728D01*
X118250000Y-103200272D01*
X118211940Y-103108386D01*
X118141614Y-103038060D01*
X118049728Y-103000000D01*
X117950272Y-103000000D01*
X117858386Y-103038060D01*
X117788060Y-103108386D01*
X117750000Y-103200272D01*
X117596719Y-103200272D01*
X117440660Y-103044213D01*
X117407175Y-102982890D01*
X117412159Y-102913198D01*
X117454031Y-102857265D01*
X117519495Y-102832848D01*
X117587768Y-102847700D01*
X117597232Y-102853430D01*
X117656340Y-102892925D01*
X117656349Y-102892930D01*
X117686258Y-102905318D01*
X117788380Y-102947619D01*
X117788384Y-102947619D01*
X117788385Y-102947620D01*
X117928542Y-102975500D01*
X117928545Y-102975500D01*
X118071457Y-102975500D01*
X118165751Y-102956742D01*
X118211620Y-102947619D01*
X118343653Y-102892929D01*
X118402765Y-102853431D01*
X118469440Y-102832554D01*
X118536821Y-102851038D01*
X118583511Y-102903016D01*
X118594688Y-102971986D01*
X118566803Y-103036050D01*
X118559337Y-103044215D01*
X118353553Y-103250000D01*
X118353553Y-103250001D01*
X118808500Y-103704948D01*
X118808500Y-103704947D01*
X118819723Y-103688154D01*
X118819724Y-103688151D01*
X118889452Y-103519813D01*
X118889454Y-103519805D01*
X118924999Y-103341109D01*
X118925000Y-103341106D01*
X118925000Y-103158894D01*
X118924999Y-103158890D01*
X118889454Y-102980194D01*
X118889451Y-102980182D01*
X118819728Y-102811855D01*
X118819725Y-102811849D01*
X118808499Y-102795050D01*
X118794215Y-102809335D01*
X118732892Y-102842819D01*
X118663200Y-102837834D01*
X118607267Y-102795963D01*
X118582851Y-102730498D01*
X118597703Y-102662225D01*
X118603434Y-102652761D01*
X118642924Y-102593660D01*
X118642925Y-102593659D01*
X118642929Y-102593653D01*
X118697619Y-102461620D01*
X118725500Y-102321455D01*
X118725500Y-102178545D01*
X118725500Y-102178542D01*
X118697620Y-102038385D01*
X118697619Y-102038384D01*
X118697619Y-102038380D01*
X118642929Y-101906347D01*
X118642926Y-101906342D01*
X118642925Y-101906340D01*
X118602236Y-101845445D01*
X118584493Y-101818891D01*
X118572356Y-101780131D01*
X122024500Y-101780131D01*
X122024500Y-102719856D01*
X122024502Y-102719882D01*
X122027413Y-102744987D01*
X122027415Y-102744991D01*
X122072793Y-102847764D01*
X122072794Y-102847765D01*
X122152235Y-102927206D01*
X122255009Y-102972585D01*
X122280135Y-102975500D01*
X123219864Y-102975499D01*
X123219879Y-102975497D01*
X123219882Y-102975497D01*
X123244986Y-102972586D01*
X123244987Y-102972585D01*
X123244991Y-102972585D01*
X123347765Y-102927206D01*
X123347766Y-102927204D01*
X123358277Y-102922564D01*
X123359050Y-102924315D01*
X123411995Y-102907055D01*
X123463104Y-102916438D01*
X123538380Y-102947619D01*
X123538384Y-102947619D01*
X123538385Y-102947620D01*
X123678542Y-102975500D01*
X123678545Y-102975500D01*
X123821457Y-102975500D01*
X123915751Y-102956742D01*
X123961620Y-102947619D01*
X124093653Y-102892929D01*
X124147028Y-102857265D01*
X124181109Y-102834493D01*
X124247786Y-102813615D01*
X124315167Y-102832099D01*
X124318891Y-102834493D01*
X124406340Y-102892925D01*
X124406349Y-102892930D01*
X124436258Y-102905318D01*
X124538380Y-102947619D01*
X124538384Y-102947619D01*
X124538385Y-102947620D01*
X124678542Y-102975500D01*
X124678545Y-102975500D01*
X124821457Y-102975500D01*
X124915751Y-102956742D01*
X124961620Y-102947619D01*
X125093653Y-102892929D01*
X125152761Y-102853433D01*
X125219438Y-102832555D01*
X125286818Y-102851039D01*
X125333509Y-102903017D01*
X125344687Y-102971987D01*
X125316802Y-103036051D01*
X125309335Y-103044215D01*
X125295050Y-103058499D01*
X125295050Y-103058500D01*
X125311849Y-103069725D01*
X125311855Y-103069728D01*
X125480182Y-103139451D01*
X125480194Y-103139454D01*
X125658890Y-103174999D01*
X125658894Y-103175000D01*
X125841106Y-103175000D01*
X125841109Y-103174999D01*
X126019805Y-103139454D01*
X126019813Y-103139452D01*
X126188151Y-103069724D01*
X126188154Y-103069723D01*
X126204947Y-103058500D01*
X126204948Y-103058500D01*
X125750001Y-102603553D01*
X125544215Y-102809337D01*
X125482892Y-102842821D01*
X125413200Y-102837837D01*
X125357267Y-102795965D01*
X125332850Y-102730501D01*
X125347702Y-102662228D01*
X125353422Y-102652778D01*
X125392929Y-102593653D01*
X125447619Y-102461620D01*
X125475500Y-102321455D01*
X125475500Y-102200272D01*
X125500000Y-102200272D01*
X125500000Y-102299728D01*
X125538060Y-102391614D01*
X125608386Y-102461940D01*
X125700272Y-102500000D01*
X125799728Y-102500000D01*
X125891614Y-102461940D01*
X125961940Y-102391614D01*
X126000000Y-102299728D01*
X126000000Y-102249999D01*
X126103553Y-102249999D01*
X126103553Y-102250001D01*
X126558500Y-102704948D01*
X126558500Y-102704947D01*
X126569723Y-102688154D01*
X126569724Y-102688151D01*
X126639452Y-102519813D01*
X126639454Y-102519805D01*
X126674999Y-102341109D01*
X126675000Y-102341106D01*
X126675000Y-102158894D01*
X126674999Y-102158890D01*
X127075000Y-102158890D01*
X127075000Y-102341109D01*
X127110545Y-102519805D01*
X127110548Y-102519817D01*
X127180271Y-102688145D01*
X127191498Y-102704947D01*
X127646446Y-102250000D01*
X127646446Y-102249999D01*
X127596719Y-102200272D01*
X127750000Y-102200272D01*
X127750000Y-102299728D01*
X127788060Y-102391614D01*
X127858386Y-102461940D01*
X127950272Y-102500000D01*
X128049728Y-102500000D01*
X128141614Y-102461940D01*
X128211940Y-102391614D01*
X128250000Y-102299728D01*
X128250000Y-102200272D01*
X128211940Y-102108386D01*
X128141614Y-102038060D01*
X128049728Y-102000000D01*
X127950272Y-102000000D01*
X127858386Y-102038060D01*
X127788060Y-102108386D01*
X127750000Y-102200272D01*
X127596719Y-102200272D01*
X127191498Y-101795050D01*
X127180274Y-101811848D01*
X127110547Y-101980186D01*
X127110545Y-101980194D01*
X127075000Y-102158890D01*
X126674999Y-102158890D01*
X126639454Y-101980194D01*
X126639451Y-101980182D01*
X126569728Y-101811855D01*
X126569725Y-101811849D01*
X126558500Y-101795050D01*
X126103553Y-102249999D01*
X126000000Y-102249999D01*
X126000000Y-102200272D01*
X125961940Y-102108386D01*
X125891614Y-102038060D01*
X125799728Y-102000000D01*
X125700272Y-102000000D01*
X125608386Y-102038060D01*
X125538060Y-102108386D01*
X125500000Y-102200272D01*
X125475500Y-102200272D01*
X125475500Y-102178545D01*
X125475500Y-102178542D01*
X125447620Y-102038385D01*
X125447619Y-102038384D01*
X125447619Y-102038380D01*
X125392929Y-101906347D01*
X125392926Y-101906342D01*
X125392925Y-101906340D01*
X125353430Y-101847232D01*
X125332552Y-101780555D01*
X125351036Y-101713174D01*
X125403015Y-101666484D01*
X125471985Y-101655308D01*
X125536049Y-101683193D01*
X125544213Y-101690660D01*
X125750000Y-101896446D01*
X125750001Y-101896446D01*
X126204947Y-101441498D01*
X127545050Y-101441498D01*
X127999999Y-101896445D01*
X128205786Y-101690658D01*
X128267109Y-101657173D01*
X128336801Y-101662157D01*
X128392735Y-101704028D01*
X128417152Y-101769492D01*
X128402300Y-101837765D01*
X128396571Y-101847229D01*
X128357073Y-101906342D01*
X128357069Y-101906349D01*
X128302381Y-102038379D01*
X128302379Y-102038385D01*
X128274500Y-102178542D01*
X128274500Y-102178545D01*
X128274500Y-102321455D01*
X128274500Y-102321457D01*
X128274499Y-102321457D01*
X128302379Y-102461614D01*
X128302381Y-102461620D01*
X128357069Y-102593650D01*
X128357074Y-102593659D01*
X128396567Y-102652764D01*
X128417445Y-102719442D01*
X128398960Y-102786822D01*
X128346981Y-102833512D01*
X128278011Y-102844688D01*
X128213948Y-102816802D01*
X128205784Y-102809336D01*
X128000001Y-102603553D01*
X128000000Y-102603553D01*
X127545050Y-103058500D01*
X127561849Y-103069725D01*
X127561855Y-103069728D01*
X127730182Y-103139451D01*
X127730194Y-103139454D01*
X127908890Y-103174999D01*
X127908894Y-103175000D01*
X128091106Y-103175000D01*
X128091109Y-103174999D01*
X128269805Y-103139454D01*
X128269813Y-103139452D01*
X128438151Y-103069724D01*
X128438154Y-103069723D01*
X128454947Y-103058500D01*
X128454948Y-103058500D01*
X128440663Y-103044215D01*
X128407178Y-102982892D01*
X128412162Y-102913200D01*
X128454034Y-102857267D01*
X128519498Y-102832850D01*
X128587771Y-102847702D01*
X128597235Y-102853432D01*
X128656340Y-102892925D01*
X128656349Y-102892930D01*
X128686258Y-102905318D01*
X128788380Y-102947619D01*
X128788384Y-102947619D01*
X128788385Y-102947620D01*
X128928542Y-102975500D01*
X128928545Y-102975500D01*
X129071457Y-102975500D01*
X129165751Y-102956742D01*
X129211620Y-102947619D01*
X129343653Y-102892929D01*
X129397028Y-102857265D01*
X129431109Y-102834493D01*
X129497786Y-102813615D01*
X129565167Y-102832099D01*
X129568891Y-102834493D01*
X129656340Y-102892925D01*
X129656349Y-102892930D01*
X129686258Y-102905318D01*
X129788380Y-102947619D01*
X129788384Y-102947619D01*
X129788385Y-102947620D01*
X129928542Y-102975500D01*
X129928545Y-102975500D01*
X130071457Y-102975500D01*
X130165751Y-102956742D01*
X130211620Y-102947619D01*
X130286893Y-102916439D01*
X130356358Y-102908971D01*
X130391378Y-102923349D01*
X130391725Y-102922565D01*
X130402234Y-102927205D01*
X130402235Y-102927206D01*
X130505009Y-102972585D01*
X130530135Y-102975500D01*
X131469864Y-102975499D01*
X131469879Y-102975497D01*
X131469882Y-102975497D01*
X131494987Y-102972586D01*
X131494988Y-102972585D01*
X131494991Y-102972585D01*
X131597765Y-102927206D01*
X131677206Y-102847765D01*
X131722585Y-102744991D01*
X131725500Y-102719865D01*
X131725499Y-101780136D01*
X131724265Y-101769492D01*
X131722586Y-101755012D01*
X131722585Y-101755010D01*
X131722585Y-101755009D01*
X131677206Y-101652235D01*
X131597765Y-101572794D01*
X131597763Y-101572793D01*
X131494992Y-101527415D01*
X131469865Y-101524500D01*
X130530143Y-101524500D01*
X130530117Y-101524502D01*
X130505012Y-101527413D01*
X130505008Y-101527415D01*
X130391724Y-101577435D01*
X130390952Y-101575688D01*
X130337965Y-101592944D01*
X130286890Y-101583558D01*
X130211624Y-101552382D01*
X130211614Y-101552379D01*
X130071457Y-101524500D01*
X130071455Y-101524500D01*
X129928545Y-101524500D01*
X129928543Y-101524500D01*
X129788385Y-101552379D01*
X129788379Y-101552381D01*
X129656349Y-101607069D01*
X129656342Y-101607073D01*
X129568890Y-101665507D01*
X129502213Y-101686384D01*
X129434833Y-101667899D01*
X129431110Y-101665507D01*
X129343657Y-101607073D01*
X129343650Y-101607069D01*
X129211620Y-101552381D01*
X129211614Y-101552379D01*
X129071457Y-101524500D01*
X129071455Y-101524500D01*
X128928545Y-101524500D01*
X128928543Y-101524500D01*
X128788385Y-101552379D01*
X128788379Y-101552381D01*
X128656349Y-101607069D01*
X128656342Y-101607073D01*
X128597228Y-101646572D01*
X128530550Y-101667449D01*
X128463170Y-101648964D01*
X128416481Y-101596985D01*
X128405305Y-101528015D01*
X128433191Y-101463951D01*
X128440658Y-101455787D01*
X128454946Y-101441498D01*
X128438145Y-101430271D01*
X128269817Y-101360548D01*
X128269805Y-101360545D01*
X128091109Y-101325000D01*
X127908890Y-101325000D01*
X127730194Y-101360545D01*
X127730186Y-101360547D01*
X127561848Y-101430274D01*
X127545050Y-101441498D01*
X126204947Y-101441498D01*
X126188145Y-101430271D01*
X126019817Y-101360548D01*
X126019805Y-101360545D01*
X125841109Y-101325000D01*
X125658890Y-101325000D01*
X125480194Y-101360545D01*
X125480186Y-101360547D01*
X125311848Y-101430274D01*
X125295050Y-101441498D01*
X125309337Y-101455785D01*
X125342822Y-101517108D01*
X125337838Y-101586800D01*
X125295966Y-101642733D01*
X125230502Y-101667150D01*
X125162229Y-101652298D01*
X125152765Y-101646568D01*
X125093659Y-101607074D01*
X125093650Y-101607069D01*
X124961620Y-101552381D01*
X124961614Y-101552379D01*
X124821457Y-101524500D01*
X124821455Y-101524500D01*
X124678545Y-101524500D01*
X124678543Y-101524500D01*
X124538385Y-101552379D01*
X124538379Y-101552381D01*
X124406349Y-101607069D01*
X124406342Y-101607073D01*
X124318890Y-101665507D01*
X124252213Y-101686384D01*
X124184833Y-101667899D01*
X124181110Y-101665507D01*
X124093657Y-101607073D01*
X124093650Y-101607069D01*
X123961620Y-101552381D01*
X123961614Y-101552379D01*
X123821457Y-101524500D01*
X123821455Y-101524500D01*
X123678545Y-101524500D01*
X123678543Y-101524500D01*
X123538385Y-101552379D01*
X123538379Y-101552381D01*
X123463110Y-101583559D01*
X123393640Y-101591028D01*
X123358620Y-101576651D01*
X123358275Y-101577435D01*
X123347765Y-101572794D01*
X123301529Y-101552379D01*
X123244992Y-101527415D01*
X123219865Y-101524500D01*
X122280143Y-101524500D01*
X122280117Y-101524502D01*
X122255012Y-101527413D01*
X122255008Y-101527415D01*
X122152235Y-101572793D01*
X122072794Y-101652234D01*
X122027415Y-101755006D01*
X122027415Y-101755008D01*
X122024500Y-101780131D01*
X118572356Y-101780131D01*
X118563615Y-101752214D01*
X118582099Y-101684834D01*
X118584493Y-101681109D01*
X118642925Y-101593659D01*
X118642926Y-101593657D01*
X118642929Y-101593653D01*
X118697619Y-101461620D01*
X118717724Y-101360547D01*
X118725500Y-101321457D01*
X118725500Y-101178542D01*
X118697620Y-101038385D01*
X118697619Y-101038384D01*
X118697619Y-101038380D01*
X118666439Y-100963106D01*
X118658971Y-100893642D01*
X118673349Y-100858623D01*
X118672565Y-100858277D01*
X118722583Y-100744995D01*
X118722585Y-100744991D01*
X118725500Y-100719865D01*
X118725499Y-99780136D01*
X118725497Y-99780117D01*
X118722586Y-99755012D01*
X118722585Y-99755010D01*
X118722585Y-99755009D01*
X118677206Y-99652235D01*
X118597765Y-99572794D01*
X118518303Y-99537708D01*
X118494992Y-99527415D01*
X118469865Y-99524500D01*
X117530143Y-99524500D01*
X117530117Y-99524502D01*
X117505012Y-99527413D01*
X117505008Y-99527415D01*
X117402235Y-99572793D01*
X117322794Y-99652234D01*
X117277415Y-99755006D01*
X117277415Y-99755008D01*
X117274500Y-99780131D01*
X117274500Y-100719856D01*
X117274502Y-100719882D01*
X117277413Y-100744987D01*
X117277415Y-100744991D01*
X117327435Y-100858276D01*
X117325686Y-100859048D01*
X117342944Y-100912014D01*
X117333559Y-100963110D01*
X117302381Y-101038379D01*
X117302379Y-101038385D01*
X117274500Y-101178542D01*
X117274500Y-101178545D01*
X117274500Y-101321455D01*
X117274500Y-101321457D01*
X117274499Y-101321457D01*
X117302379Y-101461614D01*
X117302381Y-101461620D01*
X117357069Y-101593650D01*
X117357073Y-101593657D01*
X117415507Y-101681110D01*
X117436384Y-101747787D01*
X117417899Y-101815167D01*
X117415507Y-101818890D01*
X117357073Y-101906342D01*
X117357069Y-101906349D01*
X117302381Y-102038379D01*
X117302379Y-102038385D01*
X117274500Y-102178542D01*
X117274500Y-102178545D01*
X117274500Y-102321455D01*
X117274500Y-102321457D01*
X117274499Y-102321457D01*
X117302379Y-102461614D01*
X117302381Y-102461620D01*
X117357069Y-102593650D01*
X117357074Y-102593659D01*
X117396568Y-102652765D01*
X117417446Y-102719442D01*
X117398962Y-102786823D01*
X117346983Y-102833513D01*
X117278013Y-102844689D01*
X117213949Y-102816804D01*
X117205785Y-102809337D01*
X117191498Y-102795050D01*
X117180274Y-102811848D01*
X117110547Y-102980186D01*
X117110545Y-102980194D01*
X117075000Y-103158890D01*
X80256067Y-103158890D01*
X80204755Y-103000968D01*
X80111859Y-102818650D01*
X80079474Y-102774077D01*
X80079474Y-102774076D01*
X79400000Y-103453551D01*
X79400000Y-103447339D01*
X79372741Y-103345606D01*
X79320080Y-103254394D01*
X79245606Y-103179920D01*
X79154394Y-103127259D01*
X79052661Y-103100000D01*
X79046446Y-103100000D01*
X79725922Y-102420524D01*
X79725921Y-102420523D01*
X79681359Y-102388147D01*
X79681350Y-102388141D01*
X79499031Y-102295244D01*
X79304417Y-102232009D01*
X79102317Y-102200000D01*
X78897683Y-102200000D01*
X78695582Y-102232009D01*
X78500968Y-102295244D01*
X78318644Y-102388143D01*
X78274077Y-102420523D01*
X78274077Y-102420524D01*
X78953554Y-103100000D01*
X78947339Y-103100000D01*
X78845606Y-103127259D01*
X78754394Y-103179920D01*
X78679920Y-103254394D01*
X78627259Y-103345606D01*
X78600000Y-103447339D01*
X78600000Y-103453553D01*
X77920524Y-102774077D01*
X77920523Y-102774077D01*
X77888143Y-102818644D01*
X77795244Y-103000968D01*
X77732009Y-103195582D01*
X77700000Y-103397682D01*
X76598012Y-103397682D01*
X76573402Y-103242299D01*
X76519873Y-103077555D01*
X76441232Y-102923212D01*
X76339414Y-102783072D01*
X76216928Y-102660586D01*
X76076788Y-102558768D01*
X76076789Y-102558768D01*
X76076787Y-102558767D01*
X75922447Y-102480128D01*
X75922446Y-102480127D01*
X75922445Y-102480127D01*
X75757701Y-102426598D01*
X75757699Y-102426597D01*
X75757698Y-102426597D01*
X75626271Y-102405781D01*
X75586611Y-102399500D01*
X75413389Y-102399500D01*
X75373728Y-102405781D01*
X75242302Y-102426597D01*
X75077552Y-102480128D01*
X74923211Y-102558768D01*
X74875187Y-102593660D01*
X74783072Y-102660586D01*
X74783070Y-102660588D01*
X74783069Y-102660588D01*
X74660588Y-102783069D01*
X74660588Y-102783070D01*
X74660586Y-102783072D01*
X74634737Y-102818650D01*
X74558768Y-102923211D01*
X74480128Y-103077552D01*
X74426597Y-103242302D01*
X74399500Y-103413389D01*
X59000500Y-103413389D01*
X59000500Y-98571457D01*
X106274499Y-98571457D01*
X106302379Y-98711614D01*
X106302381Y-98711620D01*
X106357069Y-98843650D01*
X106357073Y-98843657D01*
X106415507Y-98931110D01*
X106436384Y-98997787D01*
X106417899Y-99065167D01*
X106415507Y-99068890D01*
X106357073Y-99156342D01*
X106357069Y-99156349D01*
X106302381Y-99288379D01*
X106302379Y-99288385D01*
X106274500Y-99428542D01*
X106274500Y-99428545D01*
X106274500Y-99571455D01*
X106274500Y-99571457D01*
X106274499Y-99571457D01*
X106302379Y-99711614D01*
X106302381Y-99711620D01*
X106357069Y-99843650D01*
X106357073Y-99843657D01*
X106415507Y-99931110D01*
X106436384Y-99997787D01*
X106417899Y-100065167D01*
X106415507Y-100068890D01*
X106357073Y-100156342D01*
X106357069Y-100156349D01*
X106302381Y-100288379D01*
X106302379Y-100288385D01*
X106274500Y-100428542D01*
X106274500Y-100428545D01*
X106274500Y-100571455D01*
X106274500Y-100571457D01*
X106274499Y-100571457D01*
X106302379Y-100711614D01*
X106302381Y-100711620D01*
X106357069Y-100843650D01*
X106357074Y-100843659D01*
X106436467Y-100962478D01*
X106436470Y-100962482D01*
X106537517Y-101063529D01*
X106537521Y-101063532D01*
X106656340Y-101142925D01*
X106656346Y-101142928D01*
X106656347Y-101142929D01*
X106788380Y-101197619D01*
X106788384Y-101197619D01*
X106788385Y-101197620D01*
X106928542Y-101225500D01*
X106928545Y-101225500D01*
X107071457Y-101225500D01*
X107165751Y-101206742D01*
X107211620Y-101197619D01*
X107343653Y-101142929D01*
X107462479Y-101063532D01*
X107563532Y-100962479D01*
X107610774Y-100891777D01*
X107634340Y-100856508D01*
X107634340Y-100856507D01*
X107640181Y-100847765D01*
X107642929Y-100843653D01*
X107697619Y-100711620D01*
X107720375Y-100597219D01*
X107725500Y-100571457D01*
X107725500Y-100428542D01*
X107697620Y-100288385D01*
X107697619Y-100288384D01*
X107697619Y-100288380D01*
X107642929Y-100156347D01*
X107642926Y-100156342D01*
X107642925Y-100156340D01*
X107584493Y-100068891D01*
X107563615Y-100002214D01*
X107582099Y-99934833D01*
X107584493Y-99931109D01*
X107642925Y-99843659D01*
X107642926Y-99843657D01*
X107642929Y-99843653D01*
X107697619Y-99711620D01*
X107710344Y-99647648D01*
X107713467Y-99631947D01*
X108250000Y-99631947D01*
X108250000Y-99868052D01*
X108286934Y-100101247D01*
X108359897Y-100325802D01*
X108467087Y-100536174D01*
X108527338Y-100619104D01*
X108527340Y-100619105D01*
X109226212Y-99920233D01*
X109237482Y-99962292D01*
X109309890Y-100087708D01*
X109412292Y-100190110D01*
X109537708Y-100262518D01*
X109579765Y-100273787D01*
X108880893Y-100972658D01*
X108963828Y-101032914D01*
X109174197Y-101140102D01*
X109398752Y-101213065D01*
X109398751Y-101213065D01*
X109631948Y-101250000D01*
X109868052Y-101250000D01*
X110101247Y-101213065D01*
X110325802Y-101140102D01*
X110536163Y-101032918D01*
X110536169Y-101032914D01*
X110619104Y-100972658D01*
X110619105Y-100972658D01*
X109920233Y-100273787D01*
X109962292Y-100262518D01*
X110087708Y-100190110D01*
X110190110Y-100087708D01*
X110262518Y-99962292D01*
X110273787Y-99920233D01*
X110972658Y-100619105D01*
X110972658Y-100619104D01*
X111032914Y-100536169D01*
X111032918Y-100536163D01*
X111140102Y-100325802D01*
X111213065Y-100101247D01*
X111250000Y-99868052D01*
X111250000Y-99647648D01*
X112949500Y-99647648D01*
X112949500Y-99852351D01*
X112981522Y-100054534D01*
X113044781Y-100249223D01*
X113070654Y-100300000D01*
X113136151Y-100428545D01*
X113137715Y-100431613D01*
X113258028Y-100597213D01*
X113402786Y-100741971D01*
X113548402Y-100847765D01*
X113568390Y-100862287D01*
X113665985Y-100912014D01*
X113750776Y-100955218D01*
X113750778Y-100955218D01*
X113750781Y-100955220D01*
X113804450Y-100972658D01*
X113945465Y-101018477D01*
X114036616Y-101032914D01*
X114147648Y-101050500D01*
X114147649Y-101050500D01*
X114352351Y-101050500D01*
X114352352Y-101050500D01*
X114554534Y-101018477D01*
X114749219Y-100955220D01*
X114931610Y-100862287D01*
X115024590Y-100794732D01*
X115097213Y-100741971D01*
X115097215Y-100741968D01*
X115097219Y-100741966D01*
X115241966Y-100597219D01*
X115241968Y-100597215D01*
X115241971Y-100597213D01*
X115294732Y-100524590D01*
X115362287Y-100431610D01*
X115455220Y-100249219D01*
X115518477Y-100054534D01*
X115550500Y-99852352D01*
X115550500Y-99647648D01*
X115518477Y-99445466D01*
X115502549Y-99396446D01*
X115467438Y-99288385D01*
X115455220Y-99250781D01*
X115455218Y-99250778D01*
X115455218Y-99250776D01*
X115407100Y-99156340D01*
X115362287Y-99068390D01*
X115314208Y-99002214D01*
X115241971Y-98902786D01*
X115097213Y-98758028D01*
X114931613Y-98637715D01*
X114931612Y-98637714D01*
X114931610Y-98637713D01*
X114874653Y-98608691D01*
X114749223Y-98544781D01*
X114554534Y-98481522D01*
X114379995Y-98453878D01*
X114352352Y-98449500D01*
X114147648Y-98449500D01*
X114123329Y-98453351D01*
X113945465Y-98481522D01*
X113750776Y-98544781D01*
X113568386Y-98637715D01*
X113402786Y-98758028D01*
X113258028Y-98902786D01*
X113137715Y-99068386D01*
X113044781Y-99250776D01*
X112981522Y-99445465D01*
X112949500Y-99647648D01*
X111250000Y-99647648D01*
X111250000Y-99631947D01*
X111213065Y-99398752D01*
X111140102Y-99174197D01*
X111032914Y-98963828D01*
X110972658Y-98880894D01*
X110972658Y-98880893D01*
X110273787Y-99579765D01*
X110262518Y-99537708D01*
X110190110Y-99412292D01*
X110087708Y-99309890D01*
X109962292Y-99237482D01*
X109920234Y-99226212D01*
X110619105Y-98527340D01*
X110619104Y-98527338D01*
X110536174Y-98467087D01*
X110325802Y-98359897D01*
X110101247Y-98286934D01*
X110101248Y-98286934D01*
X109868052Y-98250000D01*
X109631948Y-98250000D01*
X109398752Y-98286934D01*
X109174197Y-98359897D01*
X108963830Y-98467084D01*
X108880894Y-98527340D01*
X109579766Y-99226212D01*
X109537708Y-99237482D01*
X109412292Y-99309890D01*
X109309890Y-99412292D01*
X109237482Y-99537708D01*
X109226212Y-99579766D01*
X108527340Y-98880894D01*
X108467084Y-98963830D01*
X108359897Y-99174197D01*
X108286934Y-99398752D01*
X108250000Y-99631947D01*
X107713467Y-99631947D01*
X107719249Y-99602883D01*
X107719249Y-99602882D01*
X107723060Y-99583718D01*
X107725500Y-99571455D01*
X107725500Y-99428545D01*
X107725500Y-99428542D01*
X107697620Y-99288385D01*
X107697619Y-99288384D01*
X107697619Y-99288380D01*
X107642929Y-99156347D01*
X107642926Y-99156342D01*
X107642925Y-99156340D01*
X107584493Y-99068891D01*
X107563615Y-99002214D01*
X107582099Y-98934833D01*
X107584493Y-98931109D01*
X107642925Y-98843659D01*
X107642926Y-98843657D01*
X107642929Y-98843653D01*
X107697619Y-98711620D01*
X107717177Y-98613299D01*
X107725500Y-98571457D01*
X107725500Y-98428542D01*
X107697620Y-98288385D01*
X107697619Y-98288384D01*
X107697619Y-98288380D01*
X107666439Y-98213106D01*
X107658971Y-98143642D01*
X107673349Y-98108623D01*
X107672565Y-98108277D01*
X107722583Y-97994995D01*
X107722585Y-97994991D01*
X107725500Y-97969865D01*
X107725500Y-97920943D01*
X119649500Y-97920943D01*
X119649500Y-98079057D01*
X119685420Y-98213110D01*
X119690423Y-98231783D01*
X119690426Y-98231790D01*
X119769475Y-98368709D01*
X119769479Y-98368714D01*
X119769480Y-98368716D01*
X119881284Y-98480520D01*
X119881286Y-98480521D01*
X119881290Y-98480524D01*
X119992588Y-98544781D01*
X120018216Y-98559577D01*
X120170943Y-98600500D01*
X120170945Y-98600500D01*
X120329055Y-98600500D01*
X120329057Y-98600500D01*
X120481784Y-98559577D01*
X120618716Y-98480520D01*
X120618721Y-98480514D01*
X120624443Y-98476125D01*
X120689612Y-98450930D01*
X120699931Y-98450500D01*
X123012035Y-98450500D01*
X123079074Y-98470185D01*
X123099716Y-98486819D01*
X123863299Y-99250402D01*
X123896784Y-99311725D01*
X123898556Y-99321893D01*
X123899498Y-99329050D01*
X123899500Y-99329056D01*
X123899500Y-99329057D01*
X123930691Y-99445465D01*
X123940423Y-99481783D01*
X123940426Y-99481790D01*
X124019475Y-99618709D01*
X124019479Y-99618714D01*
X124019480Y-99618716D01*
X124131284Y-99730520D01*
X124131286Y-99730521D01*
X124131290Y-99730524D01*
X124217220Y-99780135D01*
X124268216Y-99809577D01*
X124420943Y-99850500D01*
X124420945Y-99850500D01*
X124579055Y-99850500D01*
X124579057Y-99850500D01*
X124731784Y-99809577D01*
X124868716Y-99730520D01*
X124980520Y-99618716D01*
X125059577Y-99481784D01*
X125100500Y-99329057D01*
X125100500Y-99170943D01*
X125059577Y-99018216D01*
X125049060Y-99000000D01*
X124980524Y-98881290D01*
X124980518Y-98881282D01*
X124868717Y-98769481D01*
X124868709Y-98769475D01*
X124731790Y-98690426D01*
X124731786Y-98690424D01*
X124731784Y-98690423D01*
X124579057Y-98649500D01*
X124579050Y-98649498D01*
X124571893Y-98648556D01*
X124507997Y-98620287D01*
X124500402Y-98613299D01*
X123526616Y-97639513D01*
X123526614Y-97639511D01*
X123423887Y-97580201D01*
X123423884Y-97580199D01*
X123395054Y-97572475D01*
X123395053Y-97572474D01*
X123395053Y-97572475D01*
X123352180Y-97560987D01*
X123309309Y-97549500D01*
X123309308Y-97549500D01*
X120699931Y-97549500D01*
X120632892Y-97529815D01*
X120624443Y-97523875D01*
X120618709Y-97519475D01*
X120481790Y-97440426D01*
X120481786Y-97440424D01*
X120481784Y-97440423D01*
X120329057Y-97399500D01*
X120170943Y-97399500D01*
X120018216Y-97440423D01*
X120018209Y-97440426D01*
X119881290Y-97519475D01*
X119881282Y-97519481D01*
X119769481Y-97631282D01*
X119769475Y-97631290D01*
X119690426Y-97768209D01*
X119690423Y-97768216D01*
X119649500Y-97920943D01*
X107725500Y-97920943D01*
X107725499Y-97030136D01*
X107725497Y-97030117D01*
X107722586Y-97005012D01*
X107722585Y-97005010D01*
X107722585Y-97005009D01*
X107677206Y-96902235D01*
X107597765Y-96822794D01*
X107597763Y-96822793D01*
X107494992Y-96777415D01*
X107469865Y-96774500D01*
X106530143Y-96774500D01*
X106530117Y-96774502D01*
X106505012Y-96777413D01*
X106505008Y-96777415D01*
X106402235Y-96822793D01*
X106322794Y-96902234D01*
X106277415Y-97005006D01*
X106277415Y-97005008D01*
X106274500Y-97030131D01*
X106274500Y-97969856D01*
X106274502Y-97969882D01*
X106277413Y-97994987D01*
X106277415Y-97994991D01*
X106327435Y-98108276D01*
X106325686Y-98109048D01*
X106342944Y-98162014D01*
X106333559Y-98213110D01*
X106302381Y-98288379D01*
X106302379Y-98288385D01*
X106274500Y-98428542D01*
X106274500Y-98428545D01*
X106274500Y-98571455D01*
X106274500Y-98571457D01*
X106274499Y-98571457D01*
X59000500Y-98571457D01*
X59000500Y-95003246D01*
X59000670Y-94996756D01*
X59006071Y-94893713D01*
X60649500Y-94893713D01*
X60649500Y-95106287D01*
X60682754Y-95316243D01*
X60746741Y-95513175D01*
X60748444Y-95518414D01*
X60844951Y-95707820D01*
X60969890Y-95879786D01*
X61120213Y-96030109D01*
X61292179Y-96155048D01*
X61292181Y-96155049D01*
X61292184Y-96155051D01*
X61481588Y-96251557D01*
X61683757Y-96317246D01*
X61893713Y-96350500D01*
X61893714Y-96350500D01*
X62106286Y-96350500D01*
X62106287Y-96350500D01*
X62316243Y-96317246D01*
X62518412Y-96251557D01*
X62707816Y-96155051D01*
X62779163Y-96103215D01*
X62879786Y-96030109D01*
X62879788Y-96030106D01*
X62879792Y-96030104D01*
X62988953Y-95920943D01*
X102399500Y-95920943D01*
X102399500Y-96079057D01*
X102419863Y-96155051D01*
X102440423Y-96231783D01*
X102440426Y-96231790D01*
X102519475Y-96368709D01*
X102519479Y-96368714D01*
X102519480Y-96368716D01*
X102631284Y-96480520D01*
X102631286Y-96480521D01*
X102631290Y-96480524D01*
X102768209Y-96559573D01*
X102768216Y-96559577D01*
X102920943Y-96600500D01*
X102920945Y-96600500D01*
X103079055Y-96600500D01*
X103079057Y-96600500D01*
X103231784Y-96559577D01*
X103368716Y-96480520D01*
X103368721Y-96480514D01*
X103374443Y-96476125D01*
X103439612Y-96450930D01*
X103449931Y-96450500D01*
X108559308Y-96450500D01*
X108559309Y-96450500D01*
X108649673Y-96426286D01*
X108673887Y-96419799D01*
X108776614Y-96360489D01*
X109000404Y-96136698D01*
X109061725Y-96103215D01*
X109071901Y-96101441D01*
X109079045Y-96100500D01*
X109079057Y-96100500D01*
X109231784Y-96059577D01*
X109368716Y-95980520D01*
X109480520Y-95868716D01*
X109559577Y-95731784D01*
X109600500Y-95579057D01*
X109600500Y-95420943D01*
X109559577Y-95268216D01*
X109559573Y-95268209D01*
X109480524Y-95131290D01*
X109480518Y-95131282D01*
X109368715Y-95019479D01*
X109348359Y-95007727D01*
X109231784Y-94940423D01*
X109079057Y-94899500D01*
X108920943Y-94899500D01*
X108768216Y-94940423D01*
X108768209Y-94940426D01*
X108631290Y-95019475D01*
X108631282Y-95019481D01*
X108519481Y-95131282D01*
X108519475Y-95131290D01*
X108440426Y-95268209D01*
X108440423Y-95268216D01*
X108399498Y-95420948D01*
X108398556Y-95428107D01*
X108389310Y-95449001D01*
X108384455Y-95471333D01*
X108372165Y-95487752D01*
X108370285Y-95492002D01*
X108363306Y-95499589D01*
X108349722Y-95513175D01*
X108288401Y-95546664D01*
X108262034Y-95549500D01*
X103449931Y-95549500D01*
X103382892Y-95529815D01*
X103374443Y-95523875D01*
X103368709Y-95519475D01*
X103231790Y-95440426D01*
X103231786Y-95440424D01*
X103231784Y-95440423D01*
X103079057Y-95399500D01*
X102920943Y-95399500D01*
X102768216Y-95440423D01*
X102768209Y-95440426D01*
X102631290Y-95519475D01*
X102631282Y-95519481D01*
X102519481Y-95631282D01*
X102519475Y-95631290D01*
X102440426Y-95768209D01*
X102440423Y-95768216D01*
X102399500Y-95920943D01*
X62988953Y-95920943D01*
X63030104Y-95879792D01*
X63030108Y-95879786D01*
X63059064Y-95839932D01*
X63059064Y-95839931D01*
X63155051Y-95707816D01*
X63251557Y-95518412D01*
X63317246Y-95316243D01*
X63350500Y-95106287D01*
X63350500Y-94893713D01*
X63317246Y-94683757D01*
X63251557Y-94481588D01*
X63155051Y-94292184D01*
X63155049Y-94292181D01*
X63155048Y-94292179D01*
X63030109Y-94120213D01*
X62879786Y-93969890D01*
X62707820Y-93844951D01*
X62518414Y-93748444D01*
X62518413Y-93748443D01*
X62518412Y-93748443D01*
X62316243Y-93682754D01*
X62316240Y-93682753D01*
X62154957Y-93657208D01*
X62106287Y-93649500D01*
X61893713Y-93649500D01*
X61845042Y-93657208D01*
X61683760Y-93682753D01*
X61481585Y-93748444D01*
X61292179Y-93844951D01*
X61120213Y-93969890D01*
X60969890Y-94120213D01*
X60844951Y-94292179D01*
X60748444Y-94481585D01*
X60682753Y-94683760D01*
X60661620Y-94817190D01*
X60649500Y-94893713D01*
X59006071Y-94893713D01*
X59006666Y-94882351D01*
X59015184Y-94719817D01*
X59015794Y-94712424D01*
X59018264Y-94690500D01*
X59022814Y-94650112D01*
X59023553Y-94644658D01*
X59061850Y-94402860D01*
X59063420Y-94394721D01*
X59076105Y-94339144D01*
X59077172Y-94334844D01*
X59142289Y-94091827D01*
X59145007Y-94083016D01*
X59159943Y-94040331D01*
X59161178Y-94036964D01*
X59255746Y-93790603D01*
X59259762Y-93781305D01*
X59269729Y-93760608D01*
X59270863Y-93758318D01*
X59365090Y-93573389D01*
X85009500Y-93573389D01*
X85009500Y-93746610D01*
X85035934Y-93913512D01*
X85036598Y-93917701D01*
X85090127Y-94082445D01*
X85168768Y-94236788D01*
X85270586Y-94376928D01*
X85393072Y-94499414D01*
X85533212Y-94601232D01*
X85687555Y-94679873D01*
X85852299Y-94733402D01*
X86023389Y-94760500D01*
X86023390Y-94760500D01*
X86196610Y-94760500D01*
X86196611Y-94760500D01*
X86367701Y-94733402D01*
X86532445Y-94679873D01*
X86686788Y-94601232D01*
X86826928Y-94499414D01*
X86949414Y-94376928D01*
X87051232Y-94236788D01*
X87129873Y-94082445D01*
X87157186Y-93998384D01*
X87196622Y-93940711D01*
X87260981Y-93913512D01*
X87329827Y-93925427D01*
X87381303Y-93972671D01*
X87393047Y-93998385D01*
X87445244Y-94159031D01*
X87538140Y-94341349D01*
X87658417Y-94506894D01*
X87658417Y-94506895D01*
X87803104Y-94651582D01*
X87968650Y-94771859D01*
X88150968Y-94864754D01*
X88345578Y-94927988D01*
X88400000Y-94936607D01*
X88400000Y-93975686D01*
X88404394Y-93980080D01*
X88495606Y-94032741D01*
X88597339Y-94060000D01*
X88702661Y-94060000D01*
X88804394Y-94032741D01*
X88895606Y-93980080D01*
X88900000Y-93975686D01*
X88900000Y-94936606D01*
X88954421Y-94927988D01*
X89149031Y-94864754D01*
X89331349Y-94771859D01*
X89496894Y-94651582D01*
X89496895Y-94651582D01*
X89641582Y-94506895D01*
X89641582Y-94506894D01*
X89761859Y-94341349D01*
X89854755Y-94159029D01*
X89906952Y-93998386D01*
X89946389Y-93940710D01*
X90010748Y-93913512D01*
X90079594Y-93925427D01*
X90131070Y-93972671D01*
X90142814Y-93998385D01*
X90170128Y-94082449D01*
X90248767Y-94236786D01*
X90248768Y-94236788D01*
X90350586Y-94376928D01*
X90473072Y-94499414D01*
X90613212Y-94601232D01*
X90767555Y-94679873D01*
X90932299Y-94733402D01*
X91103389Y-94760500D01*
X91103390Y-94760500D01*
X91276610Y-94760500D01*
X91276611Y-94760500D01*
X91447701Y-94733402D01*
X91612445Y-94679873D01*
X91766788Y-94601232D01*
X91906928Y-94499414D01*
X92029414Y-94376928D01*
X92131232Y-94236788D01*
X92209873Y-94082445D01*
X92263402Y-93917701D01*
X92290500Y-93746611D01*
X92290500Y-93573389D01*
X92629500Y-93573389D01*
X92629500Y-93746610D01*
X92655934Y-93913512D01*
X92656598Y-93917701D01*
X92710127Y-94082445D01*
X92788768Y-94236788D01*
X92890586Y-94376928D01*
X93013072Y-94499414D01*
X93153212Y-94601232D01*
X93307555Y-94679873D01*
X93472299Y-94733402D01*
X93643389Y-94760500D01*
X93643390Y-94760500D01*
X93816610Y-94760500D01*
X93816611Y-94760500D01*
X93987701Y-94733402D01*
X94152445Y-94679873D01*
X94306788Y-94601232D01*
X94446928Y-94499414D01*
X94569414Y-94376928D01*
X94671232Y-94236788D01*
X94749873Y-94082445D01*
X94803402Y-93917701D01*
X94830500Y-93746611D01*
X94830500Y-93573389D01*
X95169500Y-93573389D01*
X95169500Y-93746610D01*
X95195934Y-93913512D01*
X95196598Y-93917701D01*
X95250127Y-94082445D01*
X95328768Y-94236788D01*
X95430586Y-94376928D01*
X95553072Y-94499414D01*
X95693212Y-94601232D01*
X95847555Y-94679873D01*
X96012299Y-94733402D01*
X96183389Y-94760500D01*
X96183390Y-94760500D01*
X96356610Y-94760500D01*
X96356611Y-94760500D01*
X96527701Y-94733402D01*
X96692445Y-94679873D01*
X96846788Y-94601232D01*
X96986928Y-94499414D01*
X97109414Y-94376928D01*
X97211232Y-94236788D01*
X97289873Y-94082445D01*
X97343402Y-93917701D01*
X97370500Y-93746611D01*
X97370500Y-93573389D01*
X97709500Y-93573389D01*
X97709500Y-93746610D01*
X97735934Y-93913512D01*
X97736598Y-93917701D01*
X97790127Y-94082445D01*
X97868768Y-94236788D01*
X97970586Y-94376928D01*
X98093072Y-94499414D01*
X98233212Y-94601232D01*
X98387555Y-94679873D01*
X98552299Y-94733402D01*
X98723389Y-94760500D01*
X98723390Y-94760500D01*
X98896610Y-94760500D01*
X98896611Y-94760500D01*
X99067701Y-94733402D01*
X99232445Y-94679873D01*
X99386788Y-94601232D01*
X99526928Y-94499414D01*
X99649414Y-94376928D01*
X99751232Y-94236788D01*
X99829873Y-94082445D01*
X99883402Y-93917701D01*
X99910500Y-93746611D01*
X99910500Y-93573389D01*
X100249500Y-93573389D01*
X100249500Y-93746610D01*
X100275934Y-93913512D01*
X100276598Y-93917701D01*
X100330127Y-94082445D01*
X100408768Y-94236788D01*
X100510586Y-94376928D01*
X100633072Y-94499414D01*
X100773212Y-94601232D01*
X100927555Y-94679873D01*
X101092299Y-94733402D01*
X101263389Y-94760500D01*
X101263390Y-94760500D01*
X101436610Y-94760500D01*
X101436611Y-94760500D01*
X101607701Y-94733402D01*
X101772445Y-94679873D01*
X101926788Y-94601232D01*
X102066928Y-94499414D01*
X102189414Y-94376928D01*
X102291232Y-94236788D01*
X102295047Y-94229299D01*
X102355515Y-94110625D01*
X102403489Y-94059828D01*
X102471310Y-94043033D01*
X102537445Y-94065570D01*
X102580897Y-94120285D01*
X102590000Y-94166919D01*
X102590000Y-94507844D01*
X102596401Y-94567372D01*
X102596403Y-94567379D01*
X102646645Y-94702086D01*
X102646649Y-94702093D01*
X102732809Y-94817187D01*
X102732812Y-94817190D01*
X102847906Y-94903350D01*
X102847913Y-94903354D01*
X102982620Y-94953596D01*
X102982627Y-94953598D01*
X103042155Y-94959999D01*
X103042172Y-94960000D01*
X103640000Y-94960000D01*
X103640000Y-93975686D01*
X103644394Y-93980080D01*
X103735606Y-94032741D01*
X103837339Y-94060000D01*
X103942661Y-94060000D01*
X104044394Y-94032741D01*
X104135606Y-93980080D01*
X104140000Y-93975686D01*
X104140000Y-94960000D01*
X104737828Y-94960000D01*
X104737844Y-94959999D01*
X104797372Y-94953598D01*
X104797379Y-94953596D01*
X104932086Y-94903354D01*
X104932093Y-94903350D01*
X104944966Y-94893713D01*
X140649500Y-94893713D01*
X140649500Y-95106287D01*
X140682754Y-95316243D01*
X140746741Y-95513175D01*
X140748444Y-95518414D01*
X140844951Y-95707820D01*
X140969890Y-95879786D01*
X141120213Y-96030109D01*
X141292179Y-96155048D01*
X141292181Y-96155049D01*
X141292184Y-96155051D01*
X141481588Y-96251557D01*
X141683757Y-96317246D01*
X141893713Y-96350500D01*
X141893714Y-96350500D01*
X142106286Y-96350500D01*
X142106287Y-96350500D01*
X142316243Y-96317246D01*
X142518412Y-96251557D01*
X142707816Y-96155051D01*
X142779163Y-96103215D01*
X142879786Y-96030109D01*
X142879788Y-96030106D01*
X142879792Y-96030104D01*
X143030104Y-95879792D01*
X143030106Y-95879788D01*
X143030109Y-95879786D01*
X143155048Y-95707820D01*
X143155049Y-95707819D01*
X143155051Y-95707816D01*
X143251557Y-95518412D01*
X143317246Y-95316243D01*
X143350500Y-95106287D01*
X143350500Y-94893713D01*
X143317246Y-94683757D01*
X143251557Y-94481588D01*
X143155051Y-94292184D01*
X143155049Y-94292181D01*
X143155048Y-94292179D01*
X143030109Y-94120213D01*
X142879786Y-93969890D01*
X142707820Y-93844951D01*
X142518414Y-93748444D01*
X142518413Y-93748443D01*
X142518412Y-93748443D01*
X142316243Y-93682754D01*
X142316241Y-93682753D01*
X142316240Y-93682753D01*
X142154957Y-93657208D01*
X142106287Y-93649500D01*
X141893713Y-93649500D01*
X141845042Y-93657208D01*
X141683760Y-93682753D01*
X141481585Y-93748444D01*
X141292179Y-93844951D01*
X141120213Y-93969890D01*
X140969890Y-94120213D01*
X140844951Y-94292179D01*
X140748444Y-94481585D01*
X140682753Y-94683760D01*
X140661620Y-94817190D01*
X140649500Y-94893713D01*
X104944966Y-94893713D01*
X105047187Y-94817190D01*
X105047190Y-94817187D01*
X105133350Y-94702093D01*
X105133354Y-94702086D01*
X105183596Y-94567379D01*
X105183598Y-94567372D01*
X105189999Y-94507844D01*
X105190000Y-94507827D01*
X105190000Y-94058995D01*
X120299499Y-94058995D01*
X120326418Y-94194322D01*
X120326421Y-94194332D01*
X120379221Y-94321804D01*
X120379228Y-94321817D01*
X120455885Y-94436541D01*
X120455888Y-94436545D01*
X120553454Y-94534111D01*
X120553458Y-94534114D01*
X120668182Y-94610771D01*
X120668195Y-94610778D01*
X120766706Y-94651582D01*
X120795672Y-94663580D01*
X120795676Y-94663580D01*
X120795677Y-94663581D01*
X120931004Y-94690500D01*
X120931007Y-94690500D01*
X121068995Y-94690500D01*
X121160041Y-94672389D01*
X121204328Y-94663580D01*
X121331811Y-94610775D01*
X121446542Y-94534114D01*
X121544114Y-94436542D01*
X121620775Y-94321811D01*
X121673580Y-94194328D01*
X121688308Y-94120285D01*
X121700500Y-94058995D01*
X123299499Y-94058995D01*
X123326418Y-94194322D01*
X123326421Y-94194332D01*
X123379221Y-94321804D01*
X123379228Y-94321817D01*
X123455885Y-94436541D01*
X123455888Y-94436545D01*
X123553454Y-94534111D01*
X123553458Y-94534114D01*
X123668182Y-94610771D01*
X123668195Y-94610778D01*
X123766706Y-94651582D01*
X123795672Y-94663580D01*
X123795676Y-94663580D01*
X123795677Y-94663581D01*
X123931004Y-94690500D01*
X123931007Y-94690500D01*
X124068995Y-94690500D01*
X124160041Y-94672389D01*
X124204328Y-94663580D01*
X124331811Y-94610775D01*
X124446542Y-94534114D01*
X124544114Y-94436542D01*
X124620775Y-94321811D01*
X124673580Y-94194328D01*
X124688308Y-94120285D01*
X124700500Y-94058995D01*
X124700500Y-93921004D01*
X124673581Y-93785677D01*
X124673580Y-93785676D01*
X124673580Y-93785672D01*
X124663198Y-93760608D01*
X124620778Y-93658195D01*
X124620771Y-93658182D01*
X124544114Y-93543458D01*
X124544111Y-93543454D01*
X124446545Y-93445888D01*
X124446541Y-93445885D01*
X124331817Y-93369228D01*
X124331804Y-93369221D01*
X124204332Y-93316421D01*
X124204322Y-93316418D01*
X124068995Y-93289500D01*
X124068993Y-93289500D01*
X123931007Y-93289500D01*
X123931005Y-93289500D01*
X123795677Y-93316418D01*
X123795667Y-93316421D01*
X123668195Y-93369221D01*
X123668182Y-93369228D01*
X123553458Y-93445885D01*
X123553454Y-93445888D01*
X123455888Y-93543454D01*
X123455885Y-93543458D01*
X123379228Y-93658182D01*
X123379221Y-93658195D01*
X123326421Y-93785667D01*
X123326418Y-93785677D01*
X123299500Y-93921004D01*
X123299500Y-93921007D01*
X123299500Y-94058993D01*
X123299500Y-94058995D01*
X123299499Y-94058995D01*
X121700500Y-94058995D01*
X121700500Y-93921004D01*
X121673581Y-93785677D01*
X121673580Y-93785676D01*
X121673580Y-93785672D01*
X121663198Y-93760608D01*
X121620778Y-93658195D01*
X121620771Y-93658182D01*
X121544114Y-93543458D01*
X121544111Y-93543454D01*
X121446545Y-93445888D01*
X121446541Y-93445885D01*
X121331817Y-93369228D01*
X121331804Y-93369221D01*
X121204332Y-93316421D01*
X121204322Y-93316418D01*
X121068995Y-93289500D01*
X121068993Y-93289500D01*
X120931007Y-93289500D01*
X120931005Y-93289500D01*
X120795677Y-93316418D01*
X120795667Y-93316421D01*
X120668195Y-93369221D01*
X120668182Y-93369228D01*
X120553458Y-93445885D01*
X120553454Y-93445888D01*
X120455888Y-93543454D01*
X120455885Y-93543458D01*
X120379228Y-93658182D01*
X120379221Y-93658195D01*
X120326421Y-93785667D01*
X120326418Y-93785677D01*
X120299500Y-93921004D01*
X120299500Y-93921007D01*
X120299500Y-94058993D01*
X120299500Y-94058995D01*
X120299499Y-94058995D01*
X105190000Y-94058995D01*
X105190000Y-93910000D01*
X104205686Y-93910000D01*
X104210080Y-93905606D01*
X104262741Y-93814394D01*
X104290000Y-93712661D01*
X104290000Y-93607339D01*
X104262741Y-93505606D01*
X104210080Y-93414394D01*
X104205686Y-93410000D01*
X105190000Y-93410000D01*
X105190000Y-92812172D01*
X105189999Y-92812155D01*
X105183598Y-92752627D01*
X105183596Y-92752620D01*
X105133354Y-92617913D01*
X105133350Y-92617906D01*
X105047190Y-92502812D01*
X105047187Y-92502809D01*
X104932093Y-92416649D01*
X104932086Y-92416645D01*
X104797379Y-92366403D01*
X104797372Y-92366401D01*
X104737844Y-92360000D01*
X104140000Y-92360000D01*
X104140000Y-93344314D01*
X104135606Y-93339920D01*
X104044394Y-93287259D01*
X103942661Y-93260000D01*
X103837339Y-93260000D01*
X103735606Y-93287259D01*
X103644394Y-93339920D01*
X103640000Y-93344314D01*
X103640000Y-92360000D01*
X103042155Y-92360000D01*
X102982627Y-92366401D01*
X102982620Y-92366403D01*
X102847913Y-92416645D01*
X102847906Y-92416649D01*
X102732812Y-92502809D01*
X102732809Y-92502812D01*
X102646649Y-92617906D01*
X102646645Y-92617913D01*
X102596403Y-92752620D01*
X102596401Y-92752627D01*
X102590000Y-92812155D01*
X102590000Y-93153080D01*
X102570315Y-93220119D01*
X102517511Y-93265874D01*
X102448353Y-93275818D01*
X102384797Y-93246793D01*
X102355515Y-93209375D01*
X102291231Y-93083211D01*
X102189414Y-92943072D01*
X102066928Y-92820586D01*
X101926788Y-92718768D01*
X101772445Y-92640127D01*
X101607701Y-92586598D01*
X101607699Y-92586597D01*
X101607698Y-92586597D01*
X101476271Y-92565781D01*
X101436611Y-92559500D01*
X101263389Y-92559500D01*
X101223728Y-92565781D01*
X101092302Y-92586597D01*
X100927552Y-92640128D01*
X100773211Y-92718768D01*
X100726609Y-92752627D01*
X100633072Y-92820586D01*
X100633070Y-92820588D01*
X100633069Y-92820588D01*
X100510588Y-92943069D01*
X100510588Y-92943070D01*
X100510586Y-92943072D01*
X100470686Y-92997989D01*
X100408768Y-93083211D01*
X100330128Y-93237552D01*
X100330127Y-93237554D01*
X100330127Y-93237555D01*
X100313977Y-93287259D01*
X100276597Y-93402302D01*
X100249500Y-93573389D01*
X99910500Y-93573389D01*
X99883402Y-93402299D01*
X99829873Y-93237555D01*
X99751232Y-93083212D01*
X99649414Y-92943072D01*
X99526928Y-92820586D01*
X99386788Y-92718768D01*
X99232445Y-92640127D01*
X99067701Y-92586598D01*
X99067699Y-92586597D01*
X99067698Y-92586597D01*
X98936271Y-92565781D01*
X98896611Y-92559500D01*
X98723389Y-92559500D01*
X98683728Y-92565781D01*
X98552302Y-92586597D01*
X98387552Y-92640128D01*
X98233211Y-92718768D01*
X98186609Y-92752627D01*
X98093072Y-92820586D01*
X98093070Y-92820588D01*
X98093069Y-92820588D01*
X97970588Y-92943069D01*
X97970588Y-92943070D01*
X97970586Y-92943072D01*
X97930686Y-92997989D01*
X97868768Y-93083211D01*
X97790128Y-93237552D01*
X97790127Y-93237554D01*
X97790127Y-93237555D01*
X97773977Y-93287259D01*
X97736597Y-93402302D01*
X97709500Y-93573389D01*
X97370500Y-93573389D01*
X97343402Y-93402299D01*
X97289873Y-93237555D01*
X97211232Y-93083212D01*
X97109414Y-92943072D01*
X96986928Y-92820586D01*
X96846788Y-92718768D01*
X96692445Y-92640127D01*
X96527701Y-92586598D01*
X96527699Y-92586597D01*
X96527698Y-92586597D01*
X96396271Y-92565781D01*
X96356611Y-92559500D01*
X96183389Y-92559500D01*
X96143728Y-92565781D01*
X96012302Y-92586597D01*
X95847552Y-92640128D01*
X95693211Y-92718768D01*
X95646609Y-92752627D01*
X95553072Y-92820586D01*
X95553070Y-92820588D01*
X95553069Y-92820588D01*
X95430588Y-92943069D01*
X95430588Y-92943070D01*
X95430586Y-92943072D01*
X95390686Y-92997989D01*
X95328768Y-93083211D01*
X95250128Y-93237552D01*
X95250127Y-93237554D01*
X95250127Y-93237555D01*
X95233977Y-93287259D01*
X95196597Y-93402302D01*
X95169500Y-93573389D01*
X94830500Y-93573389D01*
X94803402Y-93402299D01*
X94749873Y-93237555D01*
X94671232Y-93083212D01*
X94569414Y-92943072D01*
X94446928Y-92820586D01*
X94306788Y-92718768D01*
X94152445Y-92640127D01*
X93987701Y-92586598D01*
X93987699Y-92586597D01*
X93987698Y-92586597D01*
X93856271Y-92565781D01*
X93816611Y-92559500D01*
X93643389Y-92559500D01*
X93603728Y-92565781D01*
X93472302Y-92586597D01*
X93307552Y-92640128D01*
X93153211Y-92718768D01*
X93106609Y-92752627D01*
X93013072Y-92820586D01*
X93013070Y-92820588D01*
X93013069Y-92820588D01*
X92890588Y-92943069D01*
X92890588Y-92943070D01*
X92890586Y-92943072D01*
X92850686Y-92997989D01*
X92788768Y-93083211D01*
X92710128Y-93237552D01*
X92710127Y-93237554D01*
X92710127Y-93237555D01*
X92693977Y-93287259D01*
X92656597Y-93402302D01*
X92629500Y-93573389D01*
X92290500Y-93573389D01*
X92263402Y-93402299D01*
X92209873Y-93237555D01*
X92131232Y-93083212D01*
X92029414Y-92943072D01*
X91906928Y-92820586D01*
X91766788Y-92718768D01*
X91612445Y-92640127D01*
X91447701Y-92586598D01*
X91447699Y-92586597D01*
X91447698Y-92586597D01*
X91316271Y-92565781D01*
X91276611Y-92559500D01*
X91103389Y-92559500D01*
X91063728Y-92565781D01*
X90932302Y-92586597D01*
X90767552Y-92640128D01*
X90613211Y-92718768D01*
X90566609Y-92752627D01*
X90473072Y-92820586D01*
X90473070Y-92820588D01*
X90473069Y-92820588D01*
X90350588Y-92943069D01*
X90350588Y-92943070D01*
X90350586Y-92943072D01*
X90310686Y-92997989D01*
X90248768Y-93083211D01*
X90170129Y-93237549D01*
X90170127Y-93237554D01*
X90170127Y-93237555D01*
X90153977Y-93287259D01*
X90142814Y-93321615D01*
X90103375Y-93379290D01*
X90039016Y-93406487D01*
X89970170Y-93394572D01*
X89918695Y-93347327D01*
X89906952Y-93321613D01*
X89854755Y-93160970D01*
X89761859Y-92978650D01*
X89641582Y-92813105D01*
X89641582Y-92813104D01*
X89496895Y-92668417D01*
X89331349Y-92548140D01*
X89149029Y-92455244D01*
X88954413Y-92392009D01*
X88900000Y-92383390D01*
X88900000Y-93344314D01*
X88895606Y-93339920D01*
X88804394Y-93287259D01*
X88702661Y-93260000D01*
X88597339Y-93260000D01*
X88495606Y-93287259D01*
X88404394Y-93339920D01*
X88400000Y-93344314D01*
X88400000Y-92383390D01*
X88345586Y-92392009D01*
X88150970Y-92455244D01*
X87968650Y-92548140D01*
X87803105Y-92668417D01*
X87803104Y-92668417D01*
X87658417Y-92813104D01*
X87658417Y-92813105D01*
X87538140Y-92978650D01*
X87445244Y-93160968D01*
X87393047Y-93321614D01*
X87353609Y-93379289D01*
X87289250Y-93406487D01*
X87220404Y-93394572D01*
X87168928Y-93347328D01*
X87157186Y-93321615D01*
X87129873Y-93237555D01*
X87051232Y-93083212D01*
X86949414Y-92943072D01*
X86826928Y-92820586D01*
X86686788Y-92718768D01*
X86532445Y-92640127D01*
X86367701Y-92586598D01*
X86367699Y-92586597D01*
X86367698Y-92586597D01*
X86236271Y-92565781D01*
X86196611Y-92559500D01*
X86023389Y-92559500D01*
X85983728Y-92565781D01*
X85852302Y-92586597D01*
X85687552Y-92640128D01*
X85533211Y-92718768D01*
X85486609Y-92752627D01*
X85393072Y-92820586D01*
X85393070Y-92820588D01*
X85393069Y-92820588D01*
X85270588Y-92943069D01*
X85270588Y-92943070D01*
X85270586Y-92943072D01*
X85230686Y-92997989D01*
X85168768Y-93083211D01*
X85090128Y-93237552D01*
X85090127Y-93237554D01*
X85090127Y-93237555D01*
X85073977Y-93287259D01*
X85036597Y-93402302D01*
X85009500Y-93573389D01*
X59365090Y-93573389D01*
X59399415Y-93506023D01*
X59405891Y-93494808D01*
X59569819Y-93242380D01*
X59577434Y-93231899D01*
X59766858Y-92997979D01*
X59775525Y-92988354D01*
X59988354Y-92775525D01*
X59997979Y-92766858D01*
X60231899Y-92577434D01*
X60242380Y-92569819D01*
X60494808Y-92405891D01*
X60506023Y-92399415D01*
X60758318Y-92270863D01*
X60760608Y-92269729D01*
X60781305Y-92259762D01*
X60790603Y-92255746D01*
X61036964Y-92161178D01*
X61040331Y-92159943D01*
X61083016Y-92145007D01*
X61091827Y-92142289D01*
X61334844Y-92077172D01*
X61339144Y-92076105D01*
X61394721Y-92063420D01*
X61402860Y-92061850D01*
X61644658Y-92023553D01*
X61650112Y-92022814D01*
X61712430Y-92015793D01*
X61719811Y-92015184D01*
X61996756Y-92000669D01*
X62003246Y-92000500D01*
X141996754Y-92000500D01*
X142003243Y-92000669D01*
G37*
%TD.AperFunction*%
%TD*%
M02*
