M48
; DRILL file {KiCad 9.0.2} date 2026-02-02T21:35:33+0100
; FORMAT={-:-/ absolute / metric / decimal}
; #@! TF.CreationDate,2026-02-02T21:35:33+01:00
; #@! TF.GenerationSoftware,Kicad,Pcbnew,9.0.2
; #@! TF.FileFunction,MixedPlating,1,2
FMAT,2
METRIC
; #@! TA.AperFunction,Plated,PTH,ViaDrill
T1C0.300
; #@! TA.AperFunction,Plated,PTH,ComponentDrill
T2C0.500
; #@! TA.AperFunction,Plated,PTH,ViaDrill
T3C0.600
; #@! TA.AperFunction,Plated,PTH,ComponentDrill
T4C0.800
; #@! TA.AperFunction,Plated,PTH,ComponentDrill
T5C1.000
; #@! TA.AperFunction,Plated,PTH,ComponentDrill
T6C1.100
; #@! TA.AperFunction,NonPlated,NPTH,ComponentDrill
T7C0.900
; #@! TA.AperFunction,NonPlated,NPTH,ComponentDrill
T8C2.200
%
G90
G05
T1
X68.25Y-137.5
X69.0Y-98.0
X69.0Y-106.25
X70.0Y-117.5
X70.25Y-128.0
X75.5Y-144.0
X79.0Y-98.0
X79.0Y-118.0
X79.0Y-128.0
X79.0Y-138.0
X89.0Y-108.0
X89.0Y-118.0
X89.0Y-128.0
X89.0Y-138.0
X93.45Y-135.2
X94.45Y-135.2
X97.5Y-131.75
X99.0Y-101.5
X99.0Y-108.0
X99.0Y-118.0
X99.0Y-128.0
X99.0Y-138.0
X99.2Y-134.95
X99.2Y-136.2
X99.2Y-136.95
X99.2Y-138.7
X99.2Y-139.45
X101.0Y-145.75
X103.0Y-96.0
X105.5Y-123.0
X106.5Y-124.0
X107.25Y-125.5
X108.25Y-117.5
X108.75Y-127.5
X109.0Y-95.5
X109.75Y-108.25
X109.95Y-118.58
X110.0Y-98.0
X110.5Y-129.75
X111.0Y-128.0
X112.5Y-114.88
X114.0Y-119.98
X115.5Y-112.75
X116.5Y-113.75
X117.75Y-112.5
X118.5Y-105.0
X118.5Y-121.0
X118.75Y-97.75
X119.0Y-118.15
X119.0Y-129.0
X119.0Y-138.0
X119.475Y-122.775
X119.5Y-119.25
X119.5Y-120.25
X120.25Y-98.0
X120.25Y-114.25
X120.5Y-116.75
X124.5Y-99.25
X124.75Y-97.0
X125.0Y-121.5
X125.0Y-131.0
X125.0Y-132.0
X125.507Y-122.96
X125.708Y-115.792
X126.5Y-123.0
X126.75Y-104.0
X126.75Y-115.0
X129.0Y-98.0
X129.0Y-128.0
X130.25Y-115.675
X130.5Y-142.0
X131.0Y-118.0
X132.0Y-138.0
X133.0Y-140.25
X133.5Y-116.25
X136.0Y-131.75
X139.0Y-98.0
X139.0Y-108.0
X139.0Y-118.0
X139.0Y-128.0
T2
X107.0Y-97.5
X107.0Y-98.5
X107.0Y-99.5
X107.0Y-100.5
X118.0Y-100.25
X118.0Y-101.25
X118.0Y-102.25
X118.0Y-103.25
X122.75Y-102.25
X123.75Y-102.25
X124.75Y-102.25
X125.75Y-102.25
X126.5Y-130.0
X126.5Y-131.0
X126.5Y-132.0
X128.0Y-102.25
X129.0Y-102.25
X130.0Y-102.25
X130.5Y-132.5
X130.5Y-133.5
X130.5Y-134.5
X130.5Y-135.5
X131.0Y-102.25
T3
X62.5Y-131.25
X63.5Y-131.25
X64.5Y-131.25
X69.75Y-145.0
X70.75Y-145.25
X71.75Y-145.0
X78.5Y-105.0
X79.5Y-105.0
X80.0Y-142.75
X81.0Y-142.75
X82.0Y-142.75
X88.0Y-95.25
X89.0Y-95.25
X106.0Y-92.96
X106.0Y-94.54
X106.75Y-127.75
X106.75Y-128.75
T4
X70.5Y-140.0
X70.5Y-143.5
X75.5Y-103.5
X79.0Y-103.5
X86.11Y-93.66
X86.11Y-106.36
X88.65Y-93.66
X88.65Y-106.36
X91.19Y-93.66
X91.19Y-106.36
X93.73Y-93.66
X93.73Y-106.36
X96.27Y-93.66
X96.27Y-106.36
X98.81Y-93.66
X98.81Y-106.36
X101.35Y-93.66
X101.35Y-106.36
X103.61Y-133.14
X103.61Y-145.84
X103.89Y-93.66
X103.89Y-106.36
X106.15Y-133.14
X106.15Y-145.84
X108.69Y-133.14
X108.69Y-145.84
X111.23Y-133.14
X111.23Y-145.84
X113.77Y-133.14
X113.77Y-145.84
X116.31Y-133.14
X116.31Y-145.84
X118.85Y-133.14
X118.85Y-145.84
X121.39Y-133.14
X121.39Y-145.84
X128.0Y-141.75
X128.0Y-145.25
T5
X63.442Y-128.4
X63.5Y-110.5
X104.442Y-128.4
X104.5Y-110.5
T6
X109.75Y-99.75
X109.75Y-106.25
X114.25Y-99.75
X114.25Y-106.25
T7
X121.0Y-93.99
X124.0Y-93.99
X138.725Y-116.55
X138.725Y-120.95
T8
X62.0Y-95.0
X62.0Y-145.0
X142.0Y-95.0
X142.0Y-145.0
T5
G00X80.292Y-133.5
M15
G01X82.292Y-133.5
M16
G05
G00X80.292Y-139.5
M15
G01X82.292Y-139.5
M16
G05
G00X85.992Y-137.5
M15
G01X85.992Y-135.5
M16
G05
M30
