%TF.GenerationSoftware,KiCad,Pcbnew,9.0.2*%
%TF.CreationDate,2026-02-02T21:35:46+01:00*%
%TF.ProjectId,rubiks-cub,72756269-6b73-42d6-9375-622e6b696361,rev?*%
%TF.SameCoordinates,Original*%
%TF.FileFunction,Soldermask,Bot*%
%TF.FilePolarity,Negative*%
%FSLAX46Y46*%
G04 Gerber Fmt 4.6, Leading zero omitted, Abs format (unit mm)*
G04 Created by KiCad (PCBNEW 9.0.2) date 2026-02-02 21:35:46*
%MOMM*%
%LPD*%
G01*
G04 APERTURE LIST*
G04 Aperture macros list*
%AMRoundRect*
0 Rectangle with rounded corners*
0 $1 Rounding radius*
0 $2 $3 $4 $5 $6 $7 $8 $9 X,Y pos of 4 corners*
0 Add a 4 corners polygon primitive as box body*
4,1,4,$2,$3,$4,$5,$6,$7,$8,$9,$2,$3,0*
0 Add four circle primitives for the rounded corners*
1,1,$1+$1,$2,$3*
1,1,$1+$1,$4,$5*
1,1,$1+$1,$6,$7*
1,1,$1+$1,$8,$9*
0 Add four rect primitives between the rounded corners*
20,1,$1+$1,$2,$3,$4,$5,0*
20,1,$1+$1,$4,$5,$6,$7,0*
20,1,$1+$1,$6,$7,$8,$9,0*
20,1,$1+$1,$8,$9,$2,$3,0*%
G04 Aperture macros list end*
%ADD10C,1.600000*%
%ADD11R,1.700000X1.700000*%
%ADD12C,2.200000*%
%ADD13C,0.900000*%
%ADD14R,0.850000X0.850000*%
%ADD15C,0.850000*%
%ADD16R,3.500000X3.500000*%
%ADD17RoundRect,0.750000X1.000000X-0.750000X1.000000X0.750000X-1.000000X0.750000X-1.000000X-0.750000X0*%
%ADD18RoundRect,0.875000X0.875000X-0.875000X0.875000X0.875000X-0.875000X0.875000X-0.875000X-0.875000X0*%
%ADD19R,1.600000X1.600000*%
%ADD20O,1.600000X1.600000*%
%ADD21C,2.000000*%
G04 APERTURE END LIST*
D10*
%TO.C,C14*%
X70500000Y-140000000D03*
X70500000Y-143500000D03*
%TD*%
D11*
%TO.C,J14*%
X104500000Y-110500000D03*
%TD*%
D12*
%TO.C,H2*%
X142000000Y-95000000D03*
%TD*%
%TO.C,H4*%
X142000000Y-145000000D03*
%TD*%
D13*
%TO.C,J1*%
X138725000Y-120950000D03*
X138725000Y-116550000D03*
%TD*%
D14*
%TO.C,J2*%
X131000000Y-102250000D03*
D15*
X130000000Y-102250000D03*
X129000000Y-102250000D03*
X128000000Y-102250000D03*
%TD*%
D10*
%TO.C,C15*%
X79000000Y-103500000D03*
X75500000Y-103500000D03*
%TD*%
D14*
%TO.C,J12*%
X126500000Y-130000000D03*
D15*
X126500000Y-131000000D03*
X126500000Y-132000000D03*
%TD*%
D14*
%TO.C,J3*%
X122750000Y-102250000D03*
D15*
X123750000Y-102250000D03*
X124750000Y-102250000D03*
X125750000Y-102250000D03*
%TD*%
D16*
%TO.C,J5*%
X81292500Y-133500000D03*
D17*
X81292500Y-139500000D03*
D18*
X85992500Y-136500000D03*
%TD*%
D14*
%TO.C,J4*%
X118000000Y-100250000D03*
D15*
X118000000Y-101250000D03*
X118000000Y-102250000D03*
X118000000Y-103250000D03*
%TD*%
D19*
%TO.C,A2*%
X103610000Y-145840000D03*
D20*
X106150000Y-145840000D03*
X108690000Y-145840000D03*
X111230000Y-145840000D03*
X113770000Y-145840000D03*
X116310000Y-145840000D03*
X118850000Y-145840000D03*
X121390000Y-145840000D03*
X121390000Y-133140000D03*
X118850000Y-133140000D03*
X116310000Y-133140000D03*
X113770000Y-133140000D03*
X111230000Y-133140000D03*
X108690000Y-133140000D03*
X106150000Y-133140000D03*
X103610000Y-133140000D03*
%TD*%
D19*
%TO.C,A1*%
X103890000Y-93660000D03*
D20*
X101350000Y-93660000D03*
X98810000Y-93660000D03*
X96270000Y-93660000D03*
X93730000Y-93660000D03*
X91190000Y-93660000D03*
X88650000Y-93660000D03*
X86110000Y-93660000D03*
X86110000Y-106360000D03*
X88650000Y-106360000D03*
X91190000Y-106360000D03*
X93730000Y-106360000D03*
X96270000Y-106360000D03*
X98810000Y-106360000D03*
X101350000Y-106360000D03*
X103890000Y-106360000D03*
%TD*%
D11*
%TO.C,J15*%
X63442500Y-128400000D03*
%TD*%
%TO.C,J6*%
X63500000Y-110500000D03*
%TD*%
D12*
%TO.C,H3*%
X62000000Y-145000000D03*
%TD*%
D11*
%TO.C,J13*%
X104442500Y-128400000D03*
%TD*%
D21*
%TO.C,SW2*%
X109750000Y-106250000D03*
X109750000Y-99750000D03*
X114250000Y-106250000D03*
X114250000Y-99750000D03*
%TD*%
D14*
%TO.C,J9*%
X107000000Y-97500000D03*
D15*
X107000000Y-98500000D03*
X107000000Y-99500000D03*
X107000000Y-100500000D03*
%TD*%
D13*
%TO.C,SW1*%
X124000000Y-93990000D03*
X121000000Y-93990000D03*
%TD*%
D10*
%TO.C,C18*%
X128000000Y-141750000D03*
X128000000Y-145250000D03*
%TD*%
D14*
%TO.C,J16*%
X130500000Y-132500000D03*
D15*
X130500000Y-133500000D03*
X130500000Y-134500000D03*
X130500000Y-135500000D03*
%TD*%
D12*
%TO.C,H1*%
X62000000Y-95000000D03*
%TD*%
M02*
