%TF.GenerationSoftware,KiCad,Pcbnew,9.0.2*%
%TF.CreationDate,2026-02-02T21:35:46+01:00*%
%TF.ProjectId,rubiks-cub,72756269-6b73-42d6-9375-622e6b696361,rev?*%
%TF.SameCoordinates,Original*%
%TF.FileFunction,Paste,Top*%
%TF.FilePolarity,Positive*%
%FSLAX46Y46*%
G04 Gerber Fmt 4.6, Leading zero omitted, Abs format (unit mm)*
G04 Created by KiCad (PCBNEW 9.0.2) date 2026-02-02 21:35:46*
%MOMM*%
%LPD*%
G01*
G04 APERTURE LIST*
G04 Aperture macros list*
%AMRoundRect*
0 Rectangle with rounded corners*
0 $1 Rounding radius*
0 $2 $3 $4 $5 $6 $7 $8 $9 X,Y pos of 4 corners*
0 Add a 4 corners polygon primitive as box body*
4,1,4,$2,$3,$4,$5,$6,$7,$8,$9,$2,$3,0*
0 Add four circle primitives for the rounded corners*
1,1,$1+$1,$2,$3*
1,1,$1+$1,$4,$5*
1,1,$1+$1,$6,$7*
1,1,$1+$1,$8,$9*
0 Add four rect primitives between the rounded corners*
20,1,$1+$1,$2,$3,$4,$5,0*
20,1,$1+$1,$4,$5,$6,$7,0*
20,1,$1+$1,$6,$7,$8,$9,0*
20,1,$1+$1,$8,$9,$2,$3,0*%
G04 Aperture macros list end*
%ADD10RoundRect,0.135000X-0.185000X0.135000X-0.185000X-0.135000X0.185000X-0.135000X0.185000X0.135000X0*%
%ADD11RoundRect,0.140000X0.140000X0.170000X-0.140000X0.170000X-0.140000X-0.170000X0.140000X-0.170000X0*%
%ADD12RoundRect,0.140000X0.170000X-0.140000X0.170000X0.140000X-0.170000X0.140000X-0.170000X-0.140000X0*%
%ADD13RoundRect,0.075000X-0.700000X-0.075000X0.700000X-0.075000X0.700000X0.075000X-0.700000X0.075000X0*%
%ADD14RoundRect,0.075000X-0.075000X-0.700000X0.075000X-0.700000X0.075000X0.700000X-0.075000X0.700000X0*%
%ADD15RoundRect,0.140000X-0.170000X0.140000X-0.170000X-0.140000X0.170000X-0.140000X0.170000X0.140000X0*%
%ADD16RoundRect,0.218750X0.218750X0.256250X-0.218750X0.256250X-0.218750X-0.256250X0.218750X-0.256250X0*%
%ADD17RoundRect,0.225000X-0.225000X-0.250000X0.225000X-0.250000X0.225000X0.250000X-0.225000X0.250000X0*%
%ADD18RoundRect,0.250000X-0.350000X0.450000X-0.350000X-0.450000X0.350000X-0.450000X0.350000X0.450000X0*%
%ADD19RoundRect,0.135000X-0.135000X-0.185000X0.135000X-0.185000X0.135000X0.185000X-0.135000X0.185000X0*%
%ADD20RoundRect,0.250000X-0.250000X-0.475000X0.250000X-0.475000X0.250000X0.475000X-0.250000X0.475000X0*%
%ADD21R,2.500000X0.500000*%
%ADD22R,2.500000X2.000000*%
%ADD23RoundRect,0.250000X-1.000000X-0.650000X1.000000X-0.650000X1.000000X0.650000X-1.000000X0.650000X0*%
%ADD24RoundRect,0.375000X-0.375000X0.625000X-0.375000X-0.625000X0.375000X-0.625000X0.375000X0.625000X0*%
%ADD25RoundRect,0.500000X-1.400000X0.500000X-1.400000X-0.500000X1.400000X-0.500000X1.400000X0.500000X0*%
%ADD26RoundRect,0.225000X-0.250000X0.225000X-0.250000X-0.225000X0.250000X-0.225000X0.250000X0.225000X0*%
%ADD27RoundRect,0.140000X-0.140000X-0.170000X0.140000X-0.170000X0.140000X0.170000X-0.140000X0.170000X0*%
%ADD28R,1.000000X0.800000*%
%ADD29R,0.700000X1.500000*%
%ADD30RoundRect,0.218750X0.256250X-0.218750X0.256250X0.218750X-0.256250X0.218750X-0.256250X-0.218750X0*%
G04 APERTURE END LIST*
D10*
%TO.C,R3*%
X120800000Y-105990000D03*
X120800000Y-107010000D03*
%TD*%
D11*
%TO.C,C8*%
X115280000Y-124600000D03*
X114320000Y-124600000D03*
%TD*%
D12*
%TO.C,C6*%
X115400000Y-121280000D03*
X115400000Y-120320000D03*
%TD*%
D10*
%TO.C,R2*%
X132000000Y-114990000D03*
X132000000Y-116010000D03*
%TD*%
D13*
%TO.C,U1*%
X117050000Y-114800000D03*
X117050000Y-115300000D03*
X117050000Y-115800000D03*
X117050000Y-116300000D03*
X117050000Y-116800000D03*
X117050000Y-117300000D03*
X117050000Y-117800000D03*
X117050000Y-118300000D03*
X117050000Y-118800000D03*
X117050000Y-119300000D03*
X117050000Y-119800000D03*
X117050000Y-120300000D03*
X117050000Y-120800000D03*
X117050000Y-121300000D03*
X117050000Y-121800000D03*
X117050000Y-122300000D03*
D14*
X118975000Y-124225000D03*
X119475000Y-124225000D03*
X119975000Y-124225000D03*
X120475000Y-124225000D03*
X120975000Y-124225000D03*
X121475000Y-124225000D03*
X121975000Y-124225000D03*
X122475000Y-124225000D03*
X122975000Y-124225000D03*
X123475000Y-124225000D03*
X123975000Y-124225000D03*
X124475000Y-124225000D03*
X124975000Y-124225000D03*
X125475000Y-124225000D03*
X125975000Y-124225000D03*
X126475000Y-124225000D03*
D13*
X128400000Y-122300000D03*
X128400000Y-121800000D03*
X128400000Y-121300000D03*
X128400000Y-120800000D03*
X128400000Y-120300000D03*
X128400000Y-119800000D03*
X128400000Y-119300000D03*
X128400000Y-118800000D03*
X128400000Y-118300000D03*
X128400000Y-117800000D03*
X128400000Y-117300000D03*
X128400000Y-116800000D03*
X128400000Y-116300000D03*
X128400000Y-115800000D03*
X128400000Y-115300000D03*
X128400000Y-114800000D03*
D14*
X126475000Y-112875000D03*
X125975000Y-112875000D03*
X125475000Y-112875000D03*
X124975000Y-112875000D03*
X124475000Y-112875000D03*
X123975000Y-112875000D03*
X123475000Y-112875000D03*
X122975000Y-112875000D03*
X122475000Y-112875000D03*
X121975000Y-112875000D03*
X121475000Y-112875000D03*
X120975000Y-112875000D03*
X120475000Y-112875000D03*
X119975000Y-112875000D03*
X119475000Y-112875000D03*
X118975000Y-112875000D03*
%TD*%
D15*
%TO.C,C3*%
X130250000Y-113770000D03*
X130250000Y-114730000D03*
%TD*%
D16*
%TO.C,D1*%
X96387500Y-133950000D03*
X94812500Y-133950000D03*
%TD*%
D17*
%TO.C,C5*%
X127725000Y-124750000D03*
X129275000Y-124750000D03*
%TD*%
D18*
%TO.C,Y1*%
X111300000Y-116380000D03*
X111300000Y-118580000D03*
X113000000Y-118580000D03*
X113000000Y-116380000D03*
%TD*%
D19*
%TO.C,R6*%
X118490000Y-107000000D03*
X119510000Y-107000000D03*
%TD*%
D20*
%TO.C,C13*%
X96050000Y-136650000D03*
X97950000Y-136650000D03*
%TD*%
D21*
%TO.C,J1*%
X136125000Y-120350000D03*
X136125000Y-119550000D03*
X136125000Y-118750000D03*
X136125000Y-117950000D03*
X136125000Y-117150000D03*
D22*
X136125000Y-123150000D03*
X141625000Y-123150000D03*
X136125000Y-114350000D03*
X141625000Y-114350000D03*
%TD*%
D23*
%TO.C,D2*%
X69000000Y-134250000D03*
X73000000Y-134250000D03*
%TD*%
D12*
%TO.C,C1*%
X115250000Y-114710000D03*
X115250000Y-113750000D03*
%TD*%
D11*
%TO.C,C16*%
X120230000Y-126000000D03*
X119270000Y-126000000D03*
%TD*%
D24*
%TO.C,U2*%
X97300000Y-139100000D03*
X95000000Y-139100000D03*
D25*
X95000000Y-145400000D03*
D24*
X92700000Y-139100000D03*
%TD*%
D20*
%TO.C,C12*%
X92000000Y-136650000D03*
X93900000Y-136650000D03*
%TD*%
D10*
%TO.C,R1*%
X122000000Y-106490000D03*
X122000000Y-107510000D03*
%TD*%
D15*
%TO.C,C2*%
X127500000Y-126020000D03*
X127500000Y-126980000D03*
%TD*%
D26*
%TO.C,C17*%
X126225000Y-126250000D03*
X126225000Y-127800000D03*
%TD*%
D27*
%TO.C,C4*%
X118270000Y-111000000D03*
X119230000Y-111000000D03*
%TD*%
D28*
%TO.C,SW1*%
X126150000Y-95100000D03*
X126150000Y-92890000D03*
X118850000Y-95100000D03*
X118850000Y-92890000D03*
D29*
X124750000Y-95750000D03*
X121750000Y-95750000D03*
X120250000Y-95750000D03*
%TD*%
D10*
%TO.C,R4*%
X98000000Y-133540000D03*
X98000000Y-134560000D03*
%TD*%
D15*
%TO.C,C11*%
X114750000Y-118000000D03*
X114750000Y-118960000D03*
%TD*%
D12*
%TO.C,C10*%
X114750000Y-116960000D03*
X114750000Y-116000000D03*
%TD*%
D11*
%TO.C,C7*%
X115280000Y-123400000D03*
X114320000Y-123400000D03*
%TD*%
D30*
%TO.C,FB1*%
X116600000Y-125287500D03*
X116600000Y-123712500D03*
%TD*%
D11*
%TO.C,C9*%
X112680000Y-97400000D03*
X111720000Y-97400000D03*
%TD*%
M02*
